<?xml version="1.0" encoding="UTF-8" standalone="no"?>
<svg width="422px" height="665px" viewBox="0 0 422 665" version="1.1" xmlns="http://www.w3.org/2000/svg" xmlns:xlink="http://www.w3.org/1999/xlink">
    <!-- Generator: Sketch 3.6.1 (26313) - http://www.bohemiancoding.com/sketch -->
    <title>Artboard 1 Copy 3</title>
    <desc>Created with Sketch.</desc>
    <defs></defs>
    <g id="Page-1" stroke="none" stroke-width="1" fill="none" fill-rule="evenodd">
        <g id="Artboard-1-Copy-3">
            <g id="Group-4" transform="translate(210.500000, 77.000000) rotate(-270.000000) translate(-210.500000, -77.000000) translate(182.500000, 71.500000)" fill="#363636">
                <rect id="Rectangle-3" transform="translate(25.750000, 5.500000) rotate(-90.000000) translate(-25.750000, -5.500000) " x="25.25" y="-20.25" width="1" height="51.5"></rect>
                <path d="M47.4497475,2.05025253 L54.4497475,2.05025253 L47.4497475,9.05025253 L47.4497475,2.05025253 Z" id="Rectangle-61" transform="translate(50.949747, 5.550253) rotate(-225.000000) translate(-50.949747, -5.550253) "></path>
            </g>
            <rect id="Rectangle-1" fill="#5DC372" x="156" y="13" width="110" height="40"></rect>
            <rect id="Rectangle-1" stroke="#363636" fill="#FFFFFF" x="154" y="11" width="110" height="40"></rect>
            <text id="Add-items-to-" font-family="Roboto-Medium, Roboto" font-size="11" font-weight="400" fill="#000000">
                <tspan x="179.62207" y="28">Add items to </tspan>
                <tspan x="179.356201" y="41">shopping list</tspan>
            </text>
            <g id="Group-5" transform="translate(203.000000, 207.000000)" fill="#363636">
                <path d="M1.94974747,63.4497475 L8.94974747,63.4497475 L1.94974747,70.4497475 L1.94974747,63.4497475 Z" id="Rectangle-61" transform="translate(5.449747, 66.949747) rotate(-135.000000) translate(-5.449747, -66.949747) "></path>
                <rect id="Rectangle-3" x="5" y="0" width="1" height="68"></rect>
            </g>
            <rect id="Rectangle-1" fill="#5DC372" x="157" y="169" width="110" height="40"></rect>
            <rect id="Rectangle-1" stroke="#363636" fill="#FFFFFF" x="155" y="167" width="110" height="40"></rect>
            <text id="View-map" font-family="Roboto-Medium, Roboto" font-size="11" font-weight="400" fill="#000000">
                <tspan x="186.270996" y="190">View map</tspan>
            </text>
            <text id="Find-item" font-family="Roboto-Medium, Roboto" font-size="11" font-weight="400" fill="#000000">
                <tspan x="219.070801" y="245">Find item</tspan>
            </text>
            <text id="Go-to-store" font-family="Roboto-Medium, Roboto" font-size="11" font-weight="400" fill="#000000">
                <tspan x="220.241699" y="82">Go to store</tspan>
            </text>
            <g id="Group-3" transform="translate(204.000000, 495.000000)" fill="#363636">
                <path d="M1.94974747,52.4497475 L8.94974747,52.4497475 L1.94974747,59.4497475 L1.94974747,52.4497475 Z" id="Rectangle-61" transform="translate(5.449747, 55.949747) rotate(-135.000000) translate(-5.449747, -55.949747) "></path>
                <rect id="Rectangle-3" x="5" y="0" width="1" height="56.25"></rect>
            </g>
            <g id="Group-10" transform="translate(155.000000, 557.000000)">
                <rect id="Rectangle-1" fill="#5DC372" x="2" y="2" width="110" height="40"></rect>
                <rect id="Rectangle-1" stroke="#363636" fill="#FFFFFF" x="0" y="0" width="110" height="40"></rect>
                <text id="Checkout" font-family="Roboto-Medium, Roboto" font-size="11" font-weight="400" fill="#000000">
                    <tspan x="32.1384277" y="23">Checkout</tspan>
                </text>
            </g>
            <rect id="Rectangle-3" fill="#363636" transform="translate(118.000000, 372.000000) rotate(-90.000000) translate(-118.000000, -372.000000) " x="117.5" y="327" width="1" height="90"></rect>
            <g id="Group-3" transform="translate(204.000000, 435.000000)" fill="#363636">
                <path d="M1.94974747,52.4497475 L8.94974747,52.4497475 L1.94974747,59.4497475 L1.94974747,52.4497475 Z" id="Rectangle-61" transform="translate(5.449747, 55.949747) rotate(-135.000000) translate(-5.449747, -55.949747) "></path>
                <rect id="Rectangle-3" x="5" y="0" width="1" height="56.25"></rect>
            </g>
            <g id="Group-10" transform="translate(155.000000, 497.000000)">
                <rect id="Rectangle-1" fill="#5DC372" x="2" y="2" width="110" height="40"></rect>
                <rect id="Rectangle-1" stroke="#363636" fill="#FFFFFF" x="0" y="0" width="110" height="40"></rect>
                <text id="Checkout-page" font-family="Roboto-Medium, Roboto" font-size="11" font-weight="400" fill="#000000">
                    <tspan x="18.6274414" y="23">Checkout page</tspan>
                </text>
            </g>
            <g id="Group-3" transform="translate(204.000000, 106.000000)" fill="#363636">
                <path d="M1.94974747,52.4497475 L8.94974747,52.4497475 L1.94974747,59.4497475 L1.94974747,52.4497475 Z" id="Rectangle-61" transform="translate(5.449747, 55.949747) rotate(-135.000000) translate(-5.449747, -55.949747) "></path>
                <rect id="Rectangle-3" x="5" y="0" width="1" height="56.25"></rect>
            </g>
            <g id="Group-3" transform="translate(204.000000, 279.000000)" fill="#363636">
                <path d="M1.94974747,52.4497475 L8.94974747,52.4497475 L1.94974747,59.4497475 L1.94974747,52.4497475 Z" id="Rectangle-61" transform="translate(5.449747, 55.949747) rotate(-135.000000) translate(-5.449747, -55.949747) "></path>
                <rect id="Rectangle-3" x="5" y="0" width="1" height="56.25"></rect>
            </g>
            <g id="Group-9" transform="translate(155.000000, 106.000000)">
                <rect id="Rectangle-1" fill="#5DC372" x="2" y="2" width="110" height="40"></rect>
                <rect id="Rectangle-1" stroke="#363636" fill="#FFFFFF" x="0" y="0" width="110" height="40"></rect>
                <text id="Check-into-store" font-family="Roboto-Medium, Roboto" font-size="11" font-weight="400" fill="#000000">
                    <tspan x="15.3081055" y="23">Check into store</tspan>
                </text>
            </g>
            <g id="Group-8" transform="translate(155.000000, 279.000000)">
                <rect id="Rectangle-1" fill="#5DC372" x="2" y="2" width="110" height="40"></rect>
                <rect id="Rectangle-1" stroke="#363636" fill="#FFFFFF" x="0" y="0" width="110" height="40"></rect>
                <text id="Scan-an-item" font-family="Roboto-Medium, Roboto" font-size="11" font-weight="400" fill="#000000">
                    <tspan x="23.5231934" y="23">Scan an item</tspan>
                </text>
            </g>
            <g id="Group-3" transform="translate(204.000000, 374.000000)" fill="#363636">
                <path d="M1.94974747,52.4497475 L8.94974747,52.4497475 L1.94974747,59.4497475 L1.94974747,52.4497475 Z" id="Rectangle-61" transform="translate(5.449747, 55.949747) rotate(-135.000000) translate(-5.449747, -55.949747) "></path>
                <rect id="Rectangle-3" x="5" y="0" width="1" height="56.25"></rect>
            </g>
            <g id="Group-6" transform="translate(161.000000, 341.000000)">
                <path d="M0,30.9908714 L48.4454365,0 L96.890873,30.9908714 L48.4454365,61.9799957 L0,30.9908714 Z" id="Rectangle-62" fill="#5DC372"></path>
                <text id="Done" font-family="Roboto-Medium, Roboto" font-size="11" font-weight="400" fill="#FFFFFF">
                    <tspan x="36.7651367" y="28">Done</tspan>
                    <tspan x="24.0275879" y="41">shopping?</tspan>
                </text>
            </g>
            <g id="Group-10" transform="translate(155.000000, 435.000000)">
                <rect id="Rectangle-1" fill="#5DC372" x="2" y="2" width="110" height="40"></rect>
                <rect id="Rectangle-1" stroke="#363636" fill="#FFFFFF" x="0" y="0" width="110" height="40"></rect>
                <text id="Cart-page" font-family="Roboto-Medium, Roboto" font-size="11" font-weight="400" fill="#000000">
                    <tspan x="31.6604004" y="23">Cart page</tspan>
                </text>
            </g>
            <g id="Group-5" transform="translate(113.500000, 280.500000) scale(1, -1) rotate(-90.000000) translate(-113.500000, -280.500000) translate(22.000000, 240.000000)" fill="#363636">
                <path d="M1.44974747,72.4497475 L8.44974747,72.4497475 L1.44974747,79.4497475 L1.44974747,72.4497475 Z" id="Rectangle-61" transform="translate(4.949747, 75.949747) rotate(-135.000000) translate(-4.949747, -75.949747) "></path>
                <rect id="Rectangle-3" x="4" y="0.5" width="1" height="75.75"></rect>
                <rect id="Rectangle-3" transform="translate(93.500000, 0.500000) rotate(-90.000000) translate(-93.500000, -0.500000) " x="93" y="-88.5" width="1" height="178"></rect>
            </g>
            <text id="Yes" font-family="Roboto-Medium, Roboto" font-size="11" font-weight="400" fill="#000000">
                <tspan x="218.358398" y="420">Yes</tspan>
            </text>
            <text id="No" font-family="Roboto-Medium, Roboto" font-size="11" font-weight="400" fill="#000000">
                <tspan x="114.463867" y="360">No</tspan>
            </text>
        </g>
    </g>
</svg>