<?xml version="1.0" encoding="UTF-8" standalone="no"?>
<svg width="422px" height="665px" viewBox="0 0 422 665" version="1.1" xmlns="http://www.w3.org/2000/svg" xmlns:xlink="http://www.w3.org/1999/xlink">
    <!-- Generator: Sketch 3.6.1 (26313) - http://www.bohemiancoding.com/sketch -->
    <title>Artboard 1 Copy 2</title>
    <desc>Created with Sketch.</desc>
    <defs></defs>
    <g id="Page-1" stroke="none" stroke-width="1" fill="none" fill-rule="evenodd">
        <g id="Artboard-1-Copy-2">
            <g id="Group-3" transform="translate(202.000000, 530.000000)" fill="#363636">
                <path d="M1.94974747,52.4497475 L8.94974747,52.4497475 L1.94974747,59.4497475 L1.94974747,52.4497475 Z" id="Rectangle-61" transform="translate(5.449747, 55.949747) rotate(-135.000000) translate(-5.449747, -55.949747) "></path>
                <rect id="Rectangle-3" x="5" y="0" width="1" height="56.25"></rect>
            </g>
            <g id="Group-10" transform="translate(153.000000, 592.000000)">
                <rect id="Rectangle-1" fill="#5DC372" x="2" y="2" width="110" height="40"></rect>
                <rect id="Rectangle-1" stroke="#363636" fill="#FFFFFF" x="0" y="0" width="110" height="40"></rect>
                <text id="Checkout" font-family="Roboto-Medium, Roboto" font-size="11" font-weight="400" fill="#000000">
                    <tspan x="32.1384277" y="23">Checkout</tspan>
                </text>
            </g>
            <g id="Group-3" transform="translate(202.000000, 470.000000)" fill="#363636">
                <path d="M1.94974747,52.4497475 L8.94974747,52.4497475 L1.94974747,59.4497475 L1.94974747,52.4497475 Z" id="Rectangle-61" transform="translate(5.449747, 55.949747) rotate(-135.000000) translate(-5.449747, -55.949747) "></path>
                <rect id="Rectangle-3" x="5" y="0" width="1" height="56.25"></rect>
            </g>
            <g id="Group-10" transform="translate(153.000000, 532.000000)">
                <rect id="Rectangle-1" fill="#5DC372" x="2" y="2" width="110" height="40"></rect>
                <rect id="Rectangle-1" stroke="#363636" fill="#FFFFFF" x="0" y="0" width="110" height="40"></rect>
                <text id="Checkout-page" font-family="Roboto-Medium, Roboto" font-size="11" font-weight="400" fill="#000000">
                    <tspan x="18.6274414" y="23">Checkout page</tspan>
                </text>
            </g>
            <rect id="Rectangle-3" fill="#363636" transform="translate(116.064705, 112.500000) rotate(-90.000000) translate(-116.064705, -112.500000) " x="115.564705" y="66.435295" width="1" height="92.1294099"></rect>
            <g id="Group-3" transform="translate(344.000000, 285.000000)" fill="#363636">
                <path d="M1.94974747,52.4497475 L8.94974747,52.4497475 L1.94974747,59.4497475 L1.94974747,52.4497475 Z" id="Rectangle-61" transform="translate(5.449747, 55.949747) rotate(-135.000000) translate(-5.449747, -55.949747) "></path>
                <rect id="Rectangle-3" x="5" y="0" width="1" height="56.25"></rect>
            </g>
            <g id="Group-3" transform="translate(344.000000, 205.000000)" fill="#363636">
                <path d="M1.94974747,52.4497475 L8.94974747,52.4497475 L1.94974747,59.4497475 L1.94974747,52.4497475 Z" id="Rectangle-61" transform="translate(5.449747, 55.949747) rotate(-135.000000) translate(-5.449747, -55.949747) "></path>
                <rect id="Rectangle-3" x="5" y="0" width="1" height="56.25"></rect>
            </g>
            <g id="Group-3" transform="translate(202.000000, 348.000000)" fill="#363636">
                <path d="M1.94974747,52.4497475 L8.94974747,52.4497475 L1.94974747,59.4497475 L1.94974747,52.4497475 Z" id="Rectangle-61" transform="translate(5.449747, 55.949747) rotate(-135.000000) translate(-5.449747, -55.949747) "></path>
                <rect id="Rectangle-3" x="5" y="0" width="1" height="56.25"></rect>
            </g>
            <g id="Group-3" transform="translate(202.000000, 410.000000)" fill="#363636">
                <path d="M1.94974747,52.4497475 L8.94974747,52.4497475 L1.94974747,59.4497475 L1.94974747,52.4497475 Z" id="Rectangle-61" transform="translate(5.449747, 55.949747) rotate(-135.000000) translate(-5.449747, -55.949747) "></path>
                <rect id="Rectangle-3" x="5" y="0" width="1" height="56.25"></rect>
            </g>
            <g id="Group-3" transform="translate(256.000000, 111.000000)" fill="#363636">
                <path d="M89.9497475,51.4497475 L96.9497475,51.4497475 L89.9497475,58.4497475 L89.9497475,51.4497475 Z" id="Rectangle-61" transform="translate(93.449747, 54.949747) rotate(-135.000000) translate(-93.449747, -54.949747) "></path>
                <rect id="Rectangle-3" x="93" y="0.699996948" width="1" height="54.2497505"></rect>
                <rect id="Rectangle-3" transform="translate(46.935295, 1.170890) rotate(-90.000000) translate(-46.935295, -1.170890) " x="46.435295" y="-44.893815" width="1" height="92.1294099"></rect>
            </g>
            <g id="Group-3" transform="translate(297.500000, 202.500000) rotate(-270.000000) translate(-297.500000, -202.500000) translate(292.000000, 172.000000)" fill="#363636">
                <path d="M1.94974747,52.4497475 L8.94974747,52.4497475 L1.94974747,59.4497475 L1.94974747,52.4497475 Z" id="Rectangle-61" transform="translate(5.449747, 55.949747) rotate(-135.000000) translate(-5.449747, -55.949747) "></path>
                <rect id="Rectangle-3" x="5" y="-5.68434189e-14" width="1" height="56.25"></rect>
            </g>
            <g id="Group-11" transform="translate(285.500000, 369.000000) rotate(-180.000000) translate(-285.500000, -369.000000) translate(266.000000, 364.000000)" fill="#363636">
                <rect id="Rectangle-3" transform="translate(17.250000, 5.500000) rotate(-90.000000) translate(-17.250000, -5.500000) " x="16.75" y="-11.75" width="1" height="34.5"></rect>
                <path d="M30.4497475,1.44974747 L37.4497475,1.44974747 L30.4497475,8.44974747 L30.4497475,1.44974747 Z" id="Rectangle-61" transform="translate(33.949747, 4.949747) rotate(-225.000000) translate(-33.949747, -4.949747) "></path>
            </g>
            <rect id="Rectangle-1" fill="#5DC372" x="296" y="269" width="110" height="40"></rect>
            <rect id="Rectangle-1" stroke="#363636" fill="#FFFFFF" x="294" y="267" width="110" height="40"></rect>
            <text id="Sign-up" font-family="Roboto-Medium, Roboto" font-size="11" font-weight="400" fill="#000000">
                <tspan x="331.077148" y="290">Sign up</tspan>
            </text>
            <g id="Group-5" transform="translate(110.000000, 242.500000) rotate(-90.000000) translate(-110.000000, -242.500000) translate(-20.500000, 201.500000)" fill="#363636">
                <path d="M1.44974747,73.4497475 L8.44974747,73.4497475 L1.44974747,80.4497475 L1.44974747,73.4497475 Z" id="Rectangle-61" transform="translate(4.949747, 76.949747) rotate(-135.000000) translate(-4.949747, -76.949747) "></path>
                <rect id="Rectangle-3" x="4" y="1.5" width="1" height="75.75"></rect>
                <rect id="Rectangle-3" transform="translate(132.500000, 1.000000) rotate(-90.000000) translate(-132.500000, -1.000000) " x="132" y="-127.5" width="1" height="257"></rect>
            </g>
            <g id="Group-5" transform="translate(202.000000, 206.000000)" fill="#363636">
                <path d="M1.94974747,131.449747 L8.94974747,131.449747 L1.94974747,138.449747 L1.94974747,131.449747 Z" id="Rectangle-61" transform="translate(5.449747, 134.949747) rotate(-135.000000) translate(-5.449747, -134.949747) "></path>
                <rect id="Rectangle-3" x="5" y="0" width="1" height="138"></rect>
            </g>
            <rect id="Rectangle-1" fill="#5DC372" x="296" y="350" width="110" height="40"></rect>
            <rect id="Rectangle-1" stroke="#363636" fill="#FFFFFF" x="294" y="348" width="110" height="40"></rect>
            <text id="Enter-payment-" font-family="Roboto-Medium, Roboto" font-size="11" font-weight="400" fill="#000000">
                <tspan x="313.373535" y="366">Enter payment </tspan>
                <tspan x="320.337158" y="379">information</tspan>
            </text>
            <g id="Group-9" transform="translate(153.000000, 348.000000)">
                <rect id="Rectangle-1" fill="#5DC372" x="2" y="2" width="110" height="40"></rect>
                <rect id="Rectangle-1" stroke="#363636" fill="#FFFFFF" x="0" y="0" width="110" height="40"></rect>
                <text id="Check-into-store" font-family="Roboto-Medium, Roboto" font-size="11" font-weight="400" fill="#000000">
                    <tspan x="15.3081055" y="23">Check into store</tspan>
                </text>
            </g>
            <g id="Group-8" transform="translate(153.000000, 410.000000)">
                <rect id="Rectangle-1" fill="#5DC372" x="2" y="2" width="110" height="40"></rect>
                <rect id="Rectangle-1" stroke="#363636" fill="#FFFFFF" x="0" y="0" width="110" height="40"></rect>
                <text id="Scan-an-item" font-family="Roboto-Medium, Roboto" font-size="11" font-weight="400" fill="#000000">
                    <tspan x="23.5231934" y="23">Scan an item</tspan>
                </text>
            </g>
            <g id="Group-10" transform="translate(153.000000, 472.000000)">
                <rect id="Rectangle-1" fill="#5DC372" x="2" y="2" width="110" height="40"></rect>
                <rect id="Rectangle-1" stroke="#363636" fill="#FFFFFF" x="0" y="0" width="110" height="40"></rect>
                <text id="Cart-page" font-family="Roboto-Medium, Roboto" font-size="11" font-weight="400" fill="#000000">
                    <tspan x="31.6604004" y="23">Cart page</tspan>
                </text>
            </g>
            <g id="Group-7" transform="translate(154.000000, 181.000000)">
                <rect id="Rectangle-1" fill="#5DC372" x="2" y="2" width="110" height="40"></rect>
                <rect id="Rectangle-1" stroke="#363636" fill="#FFFFFF" x="0" y="0" width="110" height="40"></rect>
                <text id="Log-in" font-family="Roboto-Medium, Roboto" font-size="11" font-weight="400" fill="#000000">
                    <tspan x="40.4421387" y="23">Log in</tspan>
                </text>
            </g>
            <text id="No" font-family="Roboto-Medium, Roboto" font-size="11" font-weight="400" fill="#000000">
                <tspan x="266.463867" y="102">No</tspan>
            </text>
            <text id="Yes" font-family="Roboto-Medium, Roboto" font-size="11" font-weight="400" fill="#000000">
                <tspan x="133.358398" y="102">Yes</tspan>
            </text>
            <text id="Yes" font-family="Roboto-Medium, Roboto" font-size="11" font-weight="400" fill="#000000">
                <tspan x="278.358398" y="197">Yes</tspan>
            </text>
            <text id="No" font-family="Roboto-Medium, Roboto" font-size="11" font-weight="400" fill="#000000">
                <tspan x="357.463867" y="250">No</tspan>
            </text>
            <rect id="Rectangle-1" fill="#5DC372" x="156" y="13" width="110" height="40"></rect>
            <g id="Group-4" transform="translate(210.000000, 60.500000) rotate(-270.000000) translate(-210.000000, -60.500000) translate(190.500000, 55.500000)" fill="#363636">
                <rect id="Rectangle-3" transform="translate(17.250000, 5.500000) rotate(-90.000000) translate(-17.250000, -5.500000) " x="16.75" y="-11.75" width="1" height="34.5"></rect>
                <path d="M30.4497475,1.44974747 L37.4497475,1.44974747 L30.4497475,8.44974747 L30.4497475,1.44974747 Z" id="Rectangle-61" transform="translate(33.949747, 4.949747) rotate(-225.000000) translate(-33.949747, -4.949747) "></path>
            </g>
            <rect id="Rectangle-1" stroke="#363636" fill="#FFFFFF" x="154" y="11" width="110" height="40"></rect>
            <text id="Open-app" font-family="Roboto-Medium, Roboto" font-size="11" font-weight="400" fill="#000000">
                <tspan x="186.057861" y="34">Open app</tspan>
            </text>
            <path d="M161,111.990871 L209.445436,81 L257.890873,111.990871 L209.445436,142.979996 L161,111.990871 Z" id="Rectangle-62" fill="#5DC372"></path>
            <text id="Logged-in?" font-family="Roboto-Medium, Roboto" font-size="11" font-weight="400" fill="#FFFFFF">
                <tspan x="184.093506" y="115">Logged in?</tspan>
            </text>
            <g id="Group-6" transform="translate(301.000000, 172.000000)">
                <path d="M5.68434189e-14,30.9908714 L48.4454365,0 L96.890873,30.9908714 L48.4454365,61.9799957 L5.68434189e-14,30.9908714 Z" id="Rectangle-62" fill="#5DC372"></path>
                <text id="Have-an-" font-family="Roboto-Medium, Roboto" font-size="11" font-weight="400" fill="#FFFFFF">
                    <tspan x="29.5410156" y="28">Have an </tspan>
                    <tspan x="27.0166016" y="41">account?</tspan>
                </text>
            </g>
        </g>
    </g>
</svg>