<?xml version="1.0" encoding="UTF-8" standalone="no"?>
<svg width="67px" height="67px" viewBox="0 0 67 67" version="1.1" xmlns="http://www.w3.org/2000/svg" xmlns:xlink="http://www.w3.org/1999/xlink">
    <!-- Generator: Sketch 3.6.1 (26313) - http://www.bohemiancoding.com/sketch -->
    <title>Group 8</title>
    <desc>Created with Sketch.</desc>
    <defs></defs>
    <g id="Page-1" stroke="none" stroke-width="1" fill="none" fill-rule="evenodd">
        <g id="Group-8" transform="translate(1.000000, 1.000000)">
            <g id="Group" stroke="#61C275" stroke-width="2" fill="#FFFFFF">
                <circle id="Oval-1" cx="32.5" cy="32.5" r="32.5"></circle>
            </g>
            <g id="phone-2" transform="translate(14.000000, 19.000000)" fill="#61C275">
                <path d="M14.5714286,0 L2.42857143,0 C1.09285714,0 0,1.10454545 0,2.45454545 L0,24.5454545 C0,25.8954545 1.09285714,27 2.42857143,27 L14.5714286,27 C15.9071429,27 17,25.8954545 17,24.5454545 L17,2.45454545 C17,1.10454545 15.9071429,0 14.5714286,0 L14.5714286,0 Z M14.5714286,22.0909091 L2.42857143,22.0909091 L2.42857143,4.90909091 L14.5714286,4.90909091 L14.5714286,22.0909091 L14.5714286,22.0909091 Z" id="Shape"></path>
            </g>
            <g id="credit-card" transform="translate(35.000000, 25.000000)" fill="#61C275">
                <path d="M17.1,0 L1.9,0 C0.855,0 0,0.84375 0,1.875 L0,13.125 C0,14.15625 0.855,15 1.9,15 L17.1,15 C18.145,15 19,14.15625 19,13.125 L19,1.875 C19,0.84375 18.145,0 17.1,0 L17.1,0 Z M17.1,13.125 L1.9,13.125 L1.9,7.5 L17.1,7.5 L17.1,13.125 L17.1,13.125 Z M17.1,3.75 L1.9,3.75 L1.9,1.875 L17.1,1.875 L17.1,3.75 L17.1,3.75 Z" id="Shape"></path>
            </g>
        </g>
    </g>
</svg>