<?xml version="1.0" encoding="UTF-8" standalone="no"?>
<svg width="746px" height="619px" viewBox="0 0 746 619" version="1.1" xmlns="http://www.w3.org/2000/svg" xmlns:xlink="http://www.w3.org/1999/xlink">
    <!-- Generator: Sketch 3.6.1 (26313) - http://www.bohemiancoding.com/sketch -->
    <title>Artboard 1</title>
    <desc>Created with Sketch.</desc>
    <defs></defs>
    <g id="Page-1" stroke="none" stroke-width="1" fill="none" fill-rule="evenodd">
        <g id="Artboard-1">
            <g id="Group-2" transform="translate(47.000000, 45.000000)">
                <g id="Group" transform="translate(313.400000, 38.429003)">
                    <path d="M13,2.00151057 L13,439.138017" id="Line" stroke="#363636" stroke-width="1.6" stroke-linecap="square"></path>
                    <path d="M21.4133096,4.00145492 C21.856225,4.00145492 22.2152789,4.36933357 22.2152789,4.80402997 L22.2152789,20.8121729 C22.2152789,21.2554229 21.9664798,21.3657609 21.6496291,21.0486709 L5.18092879,4.56753201 C4.86852899,4.25489627 4.98287993,4.00145492 5.41724826,4.00145492 L21.4133096,4.00145492 Z" id="Rectangle-1" fill="#363636" transform="translate(13.609530, 12.615850) rotate(-45.000000) translate(-13.609530, -12.615850) "></path>
                    <path d="M21.4133096,4.00145492 C21.856225,4.00145492 22.2152789,4.36933357 22.2152789,4.80402997 L22.2152789,20.8121729 C22.2152789,21.2554229 21.9664798,21.3657609 21.6496291,21.0486709 L5.18092879,4.56753201 C4.86852899,4.25489627 4.98287993,4.00145492 5.41724826,4.00145492 L21.4133096,4.00145492 Z" id="Rectangle-1" fill="#363636" transform="translate(13.609530, 12.615850) rotate(-45.000000) translate(-13.609530, -12.615850) "></path>
                    <path d="M20.9756627,430.726642 C21.4185781,430.726642 21.777632,431.09452 21.777632,431.529217 L21.777632,447.53736 C21.777632,447.98061 21.5288329,448.090948 21.2119821,447.773858 L4.74328187,431.292719 C4.43088207,430.980083 4.54523301,430.726642 4.97960134,430.726642 L20.9756627,430.726642 Z" id="Rectangle-1" fill="#363636" transform="translate(13.171883, 439.341037) rotate(-225.000000) translate(-13.171883, -439.341037) "></path>
                </g>
                <g id="Group" transform="translate(326.170393, 263.799396) rotate(-270.000000) translate(-326.170393, -263.799396) translate(313.170393, 37.799396)">
                    <path d="M13,2.00151057 L13,439.138017" id="Line" stroke="#363636" stroke-width="1.6" stroke-linecap="square"></path>
                    <path d="M21.4133096,4.00145492 C21.856225,4.00145492 22.2152789,4.36933357 22.2152789,4.80402997 L22.2152789,20.8121729 C22.2152789,21.2554229 21.9664798,21.3657609 21.6496291,21.0486709 L5.18092879,4.56753201 C4.86852899,4.25489627 4.98287993,4.00145492 5.41724826,4.00145492 L21.4133096,4.00145492 Z" id="Rectangle-1" fill="#363636" transform="translate(13.609530, 12.615850) rotate(-45.000000) translate(-13.609530, -12.615850) "></path>
                    <path d="M21.4133096,4.00145492 C21.856225,4.00145492 22.2152789,4.36933357 22.2152789,4.80402997 L22.2152789,20.8121729 C22.2152789,21.2554229 21.9664798,21.3657609 21.6496291,21.0486709 L5.18092879,4.56753201 C4.86852899,4.25489627 4.98287993,4.00145492 5.41724826,4.00145492 L21.4133096,4.00145492 Z" id="Rectangle-1" fill="#363636" transform="translate(13.609530, 12.615850) rotate(-45.000000) translate(-13.609530, -12.615850) "></path>
                    <path d="M20.9756627,430.726642 C21.4185781,430.726642 21.777632,431.09452 21.777632,431.529217 L21.777632,447.53736 C21.777632,447.98061 21.5288329,448.090948 21.2119821,447.773858 L4.74328187,431.292719 C4.43088207,430.980083 4.54523301,430.726642 4.97960134,430.726642 L20.9756627,430.726642 Z" id="Rectangle-1" fill="#363636" transform="translate(13.171883, 439.341037) rotate(-225.000000) translate(-13.171883, -439.341037) "></path>
                </g>
                <rect id="Rectangle-7" stroke-opacity="0.613054801" stroke="#59C46F" stroke-width="1.6" x="93.6" y="45.6344411" width="237.6" height="105.679758"></rect>
                <text id="High-Impact" font-family="Roboto-Medium, Roboto" font-size="16" font-weight="400" letter-spacing="-0.123076928" fill="#363636">
                    <tspan x="283.883173" y="15">High Impact</tspan>
                </text>
                <text id="Unexpected" font-family="Roboto-Medium, Roboto" font-size="16" font-weight="400" letter-spacing="-0.123076928" fill="#363636">
                    <tspan x="588.181791" y="270.392749">Unexpected</tspan>
                </text>
                <text id="Expected" font-family="Roboto-Medium, Roboto" font-size="16" font-weight="400" letter-spacing="-0.123076928" fill="#363636">
                    <tspan x="0.692307711" y="270.392749">Expected</tspan>
                </text>
                <text id="Low-Impact" font-family="Roboto-Medium, Roboto" font-size="16" font-weight="400" letter-spacing="-0.123076928" fill="#363636">
                    <tspan x="286.096635" y="525.785498">Low Impact</tspan>
                </text>
                <text id="Self-checkout" font-family="Roboto-Regular, Roboto" font-size="14.4" font-weight="normal" letter-spacing="-0.110769236" fill="#363636">
                    <tspan x="100.810625" y="72.244713">Self checkout</tspan>
                </text>
                <text id="Store-map-" font-family="Roboto-Regular, Roboto" font-size="14.4" font-weight="normal" letter-spacing="-0.110769236" fill="#363636">
                    <tspan x="248.461659" y="103.468278">Store map </tspan>
                </text>
                <text id="Coupons" font-family="Roboto-Regular, Roboto" font-size="14.4" font-weight="normal" letter-spacing="-0.110769236" fill="#363636">
                    <tspan x="251.795114" y="290.009063">Coupons</tspan>
                </text>
                <text id="Review-&amp;-rating-syst" font-family="Roboto-Regular, Roboto" font-size="14.4" font-weight="normal" letter-spacing="-0.110769236" fill="#363636">
                    <tspan x="366.702055" y="388.483384">Review &amp; rating system</tspan>
                </text>
                <text id="Sharable-shopping-li" font-family="Roboto-Regular, Roboto" font-size="14.4" font-weight="normal" letter-spacing="-0.110769236" fill="#363636">
                    <tspan x="393.70518" y="466.942598">Sharable shopping list</tspan>
                </text>
                <text id="Shopping-list" font-family="Roboto-Regular, Roboto" font-size="14.4" font-weight="normal" letter-spacing="-0.110769236" fill="#363636">
                    <tspan x="239.596953" y="137.093656">Shopping list</tspan>
                </text>
            </g>
        </g>
    </g>
</svg>