<?xml version="1.0" encoding="UTF-8" standalone="no"?>
<svg width="456px" height="538px" viewBox="0 0 456 538" version="1.1" xmlns="http://www.w3.org/2000/svg" xmlns:xlink="http://www.w3.org/1999/xlink">
    <!-- Generator: Sketch 3.6 (26304) - http://www.bohemiancoding.com/sketch -->
    <title>Artboard 3</title>
    <desc>Created with Sketch.</desc>
    <defs>
        <filter x="-50%" y="-50%" width="200%" height="200%" filterUnits="objectBoundingBox" id="filter-1">
            <feGaussianBlur stdDeviation="12.5" in="SourceGraphic" result="blur"></feGaussianBlur>
        </filter>
        <filter x="-50%" y="-50%" width="200%" height="200%" filterUnits="objectBoundingBox" id="filter-2">
            <feGaussianBlur stdDeviation="12.5" in="SourceGraphic" result="blur"></feGaussianBlur>
        </filter>
        <linearGradient x1="50%" y1="60.9163616%" x2="50%" y2="94.8068368%" id="linearGradient-3">
            <stop stop-color="#F4F4F4" offset="0%"></stop>
            <stop stop-color="#F8F8F8" offset="100%"></stop>
        </linearGradient>
        <rect id="path-4" x="0" y="0" width="100.5" height="318.446181"></rect>
        <linearGradient x1="50%" y1="60.9163616%" x2="50%" y2="94.8068368%" id="linearGradient-6">
            <stop stop-color="#6C6C6C" offset="0%"></stop>
            <stop stop-color="#FCFCFC" stop-opacity="0" offset="100%"></stop>
        </linearGradient>
        <filter x="-50%" y="-50%" width="200%" height="200%" filterUnits="objectBoundingBox" id="filter-7">
            <feMorphology radius="6" in="SourceAlpha" operator="dilate" result="shadowSpreadOuter1"></feMorphology>
            <feOffset dx="0" dy="22" in="shadowSpreadOuter1" result="shadowOffsetOuter1"></feOffset>
            <feGaussianBlur stdDeviation="5.5" in="shadowOffsetOuter1" result="shadowBlurOuter1"></feGaussianBlur>
            <feColorMatrix values="0 0 0 0 0   0 0 0 0 0   0 0 0 0 0  0 0 0 0.149162138 0" in="shadowBlurOuter1" type="matrix" result="shadowMatrixOuter1"></feColorMatrix>
            <feMerge>
                <feMergeNode in="shadowMatrixOuter1"></feMergeNode>
                <feMergeNode in="SourceGraphic"></feMergeNode>
            </feMerge>
        </filter>
        <linearGradient x1="50%" y1="0%" x2="50%" y2="76.0454605%" id="linearGradient-8">
            <stop stop-color="#F0F0F0" offset="0%"></stop>
            <stop stop-color="#E2E2E2" offset="100%"></stop>
        </linearGradient>
        <linearGradient x1="50%" y1="0%" x2="50%" y2="100%" id="linearGradient-9">
            <stop stop-color="#F1F1F1" offset="0%"></stop>
            <stop stop-color="#FFFFFF" offset="100%"></stop>
        </linearGradient>
        <path id="path-10" d="M110.75,475.5 L320.25,475.5 L428.372162,488.5 L3.33540869,488.5 L110.75,475.5 Z"></path>
        <linearGradient x1="50%" y1="0%" x2="50%" y2="100%" id="linearGradient-11">
            <stop stop-color="#F8F8F8" offset="0%"></stop>
            <stop stop-color="#F0F0F0" offset="100%"></stop>
        </linearGradient>
        <filter x="-50%" y="-50%" width="200%" height="200%" filterUnits="objectBoundingBox" id="filter-12">
            <feOffset dx="0" dy="0" in="SourceAlpha" result="shadowOffsetOuter1"></feOffset>
            <feGaussianBlur stdDeviation="0.5" in="shadowOffsetOuter1" result="shadowBlurOuter1"></feGaussianBlur>
            <feColorMatrix values="0 0 0 0 0   0 0 0 0 0   0 0 0 0 0  0 0 0 0.07 0" in="shadowBlurOuter1" type="matrix" result="shadowMatrixOuter1"></feColorMatrix>
            <feMerge>
                <feMergeNode in="shadowMatrixOuter1"></feMergeNode>
                <feMergeNode in="SourceGraphic"></feMergeNode>
            </feMerge>
        </filter>
        <filter x="-50%" y="-50%" width="200%" height="200%" filterUnits="objectBoundingBox" id="filter-13">
            <feOffset dx="0" dy="0" in="SourceAlpha" result="shadowOffsetOuter1"></feOffset>
            <feGaussianBlur stdDeviation="0.5" in="shadowOffsetOuter1" result="shadowBlurOuter1"></feGaussianBlur>
            <feColorMatrix values="0 0 0 0 0   0 0 0 0 0   0 0 0 0 0  0 0 0 0.07 0" in="shadowBlurOuter1" type="matrix" result="shadowMatrixOuter1"></feColorMatrix>
            <feOffset dx="0" dy="0" in="SourceAlpha" result="shadowOffsetInner1"></feOffset>
            <feGaussianBlur stdDeviation="0.5" in="shadowOffsetInner1" result="shadowBlurInner1"></feGaussianBlur>
            <feComposite in="shadowBlurInner1" in2="SourceAlpha" operator="arithmetic" k2="-1" k3="1" result="shadowInnerInner1"></feComposite>
            <feColorMatrix values="0 0 0 0 0   0 0 0 0 0   0 0 0 0 0  0 0 0 0.136203578 0" in="shadowInnerInner1" type="matrix" result="shadowMatrixInner1"></feColorMatrix>
            <feMerge>
                <feMergeNode in="shadowMatrixOuter1"></feMergeNode>
                <feMergeNode in="SourceGraphic"></feMergeNode>
                <feMergeNode in="shadowMatrixInner1"></feMergeNode>
            </feMerge>
        </filter>
        <filter x="-50%" y="-50%" width="200%" height="200%" filterUnits="objectBoundingBox" id="filter-14">
            <feOffset dx="0" dy="0" in="SourceAlpha" result="shadowOffsetOuter1"></feOffset>
            <feGaussianBlur stdDeviation="0.5" in="shadowOffsetOuter1" result="shadowBlurOuter1"></feGaussianBlur>
            <feColorMatrix values="0 0 0 0 0   0 0 0 0 0   0 0 0 0 0  0 0 0 0.07 0" in="shadowBlurOuter1" type="matrix" result="shadowMatrixOuter1"></feColorMatrix>
            <feOffset dx="0" dy="0" in="SourceAlpha" result="shadowOffsetInner1"></feOffset>
            <feGaussianBlur stdDeviation="0.5" in="shadowOffsetInner1" result="shadowBlurInner1"></feGaussianBlur>
            <feComposite in="shadowBlurInner1" in2="SourceAlpha" operator="arithmetic" k2="-1" k3="1" result="shadowInnerInner1"></feComposite>
            <feColorMatrix values="0 0 0 0 0   0 0 0 0 0   0 0 0 0 0  0 0 0 0.136203578 0" in="shadowInnerInner1" type="matrix" result="shadowMatrixInner1"></feColorMatrix>
            <feMerge>
                <feMergeNode in="shadowMatrixOuter1"></feMergeNode>
                <feMergeNode in="SourceGraphic"></feMergeNode>
                <feMergeNode in="shadowMatrixInner1"></feMergeNode>
            </feMerge>
        </filter>
        <filter x="-50%" y="-50%" width="200%" height="200%" filterUnits="objectBoundingBox" id="filter-15">
            <feOffset dx="0" dy="0" in="SourceAlpha" result="shadowOffsetOuter1"></feOffset>
            <feGaussianBlur stdDeviation="0.5" in="shadowOffsetOuter1" result="shadowBlurOuter1"></feGaussianBlur>
            <feColorMatrix values="0 0 0 0 0   0 0 0 0 0   0 0 0 0 0  0 0 0 0.07 0" in="shadowBlurOuter1" type="matrix" result="shadowMatrixOuter1"></feColorMatrix>
            <feOffset dx="0" dy="0" in="SourceAlpha" result="shadowOffsetInner1"></feOffset>
            <feGaussianBlur stdDeviation="0.5" in="shadowOffsetInner1" result="shadowBlurInner1"></feGaussianBlur>
            <feComposite in="shadowBlurInner1" in2="SourceAlpha" operator="arithmetic" k2="-1" k3="1" result="shadowInnerInner1"></feComposite>
            <feColorMatrix values="0 0 0 0 0   0 0 0 0 0   0 0 0 0 0  0 0 0 0.136203578 0" in="shadowInnerInner1" type="matrix" result="shadowMatrixInner1"></feColorMatrix>
            <feMerge>
                <feMergeNode in="shadowMatrixOuter1"></feMergeNode>
                <feMergeNode in="SourceGraphic"></feMergeNode>
                <feMergeNode in="shadowMatrixInner1"></feMergeNode>
            </feMerge>
        </filter>
    </defs>
    <g id="Page-1" stroke="none" stroke-width="1" fill="none" fill-rule="evenodd">
        <g id="Artboard-3">
            <g id="Front" transform="translate(10.000000, 10.000000)">
                <g id="Group-4" opacity="0.617537313" transform="translate(3.000000, 493.000000)" fill="#000000" fill-opacity="0.2">
                    <path d="M429.4973,11.7337662 C429.08239,5.24948769 333.095123,0 214.74865,0 C96.4021763,0 0.414909858,5.24948769 3.29493377e-14,11.7337662 L429.497396,11.7337662 Z" id="Oval-32" filter="url(#filter-1)"></path>
                    <rect id="Rectangle-52" filter="url(#filter-2)" x="40.9145524" y="14.7727273" width="353.222116" height="4.72727273"></rect>
                </g>
                <g id="Rectangle-48" transform="translate(165.500000, 170.000000)">
                    <mask id="mask-5" fill="white">
                        <use xlink:href="#path-4"></use>
                    </mask>
                    <use id="Mask" stroke="#BABABA" stroke-width="0.5" fill="url(#linearGradient-3)" xlink:href="#path-4"></use>
                    <rect fill="url(#linearGradient-6)" opacity="0.316872668" filter="url(#filter-7)" mask="url(#mask-5)" x="-3.27322075" y="-19.9375" width="106.925211" height="93.8723958"></rect>
                </g>
                <rect id="Rectangle-46" stroke="#B7B7B7" stroke-width="0.5" fill="url(#linearGradient-8)" x="0.75" y="488.5" width="429.5" height="14" rx="2.5"></rect>
                <g id="Rectangle-47">
                    <use stroke="none" fill="url(#linearGradient-9)" fill-rule="evenodd" xlink:href="#path-10"></use>
                    <use stroke="#E5E5E5" stroke-width="0.5" fill="none" xlink:href="#path-10"></use>
                </g>
                <g id="Screen" filter="url(#filter-12)" transform="translate(0.750000, 0.000000)">
                    <path d="M10.1638474,30.2202432 C10.8168154,16.4295587 22.5428578,5.25 36.3494427,5.25 L393.092858,5.25 C406.901795,5.25 418.625276,16.4251275 419.278454,30.2202432 L429.413847,244.279757 C430.066815,258.070441 419.407503,269.25 405.596284,269.25 L23.8460173,269.25 C10.0389722,269.25 -0.624724075,258.074872 0.0284537494,244.279757 L10.1638474,30.2202432 Z" id="Rectangle-43" stroke="#979797" stroke-width="0.5" fill="#F0F0F0"></path>
                    <path d="M10.4596999,18.7218382 C10.9492731,8.38205247 19.7483366,0 30.0983105,0 L399.343991,0 C409.700523,0 418.493512,8.39228096 418.982601,18.7218382 L429.7097,245.278162 C430.199273,255.617948 422.20144,264 411.836351,264 L17.6059506,264 C7.24519913,264 -0.756487643,255.607719 -0.267398759,245.278162 L10.4596999,18.7218382 Z" id="Rectangle-43" stroke="#BFBFBF" stroke-width="0.5" fill="url(#linearGradient-11)" filter="url(#filter-13)"></path>
                    <path d="M26.6412428,35.8526801 C27.0316585,25.9238816 35.397326,17.875 45.3538158,17.875 L383.309304,17.875 C393.253557,17.875 401.656125,25.923579 402.076994,35.8526801 L410.238456,228.39732 C410.659312,238.326118 402.93471,246.375 392.996218,246.375 L36.3674447,246.375 C26.4239639,246.375 18.6796626,238.326421 19.0700902,228.39732 L26.6412428,35.8526801 Z" id="Rectangle-43" fill="url(#linearGradient-11)" filter="url(#filter-14)"></path>
                    <path d="M22.8499944,33.5406472 C23.2404202,23.6115907 31.6138781,15.5625 41.5588567,15.5625 L387.091154,15.5625 C397.033347,15.5625 405.434666,23.6210078 405.855134,33.5406472 L414.212598,230.709353 C414.633465,240.638409 406.916295,248.6875 396.984144,248.6875 L32.3805884,248.6875 C22.4447093,248.6875 14.7069609,240.628992 15.0970165,230.709353 L22.8499944,33.5406472 Z" id="Rectangle-43" fill="#F8F8F8" filter="url(#filter-15)"></path>
                    <path d="M394.75,130.752001 C394.75,126.398966 391.056349,122.870135 386.5,122.870135 C381.943651,122.870135 378.25,126.398966 378.25,130.752001 C378.25,135.105035 381.943651,138.633867 386.5,138.633867 C391.056349,138.633867 394.75,135.105035 394.75,130.752001 Z" id="Oval-32" stroke="#F5F5F5" stroke-width="1.5" fill="#FFFFFF"></path>
                    <path d="M55.7602934,29.4379243 C55.7867439,28.7520104 56.3770353,28.1959673 57.0609667,28.1959673 L365.487676,28.1959673 C366.179568,28.1959673 366.759022,28.7536922 366.781799,29.4379243 L373.590656,233.982468 C373.613488,234.668382 373.081404,235.224425 372.386634,235.224425 L49.0700303,235.224418 C48.3822352,235.224418 47.8461743,234.666693 47.8725599,233.982461 L55.7602934,29.4379243 Z" id="Rectangle-43" stroke-opacity="0.575407609" stroke="#DADADA" stroke-width="1.5" fill="#474747"></path>
                    <path d="M37.75,134 C38.7164983,134 39.5,133.216498 39.5,132.25 C39.5,131.283502 38.7164983,130.761921 37.75,130.761921 C36.7835017,130.761921 36,131.283502 36,132.25 C36,133.216498 36.7835017,134 37.75,134 Z" id="Oval-32" stroke="#979797" stroke-width="0.5" fill="#3A3A3A"></path>
                </g>
            </g>
        </g>
    </g>
</svg>