<?xml version="1.0" encoding="UTF-8" standalone="no"?>
<svg width="193px" height="46px" viewBox="0 0 193 46" version="1.1" xmlns="http://www.w3.org/2000/svg" xmlns:xlink="http://www.w3.org/1999/xlink">
    <!-- Generator: Sketch 40.2 (33826) - http://www.bohemiancoding.com/sketch -->
    <title>Artboard</title>
    <desc>Created with Sketch.</desc>
    <defs></defs>
    <g id="Page-1" stroke="none" stroke-width="1" fill="none" fill-rule="evenodd">
        <g id="Artboard">
            <path d="M63.181,36.082 C59.354,40.351 55.232,43.736 50.081,43.736 C44.781,43.736 43.015,39.762 43.015,35.788 C43.015,26.661 51.258,16.357 59.648,16.357 C62.298,16.357 65.242,17.241 65.242,20.479 C65.242,28.281 54.202,31.077 48.02,31.666 C47.725,33.138 47.578,34.61 47.578,36.082 C47.578,39.026 49.639,40.498 52.288,40.498 C55.674,40.498 59.06,38.29 62.445,35.199 L66.567,31.224 L72.16,8.703 L72.013,8.998 C72.601,6.348 71.718,3.846 68.922,3.846 L67.155,3.846 L67.155,2.374 L78.784,2.521 L72.307,24.601 L72.307,24.748 C75.546,21.068 80.256,16.357 85.408,16.357 C90.118,16.357 92.032,19.302 92.032,23.717 C92.032,27.986 89.824,32.402 86.585,36.082 C84.819,37.995 82.905,39.762 80.697,41.087 C77.901,42.706 75.104,43.736 72.307,43.736 C68.48,43.736 65.389,41.675 65.389,37.407 C65.389,36.082 65.683,34.61 66.125,33.138 L66.125,32.991 L63.181,36.082 L63.181,36.082 Z M79.814,38.879 C81.581,36.965 83.347,34.463 84.672,31.96 C86.291,28.722 87.321,25.336 87.321,22.834 C87.321,20.626 86.585,18.713 83.936,18.713 C76.723,18.713 69.658,30.783 69.658,37.26 C69.658,39.615 70.541,42.117 73.19,42.117 C75.398,42.117 77.753,40.792 79.814,38.879 L79.814,38.879 Z M48.314,30.194 C49.345,26.367 53.908,18.271 58.323,18.271 C59.795,18.271 60.679,19.154 60.679,20.626 C60.679,26.956 53.613,29.753 48.314,30.194 L48.314,30.194 Z M15.636,2.374 L2.094,2.374 L2.094,3.846 L2.83,3.846 C5.186,3.993 6.069,4.582 6.51,6.054 L15.342,43.736 L16.814,43.736 L27.56,25.336 L32.417,43.736 L34.036,43.736 L52.436,7.673 C53.613,5.465 54.349,3.993 56.41,3.846 L56.852,3.846 L56.852,2.374 L45.665,2.374 L45.665,3.846 L46.401,3.846 C49.345,3.993 49.933,4.288 49.933,5.465 C49.933,6.643 49.492,7.673 49.05,8.703 L35.655,36.376 L35.508,36.376 L31.092,19.007 L37.716,7.82 C39.041,5.612 39.777,3.846 42.574,3.846 L43.457,3.846 L43.457,2.374 L32.711,2.374 L32.711,3.846 L33.3,3.846 C35.214,3.993 35.95,4.14 35.95,5.318 C35.95,5.759 35.655,6.643 35.214,7.673 L30.503,16.357 L30.356,16.357 L27.854,5.759 C27.707,4.876 28.295,3.993 29.473,3.846 L30.503,3.846 L30.503,2.374 L17.992,2.374 L17.992,3.846 L18.728,3.846 C20.936,3.993 21.966,4.582 22.408,6.054 L26.823,22.54 L18.875,36.376 L12.398,7.82 C12.104,7.084 12.104,6.348 11.957,5.612 C11.957,4.14 13.576,3.846 15.195,3.846 L15.636,3.846 L15.636,2.374 L15.636,2.374 Z" id="Fill-2" fill="#00679B"></path>
            <path d="M176.375,24.453 C176.375,34.904 168.132,40.792 156.651,40.645 C154.296,40.645 154.001,40.351 154.001,26.808 L154.001,5.907 C154.001,4.876 154.296,4.876 157.681,4.876 C167.691,4.876 176.375,11.647 176.375,24.453 L176.375,24.453 Z M145.758,43.147 L145.758,13.267 C145.758,4.876 145.464,4.582 143.109,4.582 L141.195,4.582 L141.195,2.374 L161.655,2.374 C177.553,2.374 185.207,11.795 185.207,21.804 C185.207,30.341 179.76,43.147 160.919,43.147 L145.758,43.147 L145.758,43.147 Z M101.894,2.374 L116.908,31.519 L130.597,2.374 L138.398,2.374 L138.398,32.255 C138.398,40.792 138.84,40.939 141.048,40.939 L142.667,40.939 L142.667,43.147 L126.034,43.147 L126.034,40.939 L129.125,40.939 C130.008,40.939 130.155,40.645 130.155,39.909 L130.155,9.587 L130.008,9.587 L114.847,41.675 C114.7,41.97 114.553,42.706 113.964,42.706 C113.522,42.706 113.375,41.97 113.228,41.675 L97.772,10.764 L97.625,10.764 L97.625,27.692 C97.625,31.224 97.625,35.788 98.067,38.879 C98.508,40.792 98.95,40.939 100.863,40.939 L103.66,40.939 L103.66,43.147 L90.56,43.147 L90.56,40.939 L92.473,40.939 C94.239,40.939 94.681,40.939 94.681,40.203 L94.681,13.119 C94.681,7.526 94.239,4.582 90.412,4.582 L88.499,4.582 L88.499,2.374 L101.894,2.374 L101.894,2.374 Z" id="Fill-3" fill="#1A1918"></path>
            <path d="M183.882,3.993 C183.882,3.257 183.293,3.11 182.852,3.11 C182.557,3.11 181.968,3.257 181.968,3.846 C181.968,4.14 182.116,4.288 182.41,4.288 L183.587,4.582 C184.177,4.729 184.471,5.023 184.471,5.759 C184.471,6.643 183.587,6.937 182.852,6.937 C182.116,6.937 181.821,6.643 181.674,6.495 C181.38,6.201 181.232,5.907 181.232,5.465 L181.821,5.465 C181.821,6.201 182.41,6.495 182.852,6.495 C183.293,6.495 184.029,6.348 184.029,5.759 C184.029,5.318 183.735,5.171 183.146,5.023 L182.263,4.876 C181.968,4.729 181.38,4.582 181.38,3.846 C181.38,3.257 181.821,2.668 182.852,2.668 C184.177,2.668 184.324,3.551 184.471,3.993 L183.882,3.993" id="Fill-4" fill="#1A1918"></path>
            <path d="M188.592,6.79 L188.592,4.435 L188.592,3.404 L187.415,6.79 L186.826,6.79 L185.796,3.404 L185.796,4.435 L185.796,6.79 L185.207,6.79 L185.207,2.668 L185.943,2.668 L187.12,6.201 L188.298,2.668 L189.181,2.668 L189.181,6.79 L188.592,6.79" id="Fill-5" fill="#1A1918"></path>
        </g>
    </g>
</svg>