<?xml version="1.0" encoding="utf-8"?>
<!-- Generator: Adobe Illustrator 19.2.1, SVG Export Plug-In . SVG Version: 6.00 Build 0)  -->
<svg version="1.1" id="Layer_1" xmlns="http://www.w3.org/2000/svg" xmlns:xlink="http://www.w3.org/1999/xlink" x="0px" y="0px"
	 viewBox="0 0 566.9 566.9" style="enable-background:new 0 0 566.9 566.9;" xml:space="preserve">
<style type="text/css">
	.st0{clip-path:url(#SVGID_2_);}
	.st1{clip-path:url(#SVGID_4_);fill:#94C0E5;}
	.st2{clip-path:url(#SVGID_6_);}
	.st3{clip-path:url(#SVGID_8_);fill:#2E82C4;}
	.st4{clip-path:url(#SVGID_10_);}
	.st5{clip-path:url(#SVGID_12_);fill:#5B5B5B;}
	.st6{clip-path:url(#SVGID_14_);}
	.st7{clip-path:url(#SVGID_16_);fill:#5B5B5B;}
</style>
<g>
	<g>
		<defs>
			<path id="SVGID_1_" d="M321.8,417.1C248,438.2,171,395.6,149.9,321.8s21.5-150.8,95.3-171.9c67.4-19.3,138.4,14.6,165.9,78.3
				l91.8-39.6C455.5,78.8,333.5,20.5,217.6,53.7C90.7,90.1,17.4,222.4,53.8,349.3s168.7,200.2,295.6,163.9L321.8,417.1z"/>
		</defs>
		<clipPath id="SVGID_2_">
			<use xlink:href="#SVGID_1_"  style="overflow:visible;"/>
		</clipPath>
		<g class="st0">
			<defs>
				<rect id="SVGID_3_" x="33.5" y="33.5" width="500" height="500"/>
			</defs>
			<clipPath id="SVGID_4_">
				<use xlink:href="#SVGID_3_"  style="overflow:visible;"/>
			</clipPath>
			<rect x="39.4" y="39.4" class="st1" width="468.4" height="488.1"/>
		</g>
	</g>
	<g>
		<defs>
			<path id="SVGID_5_" d="M283.5,144.5c76.8,0,139,62.2,139,139s-62.2,139-139,139c-70.1,0-129-52.2-137.9-121l-99.2,12.8
				c15.3,118.5,116.5,208.2,237,208.2c132,0,239-107,239-239s-107-239-239-239V144.5z"/>
		</defs>
		<clipPath id="SVGID_6_">
			<use xlink:href="#SVGID_5_"  style="overflow:visible;"/>
		</clipPath>
		<g class="st2">
			<defs>
				<rect id="SVGID_7_" x="33.5" y="33.5" width="500" height="500"/>
			</defs>
			<clipPath id="SVGID_8_">
				<use xlink:href="#SVGID_7_"  style="overflow:visible;"/>
			</clipPath>
			<rect x="41.5" y="39.5" class="st3" width="486" height="488"/>
		</g>
	</g>
	<g>
		<defs>
			<path id="SVGID_9_" d="M318.7,310.4c0,0.7,0.4,1.1,1.1,1.1h44.4c0.7,0,1.1-0.4,1.1-1.1v-10.9c0-0.7-0.4-1.1-1.1-1.1H338v-0.2
				l19.7-23.2c4.7-5.4,7.6-11,7.6-18.2c0-12.1-8.7-21.3-23-21.3c-14.4,0-22.8,9-23.5,19.4c-0.1,0.7,0.2,1.2,0.9,1.3l12.1,2
				c0.8,0.1,1.2-0.2,1.2-0.9c0.7-5.7,3.7-8.8,8.8-8.8c5.2,0,8.1,3.6,8.1,8.6c0,3.9-1.5,7-4.4,10.3l-26.3,31.2
				c-0.4,0.5-0.5,0.9-0.5,1.5V310.4z M280.9,269.2c-6,0-9.9-4.3-9.9-10.5c0-6.1,3.9-10.3,9.9-10.3s9.9,4.3,9.9,10.3
				C290.8,264.9,287,269.2,280.9,269.2z M266.3,310.4c-0.3,0.7-0.1,1.1,0.8,1.1h14c0.8,0,1-0.1,1.3-0.8l18.2-33.2
				c3.5-6.4,5.5-12.1,5.5-18.5c0-14.7-10.8-23.5-25.1-23.5c-14.2,0-25.1,8.8-25.1,23.9c0,13.8,9.7,22.6,21.4,22.6
				c2,0,3.9-0.3,4.6-0.7l0.2,0.2L266.3,310.4z M215.8,310.4c0,0.7,0.4,1.1,1.1,1.1h13.2c0.7,0,1.1-0.4,1.1-1.1v-72.6
				c0-0.7-0.4-1.1-1.1-1.1h-12.3c-0.8,0-1.4,0.2-2,0.7l-12.5,9c-0.6,0.4-0.8,0.9-0.8,1.5v13.6c0,0.9,0.6,1.1,1.2,0.7l11.9-8.1h0.2
				V310.4z"/>
		</defs>
		<clipPath id="SVGID_10_">
			<use xlink:href="#SVGID_9_"  style="overflow:visible;"/>
		</clipPath>
		<g class="st4">
			<defs>
				<rect id="SVGID_11_" x="33.5" y="33.5" width="500" height="500"/>
			</defs>
			<clipPath id="SVGID_12_">
				<use xlink:href="#SVGID_11_"  style="overflow:visible;"/>
			</clipPath>
			<rect x="197.5" y="230.5" class="st5" width="172.8" height="86"/>
		</g>
	</g>
	<g>
		<defs>
			<path id="SVGID_13_" d="M354,342.2c3.8,0,5.8-1.9,5.8-4.7c0-2.3-1.4-3.8-4.3-4.1l-1.5-0.1c-2.1-0.2-2.8-0.8-2.8-2
				c0-1.2,0.9-2,2.7-2c1.5,0,2.9,0.6,3.9,1.2c0.2,0.1,0.3,0.1,0.4-0.1l1-1.3c0.1-0.2,0.1-0.3-0.1-0.4c-1.2-0.9-3-1.6-5.1-1.6
				c-3.4,0-5.3,1.6-5.3,4.4c0,2.3,1.5,3.8,4.3,4l1.5,0.1c2.2,0.2,2.8,0.9,2.8,2c0,1.3-1.1,2.2-3.1,2.2c-1.7,0-3.4-0.7-4.4-1.6
				c-0.1-0.1-0.3-0.1-0.4,0l-1.2,1.3c-0.1,0.1-0.1,0.3,0,0.4C349.3,341,351.3,342.2,354,342.2z M344.9,342c0.2,0,0.3-0.1,0.3-0.3
				V340c0-0.2-0.1-0.3-0.3-0.3h-0.6c-1.3,0-1.8-0.4-1.8-1.8v-8.1c0-0.1,0.1-0.2,0.2-0.2h2.3c0.2,0,0.3-0.1,0.3-0.3v-1.4
				c0-0.2-0.1-0.3-0.3-0.3h-2.3c-0.1,0-0.2-0.1-0.2-0.2v-4c0-0.2-0.1-0.3-0.3-0.3h-1.9c-0.2,0-0.3,0.1-0.3,0.3v4
				c0,0.1-0.1,0.2-0.2,0.2h-1.2c-0.2,0-0.3,0.1-0.3,0.3v1.4c0,0.2,0.1,0.3,0.3,0.3h1.2c0.1,0,0.2,0.1,0.2,0.2v8.2
				c0,2.8,1.1,4.1,3.9,4.1H344.9z M334.5,341.9c0.2,0,0.3-0.1,0.3-0.3v-9c0-3.3-1.9-5.4-5-5.4c-1.9,0-3.3,0.8-4,1.9h0v-1.3
				c0-0.2-0.1-0.3-0.3-0.3h-1.9c-0.2,0-0.3,0.1-0.3,0.3v13.8c0,0.2,0.1,0.3,0.3,0.3h1.9c0.2,0,0.3-0.1,0.3-0.3V333
				c0-2.1,1.4-3.5,3.3-3.5c2.2,0,3.2,1.4,3.2,3.7v8.4c0,0.2,0.1,0.3,0.3,0.3H334.5z M312.4,340c-1.9,0-3-0.8-3-2.2
				c0-1.6,1.1-2.3,3.6-2.3h2.9c0.1,0,0.2,0.1,0.2,0.2v1.6C316.1,339,314.7,340,312.4,340z M318.2,341.9c0.2,0,0.3-0.1,0.3-0.3V332
				c0-3.5-1.6-4.9-5.6-4.9c-2.1,0-3.8,0.6-4.9,1.4c-0.1,0.1-0.1,0.2-0.1,0.4l0.8,1.4c0.1,0.1,0.3,0.1,0.4,0c0.8-0.6,1.9-1,3.5-1
				c2.7,0,3.5,0.8,3.5,2.8v1c0,0.1-0.1,0.2-0.2,0.2h-3.3c-3.5,0-5.6,1.4-5.6,4.4c0,2.9,2.1,4.3,4.8,4.3c2.2,0,3.6-0.8,4.3-1.9h0v1.3
				c0,0.2,0.1,0.3,0.3,0.3H318.2z M297.6,339.8c-1.6,0-2.7-0.8-3.2-2.2c-0.2-0.7-0.3-1.6-0.3-3s0.1-2.3,0.3-3
				c0.5-1.4,1.6-2.2,3.2-2.2s2.7,0.8,3.1,2.2c0.2,0.8,0.3,1.7,0.3,3c0,1.3-0.1,2.2-0.3,3C300.3,339.1,299.2,339.8,297.6,339.8z
				 M293.8,347.3c0.2,0,0.3-0.1,0.3-0.3v-6.8h0c0.7,1.1,1.9,2,4.1,2c2.5,0,4.2-1.2,5-3.5c0.4-1.1,0.5-2.3,0.5-4.1
				c0-1.8-0.1-2.9-0.5-4.1c-0.7-2.3-2.5-3.4-5-3.4c-2.2,0-3.4,0.8-4.1,2h0v-1.3c0-0.2-0.1-0.3-0.3-0.3h-1.9c-0.2,0-0.3,0.1-0.3,0.3
				V347c0,0.2,0.1,0.3,0.3,0.3H293.8z M286.4,341.9c0.2,0,0.3-0.1,0.3-0.3v-13.8c0-0.2-0.1-0.3-0.3-0.3h-1.9c-0.2,0-0.3,0.1-0.3,0.3
				v13.8c0,0.2,0.1,0.3,0.3,0.3H286.4z M286.4,324.2c0.2,0,0.3-0.1,0.3-0.3v-2.2c0-0.2-0.1-0.3-0.3-0.3h-2c-0.2,0-0.3,0.1-0.3,0.3
				v2.2c0,0.2,0.1,0.3,0.3,0.3H286.4z M269.1,334.7c0,1.6,0.2,2.8,0.5,3.7c0.8,2.5,2.9,3.9,5.7,3.9c2.2,0,3.9-0.9,4.9-2.4
				c0.1-0.2,0.1-0.3-0.1-0.4l-1.3-1.1c-0.1-0.1-0.3-0.1-0.4,0c-0.8,1-1.6,1.6-3.1,1.6c-1.6,0-2.7-0.8-3.2-2.2
				c-0.2-0.8-0.3-1.6-0.3-2.9c0-1.3,0.1-2.2,0.3-2.9c0.5-1.5,1.6-2.2,3.2-2.2c1.4,0,2.2,0.5,3.1,1.6c0.1,0.1,0.3,0.1,0.4,0l1.3-1.1
				c0.2-0.2,0.2-0.3,0.1-0.4c-1.1-1.5-2.7-2.4-4.9-2.4c-2.8,0-4.9,1.4-5.7,3.9C269.3,331.9,269.1,333.1,269.1,334.7z M264.8,341.9
				c0.2,0,0.3-0.1,0.3-0.3v-13.8c0-0.2-0.1-0.3-0.3-0.3h-1.9c-0.2,0-0.3,0.1-0.3,0.3v13.8c0,0.2,0.1,0.3,0.3,0.3H264.8z
				 M264.8,324.2c0.2,0,0.3-0.1,0.3-0.3v-2.2c0-0.2-0.1-0.3-0.3-0.3h-2c-0.2,0-0.3,0.1-0.3,0.3v2.2c0,0.2,0.1,0.3,0.3,0.3H264.8z
				 M258.3,342c0.2,0,0.3-0.1,0.3-0.3V340c0-0.2-0.1-0.3-0.3-0.3h-0.6c-1.3,0-1.8-0.4-1.8-1.8v-8.1c0-0.1,0.1-0.2,0.2-0.2h2.3
				c0.2,0,0.3-0.1,0.3-0.3v-1.4c0-0.2-0.1-0.3-0.3-0.3h-2.3c-0.1,0-0.2-0.1-0.2-0.2v-4c0-0.2-0.1-0.3-0.3-0.3h-1.9
				c-0.2,0-0.3,0.1-0.3,0.3v4c0,0.1-0.1,0.2-0.2,0.2H252c-0.2,0-0.3,0.1-0.3,0.3v1.4c0,0.2,0.1,0.3,0.3,0.3h1.2
				c0.1,0,0.2,0.1,0.2,0.2v8.2c0,2.8,1.1,4.1,3.9,4.1H258.3z M243,341.9c0.2,0,0.3-0.1,0.3-0.3v-7.9c0-2.5,0.9-4.2,3.1-4.2
				c0.8,0,1.6,0.3,2.2,0.7c0.1,0.1,0.3,0.1,0.4-0.1l1.1-1.5c0.1-0.1,0.1-0.3-0.1-0.4c-0.7-0.7-1.8-1.1-2.9-1.1
				c-1.9,0-3.2,0.9-3.8,2.1h0v-1.5c0-0.2-0.1-0.3-0.3-0.3h-1.9c-0.2,0-0.3,0.1-0.3,0.3v13.8c0,0.2,0.1,0.3,0.3,0.3H243z M229.9,340
				c-1.9,0-3-0.8-3-2.2c0-1.6,1.1-2.3,3.6-2.3h2.9c0.1,0,0.2,0.1,0.2,0.2v1.6C233.5,339,232.2,340,229.9,340z M235.7,341.9
				c0.2,0,0.3-0.1,0.3-0.3V332c0-3.5-1.6-4.9-5.6-4.9c-2.1,0-3.8,0.6-4.9,1.4c-0.1,0.1-0.2,0.2-0.1,0.4l0.8,1.4
				c0.1,0.1,0.3,0.1,0.4,0c0.8-0.6,1.9-1,3.5-1c2.7,0,3.4,0.8,3.4,2.8v1c0,0.1-0.1,0.2-0.2,0.2h-3.3c-3.5,0-5.6,1.4-5.6,4.4
				c0,2.9,2.1,4.3,4.8,4.3c2.2,0,3.6-0.8,4.3-1.9h0v1.3c0,0.2,0.1,0.3,0.3,0.3H235.7z M214.9,331.1h-4.6c-0.1,0-0.2-0.1-0.2-0.2
				v-6.8c0-0.1,0.1-0.2,0.2-0.2h4.6c2.5,0,4,1.4,4,3.6S217.4,331.1,214.9,331.1z M209.9,341.9c0.2,0,0.3-0.1,0.3-0.3v-7.7
				c0-0.1,0.1-0.2,0.2-0.2h4.7c3.9,0,6.5-2.4,6.5-6.1s-2.5-6.1-6.5-6.1h-7.3c-0.2,0-0.3,0.1-0.3,0.3v19.8c0,0.2,0.1,0.3,0.3,0.3
				H209.9z"/>
		</defs>
		<clipPath id="SVGID_14_">
			<use xlink:href="#SVGID_13_"  style="overflow:visible;"/>
		</clipPath>
		<g class="st6">
			<defs>
				<rect id="SVGID_15_" x="33.5" y="33.5" width="500" height="500"/>
			</defs>
			<clipPath id="SVGID_16_">
				<use xlink:href="#SVGID_15_"  style="overflow:visible;"/>
			</clipPath>
			<rect x="202.5" y="316.5" class="st7" width="162.3" height="35.8"/>
		</g>
	</g>
</g>
</svg>
