<?xml version="1.0" encoding="utf-8"?>
<!-- Generator: Adobe Illustrator 19.2.1, SVG Export Plug-In . SVG Version: 6.00 Build 0)  -->
<svg version="1.1" id="Layer_1" xmlns="http://www.w3.org/2000/svg" xmlns:xlink="http://www.w3.org/1999/xlink" x="0px" y="0px"
	 viewBox="0 0 841.9 483.9" style="enable-background:new 0 0 841.9 483.9;" xml:space="preserve">
<style type="text/css">
	.st0{fill:none;stroke:#5A5B5B;stroke-miterlimit:10;}
	.st1{fill:none;stroke:#000000;stroke-width:20;stroke-miterlimit:10;}
	.st2{fill:#2E83C5;}
	.st3{fill:#F15F74;}
	.st4{fill:#98CA4B;}
	.st5{fill:#98CA4C;}
	.st6{fill:#F16074;}
	.st7{fill:#FFFFFF;stroke:#2E83C5;stroke-miterlimit:10;}
	.st8{fill:#FFFFFF;stroke:#98CA4C;stroke-miterlimit:10;}
	.st9{fill:#FFFFFF;stroke:#F16074;stroke-miterlimit:10;}
</style>
<polyline class="st0" points="601.9,435.9 756.5,435.9 756.5,302.1 "/>
<path class="st1" d="M839.3,201.2"/>
<path class="st1" d="M79.7,628.8"/>
<path class="st2" d="M284.2,136.9c3.4-2.3,7.2-4.1,11.1-5.3c4.1-1.3,8.3-1.9,12.6-1.9c5.7,0,11.3,1.1,16.5,3.3
	c7.6,3.2,14,8.5,18.7,15.4c2.3,3.4,4.1,7.2,5.3,11.1c1.3,4.1,1.9,8.3,1.9,12.6l0,66.2h16l0-66.2c0-7.9-1.5-15.5-4.6-22.7
	c-4.4-10.4-11.7-19.3-21.2-25.7c-4.7-3.2-9.9-5.7-15.3-7.4c-5.6-1.7-11.4-2.6-17.4-2.6h0c-7.9,0-15.5,1.5-22.7,4.6
	c-10.4,4.4-19.3,11.7-25.7,21.2c-3.2,4.7-5.7,9.9-7.4,15.3c-1.7,5.6-2.6,11.4-2.6,17.4v133.8l0,17.3c0,5.7-1.1,11.3-3.3,16.5
	c-3.2,7.6-8.5,14-15.4,18.7c-3.4,2.3-7.2,4.1-11.1,5.3c-4.1,1.3-8.3,1.9-12.6,1.9c-5.7,0-11.3-1.1-16.5-3.3
	c-7.6-3.2-14-8.5-18.7-15.4c-2.3-3.4-4.1-7.2-5.3-11.1c-1.3-4.1-1.9-8.3-1.9-12.6v-13.9v-42.4c0-10-2-19.6-5.8-28.8
	c-5.6-13.2-14.8-24.4-26.8-32.5c-6-4-12.5-7.2-19.3-9.3c-7.1-2.2-14.5-3.3-22-3.3H32.8v16h57.9c7.8,0,15.4,1.5,22.5,4.5
	c10.4,4.4,19.2,11.6,25.5,21c3.2,4.7,5.6,9.8,7.3,15.1c1.7,5.5,2.6,11.3,2.6,17.2v37.7v4.7v13.9c0,7.9,1.5,15.5,4.6,22.7
	c4.4,10.4,11.7,19.3,21.2,25.7c4.7,3.2,9.9,5.7,15.3,7.4c5.6,1.7,11.4,2.6,17.4,2.6c7.9,0,15.5-1.5,22.7-4.6
	c10.4-4.4,19.3-11.7,25.7-21.2c3.2-4.7,5.7-9.9,7.4-15.3c1.7-5.6,2.6-11.4,2.6-17.4v-17.3v-1.3V172.1c0-5.7,1.1-11.3,3.3-16.5
	C272,148,277.3,141.6,284.2,136.9z"/>
<path class="st3" d="M694.3,187.2c4.7-3.2,9.8-5.6,15.1-7.3c5.5-1.7,11.3-2.6,17.2-2.6h77.9v-16h-77.9c-10,0-19.7,2-28.8,5.8
	c-13.2,5.6-24.4,14.8-32.5,26.8c-4,6-7.2,12.5-9.3,19.3c-2.2,7.1-3.3,14.5-3.3,22v42.4l0,8c0,5.7-1.1,11.3-3.3,16.5
	c-3.2,7.6-8.5,14-15.4,18.7c-3.4,2.3-7.2,4.1-11.1,5.3c-4.1,1.3-8.3,1.9-12.6,1.9c-5.7,0-11.3-1.1-16.5-3.3
	c-7.6-3.2-14-8.5-18.7-15.4c-2.3-3.4-4.1-7.2-5.3-11.1c-1.3-4.1-1.9-8.3-1.9-12.6v-10.2h-16v10.2c0,7.9,1.5,15.5,4.6,22.7
	c4.4,10.4,11.7,19.3,21.2,25.7c4.7,3.2,9.9,5.7,15.3,7.4c5.6,1.7,11.4,2.6,17.4,2.6h0l0,0c7.9,0,15.5-1.5,22.7-4.6
	c10.4-4.4,19.3-11.7,25.7-21.2c3.2-4.7,5.7-9.9,7.4-15.3c1.7-5.6,2.6-11.4,2.6-17.4v-14.1l0-36.3c0-7.8,1.5-15.4,4.5-22.5
	C677.7,202.3,684.9,193.5,694.3,187.2z"/>
<path class="st4" d="M485.8,228.1c3.4-2.3,7.2-4.1,11.1-5.3c4.1-1.3,8.3-1.9,12.6-1.9c5.7,0,11.3,1.1,16.5,3.3
	c7.6,3.2,14,8.5,18.7,15.4c2.3,3.4,4.1,7.2,5.3,11.1c1.3,4.1,1.9,8.3,1.9,12.6v12h16v-12c0-7.9-1.5-15.5-4.6-22.7
	c-4.4-10.4-11.7-19.3-21.2-25.7c-4.7-3.2-9.9-5.7-15.3-7.4c-5.6-1.7-11.4-2.6-17.4-2.6h0c-7.9,0-15.5,1.5-22.7,4.6
	c-10.4,4.4-19.3,11.7-25.7,21.2c-3.2,4.7-5.7,9.9-7.4,15.3c-1.7,5.6-2.6,11.4-2.6,17.4v57.9l0,21.8c0,5.7-1.1,11.3-3.3,16.5
	c-3.2,7.6-8.5,14-15.4,18.7c-3.4,2.3-7.2,4.1-11.1,5.3c-4.1,1.3-8.3,1.9-12.6,1.9c-5.7,0-11.3-1.1-16.5-3.3
	c-7.6-3.2-14-8.5-18.7-15.4c-2.3-3.4-4.1-7.2-5.3-11.1c-1.3-4.1-1.9-8.3-1.9-12.6V238h-16l0,104.9c0,7.9,1.5,15.5,4.6,22.7
	c4.4,10.4,11.7,19.3,21.2,25.7c4.7,3.2,9.9,5.7,15.3,7.4c5.6,1.7,11.4,2.6,17.4,2.6c7.9,0,15.5-1.5,22.7-4.6
	c10.4-4.4,19.3-11.7,25.7-21.2c3.2-4.7,5.7-9.9,7.4-15.3c1.7-5.6,2.6-11.4,2.6-17.4v-57.9l0-21.8c0-5.7,1.1-11.3,3.3-16.5
	C473.6,239.2,478.9,232.8,485.8,228.1z"/>
<g>
	<path class="st2" d="M30.9,7.1c0-0.1,0.1-0.2,0.2-0.2h2.5c0.1,0,0.2,0.1,0.2,0.2v10.7c0,0.1,0,0.1,0.1,0.1h6c0.1,0,0.2,0.1,0.2,0.2
		v2.2c0,0.1-0.1,0.2-0.2,0.2h-8.9c-0.1,0-0.2-0.1-0.2-0.2V7.1z"/>
	<path class="st2" d="M41.8,18c-0.2-0.6-0.3-1.3-0.3-2.3c0-1,0.1-1.7,0.3-2.3c0.6-1.7,2.1-2.7,4.2-2.7c2.1,0,3.6,1,4.2,2.7
		c0.2,0.6,0.3,1.3,0.3,3c0,0.1-0.1,0.2-0.2,0.2h-5.9c-0.1,0-0.1,0-0.1,0.1c0,0.2,0.1,0.4,0.1,0.5c0.3,0.8,1,1.3,2,1.3
		c1,0,1.7-0.3,2.2-0.9c0.1-0.1,0.2-0.1,0.3,0l1.3,1.2c0.1,0.1,0.1,0.2,0,0.3c-0.9,1-2.3,1.6-4.1,1.6C43.8,20.7,42.3,19.7,41.8,18z
		 M47.5,14.6c0.1,0,0.1,0,0.1-0.1c0-0.3,0-0.5-0.1-0.7c-0.2-0.7-0.8-1.1-1.6-1.1c-0.8,0-1.4,0.4-1.6,1.1c-0.1,0.2-0.1,0.4-0.1,0.7
		c0,0.1,0,0.1,0.1,0.1H47.5z"/>
	<path class="st2" d="M58.1,20.5c-0.1,0-0.2-0.1-0.2-0.2v-0.6h0c-0.5,0.6-1.3,1.1-2.7,1.1c-1.7,0-3.2-0.9-3.2-3c0-2.1,1.6-3.1,4-3.1
		h1.7c0.1,0,0.1,0,0.1-0.1v-0.4c0-0.9-0.4-1.3-2-1.3c-1,0-1.7,0.3-2.2,0.6c-0.1,0.1-0.2,0.1-0.3,0l-0.9-1.6c-0.1-0.1,0-0.2,0.1-0.3
		c0.8-0.6,2-1,3.6-1c3.2,0,4.3,1.1,4.3,3.5v6.2c0,0.1-0.1,0.2-0.2,0.2H58.1z M57.9,17.3v-0.7c0-0.1,0-0.1-0.1-0.1h-1.4
		c-1.2,0-1.7,0.3-1.7,1.1c0,0.7,0.5,1,1.4,1C57.3,18.6,57.9,18.2,57.9,17.3z"/>
	<path class="st2" d="M63.2,20.5c-0.1,0-0.2-0.1-0.2-0.2V11c0-0.1,0.1-0.2,0.2-0.2h2.4c0.1,0,0.2,0.1,0.2,0.2v0.8h0
		c0.5-0.8,1.3-1.2,2.5-1.2c0.6,0,1.3,0.2,1.7,0.6c0.1,0.1,0.1,0.2,0.1,0.3l-1.1,2c-0.1,0.1-0.2,0.1-0.3,0c-0.5-0.3-0.9-0.5-1.4-0.4
		c-1,0-1.5,0.8-1.5,2.1v5.1c0,0.1-0.1,0.2-0.2,0.2H63.2z"/>
	<path class="st2" d="M77.5,20.5c-0.1,0-0.2-0.1-0.2-0.2v-5.6c0-1.1-0.5-1.8-1.5-1.8c-1,0-1.5,0.7-1.5,1.8v5.6
		c0,0.1-0.1,0.2-0.2,0.2h-2.4c-0.1,0-0.2-0.1-0.2-0.2V11c0-0.1,0.1-0.2,0.2-0.2h2.4c0.1,0,0.2,0.1,0.2,0.2v0.7h0
		c0.4-0.6,1.3-1.1,2.5-1.1c2.1,0,3.3,1.5,3.3,3.6v6.1c0,0.1-0.1,0.2-0.2,0.2H77.5z"/>
	<path class="st2" d="M82.8,9.3c-0.1,0-0.2-0.1-0.2-0.2v-2c0-0.1,0.1-0.2,0.2-0.2h2.4c0.1,0,0.2,0.1,0.2,0.2v2
		c0,0.1-0.1,0.2-0.2,0.2H82.8z M82.8,20.5c-0.1,0-0.2-0.1-0.2-0.2V11c0-0.1,0.1-0.2,0.2-0.2h2.4c0.1,0,0.2,0.1,0.2,0.2v9.3
		c0,0.1-0.1,0.2-0.2,0.2H82.8z"/>
	<path class="st2" d="M93.9,20.5c-0.1,0-0.2-0.1-0.2-0.2v-5.6c0-1.1-0.5-1.8-1.5-1.8c-1,0-1.5,0.7-1.5,1.8v5.6
		c0,0.1-0.1,0.2-0.2,0.2h-2.4c-0.1,0-0.2-0.1-0.2-0.2V11c0-0.1,0.1-0.2,0.2-0.2h2.4c0.1,0,0.2,0.1,0.2,0.2v0.7h0
		c0.4-0.6,1.3-1.1,2.5-1.1c2.1,0,3.3,1.5,3.3,3.6v6.1c0,0.1-0.1,0.2-0.2,0.2H93.9z"/>
	<path class="st2" d="M98.8,22.9c-0.1-0.1-0.1-0.2,0-0.3l1.4-1.4c0.1-0.1,0.2-0.1,0.3,0c0.6,0.5,1.2,0.8,2,0.8
		c1.3,0,1.9-0.7,1.9-2.1V19h0c-0.4,0.7-1.3,1.1-2.5,1.1c-1.6,0-2.7-0.8-3.2-2.3c-0.2-0.7-0.3-1.4-0.3-2.4c0-1,0.1-1.7,0.3-2.4
		c0.5-1.5,1.6-2.3,3.2-2.3c1.2,0,2.1,0.4,2.5,1.1h0V11c0-0.1,0.1-0.2,0.2-0.2h2.4c0.1,0,0.2,0.1,0.2,0.2v8.4c0,3.2-1.6,4.9-4.8,4.9
		C101,24.3,99.5,23.7,98.8,22.9z M104.3,16.7c0.1-0.4,0.2-0.8,0.2-1.4c0-0.6-0.1-1-0.2-1.4c-0.2-0.7-0.7-1-1.4-1
		c-0.8,0-1.2,0.4-1.4,1c-0.1,0.4-0.2,0.8-0.2,1.4c0,0.6,0.1,1,0.2,1.4c0.2,0.7,0.7,1,1.4,1C103.7,17.8,104.1,17.4,104.3,16.7z"/>
</g>
<g>
	<path d="M30.5,43.9c0-1.6,0.1-2.1,0.3-2.7c0.5-1.5,1.6-2.2,3.2-2.2c1.4,0,2.5,0.7,3.1,1.9c0,0.1,0,0.1-0.1,0.2L36,41.4
		c-0.1,0-0.2,0-0.2-0.1c-0.4-0.7-1-1.3-2-1.3c-1,0-1.7,0.5-2,1.4c-0.1,0.4-0.2,0.9-0.2,2.4c0,1.5,0.1,2,0.2,2.4
		c0.3,0.9,0.9,1.4,2,1.4c1,0,1.6-0.5,2-1.3c0-0.1,0.1-0.1,0.2-0.1l0.8,0.4c0.1,0,0.1,0.1,0.1,0.2c-0.5,1.2-1.6,1.9-3.1,1.9
		c-1.6,0-2.7-0.7-3.2-2.2C30.5,46,30.5,45.4,30.5,43.9z"/>
	<path d="M38.5,47c-0.2-0.5-0.2-0.9-0.2-1.7c0-0.8,0.1-1.2,0.2-1.7c0.4-1.1,1.3-1.8,2.6-1.8s2.3,0.7,2.6,1.8C44,44,44,44.5,44,45.3
		c0,0.8-0.1,1.2-0.2,1.7c-0.4,1.1-1.3,1.8-2.6,1.8S38.9,48.1,38.5,47z M42.7,46.6c0.1-0.4,0.2-0.7,0.2-1.4s0-1-0.2-1.4
		c-0.2-0.7-0.8-1.1-1.5-1.1c-0.7,0-1.3,0.4-1.5,1.1c-0.1,0.4-0.2,0.7-0.2,1.4s0,1,0.2,1.4c0.2,0.7,0.8,1.1,1.5,1.1
		C41.9,47.7,42.5,47.3,42.7,46.6z"/>
	<path d="M54.5,48.6c-0.1,0-0.1-0.1-0.1-0.1v-3.9c0-1.1-0.5-1.7-1.5-1.7c-0.9,0-1.5,0.6-1.5,1.6v4c0,0.1-0.1,0.1-0.1,0.1h-0.9
		c-0.1,0-0.1-0.1-0.1-0.1v-3.9c0-1.1-0.5-1.7-1.5-1.7c-0.9,0-1.5,0.6-1.5,1.6v4c0,0.1-0.1,0.1-0.1,0.1h-0.9c-0.1,0-0.1-0.1-0.1-0.1
		V42c0-0.1,0.1-0.1,0.1-0.1H47c0.1,0,0.1,0.1,0.1,0.1v0.6h0c0.3-0.5,1-0.9,1.9-0.9s1.6,0.4,2,1.1h0c0.5-0.6,1.1-1.1,2.2-1.1
		c1.6,0,2.4,1,2.4,2.5v4.2c0,0.1-0.1,0.1-0.1,0.1H54.5z"/>
	<path d="M57.9,51.1c-0.1,0-0.1-0.1-0.1-0.1v-9c0-0.1,0.1-0.1,0.1-0.1h0.9c0.1,0,0.1,0.1,0.1,0.1v0.6h0c0.3-0.5,0.9-0.9,1.9-0.9
		c1.2,0,2,0.5,2.3,1.6c0.2,0.5,0.2,1.1,0.2,1.9c0,0.8-0.1,1.4-0.2,1.9c-0.3,1.1-1.1,1.6-2.3,1.6c-1,0-1.6-0.4-1.9-0.9h0V51
		c0,0.1-0.1,0.1-0.1,0.1H57.9z M62,46.7c0.1-0.4,0.2-0.8,0.2-1.4c0-0.6,0-1-0.2-1.4c-0.2-0.7-0.7-1-1.5-1c-0.7,0-1.3,0.3-1.5,1
		c-0.1,0.3-0.2,0.7-0.2,1.4s0,1.1,0.2,1.4c0.2,0.7,0.7,1,1.5,1C61.3,47.7,61.8,47.3,62,46.7z"/>
	<path d="M65.1,47c-0.1-0.4-0.2-0.9-0.2-1.7s0.1-1.3,0.2-1.7c0.4-1.2,1.4-1.8,2.6-1.8c1.3,0,2.3,0.7,2.6,1.8
		c0.1,0.4,0.2,0.9,0.2,1.9c0,0.1-0.1,0.1-0.2,0.1h-4.2c-0.1,0-0.1,0-0.1,0.1c0,0.4,0,0.6,0.1,0.8c0.3,0.8,0.9,1.2,1.7,1.2
		c0.8,0,1.4-0.3,1.7-0.7c0.1-0.1,0.1-0.1,0.2,0l0.6,0.5c0.1,0.1,0.1,0.1,0,0.2c-0.5,0.7-1.4,1.1-2.6,1.1
		C66.4,48.8,65.5,48.1,65.1,47z M69.3,44.7C69.3,44.7,69.4,44.7,69.3,44.7c0.1-0.4,0.1-0.6,0-0.8c-0.2-0.7-0.8-1.1-1.5-1.1
		s-1.3,0.4-1.5,1.1c-0.1,0.2-0.1,0.4-0.1,0.8c0,0.1,0,0.1,0.1,0.1H69.3z"/>
	<path d="M74.4,48.7c-1.3,0-1.8-0.6-1.8-1.9v-3.8c0-0.1,0-0.1-0.1-0.1H72c-0.1,0-0.1-0.1-0.1-0.1V42c0-0.1,0.1-0.1,0.1-0.1h0.6
		c0.1,0,0.1,0,0.1-0.1v-1.9c0-0.1,0.1-0.1,0.1-0.1h0.9c0.1,0,0.1,0.1,0.1,0.1v1.9c0,0.1,0,0.1,0.1,0.1h1.1c0.1,0,0.1,0.1,0.1,0.1
		v0.7c0,0.1-0.1,0.1-0.1,0.1h-1.1c-0.1,0-0.1,0-0.1,0.1v3.8c0,0.7,0.3,0.9,0.9,0.9h0.3c0.1,0,0.1,0.1,0.1,0.1v0.8
		c0,0.1-0.1,0.1-0.1,0.1H74.4z"/>
	<path d="M77,40.4c-0.1,0-0.1-0.1-0.1-0.1v-1c0-0.1,0.1-0.1,0.1-0.1h1c0.1,0,0.1,0.1,0.1,0.1v1c0,0.1-0.1,0.1-0.1,0.1H77z M77,48.6
		c-0.1,0-0.1-0.1-0.1-0.1V42c0-0.1,0.1-0.1,0.1-0.1h0.9c0.1,0,0.1,0.1,0.1,0.1v6.4c0,0.1-0.1,0.1-0.1,0.1H77z"/>
	<path d="M82.3,48.7c-1.3,0-1.8-0.6-1.8-1.9v-3.8c0-0.1,0-0.1-0.1-0.1h-0.6c-0.1,0-0.1-0.1-0.1-0.1V42c0-0.1,0.1-0.1,0.1-0.1h0.6
		c0.1,0,0.1,0,0.1-0.1v-1.9c0-0.1,0.1-0.1,0.1-0.1h0.9c0.1,0,0.1,0.1,0.1,0.1v1.9c0,0.1,0,0.1,0.1,0.1h1.1c0.1,0,0.1,0.1,0.1,0.1
		v0.7c0,0.1-0.1,0.1-0.1,0.1h-1.1c-0.1,0-0.1,0-0.1,0.1v3.8c0,0.7,0.3,0.9,0.9,0.9h0.3c0.1,0,0.1,0.1,0.1,0.1v0.8
		c0,0.1-0.1,0.1-0.1,0.1H82.3z"/>
	<path d="M84.9,40.4c-0.1,0-0.1-0.1-0.1-0.1v-1c0-0.1,0.1-0.1,0.1-0.1h1c0.1,0,0.1,0.1,0.1,0.1v1c0,0.1-0.1,0.1-0.1,0.1H84.9z
		 M84.9,48.6c-0.1,0-0.1-0.1-0.1-0.1V42c0-0.1,0.1-0.1,0.1-0.1h0.9c0.1,0,0.1,0.1,0.1,0.1v6.4c0,0.1-0.1,0.1-0.1,0.1H84.9z"/>
	<path d="M90,48.6c-0.1,0-0.1-0.1-0.2-0.1L87.5,42c0-0.1,0-0.1,0.1-0.1h1c0.1,0,0.1,0,0.2,0.1l1.7,4.8h0l1.7-4.8
		c0-0.1,0.1-0.1,0.2-0.1h1c0.1,0,0.1,0.1,0.1,0.1L91,48.5c0,0.1-0.1,0.1-0.2,0.1H90z"/>
	<path d="M94.7,47c-0.1-0.4-0.2-0.9-0.2-1.7s0.1-1.3,0.2-1.7c0.4-1.2,1.4-1.8,2.6-1.8c1.3,0,2.3,0.7,2.6,1.8
		c0.1,0.4,0.2,0.9,0.2,1.9c0,0.1-0.1,0.1-0.2,0.1h-4.2c-0.1,0-0.1,0-0.1,0.1c0,0.4,0,0.6,0.1,0.8c0.3,0.8,0.9,1.2,1.7,1.2
		c0.8,0,1.4-0.3,1.7-0.7c0.1-0.1,0.1-0.1,0.2,0l0.6,0.5c0.1,0.1,0.1,0.1,0,0.2c-0.5,0.7-1.4,1.1-2.6,1.1C96,48.8,95.1,48.1,94.7,47z
		 M98.9,44.7C98.9,44.7,98.9,44.7,98.9,44.7c0.1-0.4,0.1-0.6,0-0.8c-0.2-0.7-0.8-1.1-1.5-1.1s-1.3,0.4-1.5,1.1
		c-0.1,0.2-0.1,0.4-0.1,0.8c0,0.1,0,0.1,0.1,0.1H98.9z"/>
	<path d="M107.9,39.2c0-0.1,0.1-0.1,0.2-0.1h0.9c0.1,0,0.2,0.1,0.2,0.1l3.3,9.2c0,0.1,0,0.1-0.1,0.1h-1c-0.1,0-0.2,0-0.2-0.1
		l-0.7-2.1h-3.9l-0.7,2.1c0,0.1-0.1,0.1-0.2,0.1h-1c-0.1,0-0.1-0.1-0.1-0.1L107.9,39.2z M110,45.3l-1.5-4.3h0l-1.5,4.3H110z"/>
	<path d="M118.3,48.6c-0.1,0-0.1-0.1-0.1-0.1v-3.9c0-1.1-0.5-1.7-1.5-1.7c-0.9,0-1.5,0.6-1.5,1.6v4c0,0.1-0.1,0.1-0.1,0.1H114
		c-0.1,0-0.1-0.1-0.1-0.1V42c0-0.1,0.1-0.1,0.1-0.1h0.9c0.1,0,0.1,0.1,0.1,0.1v0.6h0c0.3-0.5,1-0.9,1.9-0.9c1.5,0,2.3,1,2.3,2.5v4.2
		c0,0.1-0.1,0.1-0.1,0.1H118.3z"/>
	<path d="M125.6,48.6c-0.1,0-0.1-0.1-0.1-0.1v-0.6h0c-0.3,0.5-1,0.9-2,0.9c-1.3,0-2.3-0.7-2.3-2c0-1.4,1-2.1,2.6-2.1h1.5
		c0.1,0,0.1,0,0.1-0.1v-0.5c0-0.9-0.4-1.3-1.6-1.3c-0.8,0-1.2,0.2-1.6,0.5c-0.1,0.1-0.2,0.1-0.2,0l-0.4-0.6c0-0.1,0-0.1,0-0.2
		c0.5-0.4,1.3-0.7,2.3-0.7c1.9,0,2.6,0.6,2.6,2.3v4.4c0,0.1-0.1,0.1-0.1,0.1H125.6z M125.4,46.4v-0.7c0-0.1,0-0.1-0.1-0.1H124
		c-1.2,0-1.7,0.3-1.7,1.1c0,0.7,0.5,1.1,1.4,1.1C124.8,47.8,125.4,47.3,125.4,46.4z"/>
	<path d="M130.4,48.7c-1.2,0-1.6-0.6-1.6-1.8v-7.7c0-0.1,0.1-0.1,0.1-0.1h0.9c0.1,0,0.1,0.1,0.1,0.1v7.6c0,0.6,0.2,0.7,0.7,0.7h0.3
		c0.1,0,0.1,0.1,0.1,0.1v0.8c0,0.1-0.1,0.1-0.1,0.1H130.4z"/>
	<path d="M132.7,51.1c-0.1,0-0.1-0.1-0.1-0.1v-0.8c0-0.1,0.1-0.1,0.1-0.1h0.3c0.5,0,0.8-0.2,1.1-1l0.2-0.6l-2.5-6.4
		c0-0.1,0-0.1,0.1-0.1h1c0.1,0,0.1,0,0.2,0.1l1.8,4.8h0l1.7-4.8c0-0.1,0.1-0.1,0.2-0.1h1c0.1,0,0.1,0.1,0.1,0.1l-2.6,7.1
		c-0.6,1.6-1.1,2-2.1,2H132.7z"/>
	<path d="M138.7,47.8c-0.1-0.1-0.1-0.1,0-0.2l0.6-0.6c0.1-0.1,0.1-0.1,0.2,0c0.5,0.4,1.3,0.8,2.1,0.8c1,0,1.5-0.4,1.5-1
		c0-0.5-0.3-0.8-1.3-0.9l-0.7-0.1c-1.3-0.1-2-0.8-2-1.9c0-1.3,0.9-2,2.5-2c1,0,1.8,0.3,2.4,0.7c0.1,0,0.1,0.1,0,0.2l-0.5,0.6
		c-0.1,0.1-0.1,0.1-0.2,0c-0.4-0.3-1.1-0.5-1.8-0.5c-0.8,0-1.3,0.4-1.3,0.9c0,0.5,0.3,0.8,1.3,0.9l0.7,0.1c1.4,0.1,2,0.8,2,1.9
		c0,1.3-1,2.2-2.7,2.2C140.2,48.8,139.2,48.2,138.7,47.8z"/>
	<path d="M146.1,40.4c-0.1,0-0.1-0.1-0.1-0.1v-1c0-0.1,0.1-0.1,0.1-0.1h1c0.1,0,0.1,0.1,0.1,0.1v1c0,0.1-0.1,0.1-0.1,0.1H146.1z
		 M146.2,48.6c-0.1,0-0.1-0.1-0.1-0.1V42c0-0.1,0.1-0.1,0.1-0.1h0.9c0.1,0,0.1,0.1,0.1,0.1v6.4c0,0.1-0.1,0.1-0.1,0.1H146.2z"/>
	<path d="M149,47.8c-0.1-0.1-0.1-0.1,0-0.2l0.6-0.6c0.1-0.1,0.1-0.1,0.2,0c0.5,0.4,1.3,0.8,2.1,0.8c1,0,1.5-0.4,1.5-1
		c0-0.5-0.3-0.8-1.3-0.9l-0.7-0.1c-1.3-0.1-2-0.8-2-1.9c0-1.3,0.9-2,2.5-2c1,0,1.8,0.3,2.4,0.7c0.1,0,0.1,0.1,0,0.2l-0.5,0.6
		c-0.1,0.1-0.1,0.1-0.2,0c-0.4-0.3-1.1-0.5-1.8-0.5c-0.8,0-1.3,0.4-1.3,0.9c0,0.5,0.3,0.8,1.3,0.9l0.7,0.1c1.4,0.1,2,0.8,2,1.9
		c0,1.3-1,2.2-2.7,2.2C150.5,48.8,149.6,48.2,149,47.8z"/>
	<path d="M30.3,64.4c-0.1-0.1-0.1-0.1,0-0.2l0.6-0.7c0.1-0.1,0.1-0.1,0.2,0c0.6,0.5,1.6,1,2.7,1c1.3,0,2.1-0.7,2.1-1.6
		c0-0.8-0.5-1.4-2-1.6l-0.5-0.1c-1.8-0.3-2.8-1.1-2.8-2.6c0-1.7,1.2-2.8,3.1-2.8c1.1,0,2.2,0.4,2.9,0.9c0.1,0.1,0.1,0.1,0,0.2
		l-0.5,0.8c-0.1,0.1-0.1,0.1-0.2,0c-0.8-0.5-1.5-0.7-2.3-0.7c-1.2,0-1.8,0.6-1.8,1.5c0,0.8,0.5,1.3,2,1.5l0.5,0.1
		c1.9,0.3,2.8,1.1,2.8,2.7c0,1.7-1.2,2.9-3.5,2.9C32.4,65.6,31,65,30.3,64.4z"/>
	<path d="M43.3,65.4c-0.1,0-0.1-0.1-0.1-0.1v-0.6h0c-0.4,0.6-1,0.9-1.8,0.9c-1.5,0-2.3-1-2.3-2.5v-4.2c0-0.1,0.1-0.1,0.1-0.1H40
		c0.1,0,0.1,0.1,0.1,0.1v3.9c0,1.1,0.5,1.7,1.5,1.7c0.9,0,1.5-0.6,1.5-1.7v-4c0-0.1,0.1-0.1,0.1-0.1h0.9c0.1,0,0.1,0.1,0.1,0.1v6.4
		c0,0.1-0.1,0.1-0.1,0.1H43.3z"/>
	<path d="M46.7,65.4c-0.1,0-0.1-0.1-0.1-0.1v-6.4c0-0.1,0.1-0.1,0.1-0.1h0.9c0.1,0,0.1,0.1,0.1,0.1v0.7h0c0.3-0.6,0.9-1,1.8-1
		c0.5,0,1,0.2,1.4,0.5c0.1,0.1,0.1,0.1,0,0.2l-0.5,0.7c-0.1,0.1-0.1,0.1-0.2,0c-0.3-0.2-0.6-0.3-1-0.3c-1,0-1.4,0.8-1.4,2v3.7
		c0,0.1-0.1,0.1-0.1,0.1H46.7z"/>
	<path d="M54.1,65.4c-0.1,0-0.1-0.1-0.2-0.1l-2.4-6.4c0-0.1,0-0.1,0.1-0.1h1c0.1,0,0.1,0,0.2,0.1l1.7,4.8h0l1.7-4.8
		c0-0.1,0.1-0.1,0.2-0.1h1c0.1,0,0.1,0.1,0.1,0.1l-2.4,6.4c0,0.1-0.1,0.1-0.2,0.1H54.1z"/>
	<path d="M58.8,63.8c-0.1-0.4-0.2-0.9-0.2-1.7s0.1-1.3,0.2-1.7c0.4-1.2,1.4-1.8,2.6-1.8c1.3,0,2.3,0.7,2.6,1.8
		c0.1,0.4,0.2,0.9,0.2,1.9c0,0.1-0.1,0.1-0.2,0.1h-4.2c-0.1,0-0.1,0-0.1,0.1c0,0.4,0,0.6,0.1,0.8c0.3,0.8,0.9,1.2,1.7,1.2
		c0.8,0,1.4-0.3,1.7-0.7c0.1-0.1,0.1-0.1,0.2,0l0.6,0.5c0.1,0.1,0.1,0.1,0,0.2c-0.5,0.7-1.4,1.1-2.6,1.1
		C60.1,65.6,59.1,64.9,58.8,63.8z M63,61.5C63,61.5,63,61.5,63,61.5c0.1-0.4,0.1-0.6,0-0.8c-0.2-0.7-0.8-1.1-1.5-1.1
		s-1.3,0.4-1.5,1.1c-0.1,0.2-0.1,0.4-0.1,0.8c0,0.1,0,0.1,0.1,0.1H63z"/>
	<path d="M66.1,67.9c-0.1,0-0.1-0.1-0.1-0.1V67c0-0.1,0.1-0.1,0.1-0.1h0.3c0.5,0,0.8-0.2,1.1-1l0.2-0.6l-2.5-6.4
		c0-0.1,0-0.1,0.1-0.1h1c0.1,0,0.1,0,0.2,0.1l1.8,4.8h0l1.7-4.8c0-0.1,0.1-0.1,0.2-0.1h1c0.1,0,0.1,0.1,0.1,0.1l-2.6,7.1
		c-0.6,1.6-1.1,2-2.1,2H66.1z"/>
	<path d="M72.2,64.6c-0.1-0.1-0.1-0.1,0-0.2l0.6-0.6c0.1-0.1,0.1-0.1,0.2,0c0.5,0.4,1.3,0.8,2.1,0.8c1,0,1.5-0.4,1.5-1
		c0-0.5-0.3-0.8-1.3-0.9l-0.7-0.1c-1.3-0.1-2-0.8-2-1.9c0-1.3,0.9-2,2.5-2c1,0,1.8,0.3,2.4,0.7c0.1,0,0.1,0.1,0,0.2l-0.5,0.6
		c-0.1,0.1-0.1,0.1-0.2,0c-0.4-0.3-1.1-0.5-1.8-0.5c-0.8,0-1.3,0.4-1.3,0.9c0,0.5,0.3,0.8,1.3,0.9l0.7,0.1c1.4,0.1,2,0.8,2,1.9
		c0,1.3-1,2.2-2.7,2.2C73.6,65.6,72.7,65,72.2,64.6z"/>
	<path d="M30.7,78.9v-6.1c0-0.1,0.1-0.1,0.1-0.1h1c0.1,0,0.1,0.1,0.1,0.1v6.1c0,1.5,0.9,2.3,2.1,2.3c1.3,0,2.1-0.8,2.1-2.3v-6.1
		c0-0.1,0.1-0.1,0.1-0.1h1c0.1,0,0.1,0.1,0.1,0.1v6.1c0,2.2-1.3,3.5-3.4,3.5C32,82.4,30.7,81.1,30.7,78.9z"/>
	<path d="M39.3,81.4c-0.1-0.1-0.1-0.1,0-0.2l0.6-0.6c0.1-0.1,0.1-0.1,0.2,0c0.5,0.4,1.3,0.8,2.1,0.8c1,0,1.5-0.4,1.5-1
		c0-0.5-0.3-0.8-1.3-0.9l-0.7-0.1c-1.3-0.1-2-0.8-2-1.9c0-1.3,0.9-2,2.5-2c1,0,1.8,0.3,2.4,0.7c0.1,0,0.1,0.1,0,0.2L44,76.9
		c-0.1,0.1-0.1,0.1-0.2,0c-0.4-0.3-1.1-0.5-1.8-0.5c-0.8,0-1.3,0.4-1.3,0.9c0,0.5,0.3,0.8,1.3,0.9l0.7,0.1c1.4,0.1,2,0.8,2,1.9
		c0,1.3-1,2.2-2.7,2.2C40.7,82.4,39.8,81.8,39.3,81.4z"/>
	<path d="M46.4,80.6c-0.1-0.4-0.2-0.9-0.2-1.7s0.1-1.3,0.2-1.7c0.4-1.2,1.4-1.8,2.6-1.8c1.3,0,2.3,0.7,2.6,1.8
		c0.1,0.4,0.2,0.9,0.2,1.9c0,0.1-0.1,0.1-0.2,0.1h-4.2c-0.1,0-0.1,0-0.1,0.1c0,0.4,0,0.6,0.1,0.8c0.3,0.8,0.9,1.2,1.7,1.2
		c0.8,0,1.4-0.3,1.7-0.7c0.1-0.1,0.1-0.1,0.2,0l0.6,0.5c0.1,0.1,0.1,0.1,0,0.2c-0.5,0.7-1.4,1.1-2.6,1.1
		C47.7,82.4,46.8,81.7,46.4,80.6z M50.6,78.3C50.6,78.3,50.7,78.3,50.6,78.3c0.1-0.4,0.1-0.6,0-0.8c-0.2-0.7-0.8-1.1-1.5-1.1
		s-1.3,0.4-1.5,1.1c-0.1,0.2-0.1,0.4-0.1,0.8c0,0.1,0,0.1,0.1,0.1H50.6z"/>
	<path d="M53.9,82.2c-0.1,0-0.1-0.1-0.1-0.1v-6.4c0-0.1,0.1-0.1,0.1-0.1h0.9c0.1,0,0.1,0.1,0.1,0.1v0.7h0c0.3-0.6,0.9-1,1.8-1
		c0.5,0,1,0.2,1.4,0.5c0.1,0.1,0.1,0.1,0,0.2l-0.5,0.7c-0.1,0.1-0.1,0.1-0.2,0c-0.3-0.2-0.6-0.3-1-0.3c-1,0-1.4,0.8-1.4,2v3.7
		c0,0.1-0.1,0.1-0.1,0.1H53.9z"/>
	<path d="M62.9,72.8c0-0.1,0.1-0.1,0.1-0.1h1c0.1,0,0.1,0.1,0.1,0.1v9.2c0,0.1-0.1,0.1-0.1,0.1h-1c-0.1,0-0.1-0.1-0.1-0.1V72.8z"/>
	<path d="M70.8,82.2c-0.1,0-0.1-0.1-0.1-0.1v-3.9c0-1.1-0.5-1.7-1.5-1.7c-0.9,0-1.5,0.6-1.5,1.6v4c0,0.1-0.1,0.1-0.1,0.1h-0.9
		c-0.1,0-0.1-0.1-0.1-0.1v-6.4c0-0.1,0.1-0.1,0.1-0.1h0.9c0.1,0,0.1,0.1,0.1,0.1v0.6h0c0.3-0.5,1-0.9,1.9-0.9c1.5,0,2.3,1,2.3,2.5
		v4.2c0,0.1-0.1,0.1-0.1,0.1H70.8z"/>
	<path d="M76,82.3c-1.3,0-1.8-0.6-1.8-1.9v-3.8c0-0.1,0-0.1-0.1-0.1h-0.6c-0.1,0-0.1-0.1-0.1-0.1v-0.7c0-0.1,0.1-0.1,0.1-0.1h0.6
		c0.1,0,0.1,0,0.1-0.1v-1.9c0-0.1,0.1-0.1,0.1-0.1h0.9c0.1,0,0.1,0.1,0.1,0.1v1.9c0,0.1,0,0.1,0.1,0.1h1.1c0.1,0,0.1,0.1,0.1,0.1
		v0.7c0,0.1-0.1,0.1-0.1,0.1h-1.1c-0.1,0-0.1,0-0.1,0.1v3.8c0,0.7,0.3,0.9,0.9,0.9h0.3c0.1,0,0.1,0.1,0.1,0.1v0.8
		c0,0.1-0.1,0.1-0.1,0.1H76z"/>
	<path d="M78.3,80.6c-0.1-0.4-0.2-0.9-0.2-1.7s0.1-1.3,0.2-1.7c0.4-1.2,1.4-1.8,2.6-1.8c1.3,0,2.3,0.7,2.6,1.8
		c0.1,0.4,0.2,0.9,0.2,1.9c0,0.1-0.1,0.1-0.2,0.1h-4.2c-0.1,0-0.1,0-0.1,0.1c0,0.4,0,0.6,0.1,0.8c0.3,0.8,0.9,1.2,1.7,1.2
		c0.8,0,1.4-0.3,1.7-0.7c0.1-0.1,0.1-0.1,0.2,0l0.6,0.5c0.1,0.1,0.1,0.1,0,0.2c-0.5,0.7-1.4,1.1-2.6,1.1
		C79.6,82.4,78.7,81.7,78.3,80.6z M82.5,78.3C82.5,78.3,82.6,78.3,82.5,78.3c0.1-0.4,0.1-0.6,0-0.8c-0.2-0.7-0.8-1.1-1.5-1.1
		s-1.3,0.4-1.5,1.1c-0.1,0.2-0.1,0.4-0.1,0.8c0,0.1,0,0.1,0.1,0.1H82.5z"/>
	<path d="M85.8,82.2c-0.1,0-0.1-0.1-0.1-0.1v-6.4c0-0.1,0.1-0.1,0.1-0.1h0.9c0.1,0,0.1,0.1,0.1,0.1v0.7h0c0.3-0.6,0.9-1,1.8-1
		c0.5,0,1,0.2,1.4,0.5c0.1,0.1,0.1,0.1,0,0.2l-0.5,0.7c-0.1,0.1-0.1,0.1-0.2,0c-0.3-0.2-0.6-0.3-1-0.3c-1,0-1.4,0.8-1.4,2v3.7
		c0,0.1-0.1,0.1-0.1,0.1H85.8z"/>
	<path d="M93.2,82.2c-0.1,0-0.1-0.1-0.2-0.1l-2.4-6.4c0-0.1,0-0.1,0.1-0.1h1c0.1,0,0.1,0,0.2,0.1l1.7,4.8h0l1.7-4.8
		c0-0.1,0.1-0.1,0.2-0.1h1c0.1,0,0.1,0.1,0.1,0.1l-2.4,6.4c0,0.1-0.1,0.1-0.2,0.1H93.2z"/>
	<path d="M98.2,74c-0.1,0-0.1-0.1-0.1-0.1v-1c0-0.1,0.1-0.1,0.1-0.1h1c0.1,0,0.1,0.1,0.1,0.1v1c0,0.1-0.1,0.1-0.1,0.1H98.2z
		 M98.2,82.2c-0.1,0-0.1-0.1-0.1-0.1v-6.4c0-0.1,0.1-0.1,0.1-0.1h0.9c0.1,0,0.1,0.1,0.1,0.1v6.4c0,0.1-0.1,0.1-0.1,0.1H98.2z"/>
	<path d="M101.4,80.6c-0.1-0.4-0.2-0.9-0.2-1.7s0.1-1.3,0.2-1.7c0.4-1.2,1.4-1.8,2.6-1.8c1.3,0,2.3,0.7,2.6,1.8
		c0.1,0.4,0.2,0.9,0.2,1.9c0,0.1-0.1,0.1-0.2,0.1h-4.2c-0.1,0-0.1,0-0.1,0.1c0,0.4,0,0.6,0.1,0.8c0.3,0.8,0.9,1.2,1.7,1.2
		c0.8,0,1.4-0.3,1.7-0.7c0.1-0.1,0.1-0.1,0.2,0l0.6,0.5c0.1,0.1,0.1,0.1,0,0.2c-0.5,0.7-1.4,1.1-2.6,1.1
		C102.7,82.4,101.7,81.7,101.4,80.6z M105.5,78.3C105.6,78.3,105.6,78.3,105.5,78.3c0.1-0.4,0.1-0.6,0-0.8c-0.2-0.7-0.8-1.1-1.5-1.1
		s-1.3,0.4-1.5,1.1c-0.1,0.2-0.1,0.4-0.1,0.8c0,0.1,0,0.1,0.1,0.1H105.5z"/>
	<path d="M114.5,82.2c-0.1,0-0.1-0.1-0.2-0.1l-1.5-4.8h0l-1.5,4.8c0,0.1-0.1,0.1-0.2,0.1h-0.8c-0.1,0-0.1-0.1-0.2-0.1l-2.1-6.4
		c0-0.1,0-0.1,0.1-0.1h1c0.1,0,0.1,0,0.2,0.1l1.5,4.8h0l1.5-4.8c0-0.1,0.1-0.1,0.2-0.1h0.7c0.1,0,0.2,0,0.2,0.1l1.5,4.8h0l1.4-4.8
		c0-0.1,0.1-0.1,0.2-0.1h1c0.1,0,0.1,0.1,0.1,0.1l-2.1,6.4c0,0.1-0.1,0.1-0.2,0.1H114.5z"/>
	<path d="M118.6,81.4c-0.1-0.1-0.1-0.1,0-0.2l0.6-0.6c0.1-0.1,0.1-0.1,0.2,0c0.5,0.4,1.3,0.8,2.1,0.8c1,0,1.5-0.4,1.5-1
		c0-0.5-0.3-0.8-1.3-0.9l-0.7-0.1c-1.3-0.1-2-0.8-2-1.9c0-1.3,0.9-2,2.5-2c1,0,1.8,0.3,2.4,0.7c0.1,0,0.1,0.1,0,0.2l-0.5,0.6
		c-0.1,0.1-0.1,0.1-0.2,0c-0.4-0.3-1.1-0.5-1.8-0.5c-0.8,0-1.3,0.4-1.3,0.9c0,0.5,0.3,0.8,1.3,0.9l0.7,0.1c1.4,0.1,2,0.8,2,1.9
		c0,1.3-1,2.2-2.7,2.2C120,82.4,119.1,81.8,118.6,81.4z"/>
	<path d="M30.9,99c-0.1,0-0.1-0.1-0.1-0.1v-9.2c0-0.1,0.1-0.1,0.1-0.1h3.4c1.8,0,3,1.1,3,2.8s-1.2,2.8-3,2.8h-2.2
		c-0.1,0-0.1,0-0.1,0.1v3.6c0,0.1-0.1,0.1-0.1,0.1H30.9z M36.1,92.3c0-1-0.7-1.7-1.9-1.7h-2.1c-0.1,0-0.1,0-0.1,0.1v3.2
		c0,0.1,0,0.1,0.1,0.1h2.1C35.4,94,36.1,93.4,36.1,92.3z"/>
	<path d="M38.8,97.4c-0.1-0.4-0.2-0.9-0.2-1.7s0.1-1.3,0.2-1.7c0.4-1.2,1.4-1.8,2.6-1.8c1.3,0,2.3,0.7,2.6,1.8
		c0.1,0.4,0.2,0.9,0.2,1.9c0,0.1-0.1,0.1-0.2,0.1h-4.2c-0.1,0-0.1,0-0.1,0.1c0,0.4,0,0.6,0.1,0.8c0.3,0.8,0.9,1.2,1.7,1.2
		c0.8,0,1.4-0.3,1.7-0.7c0.1-0.1,0.1-0.1,0.2,0l0.6,0.5c0.1,0.1,0.1,0.1,0,0.2c-0.5,0.7-1.4,1.1-2.6,1.1
		C40.1,99.2,39.2,98.5,38.8,97.4z M43,95.1C43,95.1,43.1,95.1,43,95.1c0.1-0.4,0.1-0.6,0-0.8c-0.2-0.7-0.8-1.1-1.5-1.1
		s-1.3,0.4-1.5,1.1c-0.1,0.2-0.1,0.4-0.1,0.8c0,0.1,0,0.1,0.1,0.1H43z"/>
	<path d="M46.3,99c-0.1,0-0.1-0.1-0.1-0.1v-6.4c0-0.1,0.1-0.1,0.1-0.1h0.9c0.1,0,0.1,0.1,0.1,0.1v0.7h0c0.3-0.6,0.9-1,1.8-1
		c0.5,0,1,0.2,1.4,0.5c0.1,0.1,0.1,0.1,0,0.2L50,93.5c-0.1,0.1-0.1,0.1-0.2,0c-0.3-0.2-0.6-0.3-1-0.3c-1,0-1.4,0.8-1.4,2v3.7
		c0,0.1-0.1,0.1-0.1,0.1H46.3z"/>
	<path d="M51.3,98.2c-0.1-0.1-0.1-0.1,0-0.2l0.6-0.6c0.1-0.1,0.1-0.1,0.2,0c0.5,0.4,1.3,0.8,2.1,0.8c1,0,1.5-0.4,1.5-1
		c0-0.5-0.3-0.8-1.3-0.9l-0.7-0.1c-1.3-0.1-2-0.8-2-1.9c0-1.3,0.9-2,2.5-2c1,0,1.8,0.3,2.4,0.7c0.1,0,0.1,0.1,0,0.2L56,93.7
		c-0.1,0.1-0.1,0.1-0.2,0c-0.4-0.3-1.1-0.5-1.8-0.5c-0.8,0-1.3,0.4-1.3,0.9c0,0.5,0.3,0.8,1.3,0.9l0.7,0.1c1.4,0.1,2,0.8,2,1.9
		c0,1.3-1,2.2-2.7,2.2C52.8,99.2,51.9,98.6,51.3,98.2z"/>
	<path d="M58.5,97.4c-0.2-0.5-0.2-0.9-0.2-1.7c0-0.8,0.1-1.2,0.2-1.7c0.4-1.1,1.3-1.8,2.6-1.8s2.3,0.7,2.6,1.8
		c0.2,0.5,0.2,0.9,0.2,1.7c0,0.8-0.1,1.2-0.2,1.7c-0.4,1.1-1.3,1.8-2.6,1.8S58.8,98.5,58.5,97.4z M62.6,97c0.1-0.4,0.2-0.7,0.2-1.4
		s0-1-0.2-1.4c-0.2-0.7-0.8-1.1-1.5-1.1c-0.7,0-1.3,0.4-1.5,1.1c-0.1,0.4-0.2,0.7-0.2,1.4s0,1,0.2,1.4c0.2,0.7,0.8,1.1,1.5,1.1
		C61.8,98.1,62.4,97.7,62.6,97z"/>
	<path d="M70.2,99c-0.1,0-0.1-0.1-0.1-0.1V95c0-1.1-0.5-1.7-1.5-1.7c-0.9,0-1.5,0.6-1.5,1.6v4C67,99,67,99,66.9,99H66
		c-0.1,0-0.1-0.1-0.1-0.1v-6.4c0-0.1,0.1-0.1,0.1-0.1h0.9c0.1,0,0.1,0.1,0.1,0.1v0.6h0c0.3-0.5,1-0.9,1.9-0.9c1.5,0,2.3,1,2.3,2.5
		v4.2c0,0.1-0.1,0.1-0.1,0.1H70.2z"/>
	<path d="M77.5,99c-0.1,0-0.1-0.1-0.1-0.1v-0.6h0c-0.3,0.5-1,0.9-2,0.9c-1.3,0-2.3-0.7-2.3-2c0-1.4,1-2.1,2.6-2.1h1.5
		c0.1,0,0.1,0,0.1-0.1v-0.5c0-0.9-0.4-1.3-1.6-1.3c-0.8,0-1.2,0.2-1.6,0.5c-0.1,0.1-0.2,0.1-0.2,0L73.6,93c0-0.1,0-0.1,0-0.2
		c0.5-0.4,1.3-0.7,2.3-0.7c1.9,0,2.6,0.6,2.6,2.3v4.4c0,0.1-0.1,0.1-0.1,0.1H77.5z M77.4,96.8v-0.7c0-0.1,0-0.1-0.1-0.1h-1.3
		c-1.2,0-1.7,0.3-1.7,1.1c0,0.7,0.5,1.1,1.4,1.1C76.7,98.2,77.4,97.7,77.4,96.8z"/>
	<path d="M84.1,89.6c0-0.1,0.1-0.1,0.1-0.1h3.2c1.6,0,2.7,0.7,3.1,2c0.2,0.5,0.3,1,0.3,2.7s-0.1,2.2-0.3,2.7c-0.4,1.3-1.5,2-3.1,2
		h-3.2c-0.1,0-0.1-0.1-0.1-0.1V89.6z M85.5,97.9h1.8c1.1,0,1.9-0.4,2.2-1.3c0.1-0.4,0.2-0.8,0.2-2.3s-0.1-1.9-0.2-2.3
		c-0.3-0.9-1-1.3-2.2-1.3h-1.8c-0.1,0-0.1,0-0.1,0.1L85.5,97.9C85.4,97.8,85.4,97.9,85.5,97.9z"/>
	<path d="M92.6,97.4c-0.1-0.4-0.2-0.9-0.2-1.7s0.1-1.3,0.2-1.7c0.4-1.2,1.4-1.8,2.6-1.8c1.3,0,2.3,0.7,2.6,1.8
		c0.1,0.4,0.2,0.9,0.2,1.9c0,0.1-0.1,0.1-0.2,0.1h-4.2c-0.1,0-0.1,0-0.1,0.1c0,0.4,0,0.6,0.1,0.8c0.3,0.8,0.9,1.2,1.7,1.2
		c0.8,0,1.4-0.3,1.7-0.7c0.1-0.1,0.1-0.1,0.2,0l0.6,0.5C98,97.9,98,98,98,98c-0.5,0.7-1.4,1.1-2.6,1.1C94,99.2,93,98.5,92.6,97.4z
		 M96.8,95.1C96.9,95.1,96.9,95.1,96.8,95.1c0.1-0.4,0.1-0.6,0-0.8c-0.2-0.7-0.8-1.1-1.5-1.1s-1.3,0.4-1.5,1.1
		c-0.1,0.2-0.1,0.4-0.1,0.8c0,0.1,0,0.1,0.1,0.1H96.8z"/>
	<path d="M101.8,99c-0.1,0-0.1-0.1-0.2-0.1l-2.4-6.4c0-0.1,0-0.1,0.1-0.1h1c0.1,0,0.1,0,0.2,0.1l1.7,4.8h0l1.7-4.8
		c0-0.1,0.1-0.1,0.2-0.1h1c0.1,0,0.1,0.1,0.1,0.1l-2.4,6.4c0,0.1-0.1,0.1-0.2,0.1H101.8z"/>
	<path d="M106.4,97.4c-0.1-0.4-0.2-0.9-0.2-1.7s0.1-1.3,0.2-1.7c0.4-1.2,1.4-1.8,2.6-1.8c1.3,0,2.3,0.7,2.6,1.8
		c0.1,0.4,0.2,0.9,0.2,1.9c0,0.1-0.1,0.1-0.2,0.1h-4.2c-0.1,0-0.1,0-0.1,0.1c0,0.4,0,0.6,0.1,0.8c0.3,0.8,0.9,1.2,1.7,1.2
		c0.8,0,1.4-0.3,1.7-0.7c0.1-0.1,0.1-0.1,0.2,0l0.6,0.5c0.1,0.1,0.1,0.1,0,0.2c-0.5,0.7-1.4,1.1-2.6,1.1
		C107.8,99.2,106.8,98.5,106.4,97.4z M110.6,95.1C110.7,95.1,110.7,95.1,110.6,95.1c0.1-0.4,0.1-0.6,0-0.8c-0.2-0.7-0.8-1.1-1.5-1.1
		s-1.3,0.4-1.5,1.1c-0.1,0.2-0.1,0.4-0.1,0.8c0,0.1,0,0.1,0.1,0.1H110.6z"/>
	<path d="M115.4,99.1c-1.2,0-1.6-0.6-1.6-1.8v-7.7c0-0.1,0.1-0.1,0.1-0.1h0.9c0.1,0,0.1,0.1,0.1,0.1v7.6c0,0.6,0.2,0.7,0.7,0.7h0.3
		c0.1,0,0.1,0.1,0.1,0.1v0.8c0,0.1-0.1,0.1-0.1,0.1H115.4z"/>
	<path d="M117.5,97.4c-0.2-0.5-0.2-0.9-0.2-1.7c0-0.8,0.1-1.2,0.2-1.7c0.4-1.1,1.3-1.8,2.6-1.8s2.3,0.7,2.6,1.8
		c0.2,0.5,0.2,0.9,0.2,1.7c0,0.8-0.1,1.2-0.2,1.7c-0.4,1.1-1.3,1.8-2.6,1.8S117.8,98.5,117.5,97.4z M121.6,97
		c0.1-0.4,0.2-0.7,0.2-1.4s0-1-0.2-1.4c-0.2-0.7-0.8-1.1-1.5-1.1c-0.7,0-1.3,0.4-1.5,1.1c-0.1,0.4-0.2,0.7-0.2,1.4s0,1,0.2,1.4
		c0.2,0.7,0.8,1.1,1.5,1.1C120.9,98.1,121.4,97.7,121.6,97z"/>
	<path d="M125,101.5c-0.1,0-0.1-0.1-0.1-0.1v-9c0-0.1,0.1-0.1,0.1-0.1h0.9c0.1,0,0.1,0.1,0.1,0.1v0.6h0c0.3-0.5,0.9-0.9,1.9-0.9
		c1.2,0,2,0.5,2.3,1.6c0.2,0.5,0.2,1.1,0.2,1.9c0,0.8-0.1,1.4-0.2,1.9c-0.3,1.1-1.1,1.6-2.3,1.6c-1,0-1.6-0.4-1.9-0.9h0v3.2
		c0,0.1-0.1,0.1-0.1,0.1H125z M129.2,97.1c0.1-0.4,0.2-0.8,0.2-1.4c0-0.6,0-1-0.2-1.4c-0.2-0.7-0.7-1-1.5-1c-0.7,0-1.3,0.3-1.5,1
		c-0.1,0.3-0.2,0.7-0.2,1.4s0,1.1,0.2,1.4c0.2,0.7,0.7,1,1.5,1C128.4,98.1,129,97.7,129.2,97.1z"/>
	<path d="M141,99c-0.1,0-0.1-0.1-0.1-0.1V95c0-1.1-0.5-1.7-1.5-1.7c-0.9,0-1.5,0.6-1.5,1.6v4c0,0.1-0.1,0.1-0.1,0.1h-0.9
		c-0.1,0-0.1-0.1-0.1-0.1V95c0-1.1-0.5-1.7-1.5-1.7c-0.9,0-1.5,0.6-1.5,1.6v4c0,0.1-0.1,0.1-0.1,0.1h-0.9c-0.1,0-0.1-0.1-0.1-0.1
		v-6.4c0-0.1,0.1-0.1,0.1-0.1h0.9c0.1,0,0.1,0.1,0.1,0.1v0.6h0c0.3-0.5,1-0.9,1.9-0.9s1.6,0.4,2,1.1h0c0.5-0.6,1.1-1.1,2.2-1.1
		c1.6,0,2.4,1,2.4,2.5v4.2c0,0.1-0.1,0.1-0.1,0.1H141z"/>
	<path d="M144.1,97.4c-0.1-0.4-0.2-0.9-0.2-1.7s0.1-1.3,0.2-1.7c0.4-1.2,1.4-1.8,2.6-1.8c1.3,0,2.3,0.7,2.6,1.8
		c0.1,0.4,0.2,0.9,0.2,1.9c0,0.1-0.1,0.1-0.2,0.1h-4.2c-0.1,0-0.1,0-0.1,0.1c0,0.4,0,0.6,0.1,0.8c0.3,0.8,0.9,1.2,1.7,1.2
		c0.8,0,1.4-0.3,1.7-0.7c0.1-0.1,0.1-0.1,0.2,0l0.6,0.5c0.1,0.1,0.1,0.1,0,0.2c-0.5,0.7-1.4,1.1-2.6,1.1
		C145.4,99.2,144.4,98.5,144.1,97.4z M148.2,95.1C148.3,95.1,148.3,95.1,148.2,95.1c0.1-0.4,0.1-0.6,0-0.8c-0.2-0.7-0.8-1.1-1.5-1.1
		s-1.3,0.4-1.5,1.1c-0.1,0.2-0.1,0.4-0.1,0.8c0,0.1,0,0.1,0.1,0.1H148.2z"/>
	<path d="M155.8,99c-0.1,0-0.1-0.1-0.1-0.1V95c0-1.1-0.5-1.7-1.5-1.7c-0.9,0-1.5,0.6-1.5,1.6v4c0,0.1-0.1,0.1-0.1,0.1h-0.9
		c-0.1,0-0.1-0.1-0.1-0.1v-6.4c0-0.1,0.1-0.1,0.1-0.1h0.9c0.1,0,0.1,0.1,0.1,0.1v0.6h0c0.3-0.5,1-0.9,1.9-0.9c1.5,0,2.3,1,2.3,2.5
		v4.2c0,0.1-0.1,0.1-0.1,0.1H155.8z"/>
	<path d="M161,99.1c-1.3,0-1.8-0.6-1.8-1.9v-3.8c0-0.1,0-0.1-0.1-0.1h-0.6c-0.1,0-0.1-0.1-0.1-0.1v-0.7c0-0.1,0.1-0.1,0.1-0.1h0.6
		c0.1,0,0.1,0,0.1-0.1v-1.9c0-0.1,0.1-0.1,0.1-0.1h0.9c0.1,0,0.1,0.1,0.1,0.1v1.9c0,0.1,0,0.1,0.1,0.1h1.1c0.1,0,0.1,0.1,0.1,0.1
		v0.7c0,0.1-0.1,0.1-0.1,0.1h-1.1c-0.1,0-0.1,0-0.1,0.1v3.8c0,0.7,0.3,0.9,0.9,0.9h0.3c0.1,0,0.1,0.1,0.1,0.1v0.8
		c0,0.1-0.1,0.1-0.1,0.1H161z"/>
</g>
<g>
	<path class="st5" d="M528.3,26.1c0-0.1,0.1-0.2,0.2-0.2h5.3c3,0,4.3,1.5,4.3,3.6c0,1.5-0.7,2.4-1.6,2.9v0c0.9,0.3,1.8,1.5,1.8,3.1
		c0,2.7-1.8,4-4.7,4h-5.2c-0.1,0-0.2-0.1-0.2-0.2V26.1z M533.5,31.5c1.1,0,1.8-0.6,1.8-1.6c0-1-0.7-1.6-1.8-1.6h-2.1
		c-0.1,0-0.1,0-0.1,0.1v2.9c0,0.1,0,0.1,0.1,0.1H533.5z M531.4,37.1h2.2c1.2,0,1.8-0.6,1.8-1.7c0-1-0.6-1.7-1.8-1.7h-2.2
		c-0.1,0-0.1,0-0.1,0.1V37C531.3,37.1,531.3,37.1,531.4,37.1z"/>
	<path class="st5" d="M546.4,39.5c-0.1,0-0.2-0.1-0.2-0.2v-0.7h0c-0.5,0.7-1.3,1.1-2.5,1.1c-2.1,0-3.3-1.5-3.3-3.6V30
		c0-0.1,0.1-0.2,0.2-0.2h2.4c0.1,0,0.2,0.1,0.2,0.2v5.6c0,1,0.5,1.8,1.5,1.8c1,0,1.5-0.7,1.5-1.8V30c0-0.1,0.1-0.2,0.2-0.2h2.4
		c0.1,0,0.2,0.1,0.2,0.2v9.3c0,0.1-0.1,0.2-0.2,0.2H546.4z"/>
	<path class="st5" d="M551.7,28.3c-0.1,0-0.2-0.1-0.2-0.2v-2c0-0.1,0.1-0.2,0.2-0.2h2.4c0.1,0,0.2,0.1,0.2,0.2v2
		c0,0.1-0.1,0.2-0.2,0.2H551.7z M551.7,39.5c-0.1,0-0.2-0.1-0.2-0.2V30c0-0.1,0.1-0.2,0.2-0.2h2.4c0.1,0,0.2,0.1,0.2,0.2v9.3
		c0,0.1-0.1,0.2-0.2,0.2H551.7z"/>
	<path class="st5" d="M559.8,39.6c-2.1,0-3-0.9-3-3.1V26.1c0-0.1,0.1-0.2,0.2-0.2h2.4c0.1,0,0.2,0.1,0.2,0.2v10.2
		c0,0.7,0.3,0.9,0.8,0.9h0.4c0.1,0,0.2,0.1,0.2,0.2v2c0,0.1-0.1,0.2-0.2,0.2H559.8z"/>
	<path class="st5" d="M568.8,39.5c-0.1,0-0.2-0.1-0.2-0.2v-0.7h0c-0.5,0.7-1.3,1.1-2.5,1.1c-1.6,0-2.8-0.8-3.3-2.3
		c-0.2-0.8-0.3-1.5-0.3-2.7c0-1.3,0.1-2,0.3-2.7c0.5-1.5,1.7-2.3,3.3-2.3c1.3,0,2.1,0.5,2.5,1.1h0v-4.6c0-0.1,0.1-0.2,0.2-0.2h2.4
		c0.1,0,0.2,0.1,0.2,0.2v13.2c0,0.1-0.1,0.2-0.2,0.2H568.8z M568.4,36.3c0.1-0.4,0.2-0.8,0.2-1.7s-0.1-1.3-0.2-1.7
		c-0.2-0.7-0.7-1-1.5-1c-0.8,0-1.3,0.3-1.5,1c-0.1,0.4-0.2,0.8-0.2,1.7s0.1,1.3,0.2,1.7c0.2,0.7,0.7,1,1.5,1
		C567.7,37.4,568.2,37,568.4,36.3z"/>
	<path class="st5" d="M574.1,28.3c-0.1,0-0.2-0.1-0.2-0.2v-2c0-0.1,0.1-0.2,0.2-0.2h2.4c0.1,0,0.2,0.1,0.2,0.2v2
		c0,0.1-0.1,0.2-0.2,0.2H574.1z M574.1,39.5c-0.1,0-0.2-0.1-0.2-0.2V30c0-0.1,0.1-0.2,0.2-0.2h2.4c0.1,0,0.2,0.1,0.2,0.2v9.3
		c0,0.1-0.1,0.2-0.2,0.2H574.1z"/>
	<path class="st5" d="M585.2,39.5c-0.1,0-0.2-0.1-0.2-0.2v-5.6c0-1.1-0.5-1.8-1.5-1.8c-1,0-1.5,0.7-1.5,1.8v5.6
		c0,0.1-0.1,0.2-0.2,0.2h-2.4c-0.1,0-0.2-0.1-0.2-0.2V30c0-0.1,0.1-0.2,0.2-0.2h2.4c0.1,0,0.2,0.1,0.2,0.2v0.7h0
		c0.4-0.6,1.3-1.1,2.5-1.1c2.1,0,3.3,1.5,3.3,3.6v6.1c0,0.1-0.1,0.2-0.2,0.2H585.2z"/>
	<path class="st5" d="M590.1,41.9c-0.1-0.1-0.1-0.2,0-0.3l1.4-1.4c0.1-0.1,0.2-0.1,0.3,0c0.6,0.5,1.2,0.8,2,0.8
		c1.3,0,1.9-0.7,1.9-2.1V38h0c-0.4,0.7-1.3,1.1-2.5,1.1c-1.6,0-2.7-0.8-3.2-2.3c-0.2-0.7-0.3-1.4-0.3-2.4c0-1,0.1-1.7,0.3-2.4
		c0.5-1.5,1.6-2.3,3.2-2.3c1.2,0,2.1,0.4,2.5,1.1h0V30c0-0.1,0.1-0.2,0.2-0.2h2.4c0.1,0,0.2,0.1,0.2,0.2v8.4c0,3.2-1.6,4.9-4.8,4.9
		C592.4,43.3,590.8,42.7,590.1,41.9z M595.6,35.7c0.1-0.4,0.2-0.8,0.2-1.4c0-0.6-0.1-1-0.2-1.4c-0.2-0.7-0.7-1-1.4-1
		c-0.8,0-1.2,0.4-1.4,1c-0.1,0.4-0.2,0.8-0.2,1.4c0,0.6,0.1,1,0.2,1.4c0.2,0.7,0.7,1,1.4,1C595,36.8,595.4,36.4,595.6,35.7z"/>
</g>
<g>
	<path class="st6" d="M596.3,410.3c0-0.1,0.1-0.2,0.2-0.2h2.4c0.2,0,0.3,0.1,0.3,0.2l3.4,7.8h0.1l3.4-7.8c0.1-0.1,0.2-0.2,0.3-0.2
		h2.3c0.1,0,0.2,0.1,0.2,0.2v13.2c0,0.1-0.1,0.2-0.2,0.2h-2.3c-0.1,0-0.2-0.1-0.2-0.2v-7.7h-0.1l-2.5,5.7c-0.1,0.2-0.2,0.3-0.4,0.3
		H602c-0.2,0-0.3-0.1-0.4-0.3l-2.5-5.7H599v7.7c0,0.1-0.1,0.2-0.2,0.2h-2.3c-0.1,0-0.2-0.1-0.2-0.2V410.3z"/>
	<path class="st6" d="M611.4,421.1c-0.2-0.6-0.3-1.3-0.3-2.3c0-1,0.1-1.7,0.3-2.3c0.6-1.7,2.1-2.7,4.2-2.7c2.1,0,3.6,1,4.2,2.7
		c0.2,0.6,0.3,1.3,0.3,3c0,0.1-0.1,0.2-0.2,0.2H614c-0.1,0-0.1,0-0.1,0.1c0,0.2,0.1,0.4,0.1,0.5c0.3,0.8,1,1.3,2,1.3
		c1,0,1.7-0.3,2.2-0.9c0.1-0.1,0.2-0.1,0.3,0l1.3,1.2c0.1,0.1,0.1,0.2,0,0.3c-0.9,1-2.3,1.6-4.1,1.6
		C613.5,423.9,612,422.9,611.4,421.1z M617.2,417.8c0.1,0,0.1,0,0.1-0.1c0-0.3,0-0.5-0.1-0.7c-0.2-0.7-0.8-1.1-1.6-1.1
		c-0.8,0-1.4,0.4-1.6,1.1c-0.1,0.2-0.1,0.4-0.1,0.7c0,0.1,0,0.1,0.1,0.1H617.2z"/>
	<path class="st6" d="M627.8,423.7c-0.1,0-0.2-0.1-0.2-0.2v-0.6h0c-0.5,0.6-1.3,1.1-2.7,1.1c-1.7,0-3.2-0.9-3.2-3
		c0-2.1,1.6-3.1,4-3.1h1.7c0.1,0,0.1,0,0.1-0.1v-0.4c0-0.9-0.4-1.3-2-1.3c-1,0-1.7,0.3-2.2,0.6c-0.1,0.1-0.2,0.1-0.3,0l-0.9-1.6
		c-0.1-0.1,0-0.2,0.1-0.3c0.8-0.6,2-1,3.6-1c3.2,0,4.3,1.1,4.3,3.5v6.2c0,0.1-0.1,0.2-0.2,0.2H627.8z M627.5,420.4v-0.7
		c0-0.1,0-0.1-0.1-0.1H626c-1.2,0-1.7,0.3-1.7,1.1c0,0.7,0.5,1,1.4,1C626.9,421.8,627.5,421.3,627.5,420.4z"/>
	<path class="st6" d="M632,422.4c-0.1-0.1-0.1-0.2,0-0.3l1.3-1.5c0.1-0.1,0.2-0.1,0.3,0c0.9,0.7,2,1.1,3,1.1c1,0,1.5-0.4,1.5-0.9
		c0-0.5-0.3-0.7-1.4-0.8l-1.1-0.1c-2-0.2-3.2-1.2-3.2-3c0-1.9,1.5-3.1,4-3.1c1.6,0,3,0.5,3.9,1.2c0.1,0.1,0.1,0.2,0,0.3l-1.1,1.4
		c-0.1,0.1-0.2,0.1-0.3,0c-0.7-0.4-1.6-0.8-2.6-0.8c-0.8,0-1.2,0.3-1.2,0.8c0,0.4,0.2,0.7,1.3,0.8l1.1,0.1c2.3,0.2,3.2,1.3,3.2,2.9
		c0,2-1.6,3.3-4.3,3.3C634.4,423.9,633,423.2,632,422.4z"/>
	<path class="st6" d="M648.6,423.7c-0.1,0-0.2-0.1-0.2-0.2v-0.7h0c-0.5,0.7-1.3,1.1-2.5,1.1c-2.1,0-3.3-1.5-3.3-3.6v-6.1
		c0-0.1,0.1-0.2,0.2-0.2h2.4c0.1,0,0.2,0.1,0.2,0.2v5.6c0,1,0.5,1.8,1.5,1.8c1,0,1.5-0.7,1.5-1.8v-5.6c0-0.1,0.1-0.2,0.2-0.2h2.4
		c0.1,0,0.2,0.1,0.2,0.2v9.3c0,0.1-0.1,0.2-0.2,0.2H648.6z"/>
	<path class="st6" d="M653.9,423.7c-0.1,0-0.2-0.1-0.2-0.2v-9.3c0-0.1,0.1-0.2,0.2-0.2h2.4c0.1,0,0.2,0.1,0.2,0.2v0.8h0
		c0.5-0.8,1.3-1.2,2.5-1.2c0.6,0,1.3,0.2,1.7,0.6c0.1,0.1,0.1,0.2,0.1,0.3l-1.1,2c-0.1,0.1-0.2,0.1-0.3,0c-0.5-0.3-0.9-0.5-1.4-0.4
		c-1,0-1.5,0.8-1.5,2.1v5.1c0,0.1-0.1,0.2-0.2,0.2H653.9z"/>
	<path class="st6" d="M662.4,412.4c-0.1,0-0.2-0.1-0.2-0.2v-2c0-0.1,0.1-0.2,0.2-0.2h2.4c0.1,0,0.2,0.1,0.2,0.2v2
		c0,0.1-0.1,0.2-0.2,0.2H662.4z M662.4,423.7c-0.1,0-0.2-0.1-0.2-0.2v-9.3c0-0.1,0.1-0.2,0.2-0.2h2.4c0.1,0,0.2,0.1,0.2,0.2v9.3
		c0,0.1-0.1,0.2-0.2,0.2H662.4z"/>
	<path class="st6" d="M673.6,423.7c-0.1,0-0.2-0.1-0.2-0.2v-5.6c0-1.1-0.5-1.8-1.5-1.8c-1,0-1.5,0.7-1.5,1.8v5.6
		c0,0.1-0.1,0.2-0.2,0.2h-2.4c-0.1,0-0.2-0.1-0.2-0.2v-9.3c0-0.1,0.1-0.2,0.2-0.2h2.4c0.1,0,0.2,0.1,0.2,0.2v0.7h0
		c0.4-0.6,1.3-1.1,2.5-1.1c2.1,0,3.3,1.5,3.3,3.6v6.1c0,0.1-0.1,0.2-0.2,0.2H673.6z"/>
	<path class="st6" d="M678.5,426c-0.1-0.1-0.1-0.2,0-0.3l1.4-1.4c0.1-0.1,0.2-0.1,0.3,0c0.6,0.5,1.2,0.8,2,0.8
		c1.3,0,1.9-0.7,1.9-2.1v-0.8h0c-0.4,0.7-1.3,1.1-2.5,1.1c-1.6,0-2.7-0.8-3.2-2.3c-0.2-0.7-0.3-1.4-0.3-2.4c0-1,0.1-1.7,0.3-2.4
		c0.5-1.5,1.6-2.3,3.2-2.3c1.2,0,2.1,0.4,2.5,1.1h0v-0.7c0-0.1,0.1-0.2,0.2-0.2h2.4c0.1,0,0.2,0.1,0.2,0.2v8.4
		c0,3.2-1.6,4.9-4.8,4.9C680.7,427.5,679.2,426.9,678.5,426z M684,419.9c0.1-0.4,0.2-0.8,0.2-1.4c0-0.6-0.1-1-0.2-1.4
		c-0.2-0.7-0.7-1-1.4-1c-0.8,0-1.2,0.4-1.4,1c-0.1,0.4-0.2,0.8-0.2,1.4c0,0.6,0.1,1,0.2,1.4c0.2,0.7,0.7,1,1.4,1
		C683.3,420.9,683.8,420.6,684,419.9z"/>
</g>
<g>
	<path d="M528.2,60.2c0-0.1,0.1-0.1,0.1-0.1h1c0.1,0,0.1,0.1,0.1,0.1v9.2c0,0.1-0.1,0.1-0.1,0.1h-1c-0.1,0-0.1-0.1-0.1-0.1V60.2z"/>
	<path d="M536,69.6c-0.1,0-0.1-0.1-0.1-0.1v-0.6h0c-0.3,0.5-0.9,0.9-1.9,0.9c-1.2,0-2-0.5-2.3-1.6c-0.2-0.5-0.2-1.1-0.2-1.9
		c0-0.8,0.1-1.4,0.2-1.9c0.3-1.1,1.1-1.6,2.3-1.6c1,0,1.6,0.4,1.9,0.9h0v-3.4c0-0.1,0.1-0.1,0.1-0.1h0.9c0.1,0,0.1,0.1,0.1,0.1v9.2
		c0,0.1-0.1,0.1-0.1,0.1H536z M535.7,67.7c0.1-0.3,0.2-0.7,0.2-1.4s0-1.1-0.2-1.4c-0.2-0.7-0.7-1-1.5-1s-1.2,0.4-1.5,1
		c-0.1,0.4-0.2,0.8-0.2,1.4c0,0.6,0,1.1,0.2,1.4c0.2,0.7,0.7,1,1.5,1S535.5,68.3,535.7,67.7z"/>
	<path d="M539.1,68c-0.1-0.4-0.2-0.9-0.2-1.7s0.1-1.3,0.2-1.7c0.4-1.2,1.4-1.8,2.6-1.8c1.3,0,2.3,0.7,2.6,1.8
		c0.1,0.4,0.2,0.9,0.2,1.9c0,0.1-0.1,0.1-0.2,0.1h-4.2c-0.1,0-0.1,0-0.1,0.1c0,0.4,0,0.6,0.1,0.8c0.3,0.8,0.9,1.2,1.7,1.2
		c0.8,0,1.4-0.3,1.7-0.7c0.1-0.1,0.1-0.1,0.2,0l0.6,0.5c0.1,0.1,0.1,0.1,0,0.2c-0.5,0.7-1.4,1.1-2.6,1.1
		C540.5,69.8,539.5,69.1,539.1,68z M543.3,65.7C543.4,65.7,543.4,65.7,543.3,65.7c0.1-0.4,0.1-0.6,0-0.8c-0.2-0.7-0.8-1.1-1.5-1.1
		c-0.8,0-1.3,0.4-1.5,1.1c-0.1,0.2-0.1,0.4-0.1,0.8c0,0.1,0,0.1,0.1,0.1H543.3z"/>
	<path d="M550.5,69.6c-0.1,0-0.1-0.1-0.1-0.1v-0.6h0c-0.3,0.5-1,0.9-2,0.9c-1.3,0-2.3-0.7-2.3-2c0-1.4,1-2.1,2.6-2.1h1.5
		c0.1,0,0.1,0,0.1-0.1v-0.5c0-0.9-0.4-1.3-1.6-1.3c-0.8,0-1.2,0.2-1.6,0.5c-0.1,0.1-0.2,0.1-0.2,0l-0.4-0.6c0-0.1,0-0.1,0-0.2
		c0.5-0.4,1.3-0.7,2.3-0.7c1.9,0,2.6,0.6,2.6,2.3v4.4c0,0.1-0.1,0.1-0.1,0.1H550.5z M550.4,67.4v-0.7c0-0.1,0-0.1-0.1-0.1h-1.3
		c-1.2,0-1.7,0.3-1.7,1.1c0,0.7,0.5,1.1,1.4,1.1C549.7,68.8,550.4,68.3,550.4,67.4z"/>
	<path d="M555.7,69.7c-1.3,0-1.8-0.6-1.8-1.9v-3.8c0-0.1,0-0.1-0.1-0.1h-0.6c-0.1,0-0.1-0.1-0.1-0.1V63c0-0.1,0.1-0.1,0.1-0.1h0.6
		c0.1,0,0.1,0,0.1-0.1v-1.9c0-0.1,0.1-0.1,0.1-0.1h0.9c0.1,0,0.1,0.1,0.1,0.1v1.9c0,0.1,0,0.1,0.1,0.1h1.1c0.1,0,0.1,0.1,0.1,0.1
		v0.7c0,0.1-0.1,0.1-0.1,0.1h-1.1c-0.1,0-0.1,0-0.1,0.1v3.8c0,0.7,0.3,0.9,0.9,0.9h0.3c0.1,0,0.1,0.1,0.1,0.1v0.8
		c0,0.1-0.1,0.1-0.1,0.1H555.7z"/>
	<path d="M558.3,61.4c-0.1,0-0.1-0.1-0.1-0.1v-1c0-0.1,0.1-0.1,0.1-0.1h1c0.1,0,0.1,0.1,0.1,0.1v1c0,0.1-0.1,0.1-0.1,0.1H558.3z
		 M558.3,69.6c-0.1,0-0.1-0.1-0.1-0.1V63c0-0.1,0.1-0.1,0.1-0.1h0.9c0.1,0,0.1,0.1,0.1,0.1v6.4c0,0.1-0.1,0.1-0.1,0.1H558.3z"/>
	<path d="M561.5,68c-0.2-0.5-0.2-0.9-0.2-1.7c0-0.8,0.1-1.2,0.2-1.7c0.4-1.1,1.3-1.8,2.6-1.8s2.3,0.7,2.6,1.8
		c0.2,0.5,0.2,0.9,0.2,1.7c0,0.8-0.1,1.2-0.2,1.7c-0.4,1.1-1.3,1.8-2.6,1.8S561.8,69.1,561.5,68z M565.6,67.6
		c0.1-0.4,0.2-0.7,0.2-1.4s0-1-0.2-1.4c-0.2-0.7-0.8-1.1-1.5-1.1c-0.7,0-1.3,0.4-1.5,1.1c-0.1,0.4-0.2,0.7-0.2,1.4s0,1,0.2,1.4
		c0.2,0.7,0.8,1.1,1.5,1.1C564.9,68.7,565.4,68.3,565.6,67.6z"/>
	<path d="M573.2,69.6c-0.1,0-0.1-0.1-0.1-0.1v-3.9c0-1.1-0.5-1.7-1.5-1.7c-0.9,0-1.5,0.6-1.5,1.6v4c0,0.1-0.1,0.1-0.1,0.1H569
		c-0.1,0-0.1-0.1-0.1-0.1V63c0-0.1,0.1-0.1,0.1-0.1h0.9c0.1,0,0.1,0.1,0.1,0.1v0.6h0c0.3-0.5,1-0.9,1.9-0.9c1.5,0,2.3,1,2.3,2.5v4.2
		c0,0.1-0.1,0.1-0.1,0.1H573.2z"/>
	<path d="M528.1,83.1V77c0-0.1,0.1-0.1,0.1-0.1h1c0.1,0,0.1,0.1,0.1,0.1v6.1c0,1.5,0.9,2.3,2.1,2.3c1.3,0,2.1-0.8,2.1-2.3V77
		c0-0.1,0.1-0.1,0.1-0.1h1c0.1,0,0.1,0.1,0.1,0.1v6.1c0,2.2-1.3,3.5-3.4,3.5C529.4,86.6,528.1,85.3,528.1,83.1z"/>
	<path d="M536.7,85.6c-0.1-0.1-0.1-0.1,0-0.2l0.6-0.6c0.1-0.1,0.1-0.1,0.2,0c0.5,0.4,1.3,0.8,2.1,0.8c1,0,1.5-0.4,1.5-1
		c0-0.5-0.3-0.8-1.3-0.9l-0.7-0.1c-1.3-0.1-2-0.8-2-1.9c0-1.3,0.9-2,2.5-2c1,0,1.8,0.3,2.4,0.7c0.1,0,0.1,0.1,0,0.2l-0.5,0.6
		c-0.1,0.1-0.1,0.1-0.2,0c-0.4-0.3-1.1-0.5-1.8-0.5c-0.8,0-1.3,0.4-1.3,0.9c0,0.5,0.3,0.8,1.3,0.9l0.7,0.1c1.4,0.1,2,0.8,2,1.9
		c0,1.3-1,2.2-2.7,2.2C538.1,86.6,537.2,86,536.7,85.6z"/>
	<path d="M543.8,84.8c-0.1-0.4-0.2-0.9-0.2-1.7s0.1-1.3,0.2-1.7c0.4-1.2,1.4-1.8,2.6-1.8c1.3,0,2.3,0.7,2.6,1.8
		c0.1,0.4,0.2,0.9,0.2,1.9c0,0.1-0.1,0.1-0.2,0.1h-4.2c-0.1,0-0.1,0-0.1,0.1c0,0.4,0,0.6,0.1,0.8c0.3,0.8,0.9,1.2,1.7,1.2
		c0.8,0,1.4-0.3,1.7-0.7c0.1-0.1,0.1-0.1,0.2,0l0.6,0.5c0.1,0.1,0.1,0.1,0,0.2c-0.5,0.7-1.4,1.1-2.6,1.1
		C545.1,86.6,544.2,85.9,543.8,84.8z M548,82.5C548,82.5,548.1,82.5,548,82.5c0.1-0.4,0.1-0.6,0-0.8c-0.2-0.7-0.8-1.1-1.5-1.1
		c-0.8,0-1.3,0.4-1.5,1.1c-0.1,0.2-0.1,0.4-0.1,0.8c0,0.1,0,0.1,0.1,0.1H548z"/>
	<path d="M551.3,86.4c-0.1,0-0.1-0.1-0.1-0.1v-6.4c0-0.1,0.1-0.1,0.1-0.1h0.9c0.1,0,0.1,0.1,0.1,0.1v0.7h0c0.3-0.6,0.9-1,1.8-1
		c0.5,0,1,0.2,1.4,0.5c0.1,0.1,0.1,0.1,0,0.2l-0.5,0.7c-0.1,0.1-0.1,0.1-0.2,0c-0.3-0.2-0.6-0.3-1-0.3c-1,0-1.4,0.8-1.4,2v3.7
		c0,0.1-0.1,0.1-0.1,0.1H551.3z"/>
	<path d="M560.3,77c0-0.1,0.1-0.1,0.1-0.1h5.7c0.1,0,0.1,0.1,0.1,0.1v0.9c0,0.1-0.1,0.1-0.1,0.1h-4.5c-0.1,0-0.1,0-0.1,0.1V81
		c0,0.1,0,0.1,0.1,0.1h3.9c0.1,0,0.1,0.1,0.1,0.1v0.9c0,0.1-0.1,0.1-0.1,0.1h-3.9c-0.1,0-0.1,0-0.1,0.1v3.9c0,0.1-0.1,0.1-0.1,0.1
		h-1c-0.1,0-0.1-0.1-0.1-0.1V77z"/>
	<path d="M569.7,86.5c-1.2,0-1.6-0.6-1.6-1.8V77c0-0.1,0.1-0.1,0.1-0.1h0.9c0.1,0,0.1,0.1,0.1,0.1v7.6c0,0.6,0.2,0.7,0.7,0.7h0.3
		c0.1,0,0.1,0.1,0.1,0.1v0.8c0,0.1-0.1,0.1-0.1,0.1H569.7z"/>
	<path d="M571.7,84.8c-0.2-0.5-0.2-0.9-0.2-1.7c0-0.8,0.1-1.2,0.2-1.7c0.4-1.1,1.3-1.8,2.6-1.8s2.3,0.7,2.6,1.8
		c0.2,0.5,0.2,0.9,0.2,1.7c0,0.8-0.1,1.2-0.2,1.7c-0.4,1.1-1.3,1.8-2.6,1.8S572.1,85.9,571.7,84.8z M575.9,84.4
		c0.1-0.4,0.2-0.7,0.2-1.4s0-1-0.2-1.4c-0.2-0.7-0.8-1.1-1.5-1.1s-1.3,0.4-1.5,1.1c-0.1,0.4-0.2,0.7-0.2,1.4s0,1,0.2,1.4
		c0.2,0.7,0.8,1.1,1.5,1.1S575.7,85.1,575.9,84.4z"/>
	<path d="M584.9,86.4c-0.1,0-0.1-0.1-0.2-0.1l-1.5-4.8h0l-1.5,4.8c0,0.1-0.1,0.1-0.2,0.1h-0.8c-0.1,0-0.1-0.1-0.2-0.1l-2.1-6.4
		c0-0.1,0-0.1,0.1-0.1h1c0.1,0,0.1,0,0.2,0.1l1.5,4.8h0l1.5-4.8c0-0.1,0.1-0.1,0.2-0.1h0.7c0.1,0,0.2,0,0.2,0.1l1.5,4.8h0l1.4-4.8
		c0-0.1,0.1-0.1,0.2-0.1h1c0.1,0,0.1,0.1,0.1,0.1l-2.1,6.4c0,0.1-0.1,0.1-0.2,0.1H584.9z"/>
	<path d="M588.9,85.6c-0.1-0.1-0.1-0.1,0-0.2l0.6-0.6c0.1-0.1,0.1-0.1,0.2,0c0.5,0.4,1.3,0.8,2.1,0.8c1,0,1.5-0.4,1.5-1
		c0-0.5-0.3-0.8-1.3-0.9l-0.7-0.1c-1.3-0.1-2-0.8-2-1.9c0-1.3,0.9-2,2.5-2c1,0,1.8,0.3,2.4,0.7c0.1,0,0.1,0.1,0,0.2l-0.5,0.6
		c-0.1,0.1-0.1,0.1-0.2,0c-0.4-0.3-1.1-0.5-1.8-0.5c-0.8,0-1.3,0.4-1.3,0.9c0,0.5,0.3,0.8,1.3,0.9l0.7,0.1c1.4,0.1,2,0.8,2,1.9
		c0,1.3-1,2.2-2.7,2.2C590.4,86.6,589.5,86,588.9,85.6z"/>
	<path d="M527.8,102.2c-0.1-0.1-0.1-0.1,0-0.2l0.6-0.7c0.1-0.1,0.1-0.1,0.2,0c0.6,0.5,1.6,1,2.7,1c1.3,0,2.1-0.7,2.1-1.6
		c0-0.8-0.5-1.4-2-1.6l-0.5-0.1c-1.8-0.3-2.8-1.1-2.8-2.6c0-1.7,1.2-2.8,3.1-2.8c1.1,0,2.2,0.4,2.9,0.9c0.1,0.1,0.1,0.1,0,0.2
		l-0.5,0.8c-0.1,0.1-0.1,0.1-0.2,0c-0.8-0.5-1.5-0.7-2.3-0.7c-1.2,0-1.8,0.6-1.8,1.5c0,0.8,0.5,1.3,2,1.5l0.5,0.1
		c1.9,0.3,2.8,1.1,2.8,2.7c0,1.7-1.2,2.9-3.5,2.9C529.8,103.4,528.5,102.8,527.8,102.2z"/>
	<path d="M540.9,103.2c-0.1,0-0.2,0-0.2-0.1l-1.9-3.1l-1.2,1.4v1.8c0,0.1-0.1,0.1-0.1,0.1h-0.9c-0.1,0-0.1-0.1-0.1-0.1v-9.2
		c0-0.1,0.1-0.1,0.1-0.1h0.9c0.1,0,0.1,0.1,0.1,0.1v5.9l2.6-3.1c0.1-0.1,0.2-0.1,0.3-0.1h1c0.1,0,0.1,0.1,0.1,0.1l-2.1,2.4l2.5,4
		c0,0.1,0,0.1-0.1,0.1H540.9z"/>
	<path d="M543.3,101.6c-0.1-0.4-0.2-0.9-0.2-1.7s0.1-1.3,0.2-1.7c0.4-1.2,1.4-1.8,2.6-1.8c1.3,0,2.3,0.7,2.6,1.8
		c0.1,0.4,0.2,0.9,0.2,1.9c0,0.1-0.1,0.1-0.2,0.1h-4.2c-0.1,0-0.1,0-0.1,0.1c0,0.4,0,0.6,0.1,0.8c0.3,0.8,0.9,1.2,1.7,1.2
		c0.8,0,1.4-0.3,1.7-0.7c0.1-0.1,0.1-0.1,0.2,0l0.6,0.5c0.1,0.1,0.1,0.1,0,0.2c-0.5,0.7-1.4,1.1-2.6,1.1
		C544.6,103.4,543.6,102.7,543.3,101.6z M547.4,99.3C547.5,99.3,547.5,99.3,547.4,99.3c0.1-0.4,0.1-0.6,0-0.8
		c-0.2-0.7-0.8-1.1-1.5-1.1c-0.8,0-1.3,0.4-1.5,1.1c-0.1,0.2-0.1,0.4-0.1,0.8c0,0.1,0,0.1,0.1,0.1H547.4z"/>
	<path d="M552.6,103.3c-1.3,0-1.8-0.6-1.8-1.9v-3.8c0-0.1,0-0.1-0.1-0.1h-0.6c-0.1,0-0.1-0.1-0.1-0.1v-0.7c0-0.1,0.1-0.1,0.1-0.1
		h0.6c0.1,0,0.1,0,0.1-0.1v-1.9c0-0.1,0.1-0.1,0.1-0.1h0.9c0.1,0,0.1,0.1,0.1,0.1v1.9c0,0.1,0,0.1,0.1,0.1h1.1
		c0.1,0,0.1,0.1,0.1,0.1v0.7c0,0.1-0.1,0.1-0.1,0.1H552c-0.1,0-0.1,0-0.1,0.1v3.8c0,0.7,0.3,0.9,0.9,0.9h0.3c0.1,0,0.1,0.1,0.1,0.1
		v0.8c0,0.1-0.1,0.1-0.1,0.1H552.6z"/>
	<path d="M554.8,98.2c0.4-1.2,1.4-1.8,2.6-1.8c1,0,1.8,0.4,2.3,1.1c0,0.1,0,0.1,0,0.2l-0.6,0.5c-0.1,0.1-0.1,0.1-0.2,0
		c-0.4-0.5-0.8-0.7-1.4-0.7c-0.7,0-1.3,0.4-1.5,1.1c-0.1,0.4-0.2,0.8-0.2,1.4c0,0.6,0,1,0.2,1.4c0.2,0.7,0.8,1.1,1.5,1.1
		c0.7,0,1-0.2,1.4-0.7c0.1-0.1,0.1-0.1,0.2,0l0.6,0.5c0.1,0.1,0.1,0.1,0,0.2c-0.5,0.7-1.3,1.1-2.3,1.1c-1.3,0-2.3-0.6-2.6-1.8
		c-0.1-0.4-0.2-1-0.2-1.7C554.6,99.1,554.7,98.6,554.8,98.2z"/>
	<path d="M566,103.2c-0.1,0-0.1-0.1-0.1-0.1v-3.9c0-1.1-0.5-1.7-1.5-1.7c-0.9,0-1.5,0.6-1.5,1.6v4c0,0.1-0.1,0.1-0.1,0.1h-0.9
		c-0.1,0-0.1-0.1-0.1-0.1v-9.2c0-0.1,0.1-0.1,0.1-0.1h0.9c0.1,0,0.1,0.1,0.1,0.1v3.4h0c0.3-0.5,1-0.9,1.9-0.9c1.5,0,2.3,1,2.3,2.5
		v4.2c0,0.1-0.1,0.1-0.1,0.1H566z"/>
	<path d="M569.1,101.6c-0.1-0.4-0.2-0.9-0.2-1.7s0.1-1.3,0.2-1.7c0.4-1.2,1.4-1.8,2.6-1.8c1.3,0,2.3,0.7,2.6,1.8
		c0.1,0.4,0.2,0.9,0.2,1.9c0,0.1-0.1,0.1-0.2,0.1h-4.2c-0.1,0-0.1,0-0.1,0.1c0,0.4,0,0.6,0.1,0.8c0.3,0.8,0.9,1.2,1.7,1.2
		c0.8,0,1.4-0.3,1.7-0.7c0.1-0.1,0.1-0.1,0.2,0l0.6,0.5c0.1,0.1,0.1,0.1,0,0.2c-0.5,0.7-1.4,1.1-2.6,1.1
		C570.4,103.4,569.4,102.7,569.1,101.6z M573.3,99.3C573.3,99.3,573.3,99.3,573.3,99.3c0.1-0.4,0.1-0.6,0-0.8
		c-0.2-0.7-0.8-1.1-1.5-1.1c-0.8,0-1.3,0.4-1.5,1.1c-0.1,0.2-0.1,0.4-0.1,0.8c0,0.1,0,0.1,0.1,0.1H573.3z"/>
	<path d="M576,102.4c-0.1-0.1-0.1-0.1,0-0.2l0.6-0.6c0.1-0.1,0.1-0.1,0.2,0c0.5,0.4,1.3,0.8,2.1,0.8c1,0,1.5-0.4,1.5-1
		c0-0.5-0.3-0.8-1.3-0.9l-0.7-0.1c-1.3-0.1-2-0.8-2-1.9c0-1.3,0.9-2,2.5-2c1,0,1.8,0.3,2.4,0.7c0.1,0,0.1,0.1,0,0.2l-0.5,0.6
		c-0.1,0.1-0.1,0.1-0.2,0c-0.4-0.3-1.1-0.5-1.8-0.5c-0.8,0-1.3,0.4-1.3,0.9c0,0.5,0.3,0.8,1.3,0.9l0.7,0.1c1.4,0.1,2,0.8,2,1.9
		c0,1.3-1,2.2-2.7,2.2C577.4,103.4,576.5,102.8,576,102.4z"/>
	<path d="M535,120c-0.1,0-0.1-0.1-0.2-0.1l-2-7.1h0l-2,7.1c0,0.1-0.1,0.1-0.2,0.1h-0.8c-0.1,0-0.1-0.1-0.2-0.1l-2.3-9.2
		c0-0.1,0-0.1,0.1-0.1h0.9c0.1,0,0.2,0,0.2,0.1l1.7,7.1h0l2-7.1c0-0.1,0.1-0.1,0.2-0.1h0.7c0.1,0,0.1,0.1,0.2,0.1l2,7.1h0l1.7-7.1
		c0-0.1,0.1-0.1,0.2-0.1h0.9c0.1,0,0.1,0.1,0.1,0.1l-2.3,9.2c0,0.1-0.1,0.1-0.2,0.1H535z"/>
	<path d="M539.8,111.8c-0.1,0-0.1-0.1-0.1-0.1v-1c0-0.1,0.1-0.1,0.1-0.1h1c0.1,0,0.1,0.1,0.1,0.1v1c0,0.1-0.1,0.1-0.1,0.1H539.8z
		 M539.8,120c-0.1,0-0.1-0.1-0.1-0.1v-6.4c0-0.1,0.1-0.1,0.1-0.1h0.9c0.1,0,0.1,0.1,0.1,0.1v6.4c0,0.1-0.1,0.1-0.1,0.1H539.8z"/>
	<path d="M543.3,120c-0.1,0-0.1-0.1-0.1-0.1v-6.4c0-0.1,0.1-0.1,0.1-0.1h0.9c0.1,0,0.1,0.1,0.1,0.1v0.7h0c0.3-0.6,0.9-1,1.8-1
		c0.5,0,1,0.2,1.4,0.5c0.1,0.1,0.1,0.1,0,0.2l-0.5,0.7c-0.1,0.1-0.1,0.1-0.2,0c-0.3-0.2-0.6-0.3-1-0.3c-1,0-1.4,0.8-1.4,2v3.7
		c0,0.1-0.1,0.1-0.1,0.1H543.3z"/>
	<path d="M548.5,118.4c-0.1-0.4-0.2-0.9-0.2-1.7s0.1-1.3,0.2-1.7c0.4-1.2,1.4-1.8,2.6-1.8c1.3,0,2.3,0.7,2.6,1.8
		c0.1,0.4,0.2,0.9,0.2,1.9c0,0.1-0.1,0.1-0.2,0.1h-4.2c-0.1,0-0.1,0-0.1,0.1c0,0.4,0,0.6,0.1,0.8c0.3,0.8,0.9,1.2,1.7,1.2
		c0.8,0,1.4-0.3,1.7-0.7c0.1-0.1,0.1-0.1,0.2,0l0.6,0.5c0.1,0.1,0.1,0.1,0,0.2c-0.5,0.7-1.4,1.1-2.6,1.1
		C549.8,120.2,548.8,119.5,548.5,118.4z M552.7,116.1C552.7,116.1,552.7,116.1,552.7,116.1c0.1-0.4,0.1-0.6,0-0.8
		c-0.2-0.7-0.8-1.1-1.5-1.1c-0.8,0-1.3,0.4-1.5,1.1c-0.1,0.2-0.1,0.4-0.1,0.8c0,0.1,0,0.1,0.1,0.1H552.7z"/>
	<path d="M556.2,120c-0.1,0-0.1-0.1-0.1-0.1v-5.5c0-0.1,0-0.1-0.1-0.1h-0.6c-0.1,0-0.1-0.1-0.1-0.1v-0.7c0-0.1,0.1-0.1,0.1-0.1h0.6
		c0.1,0,0.1,0,0.1-0.1v-0.6c0-1.6,0.6-2.2,2-2.2h0.5c0.1,0,0.1,0.1,0.1,0.1v0.8c0,0.1-0.1,0.1-0.1,0.1h-0.4c-0.9,0-1,0.2-1,1v0.6
		c0,0.1,0,0.1,0.1,0.1h1.3c0.1,0,0.1,0.1,0.1,0.1v0.7c0,0.1-0.1,0.1-0.1,0.1h-1.3c-0.1,0-0.1,0-0.1,0.1v5.5c0,0.1-0.1,0.1-0.1,0.1
		H556.2z"/>
	<path d="M560.4,120c-0.1,0-0.1-0.1-0.1-0.1v-6.4c0-0.1,0.1-0.1,0.1-0.1h0.9c0.1,0,0.1,0.1,0.1,0.1v0.7h0c0.3-0.6,0.9-1,1.8-1
		c0.5,0,1,0.2,1.4,0.5c0.1,0.1,0.1,0.1,0,0.2l-0.5,0.7c-0.1,0.1-0.1,0.1-0.2,0c-0.3-0.2-0.6-0.3-1-0.3c-1,0-1.4,0.8-1.4,2v3.7
		c0,0.1-0.1,0.1-0.1,0.1H560.4z"/>
	<path d="M569.8,120c-0.1,0-0.1-0.1-0.1-0.1v-0.6h0c-0.3,0.5-1,0.9-2,0.9c-1.3,0-2.3-0.7-2.3-2c0-1.4,1-2.1,2.6-2.1h1.5
		c0.1,0,0.1,0,0.1-0.1v-0.5c0-0.9-0.4-1.3-1.6-1.3c-0.8,0-1.2,0.2-1.6,0.5c-0.1,0.1-0.2,0.1-0.2,0l-0.4-0.6c0-0.1,0-0.1,0-0.2
		c0.5-0.4,1.3-0.7,2.3-0.7c1.9,0,2.6,0.6,2.6,2.3v4.4c0,0.1-0.1,0.1-0.1,0.1H569.8z M569.6,117.8v-0.7c0-0.1,0-0.1-0.1-0.1h-1.3
		c-1.2,0-1.7,0.3-1.7,1.1c0,0.7,0.5,1.1,1.4,1.1C568.9,119.2,569.6,118.7,569.6,117.8z"/>
	<path d="M581.5,120c-0.1,0-0.1-0.1-0.1-0.1V116c0-1.1-0.5-1.7-1.5-1.7c-0.9,0-1.5,0.6-1.5,1.6v4c0,0.1-0.1,0.1-0.1,0.1h-0.9
		c-0.1,0-0.1-0.1-0.1-0.1V116c0-1.1-0.5-1.7-1.5-1.7c-0.9,0-1.5,0.6-1.5,1.6v4c0,0.1-0.1,0.1-0.1,0.1h-0.9c-0.1,0-0.1-0.1-0.1-0.1
		v-6.4c0-0.1,0.1-0.1,0.1-0.1h0.9c0.1,0,0.1,0.1,0.1,0.1v0.6h0c0.3-0.5,1-0.9,1.9-0.9c0.9,0,1.6,0.4,2,1.1h0
		c0.5-0.6,1.1-1.1,2.2-1.1c1.6,0,2.4,1,2.4,2.5v4.2c0,0.1-0.1,0.1-0.1,0.1H581.5z"/>
	<path d="M584.6,118.4c-0.1-0.4-0.2-0.9-0.2-1.7s0.1-1.3,0.2-1.7c0.4-1.2,1.4-1.8,2.6-1.8c1.3,0,2.3,0.7,2.6,1.8
		c0.1,0.4,0.2,0.9,0.2,1.9c0,0.1-0.1,0.1-0.2,0.1h-4.2c-0.1,0-0.1,0-0.1,0.1c0,0.4,0,0.6,0.1,0.8c0.3,0.8,0.9,1.2,1.7,1.2
		c0.8,0,1.4-0.3,1.7-0.7c0.1-0.1,0.1-0.1,0.2,0l0.6,0.5c0.1,0.1,0.1,0.1,0,0.2c-0.5,0.7-1.4,1.1-2.6,1.1
		C585.9,120.2,585,119.5,584.6,118.4z M588.8,116.1C588.8,116.1,588.9,116.1,588.8,116.1c0.1-0.4,0.1-0.6,0-0.8
		c-0.2-0.7-0.8-1.1-1.5-1.1c-0.8,0-1.3,0.4-1.5,1.1c-0.1,0.2-0.1,0.4-0.1,0.8c0,0.1,0,0.1,0.1,0.1H588.8z"/>
	<path d="M591.5,119.2c-0.1-0.1-0.1-0.1,0-0.2l0.6-0.6c0.1-0.1,0.1-0.1,0.2,0c0.5,0.4,1.3,0.8,2.1,0.8c1,0,1.5-0.4,1.5-1
		c0-0.5-0.3-0.8-1.3-0.9l-0.7-0.1c-1.3-0.1-2-0.8-2-1.9c0-1.3,0.9-2,2.5-2c1,0,1.8,0.3,2.4,0.7c0.1,0,0.1,0.1,0,0.2l-0.5,0.6
		c-0.1,0.1-0.1,0.1-0.2,0c-0.4-0.3-1.1-0.5-1.8-0.5c-0.8,0-1.3,0.4-1.3,0.9c0,0.5,0.3,0.8,1.3,0.9l0.7,0.1c1.4,0.1,2,0.8,2,1.9
		c0,1.3-1,2.2-2.7,2.2C593,120.2,592,119.6,591.5,119.2z"/>
	<path d="M603.9,114.7c-0.8-1.1-1.2-1.6-1.2-2.3c0-1.2,0.9-2,2.2-2c1.3,0,2.2,0.9,2.2,2c0,0.8-0.4,1.4-1.7,2.5l1.8,2.3l1-1.2
		c0.1-0.1,0.1-0.1,0.2,0l0.5,0.5c0.1,0.1,0.1,0.1,0,0.2l-1.1,1.4l0.5,0.6c0.2,0.2,0.3,0.3,0.6,0.3h0.2c0.1,0,0.1,0.1,0.1,0.1v0.8
		c0,0.1-0.1,0.1-0.1,0.1h-0.4c-0.6,0-0.8-0.1-1.2-0.7l-0.4-0.5c-0.8,0.9-1.6,1.3-2.6,1.3c-1.6,0-2.5-1.1-2.5-2.5
		C602,116.6,602.6,115.8,603.9,114.7z M604.6,119.1c0.7,0,1.2-0.3,1.9-1.1l-1.9-2.5c-1,0.8-1.4,1.4-1.4,2.1
		C603.1,118.5,603.6,119.1,604.6,119.1z M606,112.4c0-0.6-0.4-1-1.1-1c-0.7,0-1.1,0.4-1.1,1c0,0.4,0.2,0.7,0.9,1.6
		C605.8,113.2,606,112.8,606,112.4z"/>
	<path d="M614.4,110.6c0-0.1,0.1-0.1,0.1-0.1h0.9c0.1,0,0.2,0,0.2,0.1l2.8,6.4h0l2.8-6.4c0-0.1,0.1-0.1,0.2-0.1h0.9
		c0.1,0,0.1,0.1,0.1,0.1v9.2c0,0.1-0.1,0.1-0.1,0.1h-0.9c-0.1,0-0.1-0.1-0.1-0.1v-6.6h0l-2.4,5.2c-0.1,0.1-0.1,0.2-0.3,0.2h-0.6
		c-0.1,0-0.2,0-0.3-0.2l-2.4-5.2h0v6.6c0,0.1-0.1,0.1-0.1,0.1h-0.9c-0.1,0-0.1-0.1-0.1-0.1V110.6z"/>
	<path d="M624.8,118.4c-0.2-0.5-0.2-0.9-0.2-1.7c0-0.8,0.1-1.2,0.2-1.7c0.4-1.1,1.3-1.8,2.6-1.8s2.3,0.7,2.6,1.8
		c0.2,0.5,0.2,0.9,0.2,1.7c0,0.8-0.1,1.2-0.2,1.7c-0.4,1.1-1.3,1.8-2.6,1.8S625.1,119.5,624.8,118.4z M628.9,118
		c0.1-0.4,0.2-0.7,0.2-1.4s0-1-0.2-1.4c-0.2-0.7-0.8-1.1-1.5-1.1c-0.7,0-1.3,0.4-1.5,1.1c-0.1,0.4-0.2,0.7-0.2,1.4s0,1,0.2,1.4
		c0.2,0.7,0.8,1.1,1.5,1.1C628.2,119.1,628.7,118.7,628.9,118z"/>
	<path d="M632,115c0.4-1.2,1.4-1.8,2.6-1.8c1,0,1.8,0.4,2.3,1.1c0,0.1,0,0.1,0,0.2l-0.6,0.5c-0.1,0.1-0.1,0.1-0.2,0
		c-0.4-0.5-0.8-0.7-1.4-0.7c-0.7,0-1.3,0.4-1.5,1.1c-0.1,0.4-0.2,0.8-0.2,1.4c0,0.6,0,1,0.2,1.4c0.2,0.7,0.8,1.1,1.5,1.1
		c0.7,0,1.1-0.2,1.4-0.7c0.1-0.1,0.1-0.1,0.2,0l0.6,0.5c0.1,0.1,0.1,0.1,0,0.2c-0.5,0.7-1.3,1.1-2.3,1.1c-1.3,0-2.3-0.6-2.6-1.8
		c-0.1-0.4-0.2-1-0.2-1.7C631.8,115.9,631.9,115.4,632,115z"/>
	<path d="M643.3,120c-0.1,0-0.2,0-0.2-0.1l-1.9-3.1l-1.2,1.4v1.8c0,0.1-0.1,0.1-0.1,0.1h-0.9c-0.1,0-0.1-0.1-0.1-0.1v-9.2
		c0-0.1,0.1-0.1,0.1-0.1h0.9c0.1,0,0.1,0.1,0.1,0.1v5.9l2.6-3.1c0.1-0.1,0.2-0.1,0.3-0.1h1c0.1,0,0.1,0.1,0.1,0.1l-2.1,2.4l2.5,4
		c0,0.1,0,0.1-0.1,0.1H643.3z"/>
	<path d="M649.9,120c-0.1,0-0.1-0.1-0.1-0.1v-0.6h0c-0.4,0.6-1,0.9-1.8,0.9c-1.5,0-2.3-1-2.3-2.5v-4.2c0-0.1,0.1-0.1,0.1-0.1h0.9
		c0.1,0,0.1,0.1,0.1,0.1v3.9c0,1.1,0.5,1.7,1.5,1.7c0.9,0,1.5-0.6,1.5-1.7v-4c0-0.1,0.1-0.1,0.1-0.1h0.9c0.1,0,0.1,0.1,0.1,0.1v6.4
		c0,0.1-0.1,0.1-0.1,0.1H649.9z"/>
	<path d="M653.4,122.5c-0.1,0-0.1-0.1-0.1-0.1v-9c0-0.1,0.1-0.1,0.1-0.1h0.9c0.1,0,0.1,0.1,0.1,0.1v0.6h0c0.3-0.5,0.9-0.9,1.9-0.9
		c1.2,0,2,0.5,2.3,1.6c0.2,0.5,0.2,1.1,0.2,1.9c0,0.8-0.1,1.4-0.2,1.9c-0.3,1.1-1.1,1.6-2.3,1.6c-1,0-1.6-0.4-1.9-0.9h0v3.2
		c0,0.1-0.1,0.1-0.1,0.1H653.4z M657.5,118.1c0.1-0.4,0.2-0.8,0.2-1.4c0-0.6,0-1-0.2-1.4c-0.2-0.7-0.7-1-1.5-1s-1.3,0.3-1.5,1
		c-0.1,0.3-0.2,0.7-0.2,1.4s0,1.1,0.2,1.4c0.2,0.7,0.7,1,1.5,1S657.3,118.7,657.5,118.1z"/>
	<path d="M660.3,119.2c-0.1-0.1-0.1-0.1,0-0.2l0.6-0.6c0.1-0.1,0.1-0.1,0.2,0c0.5,0.4,1.3,0.8,2.1,0.8c1,0,1.5-0.4,1.5-1
		c0-0.5-0.3-0.8-1.3-0.9l-0.7-0.1c-1.3-0.1-2-0.8-2-1.9c0-1.3,0.9-2,2.5-2c1,0,1.8,0.3,2.4,0.7c0.1,0,0.1,0.1,0,0.2l-0.5,0.6
		c-0.1,0.1-0.1,0.1-0.2,0c-0.4-0.3-1.1-0.5-1.8-0.5c-0.8,0-1.3,0.4-1.3,0.9c0,0.5,0.3,0.8,1.3,0.9l0.7,0.1c1.4,0.1,2,0.8,2,1.9
		c0,1.3-1,2.2-2.7,2.2C661.8,120.2,660.9,119.6,660.3,119.2z"/>
</g>
<g>
	<path d="M596.3,457.3c-0.1,0-0.1-0.1-0.1-0.1v-9.2c0-0.1,0.1-0.1,0.1-0.1h3.4c1.8,0,3,1.1,3,2.8s-1.2,2.8-3,2.8h-2.2
		c-0.1,0-0.1,0-0.1,0.1v3.6c0,0.1-0.1,0.1-0.1,0.1H596.3z M601.5,450.6c0-1-0.7-1.7-1.9-1.7h-2.1c-0.1,0-0.1,0-0.1,0.1v3.2
		c0,0.1,0,0.1,0.1,0.1h2.1C600.8,452.3,601.5,451.6,601.5,450.6z"/>
	<path d="M604.6,457.3c-0.1,0-0.1-0.1-0.1-0.1v-6.4c0-0.1,0.1-0.1,0.1-0.1h0.9c0.1,0,0.1,0.1,0.1,0.1v0.7h0c0.3-0.6,0.9-1,1.8-1
		c0.5,0,1,0.2,1.4,0.5c0.1,0.1,0.1,0.1,0,0.2l-0.5,0.7c-0.1,0.1-0.1,0.1-0.2,0c-0.3-0.2-0.6-0.3-1-0.3c-1,0-1.4,0.8-1.4,2v3.7
		c0,0.1-0.1,0.1-0.1,0.1H604.6z"/>
	<path d="M609.8,455.6c-0.2-0.5-0.2-0.9-0.2-1.7c0-0.8,0.1-1.2,0.2-1.7c0.4-1.1,1.3-1.8,2.6-1.8s2.3,0.7,2.6,1.8
		c0.2,0.5,0.2,0.9,0.2,1.7c0,0.8-0.1,1.2-0.2,1.7c-0.4,1.1-1.3,1.8-2.6,1.8S610.1,456.8,609.8,455.6z M613.9,455.3
		c0.1-0.4,0.2-0.7,0.2-1.4s0-1-0.2-1.4c-0.2-0.7-0.8-1.1-1.5-1.1c-0.7,0-1.3,0.4-1.5,1.1c-0.1,0.4-0.2,0.7-0.2,1.4s0,1,0.2,1.4
		c0.2,0.7,0.8,1.1,1.5,1.1C613.1,456.3,613.7,456,613.9,455.3z"/>
	<path d="M619.1,457.4c-1.3,0-1.8-0.6-1.8-1.9v-3.8c0-0.1,0-0.1-0.1-0.1h-0.6c-0.1,0-0.1-0.1-0.1-0.1v-0.7c0-0.1,0.1-0.1,0.1-0.1
		h0.6c0.1,0,0.1,0,0.1-0.1v-1.9c0-0.1,0.1-0.1,0.1-0.1h0.9c0.1,0,0.1,0.1,0.1,0.1v1.9c0,0.1,0,0.1,0.1,0.1h1.1
		c0.1,0,0.1,0.1,0.1,0.1v0.7c0,0.1-0.1,0.1-0.1,0.1h-1.1c-0.1,0-0.1,0-0.1,0.1v3.8c0,0.7,0.3,0.9,0.9,0.9h0.3c0.1,0,0.1,0.1,0.1,0.1
		v0.8c0,0.1-0.1,0.1-0.1,0.1H619.1z"/>
	<path d="M621.4,455.6c-0.2-0.5-0.2-0.9-0.2-1.7c0-0.8,0.1-1.2,0.2-1.7c0.4-1.1,1.3-1.8,2.6-1.8s2.3,0.7,2.6,1.8
		c0.2,0.5,0.2,0.9,0.2,1.7c0,0.8-0.1,1.2-0.2,1.7c-0.4,1.1-1.3,1.8-2.6,1.8S621.8,456.8,621.4,455.6z M625.6,455.3
		c0.1-0.4,0.2-0.7,0.2-1.4s0-1-0.2-1.4c-0.2-0.7-0.8-1.1-1.5-1.1s-1.3,0.4-1.5,1.1c-0.1,0.4-0.2,0.7-0.2,1.4s0,1,0.2,1.4
		c0.2,0.7,0.8,1.1,1.5,1.1S625.3,456,625.6,455.3z"/>
	<path d="M630.8,457.4c-1.3,0-1.8-0.6-1.8-1.9v-3.8c0-0.1,0-0.1-0.1-0.1h-0.6c-0.1,0-0.1-0.1-0.1-0.1v-0.7c0-0.1,0.1-0.1,0.1-0.1
		h0.6c0.1,0,0.1,0,0.1-0.1v-1.9c0-0.1,0.1-0.1,0.1-0.1h0.9c0.1,0,0.1,0.1,0.1,0.1v1.9c0,0.1,0,0.1,0.1,0.1h1.1
		c0.1,0,0.1,0.1,0.1,0.1v0.7c0,0.1-0.1,0.1-0.1,0.1h-1.1c-0.1,0-0.1,0-0.1,0.1v3.8c0,0.7,0.3,0.9,0.9,0.9h0.3c0.1,0,0.1,0.1,0.1,0.1
		v0.8c0,0.1-0.1,0.1-0.1,0.1H630.8z"/>
	<path d="M633.3,459.8c-0.1,0-0.1-0.1-0.1-0.1v-0.8c0-0.1,0.1-0.1,0.1-0.1h0.3c0.5,0,0.8-0.2,1.1-1l0.2-0.6l-2.5-6.4
		c0-0.1,0-0.1,0.1-0.1h1c0.1,0,0.1,0,0.2,0.1l1.8,4.8h0l1.7-4.8c0-0.1,0.1-0.1,0.2-0.1h1c0.1,0,0.1,0.1,0.1,0.1l-2.6,7.1
		c-0.6,1.6-1.1,2-2.1,2H633.3z"/>
	<path d="M640,459.8c-0.1,0-0.1-0.1-0.1-0.1v-9c0-0.1,0.1-0.1,0.1-0.1h0.9c0.1,0,0.1,0.1,0.1,0.1v0.6h0c0.3-0.5,0.9-0.9,1.9-0.9
		c1.2,0,2,0.5,2.3,1.6c0.2,0.5,0.2,1.1,0.2,1.9c0,0.8-0.1,1.4-0.2,1.9c-0.3,1.1-1.1,1.6-2.3,1.6c-1,0-1.6-0.4-1.9-0.9h0v3.2
		c0,0.1-0.1,0.1-0.1,0.1H640z M644.2,455.3c0.1-0.4,0.2-0.8,0.2-1.4c0-0.6,0-1-0.2-1.4c-0.2-0.7-0.7-1-1.5-1s-1.3,0.3-1.5,1
		c-0.1,0.3-0.2,0.7-0.2,1.4c0,0.7,0,1.1,0.2,1.4c0.2,0.7,0.7,1,1.5,1S644,456,644.2,455.3z"/>
	<path d="M647.3,455.6c-0.1-0.4-0.2-0.9-0.2-1.7s0.1-1.3,0.2-1.7c0.4-1.2,1.4-1.8,2.6-1.8c1.3,0,2.3,0.7,2.6,1.8
		c0.1,0.4,0.2,0.9,0.2,1.9c0,0.1-0.1,0.1-0.2,0.1h-4.2c-0.1,0-0.1,0-0.1,0.1c0,0.4,0,0.6,0.1,0.8c0.3,0.8,0.9,1.2,1.7,1.2
		c0.8,0,1.4-0.3,1.7-0.7c0.1-0.1,0.1-0.1,0.2,0l0.6,0.5c0.1,0.1,0.1,0.1,0,0.2c-0.5,0.7-1.4,1.1-2.6,1.1
		C648.6,457.4,647.6,456.8,647.3,455.6z M651.4,453.3C651.5,453.3,651.5,453.3,651.4,453.3c0.1-0.4,0.1-0.6,0-0.8
		c-0.2-0.7-0.8-1.1-1.5-1.1c-0.8,0-1.3,0.4-1.5,1.1c-0.1,0.2-0.1,0.4-0.1,0.8c0,0.1,0,0.1,0.1,0.1H651.4z"/>
	<path d="M596.1,470.8v-6.1c0-0.1,0.1-0.1,0.1-0.1h1c0.1,0,0.1,0.1,0.1,0.1v6.1c0,1.5,0.9,2.3,2.1,2.3c1.3,0,2.1-0.8,2.1-2.3v-6.1
		c0-0.1,0.1-0.1,0.1-0.1h1c0.1,0,0.1,0.1,0.1,0.1v6.1c0,2.2-1.3,3.5-3.4,3.5C597.4,474.2,596.1,473,596.1,470.8z"/>
	<path d="M604.6,473.2c-0.1-0.1-0.1-0.1,0-0.2l0.6-0.6c0.1-0.1,0.1-0.1,0.2,0c0.5,0.4,1.3,0.8,2.1,0.8c1,0,1.5-0.4,1.5-1
		c0-0.5-0.3-0.8-1.3-0.9l-0.7-0.1c-1.3-0.1-2-0.8-2-1.9c0-1.3,0.9-2,2.5-2c1,0,1.8,0.3,2.4,0.7c0.1,0,0.1,0.1,0,0.2l-0.5,0.6
		c-0.1,0.1-0.1,0.1-0.2,0c-0.4-0.3-1.1-0.5-1.8-0.5c-0.8,0-1.3,0.4-1.3,0.9c0,0.5,0.3,0.8,1.3,0.9l0.7,0.1c1.4,0.1,2,0.8,2,1.9
		c0,1.3-1,2.2-2.7,2.2C606.1,474.2,605.2,473.7,604.6,473.2z"/>
	<path d="M616,474.1c-0.1,0-0.1-0.1-0.1-0.1v-0.6h0c-0.3,0.5-1,0.9-2,0.9c-1.3,0-2.3-0.7-2.3-2c0-1.4,1-2.1,2.6-2.1h1.5
		c0.1,0,0.1,0,0.1-0.1v-0.5c0-0.9-0.4-1.3-1.6-1.3c-0.8,0-1.2,0.2-1.6,0.5c-0.1,0.1-0.2,0.1-0.2,0l-0.4-0.6c0-0.1,0-0.1,0-0.2
		c0.5-0.4,1.3-0.7,2.3-0.7c1.9,0,2.6,0.6,2.6,2.3v4.4c0,0.1-0.1,0.1-0.1,0.1H616z M615.9,471.9v-0.7c0-0.1,0-0.1-0.1-0.1h-1.3
		c-1.2,0-1.7,0.3-1.7,1.1c0,0.7,0.5,1.1,1.4,1.1C615.2,473.2,615.9,472.7,615.9,471.9z"/>
	<path d="M619.4,474.1c-0.1,0-0.1-0.1-0.1-0.1v-9.2c0-0.1,0.1-0.1,0.1-0.1h0.9c0.1,0,0.1,0.1,0.1,0.1v3.4h0c0.3-0.5,0.9-0.9,1.9-0.9
		c1.2,0,2,0.5,2.3,1.6c0.2,0.5,0.2,1.1,0.2,1.9c0,0.8-0.1,1.4-0.2,1.9c-0.3,1.1-1.1,1.6-2.3,1.6c-1,0-1.6-0.4-1.9-0.9h0v0.6
		c0,0.1-0.1,0.1-0.1,0.1H619.4z M623.5,472.1c0.1-0.4,0.2-0.8,0.2-1.4c0-0.6,0-1-0.2-1.4c-0.2-0.7-0.7-1-1.5-1s-1.3,0.3-1.5,1
		c-0.1,0.3-0.2,0.7-0.2,1.4c0,0.7,0,1.1,0.2,1.4c0.2,0.7,0.7,1,1.5,1S623.3,472.8,623.5,472.1z"/>
	<path d="M626.9,465.9c-0.1,0-0.1-0.1-0.1-0.1v-1c0-0.1,0.1-0.1,0.1-0.1h1c0.1,0,0.1,0.1,0.1,0.1v1c0,0.1-0.1,0.1-0.1,0.1H626.9z
		 M626.9,474.1c-0.1,0-0.1-0.1-0.1-0.1v-6.4c0-0.1,0.1-0.1,0.1-0.1h0.9c0.1,0,0.1,0.1,0.1,0.1v6.4c0,0.1-0.1,0.1-0.1,0.1H626.9z"/>
	<path d="M631.8,474.2c-1.2,0-1.6-0.6-1.6-1.8v-7.7c0-0.1,0.1-0.1,0.1-0.1h0.9c0.1,0,0.1,0.1,0.1,0.1v7.6c0,0.6,0.2,0.7,0.7,0.7h0.3
		c0.1,0,0.1,0.1,0.1,0.1v0.8c0,0.1-0.1,0.1-0.1,0.1H631.8z"/>
	<path d="M634.2,465.9c-0.1,0-0.1-0.1-0.1-0.1v-1c0-0.1,0.1-0.1,0.1-0.1h1c0.1,0,0.1,0.1,0.1,0.1v1c0,0.1-0.1,0.1-0.1,0.1H634.2z
		 M634.3,474.1c-0.1,0-0.1-0.1-0.1-0.1v-6.4c0-0.1,0.1-0.1,0.1-0.1h0.9c0.1,0,0.1,0.1,0.1,0.1v6.4c0,0.1-0.1,0.1-0.1,0.1H634.3z"/>
	<path d="M639.5,474.2c-1.3,0-1.8-0.6-1.8-1.9v-3.8c0-0.1,0-0.1-0.1-0.1h-0.6c-0.1,0-0.1-0.1-0.1-0.1v-0.7c0-0.1,0.1-0.1,0.1-0.1
		h0.6c0.1,0,0.1,0,0.1-0.1v-1.9c0-0.1,0.1-0.1,0.1-0.1h0.9c0.1,0,0.1,0.1,0.1,0.1v1.9c0,0.1,0,0.1,0.1,0.1h1.1
		c0.1,0,0.1,0.1,0.1,0.1v0.7c0,0.1-0.1,0.1-0.1,0.1H639c-0.1,0-0.1,0-0.1,0.1v3.8c0,0.7,0.3,0.9,0.9,0.9h0.3c0.1,0,0.1,0.1,0.1,0.1
		v0.8c0,0.1-0.1,0.1-0.1,0.1H639.5z"/>
	<path d="M642.1,476.6c-0.1,0-0.1-0.1-0.1-0.1v-0.8c0-0.1,0.1-0.1,0.1-0.1h0.3c0.5,0,0.8-0.2,1.1-1l0.2-0.6l-2.5-6.4
		c0-0.1,0-0.1,0.1-0.1h1c0.1,0,0.1,0,0.2,0.1l1.8,4.8h0l1.7-4.8c0-0.1,0.1-0.1,0.2-0.1h1c0.1,0,0.1,0.1,0.1,0.1l-2.6,7.1
		c-0.6,1.6-1.1,2-2.1,2H642.1z"/>
	<path d="M654,474.1c-0.1,0-0.1-0.1-0.1-0.1v-8.1c0-0.1,0-0.1-0.1-0.1h-2.6c-0.1,0-0.1-0.1-0.1-0.1v-0.9c0-0.1,0.1-0.1,0.1-0.1h6.6
		c0.1,0,0.1,0.1,0.1,0.1v0.9c0,0.1-0.1,0.1-0.1,0.1h-2.6c-0.1,0-0.1,0-0.1,0.1v8.1c0,0.1-0.1,0.1-0.1,0.1H654z"/>
	<path d="M658.3,472.4c-0.1-0.4-0.2-0.9-0.2-1.7s0.1-1.3,0.2-1.7c0.4-1.2,1.4-1.8,2.6-1.8c1.3,0,2.3,0.7,2.6,1.8
		c0.1,0.4,0.2,0.9,0.2,1.9c0,0.1-0.1,0.1-0.2,0.1h-4.2c-0.1,0-0.1,0-0.1,0.1c0,0.4,0,0.6,0.1,0.8c0.3,0.8,0.9,1.2,1.7,1.2
		c0.8,0,1.4-0.3,1.7-0.7c0.1-0.1,0.1-0.1,0.2,0l0.6,0.5c0.1,0.1,0.1,0.1,0,0.2c-0.5,0.7-1.4,1.1-2.6,1.1
		C659.6,474.2,658.7,473.6,658.3,472.4z M662.5,470.1C662.5,470.1,662.6,470.1,662.5,470.1c0.1-0.4,0.1-0.6,0-0.8
		c-0.2-0.7-0.8-1.1-1.5-1.1c-0.8,0-1.3,0.4-1.5,1.1c-0.1,0.2-0.1,0.4-0.1,0.8c0,0.1,0,0.1,0.1,0.1H662.5z"/>
	<path d="M665.2,473.2c-0.1-0.1-0.1-0.1,0-0.2l0.6-0.6c0.1-0.1,0.1-0.1,0.2,0c0.5,0.4,1.3,0.8,2.1,0.8c1,0,1.5-0.4,1.5-1
		c0-0.5-0.3-0.8-1.3-0.9l-0.7-0.1c-1.3-0.1-2-0.8-2-1.9c0-1.3,0.9-2,2.5-2c1,0,1.8,0.3,2.4,0.7c0.1,0,0.1,0.1,0,0.2l-0.5,0.6
		c-0.1,0.1-0.1,0.1-0.2,0c-0.4-0.3-1.1-0.5-1.8-0.5c-0.8,0-1.3,0.4-1.3,0.9c0,0.5,0.3,0.8,1.3,0.9l0.7,0.1c1.4,0.1,2,0.8,2,1.9
		c0,1.3-1,2.2-2.7,2.2C666.7,474.2,665.7,473.7,665.2,473.2z"/>
	<path d="M674.5,474.2c-1.3,0-1.8-0.6-1.8-1.9v-3.8c0-0.1,0-0.1-0.1-0.1H672c-0.1,0-0.1-0.1-0.1-0.1v-0.7c0-0.1,0.1-0.1,0.1-0.1h0.6
		c0.1,0,0.1,0,0.1-0.1v-1.9c0-0.1,0.1-0.1,0.1-0.1h0.9c0.1,0,0.1,0.1,0.1,0.1v1.9c0,0.1,0,0.1,0.1,0.1h1.1c0.1,0,0.1,0.1,0.1,0.1
		v0.7c0,0.1-0.1,0.1-0.1,0.1h-1.1c-0.1,0-0.1,0-0.1,0.1v3.8c0,0.7,0.3,0.9,0.9,0.9h0.3c0.1,0,0.1,0.1,0.1,0.1v0.8
		c0,0.1-0.1,0.1-0.1,0.1H674.5z"/>
	<path d="M677.1,465.9c-0.1,0-0.1-0.1-0.1-0.1v-1c0-0.1,0.1-0.1,0.1-0.1h1c0.1,0,0.1,0.1,0.1,0.1v1c0,0.1-0.1,0.1-0.1,0.1H677.1z
		 M677.1,474.1c-0.1,0-0.1-0.1-0.1-0.1v-6.4c0-0.1,0.1-0.1,0.1-0.1h0.9c0.1,0,0.1,0.1,0.1,0.1v6.4c0,0.1-0.1,0.1-0.1,0.1H677.1z"/>
	<path d="M684.8,474.1c-0.1,0-0.1-0.1-0.1-0.1V470c0-1.1-0.5-1.7-1.5-1.7c-0.9,0-1.5,0.6-1.5,1.6v4c0,0.1-0.1,0.1-0.1,0.1h-0.9
		c-0.1,0-0.1-0.1-0.1-0.1v-6.4c0-0.1,0.1-0.1,0.1-0.1h0.9c0.1,0,0.1,0.1,0.1,0.1v0.6h0c0.3-0.5,1-0.9,1.9-0.9c1.5,0,2.3,1,2.3,2.5
		v4.2c0,0.1-0.1,0.1-0.1,0.1H684.8z"/>
	<path d="M687.9,475.8c-0.1-0.1-0.1-0.1,0-0.2l0.6-0.6c0.1-0.1,0.1-0.1,0.2,0c0.5,0.4,0.9,0.7,1.6,0.7c1.1,0,1.7-0.6,1.7-1.8v-0.8h0
		c-0.3,0.6-0.9,0.9-1.9,0.9c-1.1,0-1.9-0.6-2.3-1.6c-0.2-0.5-0.2-1-0.2-1.8c0-0.8,0.1-1.3,0.2-1.8c0.3-1.1,1.1-1.6,2.3-1.6
		c1,0,1.6,0.4,1.9,0.9h0v-0.6c0-0.1,0.1-0.1,0.1-0.1h0.9c0.1,0,0.1,0.1,0.1,0.1v6.3c0,1.9-1,3-2.9,3
		C689.3,476.8,688.3,476.4,687.9,475.8z M691.8,471.9c0.1-0.3,0.2-0.7,0.2-1.3c0-0.6,0-1-0.2-1.3c-0.2-0.7-0.7-1-1.4-1
		c-0.7,0-1.2,0.4-1.4,1c-0.1,0.3-0.2,0.8-0.2,1.3c0,0.5,0.1,1,0.2,1.3c0.2,0.7,0.7,1,1.4,1C691.1,472.9,691.6,472.6,691.8,471.9z"/>
</g>
<polyline class="st0" points="199,150.6 199,30.7 35.2,30.7 "/>
<polyline class="st0" points="439.5,140.9 439.5,51 593.2,51 "/>
<circle class="st0" cx="32.7" cy="30.7" r="2.5"/>
<circle class="st7" cx="199" cy="170.6" r="20"/>
<g>
	<path class="st2" d="M198.3,163.2L198.3,163.2l-3.5,2.4c-0.2,0.1-0.3,0.1-0.3-0.2v-2.2c0-0.2,0.1-0.3,0.2-0.4l3.5-2.5
		c0.1-0.1,0.3-0.2,0.5-0.2h1.8c0.2,0,0.3,0.1,0.3,0.3v19.8c0,0.2-0.1,0.3-0.3,0.3h-1.9c-0.2,0-0.3-0.1-0.3-0.3V163.2z"/>
</g>
<circle class="st8" cx="439.5" cy="158.5" r="20"/>
<g>
	<path class="st4" d="M433.7,166c0-0.2,0-0.3,0.2-0.4l7.3-9.4c0.9-1.1,1.4-2.2,1.4-3.5c0-1.8-1.2-3.2-3.2-3.2c-1.9,0-3,1.2-3.3,3
		c0,0.2-0.2,0.3-0.3,0.2l-1.8-0.4c-0.2-0.1-0.3-0.2-0.2-0.4c0.3-2.4,2.2-4.8,5.8-4.8c3.6,0,5.7,2.4,5.7,5.5c0,1.8-0.8,3.3-2,4.9
		l-6.3,7.9v0h8c0.2,0,0.3,0.1,0.3,0.3v1.7c0,0.2-0.1,0.3-0.3,0.3H434c-0.2,0-0.3-0.1-0.3-0.3V166z"/>
</g>
<circle class="st9" cx="756.5" cy="281.4" r="20"/>
<g>
	<path class="st6" d="M750.6,286.5l1.8-0.5c0.2-0.1,0.3,0,0.4,0.2c0.4,1.3,1.5,2.6,3.6,2.6c2.2,0,3.5-1.5,3.5-3.6
		c0-2.3-1.5-3.8-3.8-3.8h-0.9c-0.2,0-0.3-0.1-0.3-0.3v-1.7c0-0.2,0.1-0.3,0.3-0.3h0.9c2,0,3.4-1.3,3.4-3.4c0-1.9-1.2-3.2-3.3-3.2
		c-1.9,0-2.9,1.1-3.2,2.5c-0.1,0.2-0.2,0.3-0.4,0.2l-1.8-0.5c-0.2,0-0.3-0.2-0.2-0.4c0.4-2.3,2.5-4.3,5.7-4.3c3.6,0,5.8,2.3,5.8,5.5
		c0,2-1.1,3.5-2.5,4.4v0.1c1.3,0.5,2.9,2.3,2.9,5.1c0,3.6-2.5,6-6.1,6c-3.3,0-5.5-1.8-6.1-4.3C750.3,286.7,750.4,286.6,750.6,286.5z
		"/>
</g>
<circle class="st0" cx="595.7" cy="50.9" r="2.5"/>
<circle class="st0" cx="599.5" cy="435.9" r="2.5"/>
</svg>
