<?xml version="1.0" encoding="UTF-8" standalone="no"?>
<svg width="500px" height="500px" viewBox="0 0 500 500" version="1.1" xmlns="http://www.w3.org/2000/svg" xmlns:xlink="http://www.w3.org/1999/xlink">
    <!-- Generator: Sketch 41.2 (35397) - http://www.bohemiancoding.com/sketch -->
    <title>webmd-pie2</title>
    <desc>Created with Sketch.</desc>
    <defs>
        <path d="M123.017181,306.536393 C117.337823,293.780345 113.660105,280.495972 111.99062,266.980558 L12.7449142,279.239839 C15.6227746,302.537722 21.9519591,325.399521 31.6626356,347.210058 L123.017181,306.536393 Z" id="path-1"></path>
        <filter x="-50%" y="-50%" width="200%" height="200%" filterUnits="objectBoundingBox" id="filter-2">
            <feOffset dx="0" dy="2" in="SourceAlpha" result="shadowOffsetOuter1"></feOffset>
            <feGaussianBlur stdDeviation="3.5" in="shadowOffsetOuter1" result="shadowBlurOuter1"></feGaussianBlur>
            <feColorMatrix values="0 0 0 0 0   0 0 0 0 0   0 0 0 0 0  0 0 0 0.5 0" type="matrix" in="shadowBlurOuter1"></feColorMatrix>
        </filter>
    </defs>
    <g id="Page-1" stroke="none" stroke-width="1" fill="none" fill-rule="evenodd">
        <g id="webmd-pie2">
            <path d="M288.375239,383.655737 C214.581504,404.81575 137.606283,362.147688 116.44627,288.353954 C95.2862576,214.560219 137.954319,137.584998 211.748054,116.424985 C279.116373,97.1074307 350.126803,131.038231 377.614529,194.749348 L469.433292,155.13477 C422.084414,45.3894278 300.046007,-12.9239889 184.184318,20.2988157 C57.3015662,56.6818594 -16.0629428,189.034937 20.3201008,315.917689 C56.7031445,442.800441 189.056222,516.16495 315.938974,479.781906 L288.375239,383.655737 Z" id="Oval" fill="#C9DFF2"></path>
            <path d="M250.033087,111 C326.800667,111 389.033087,173.23242 389.033087,250 C389.033087,326.76758 326.800667,389 250.033087,389 C179.949863,389 121.042852,336.810494 112.181117,267.990794 L13,280.762089 C28.2647469,399.307202 129.502237,489 250.033087,489 C382.029142,489 489.033087,381.996055 489.033087,250 C489.033087,118.003945 382.029142,11 250.033087,11 L250.033087,111 Z" id="Oval" fill="#78B0DF"></path>
            <g id="Oval">
                <use fill="black" fill-opacity="1" filter="url(#filter-2)" xlink:href="#path-1"></use>
                <use fill="#2782CB" fill-rule="evenodd" xlink:href="#path-1"></use>
            </g>
            <path d="M181.020845,271.06 C183.110845,281.84 192.570845,288.22 205.330845,288.22 C219.410845,288.22 229.750845,279.09 229.750845,265.45 C229.750845,255.55 224.470845,249.5 219.960845,247.3 L219.960845,247.08 C225.350845,243.56 228.320845,238.06 228.320845,231.68 C228.320845,219.69 219.850845,211 205.220845,211 C192.020845,211 183.550845,218.26 181.790845,228.16 C181.680845,228.82 182.010845,229.26 182.670845,229.37 L194.660845,231.68 C195.320845,231.79 195.760845,231.57 195.980845,230.91 C197.080845,226.73 199.720845,223.98 204.450845,223.98 C209.730845,223.98 212.920845,227.5 212.920845,232.78 C212.920845,238.5 209.290845,242.13 203.680845,242.13 L200.710845,242.13 C200.050845,242.13 199.610845,242.57 199.610845,243.23 L199.610845,253.9 C199.610845,254.56 200.050845,255 200.710845,255 L203.900845,255 C210.280845,255 214.350845,258.85 214.350845,265.56 C214.350845,271.17 210.830845,275.24 205.110845,275.24 C199.830845,275.24 196.640845,272.16 195.320845,268.2 C195.100845,267.54 194.660845,267.21 194.000845,267.32 L181.900845,269.63 C181.240845,269.85 180.910845,270.4 181.020845,271.06 Z M253.400845,287.12 C253.070845,287.67 253.290845,288.22 253.950845,288.22 L263.080845,288.22 C263.960845,288.22 264.400845,287.89 264.840845,287.12 L308.290845,212.1 C308.620845,211.55 308.510845,211 307.850845,211 L298.610845,211 C297.730845,211 297.290845,211.33 296.850845,212.1 L253.400845,287.12 Z M257.800845,250.71 C264.840845,250.71 270.120845,247.19 271.990845,241.69 C272.760845,239.49 272.980845,237.95 272.980845,231.02 C272.980845,224.09 272.760845,222.55 271.990845,220.35 C270.120845,214.85 264.840845,211.33 257.800845,211.33 C250.760845,211.33 245.480845,214.85 243.610845,220.35 C242.840845,222.55 242.620845,224.09 242.620845,231.02 C242.620845,237.95 242.840845,239.49 243.610845,241.69 C245.480845,247.19 250.760845,250.71 257.800845,250.71 Z M257.800845,242.02 C255.930845,242.02 254.500845,241.14 253.950845,239.49 C253.620845,238.61 253.510845,237.73 253.510845,231.02 C253.510845,224.31 253.620845,223.43 253.950845,222.55 C254.500845,220.9 255.930845,220.02 257.800845,220.02 C259.670845,220.02 261.100845,220.9 261.650845,222.55 C261.980845,223.43 262.090845,224.31 262.090845,231.02 C262.090845,237.73 261.980845,238.61 261.650845,239.49 C261.100845,241.14 259.670845,242.02 257.800845,242.02 Z M289.590845,278.87 C291.460845,284.48 296.630845,288 303.780845,288 C310.820845,288 316.100845,284.48 317.970845,278.87 C318.630845,276.67 318.960845,275.13 318.960845,268.31 C318.960845,261.38 318.630845,259.84 317.970845,257.64 C316.100845,252.14 310.820845,248.62 303.780845,248.62 C296.630845,248.62 291.460845,252.14 289.590845,257.64 C288.820845,259.84 288.600845,261.38 288.600845,268.31 C288.600845,275.13 288.820845,276.67 289.590845,278.87 Z M299.930845,276.67 C299.600845,275.9 299.490845,275.02 299.490845,268.31 C299.490845,261.6 299.600845,260.72 299.930845,259.84 C300.480845,258.19 301.910845,257.31 303.780845,257.31 C305.650845,257.31 307.080845,258.19 307.630845,259.84 C307.960845,260.72 308.070845,261.6 308.070845,268.31 C308.070845,275.02 307.960845,275.9 307.630845,276.67 C307.080845,278.43 305.650845,279.31 303.780845,279.31 C301.910845,279.31 300.480845,278.43 299.930845,276.67 Z" id="3%" fill="#5A5A5A"></path>
        </g>
    </g>
</svg>