<?xml version="1.0" encoding="UTF-8" standalone="no"?>
<svg width="500px" height="500px" viewBox="0 0 500 500" version="1.1" xmlns="http://www.w3.org/2000/svg" xmlns:xlink="http://www.w3.org/1999/xlink">
    <!-- Generator: Sketch 41.2 (35397) - http://www.bohemiancoding.com/sketch -->
    <title>webmd-pie1</title>
    <desc>Created with Sketch.</desc>
    <defs></defs>
    <g id="Page-1" stroke="none" stroke-width="1" fill="none" fill-rule="evenodd">
        <g id="webmd-pie1">
            <path d="M288.313592,383.615376 C214.519858,404.775389 137.544637,362.107327 116.384624,288.313592 C95.2246114,214.519858 137.892673,137.544637 211.686408,116.384624 C279.054727,97.0670697 350.065157,130.99787 377.552883,194.708986 L469.371646,155.094408 C422.022768,45.3490667 299.984361,-12.96435 184.122672,20.2584547 C57.2399201,56.6414983 -16.124589,188.994576 20.2584547,315.877328 C56.6414983,442.76008 188.994576,516.124589 315.877328,479.741545 L288.313592,383.615376 Z" id="Oval" fill="#93C0E5"></path>
            <path d="M250,111 C326.76758,111 389,173.23242 389,250 C389,326.76758 326.76758,389 250,389 C179.916776,389 121.009765,336.810494 112.14803,267.990794 L12.9669132,280.762089 C28.2316601,399.307202 129.469151,489 250,489 C381.996055,489 489,381.996055 489,250 C489,118.003945 381.996055,11 250,11 L250,111 Z" id="Oval" fill="#2782CB"></path>
            <path d="M182.31,276.91 C182.31,277.57 182.75,278.01 183.41,278.01 L196.61,278.01 C197.27,278.01 197.71,277.57 197.71,276.91 L197.71,204.31 C197.71,203.65 197.27,203.21 196.61,203.21 L184.29,203.21 C183.52,203.21 182.86,203.43 182.31,203.87 L169.77,212.89 C169.22,213.33 169,213.77 169,214.43 L169,228.07 C169,228.95 169.55,229.17 170.21,228.73 L182.09,220.59 L182.31,220.59 L182.31,276.91 Z M232.8,276.91 C232.47,277.57 232.69,278.01 233.57,278.01 L247.54,278.01 C248.31,278.01 248.53,277.9 248.86,277.24 L267.01,244.02 C270.53,237.64 272.51,231.92 272.51,225.54 C272.51,210.8 261.73,202 247.43,202 C233.24,202 222.35,210.8 222.35,225.87 C222.35,239.62 232.03,248.42 243.8,248.42 C245.78,248.42 247.65,248.09 248.42,247.76 L248.64,247.98 L232.8,276.91 Z M247.43,235.77 C241.38,235.77 237.53,231.48 237.53,225.32 C237.53,219.27 241.38,214.98 247.43,214.98 C253.48,214.98 257.33,219.27 257.33,225.32 C257.33,231.48 253.48,235.77 247.43,235.77 Z M285.16,276.91 C285.16,277.57 285.6,278.01 286.26,278.01 L330.7,278.01 C331.36,278.01 331.8,277.57 331.8,276.91 L331.8,266.02 C331.8,265.36 331.36,264.92 330.7,264.92 L304.52,264.92 L304.52,264.7 L324.21,241.49 C328.94,236.1 331.8,230.49 331.8,223.34 C331.8,211.24 323.11,202 308.81,202 C294.4,202 286.04,211.02 285.27,221.36 C285.16,222.02 285.49,222.57 286.15,222.68 L298.25,224.66 C299.02,224.77 299.46,224.44 299.46,223.78 C300.12,218.06 303.2,214.98 308.26,214.98 C313.43,214.98 316.4,218.61 316.4,223.56 C316.4,227.41 314.86,230.6 312,233.9 L285.71,265.14 C285.27,265.69 285.16,266.02 285.16,266.68 L285.16,276.91 Z" id="192" fill="#5A5A5A"></path>
            <path d="M176.37,308.4 C176.55,308.4 176.67,308.28 176.67,308.1 L176.67,300.36 C176.67,300.24 176.73,300.18 176.85,300.18 L181.56,300.18 C185.49,300.18 188.04,297.78 188.04,294.09 C188.04,290.4 185.49,288 181.56,288 L174.3,288 C174.12,288 174,288.12 174,288.3 L174,308.1 C174,308.28 174.12,308.4 174.3,308.4 L176.37,308.4 Z M181.41,297.69 L176.85,297.69 C176.73,297.69 176.67,297.63 176.67,297.51 L176.67,290.67 C176.67,290.55 176.73,290.49 176.85,290.49 L181.41,290.49 C183.93,290.49 185.4,291.87 185.4,294.09 C185.4,296.31 183.93,297.69 181.41,297.69 Z M202.17,308.4 C202.35,308.4 202.47,308.28 202.47,308.1 L202.47,298.59 C202.47,295.05 200.91,293.7 196.83,293.7 C194.7,293.7 193.02,294.27 191.94,295.11 C191.82,295.23 191.79,295.35 191.88,295.53 L192.69,296.91 C192.78,297.06 192.96,297.06 193.11,296.94 C193.95,296.34 194.97,295.92 196.59,295.92 C199.26,295.92 200.04,296.76 200.04,298.74 L200.04,299.79 C200.04,299.91 199.98,299.97 199.86,299.97 L196.59,299.97 C193.08,299.97 190.98,301.38 190.98,304.41 C190.98,307.32 193.08,308.73 195.81,308.73 C198,308.73 199.41,307.92 200.07,306.84 L200.1,306.84 L200.1,308.1 C200.1,308.28 200.22,308.4 200.4,308.4 L202.17,308.4 Z M196.41,306.57 C194.49,306.57 193.41,305.79 193.41,304.32 C193.41,302.7 194.49,301.98 196.98,301.98 L199.86,301.98 C199.98,301.98 200.04,302.04 200.04,302.16 L200.04,303.75 C200.04,305.52 198.66,306.57 196.41,306.57 Z M209.49,308.4 C209.67,308.4 209.79,308.28 209.79,308.1 L209.79,300.24 C209.79,297.75 210.69,296.04 212.88,296.04 C213.72,296.04 214.44,296.31 215.1,296.73 C215.25,296.85 215.4,296.82 215.52,296.67 L216.63,295.2 C216.75,295.05 216.72,294.93 216.57,294.78 C215.85,294.12 214.77,293.7 213.63,293.7 C211.71,293.7 210.45,294.57 209.82,295.8 L209.79,295.8 L209.79,294.33 C209.79,294.15 209.67,294.03 209.49,294.03 L207.57,294.03 C207.39,294.03 207.27,294.15 207.27,294.33 L207.27,308.1 C207.27,308.28 207.39,308.4 207.57,308.4 L209.49,308.4 Z M224.85,308.55 C225.03,308.55 225.15,308.43 225.15,308.25 L225.15,306.51 C225.15,306.33 225.03,306.21 224.85,306.21 L224.22,306.21 C222.93,306.21 222.39,305.82 222.39,304.38 L222.39,296.25 C222.39,296.13 222.45,296.07 222.57,296.07 L224.85,296.07 C225.03,296.07 225.15,295.95 225.15,295.77 L225.15,294.33 C225.15,294.15 225.03,294.03 224.85,294.03 L222.57,294.03 C222.45,294.03 222.39,293.97 222.39,293.85 L222.39,289.8 C222.39,289.62 222.27,289.5 222.09,289.5 L220.17,289.5 C219.99,289.5 219.87,289.62 219.87,289.8 L219.87,293.85 C219.87,293.97 219.81,294.03 219.69,294.03 L218.49,294.03 C218.31,294.03 218.19,294.15 218.19,294.33 L218.19,295.77 C218.19,295.95 218.31,296.07 218.49,296.07 L219.69,296.07 C219.81,296.07 219.87,296.13 219.87,296.25 L219.87,304.47 C219.87,307.29 220.95,308.55 223.74,308.55 L224.85,308.55 Z M231.33,290.79 C231.51,290.79 231.63,290.67 231.63,290.49 L231.63,288.3 C231.63,288.12 231.51,288 231.33,288 L229.29,288 C229.11,288 228.99,288.12 228.99,288.3 L228.99,290.49 C228.99,290.67 229.11,290.79 229.29,290.79 L231.33,290.79 Z M231.27,308.4 C231.45,308.4 231.57,308.28 231.57,308.1 L231.57,294.33 C231.57,294.15 231.45,294.03 231.27,294.03 L229.35,294.03 C229.17,294.03 229.05,294.15 229.05,294.33 L229.05,308.1 C229.05,308.28 229.17,308.4 229.35,308.4 L231.27,308.4 Z M235.62,301.2 C235.62,302.82 235.8,303.99 236.07,304.86 C236.88,307.35 238.98,308.73 241.74,308.73 C243.93,308.73 245.61,307.8 246.66,306.3 C246.75,306.15 246.75,306.03 246.57,305.88 L245.25,304.8 C245.1,304.68 244.95,304.68 244.83,304.83 C243.99,305.88 243.18,306.39 241.74,306.39 C240.18,306.39 239.01,305.64 238.53,304.14 C238.29,303.39 238.2,302.49 238.2,301.2 C238.2,299.94 238.29,299.04 238.53,298.29 C239.01,296.79 240.18,296.04 241.74,296.04 C243.18,296.04 243.99,296.55 244.83,297.6 C244.95,297.75 245.1,297.75 245.25,297.63 L246.57,296.55 C246.75,296.4 246.75,296.28 246.66,296.13 C245.61,294.63 243.93,293.7 241.74,293.7 C238.98,293.7 236.88,295.08 236.07,297.57 C235.8,298.44 235.62,299.61 235.62,301.2 Z M252.93,290.79 C253.11,290.79 253.23,290.67 253.23,290.49 L253.23,288.3 C253.23,288.12 253.11,288 252.93,288 L250.89,288 C250.71,288 250.59,288.12 250.59,288.3 L250.59,290.49 C250.59,290.67 250.71,290.79 250.89,290.79 L252.93,290.79 Z M252.87,308.4 C253.05,308.4 253.17,308.28 253.17,308.1 L253.17,294.33 C253.17,294.15 253.05,294.03 252.87,294.03 L250.95,294.03 C250.77,294.03 250.65,294.15 250.65,294.33 L250.65,308.1 C250.65,308.28 250.77,308.4 250.95,308.4 L252.87,308.4 Z M260.31,313.8 C260.49,313.8 260.61,313.68 260.61,313.5 L260.61,306.72 L260.64,306.72 C261.33,307.86 262.56,308.73 264.72,308.73 C267.21,308.73 268.95,307.56 269.67,305.28 C270.06,304.14 270.18,303 270.18,301.2 C270.18,299.43 270.06,298.29 269.67,297.15 C268.95,294.87 267.21,293.7 264.72,293.7 C262.56,293.7 261.33,294.54 260.64,295.68 L260.61,295.68 L260.61,294.33 C260.61,294.15 260.49,294.03 260.31,294.03 L258.39,294.03 C258.21,294.03 258.09,294.15 258.09,294.33 L258.09,313.5 C258.09,313.68 258.21,313.8 258.39,313.8 L260.31,313.8 Z M264.12,306.39 C262.53,306.39 261.42,305.64 260.94,304.2 C260.7,303.51 260.61,302.64 260.61,301.2 C260.61,299.76 260.7,298.92 260.94,298.2 C261.42,296.76 262.53,296.04 264.12,296.04 C265.71,296.04 266.79,296.79 267.27,298.2 C267.51,298.98 267.6,299.91 267.6,301.2 C267.6,302.52 267.51,303.45 267.27,304.2 C266.79,305.61 265.71,306.39 264.12,306.39 Z M284.7,308.4 C284.88,308.4 285,308.28 285,308.1 L285,298.59 C285,295.05 283.44,293.7 279.36,293.7 C277.23,293.7 275.55,294.27 274.47,295.11 C274.35,295.23 274.32,295.35 274.41,295.53 L275.22,296.91 C275.31,297.06 275.49,297.06 275.64,296.94 C276.48,296.34 277.5,295.92 279.12,295.92 C281.79,295.92 282.57,296.76 282.57,298.74 L282.57,299.79 C282.57,299.91 282.51,299.97 282.39,299.97 L279.12,299.97 C275.61,299.97 273.51,301.38 273.51,304.41 C273.51,307.32 275.61,308.73 278.34,308.73 C280.53,308.73 281.94,307.92 282.6,306.84 L282.63,306.84 L282.63,308.1 C282.63,308.28 282.75,308.4 282.93,308.4 L284.7,308.4 Z M278.94,306.57 C277.02,306.57 275.94,305.79 275.94,304.32 C275.94,302.7 277.02,301.98 279.51,301.98 L282.39,301.98 C282.51,301.98 282.57,302.04 282.57,302.16 L282.57,303.75 C282.57,305.52 281.19,306.57 278.94,306.57 Z M301.05,308.4 C301.23,308.4 301.35,308.28 301.35,308.1 L301.35,299.1 C301.35,295.83 299.49,293.7 296.37,293.7 C294.42,293.7 293.04,294.54 292.35,295.65 L292.32,295.65 L292.32,294.33 C292.32,294.15 292.2,294.03 292.02,294.03 L290.1,294.03 C289.92,294.03 289.8,294.15 289.8,294.33 L289.8,308.1 C289.8,308.28 289.92,308.4 290.1,308.4 L292.02,308.4 C292.2,308.4 292.32,308.28 292.32,308.1 L292.32,299.55 C292.32,297.42 293.67,296.04 295.62,296.04 C297.78,296.04 298.83,297.39 298.83,299.7 L298.83,308.1 C298.83,308.28 298.95,308.4 299.13,308.4 L301.05,308.4 Z M311.4,308.55 C311.58,308.55 311.7,308.43 311.7,308.25 L311.7,306.51 C311.7,306.33 311.58,306.21 311.4,306.21 L310.77,306.21 C309.48,306.21 308.94,305.82 308.94,304.38 L308.94,296.25 C308.94,296.13 309,296.07 309.12,296.07 L311.4,296.07 C311.58,296.07 311.7,295.95 311.7,295.77 L311.7,294.33 C311.7,294.15 311.58,294.03 311.4,294.03 L309.12,294.03 C309,294.03 308.94,293.97 308.94,293.85 L308.94,289.8 C308.94,289.62 308.82,289.5 308.64,289.5 L306.72,289.5 C306.54,289.5 306.42,289.62 306.42,289.8 L306.42,293.85 C306.42,293.97 306.36,294.03 306.24,294.03 L305.04,294.03 C304.86,294.03 304.74,294.15 304.74,294.33 L304.74,295.77 C304.74,295.95 304.86,296.07 305.04,296.07 L306.24,296.07 C306.36,296.07 306.42,296.13 306.42,296.25 L306.42,304.47 C306.42,307.29 307.5,308.55 310.29,308.55 L311.4,308.55 Z M320.55,308.73 C324.3,308.73 326.34,306.84 326.34,304.02 C326.34,301.71 324.93,300.24 322.02,299.97 L320.52,299.82 C318.39,299.61 317.7,299.01 317.7,297.87 C317.7,296.7 318.63,295.89 320.43,295.89 C321.9,295.89 323.37,296.46 324.3,297.06 C324.45,297.15 324.6,297.15 324.72,297 L325.74,295.71 C325.83,295.56 325.83,295.38 325.68,295.29 C324.48,294.39 322.68,293.7 320.58,293.7 C317.19,293.7 315.24,295.35 315.24,298.08 C315.24,300.42 316.71,301.83 319.53,302.13 L321.06,302.28 C323.31,302.52 323.85,303.15 323.85,304.29 C323.85,305.58 322.8,306.48 320.7,306.48 C318.96,306.48 317.34,305.76 316.26,304.83 C316.14,304.71 315.96,304.71 315.84,304.83 L314.61,306.15 C314.49,306.27 314.49,306.45 314.61,306.57 C315.78,307.59 317.76,308.73 320.55,308.73 Z" id="Participants" fill="#5A5A5A"></path>
        </g>
    </g>
</svg>