<?xml version="1.0" encoding="UTF-8" standalone="no"?>
<svg width="203px" height="69px" viewBox="0 0 203 69" version="1.1" xmlns="http://www.w3.org/2000/svg" xmlns:xlink="http://www.w3.org/1999/xlink">
    <!-- Generator: Sketch 3.8.3 (29802) - http://www.bohemiancoding.com/sketch -->
    <title>v</title>
    <desc>Created with Sketch.</desc>
    <defs></defs>
    <g id="Page-1" stroke="none" stroke-width="1" fill="none" fill-rule="evenodd">
        <g id="v" fill="#000000">
            <path d="M10.015,22 L10.015,11.5 L8.44,11.5 L8.44,22 L10.015,22 Z M19.425,22 L19.425,17.485 C19.425,15.16 18.45,13.96 16.62,13.96 C15.81,13.96 15.03,14.305 14.64,14.875 L14.64,14.125 L13.095,14.125 L13.095,22 L14.64,22 L14.64,17.395 C14.64,16.12 15.225,15.385 16.26,15.385 C17.28,15.385 17.88,15.955 17.88,17.545 L17.88,22 L19.425,22 Z M26.09,20.44 C25.805,20.605 25.355,20.755 24.95,20.755 C24.38,20.755 24.14,20.545 24.14,19.81 L24.14,15.535 L26.09,15.535 L26.09,14.125 L24.14,14.125 L24.14,11.065 L22.625,11.875 L22.625,14.125 L21.5,14.125 L21.5,15.535 L22.625,15.535 L22.625,20.08 C22.625,21.49 23.3,22.165 24.395,22.165 C25.01,22.165 25.535,22.015 25.91,21.805 L26.09,20.44 Z M35.08,17.905 C35.08,15.775 34,13.96 31.765,13.96 C29.725,13.96 28.315,15.4 28.315,18.07 C28.315,20.68 29.875,22.165 31.72,22.165 C32.92,22.165 33.745,21.79 34.435,21.13 L33.52,20.14 C32.995,20.53 32.47,20.77 31.81,20.77 C30.85,20.77 29.995,20.125 29.83,18.61 L35.035,18.61 C35.05,18.445 35.08,18.19 35.08,17.905 L35.08,17.905 Z M33.52,17.335 L29.86,17.335 C29.995,16.075 30.625,15.355 31.66,15.355 C32.935,15.355 33.445,16.255 33.52,17.335 L33.52,17.335 Z M42.18,14.29 C41.865,14.08 41.475,13.96 40.845,13.96 C40.065,13.96 39.405,14.35 39.045,14.875 L39.045,14.125 L37.5,14.125 L37.5,22 L39.045,22 L39.045,17.5 C39.045,16.165 39.615,15.475 40.59,15.475 C41.1,15.475 41.445,15.58 41.775,15.76 L42.18,14.29 Z M49.775,19.84 C49.775,18.355 48.875,17.875 47.12,17.2 C45.935,16.735 45.665,16.45 45.665,16.06 C45.665,15.64 45.995,15.34 46.745,15.34 C47.495,15.34 48.14,15.565 48.785,16.015 L49.46,14.83 C48.755,14.32 47.78,13.96 46.79,13.96 C45.215,13.96 44.105,14.695 44.105,16.105 C44.105,17.35 44.72,17.92 46.415,18.58 C47.555,19.015 48.245,19.3 48.245,19.9 C48.245,20.455 47.78,20.77 46.805,20.77 C46.07,20.77 45.245,20.5 44.51,19.99 L43.805,21.16 C44.6,21.745 45.755,22.165 46.82,22.165 C48.365,22.165 49.775,21.58 49.775,19.84 L49.775,19.84 Z M56.2,20.44 C55.915,20.605 55.465,20.755 55.06,20.755 C54.49,20.755 54.25,20.545 54.25,19.81 L54.25,15.535 L56.2,15.535 L56.2,14.125 L54.25,14.125 L54.25,11.065 L52.735,11.875 L52.735,14.125 L51.61,14.125 L51.61,15.535 L52.735,15.535 L52.735,20.08 C52.735,21.49 53.41,22.165 54.505,22.165 C55.12,22.165 55.645,22.015 56.02,21.805 L56.2,20.44 Z M64.83,22 L64.83,16.6 C64.83,14.815 63.63,13.96 61.875,13.96 C60.765,13.96 59.925,14.2 59.175,14.665 L59.775,15.835 C60.39,15.49 61.02,15.34 61.83,15.34 C62.79,15.34 63.315,15.82 63.315,16.675 L63.315,17.26 C62.88,17.065 62.295,16.96 61.56,16.96 C59.775,16.96 58.425,17.755 58.425,19.51 C58.425,21.445 59.88,22.165 61.155,22.165 C62.01,22.165 62.775,21.76 63.315,21.22 L63.315,22 L64.83,22 Z M63.315,19.765 C62.955,20.26 62.235,20.77 61.41,20.77 C60.39,20.77 59.895,20.245 59.895,19.465 C59.895,18.745 60.525,18.295 61.515,18.295 C62.355,18.295 62.895,18.43 63.315,18.64 L63.315,19.765 Z M71.495,20.44 C71.21,20.605 70.76,20.755 70.355,20.755 C69.785,20.755 69.545,20.545 69.545,19.81 L69.545,15.535 L71.495,15.535 L71.495,14.125 L69.545,14.125 L69.545,11.065 L68.03,11.875 L68.03,14.125 L66.905,14.125 L66.905,15.535 L68.03,15.535 L68.03,20.08 C68.03,21.49 68.705,22.165 69.8,22.165 C70.415,22.165 70.94,22.015 71.315,21.805 L71.495,20.44 Z M80.485,17.905 C80.485,15.775 79.405,13.96 77.17,13.96 C75.13,13.96 73.72,15.4 73.72,18.07 C73.72,20.68 75.28,22.165 77.125,22.165 C78.325,22.165 79.15,21.79 79.84,21.13 L78.925,20.14 C78.4,20.53 77.875,20.77 77.215,20.77 C76.255,20.77 75.4,20.125 75.235,18.61 L80.44,18.61 C80.455,18.445 80.485,18.19 80.485,17.905 L80.485,17.905 Z M78.925,17.335 L75.265,17.335 C75.4,16.075 76.03,15.355 77.065,15.355 C78.34,15.355 78.85,16.255 78.925,17.335 L78.925,17.335 Z M95.66,14.635 C95.66,12.475 94.115,11.5 92.285,11.5 L87.68,11.5 L87.68,22 L89.225,22 L89.225,17.845 L91.595,17.845 L93.68,22 L95.495,22 L93.35,17.71 C94.775,17.35 95.66,16.315 95.66,14.635 L95.66,14.635 Z M94.07,14.68 C94.07,15.82 93.335,16.36 92.285,16.36 L89.225,16.36 L89.225,12.985 L92.285,12.985 C93.35,12.985 94.07,13.585 94.07,14.68 L94.07,14.68 Z M104.755,17.905 C104.755,15.775 103.675,13.96 101.44,13.96 C99.4,13.96 97.99,15.4 97.99,18.07 C97.99,20.68 99.55,22.165 101.395,22.165 C102.595,22.165 103.42,21.79 104.11,21.13 L103.195,20.14 C102.67,20.53 102.145,20.77 101.485,20.77 C100.525,20.77 99.67,20.125 99.505,18.61 L104.71,18.61 C104.725,18.445 104.755,18.19 104.755,17.905 L104.755,17.905 Z M103.195,17.335 L99.535,17.335 C99.67,16.075 100.3,15.355 101.335,15.355 C102.61,15.355 103.12,16.255 103.195,17.335 L103.195,17.335 Z M113.445,21.25 L113.445,14.125 L111.9,14.125 L111.9,14.86 C111.48,14.38 110.73,13.96 109.935,13.96 C108.315,13.96 106.83,15.235 106.83,17.935 C106.83,20.935 108.18,22.165 109.86,22.165 C110.685,22.165 111.33,21.775 111.9,21.25 L111.9,21.385 C111.9,23.02 111.42,23.62 109.2,23.725 L109.725,24.895 C112.575,24.805 113.445,23.65 113.445,21.25 L113.445,21.25 Z M111.93,19.735 C111.525,20.245 110.88,20.74 110.145,20.74 C109.005,20.74 108.375,19.87 108.375,17.89 C108.375,16.225 108.975,15.385 110.085,15.385 C110.865,15.385 111.585,15.955 111.93,16.42 L111.93,19.735 Z M122.495,22 L122.495,14.125 L120.95,14.125 L120.95,18.73 C120.95,20.005 120.365,20.74 119.33,20.74 C118.31,20.74 117.71,20.17 117.71,18.58 L117.71,14.125 L116.165,14.125 L116.165,18.64 C116.165,20.965 117.14,22.165 118.97,22.165 C119.78,22.165 120.56,21.82 120.95,21.25 L120.95,22 L122.495,22 Z M126.895,22 L126.895,11.065 L125.35,11.875 L125.35,22 L126.895,22 Z M135.78,22 L135.78,16.6 C135.78,14.815 134.58,13.96 132.825,13.96 C131.715,13.96 130.875,14.2 130.125,14.665 L130.725,15.835 C131.34,15.49 131.97,15.34 132.78,15.34 C133.74,15.34 134.265,15.82 134.265,16.675 L134.265,17.26 C133.83,17.065 133.245,16.96 132.51,16.96 C130.725,16.96 129.375,17.755 129.375,19.51 C129.375,21.445 130.83,22.165 132.105,22.165 C132.96,22.165 133.725,21.76 134.265,21.22 L134.265,22 L135.78,22 Z M134.265,19.765 C133.905,20.26 133.185,20.77 132.36,20.77 C131.34,20.77 130.845,20.245 130.845,19.465 C130.845,18.745 131.475,18.295 132.465,18.295 C133.305,18.295 133.845,18.43 134.265,18.64 L134.265,19.765 Z M143.18,14.29 C142.865,14.08 142.475,13.96 141.845,13.96 C141.065,13.96 140.405,14.35 140.045,14.875 L140.045,14.125 L138.5,14.125 L138.5,22 L140.045,22 L140.045,17.5 C140.045,16.165 140.615,15.475 141.59,15.475 C142.1,15.475 142.445,15.58 142.775,15.76 L143.18,14.29 Z" id="Interstate-Regular"></path>
            <path d="M14.214,51 L14.214,46.32 C14.214,44.773 13.174,44.032 11.653,44.032 C10.691,44.032 9.963,44.24 9.313,44.643 L9.833,45.657 C10.366,45.358 10.912,45.228 11.614,45.228 C12.446,45.228 12.901,45.644 12.901,46.385 L12.901,46.892 C12.524,46.723 12.017,46.632 11.38,46.632 C9.833,46.632 8.663,47.321 8.663,48.842 C8.663,50.519 9.924,51.143 11.029,51.143 C11.77,51.143 12.433,50.792 12.901,50.324 L12.901,51 L14.214,51 Z M12.901,49.063 C12.589,49.492 11.965,49.934 11.25,49.934 C10.366,49.934 9.937,49.479 9.937,48.803 C9.937,48.179 10.483,47.789 11.341,47.789 C12.069,47.789 12.537,47.906 12.901,48.088 L12.901,49.063 Z M22.3043333,47.698 C22.3043333,45.098 21.1473333,44.032 19.6783333,44.032 C18.9633333,44.032 18.3913333,44.37 17.8973333,44.825 L17.8973333,41.523 L16.5713333,42.212 L16.5713333,51 L17.8973333,51 L17.8973333,50.363 C18.2743333,50.779 18.9243333,51.143 19.6133333,51.143 C21.0303333,51.143 22.3043333,50.038 22.3043333,47.698 L22.3043333,47.698 Z M20.9653333,47.737 C20.9653333,49.18 20.4453333,49.908 19.4833333,49.908 C18.8073333,49.908 18.1833333,49.414 17.8843333,49.011 L17.8843333,46.138 C18.2353333,45.696 18.7943333,45.267 19.4313333,45.267 C20.4193333,45.267 20.9653333,46.021 20.9653333,47.737 L20.9653333,47.737 Z M29.4976667,45.189 C28.8606667,44.435 28.0806667,44.032 27.0796667,44.032 C25.4156667,44.032 24.0896667,45.345 24.0896667,47.607 C24.0896667,49.739 25.3766667,51.143 27.0406667,51.143 C28.2756667,51.143 28.9516667,50.545 29.4846667,49.869 L28.6266667,49.024 C28.0936667,49.583 27.7166667,49.869 27.0796667,49.869 C26.0136667,49.869 25.4416667,48.907 25.4416667,47.568 C25.4416667,46.177 26.0656667,45.306 27.0406667,45.306 C27.6516667,45.306 28.1456667,45.566 28.7046667,46.138 L29.4976667,45.189 Z M37.068,51 L37.068,41.523 L35.742,42.212 L35.742,44.812 C35.365,44.396 34.715,44.032 34.026,44.032 C32.609,44.032 31.335,45.137 31.335,47.477 C31.335,50.077 32.492,51.143 33.961,51.143 C34.676,51.143 35.248,50.805 35.742,50.35 L35.742,51 L37.068,51 Z M35.755,49.037 C35.404,49.479 34.845,49.908 34.208,49.908 C33.22,49.908 32.674,49.154 32.674,47.438 C32.674,45.995 33.194,45.267 34.156,45.267 C34.832,45.267 35.456,45.761 35.755,46.164 L35.755,49.037 Z M45.0153333,47.451 C45.0153333,45.605 44.0793333,44.032 42.1423333,44.032 C40.3743333,44.032 39.1523333,45.28 39.1523333,47.594 C39.1523333,49.856 40.5043333,51.143 42.1033333,51.143 C43.1433333,51.143 43.8583333,50.818 44.4563333,50.246 L43.6633333,49.388 C43.2083333,49.726 42.7533333,49.934 42.1813333,49.934 C41.3493333,49.934 40.6083333,49.375 40.4653333,48.062 L44.9763333,48.062 C44.9893333,47.919 45.0153333,47.698 45.0153333,47.451 L45.0153333,47.451 Z M43.6633333,46.957 L40.4913333,46.957 C40.6083333,45.865 41.1543333,45.241 42.0513333,45.241 C43.1563333,45.241 43.5983333,46.021 43.6633333,46.957 L43.6633333,46.957 Z M50.3106667,42.862 L50.3106667,41.692 C50.0246667,41.614 49.6476667,41.562 49.2966667,41.562 C48.3346667,41.562 47.5676667,42.03 47.5676667,43.278 L47.5676667,44.175 L46.6836667,44.175 L46.6836667,45.423 L47.5676667,45.423 L47.5676667,51 L48.9066667,51 L48.9066667,45.423 L50.1676667,45.423 L50.1676667,44.175 L48.9066667,44.175 L48.9066667,43.395 C48.9066667,42.901 49.0886667,42.732 49.5306667,42.732 C49.7646667,42.732 49.9986667,42.771 50.3106667,42.862 L50.3106667,42.862 Z M57.686,50.35 L57.686,44.175 L56.347,44.175 L56.347,44.812 C55.983,44.396 55.333,44.032 54.644,44.032 C53.24,44.032 51.953,45.137 51.953,47.477 C51.953,50.077 53.123,51.143 54.579,51.143 C55.294,51.143 55.853,50.805 56.347,50.35 L56.347,50.467 C56.347,51.884 55.931,52.404 54.007,52.495 L54.462,53.509 C56.932,53.431 57.686,52.43 57.686,50.35 L57.686,50.35 Z M56.373,49.037 C56.022,49.479 55.463,49.908 54.826,49.908 C53.838,49.908 53.292,49.154 53.292,47.438 C53.292,45.995 53.812,45.267 54.774,45.267 C55.45,45.267 56.074,45.761 56.373,46.164 L56.373,49.037 Z M65.5813334,51 L65.5813334,47.087 C65.5813334,45.072 64.7363334,44.032 63.1503334,44.032 C62.4483334,44.032 61.7723334,44.331 61.4343334,44.825 L61.4343334,41.523 L60.0953334,42.225 L60.0953334,51 L61.4343334,51 L61.4343334,47.009 C61.4343334,45.904 61.9413334,45.267 62.8383334,45.267 C63.7223334,45.267 64.2423334,45.761 64.2423334,47.139 L64.2423334,51 L65.5813334,51 Z M69.5376667,42.433 C69.5376667,41.952 69.1476667,41.562 68.6796667,41.562 C68.1986667,41.562 67.8086667,41.952 67.8086667,42.433 C67.8086667,42.901 68.1986667,43.291 68.6796667,43.291 C69.1476667,43.291 69.5376667,42.901 69.5376667,42.433 L69.5376667,42.433 Z M69.3426667,51 L69.3426667,44.175 L68.0036667,44.175 L68.0036667,51 L69.3426667,51 Z M73.416,42.433 C73.416,41.952 73.026,41.562 72.558,41.562 C72.077,41.562 71.687,41.952 71.687,42.433 C71.687,42.901 72.077,43.291 72.558,43.291 C73.026,43.291 73.416,42.901 73.416,42.433 L73.416,42.433 Z M73.221,50.688 L73.221,44.175 L71.882,44.175 L71.882,50.714 C71.882,51.884 71.7,52.144 70.452,52.495 L70.907,53.509 C72.792,53.119 73.221,52.404 73.221,50.688 L73.221,50.688 Z M81.0383334,51 L78.9843334,46.463 L80.7133334,44.175 L79.1923334,44.175 L77.7753334,46.164 C77.5543334,46.489 77.2033334,47.009 77.0213334,47.282 C77.0213334,46.944 77.0343334,46.242 77.0343334,45.826 L77.0343334,41.523 L75.6953334,42.225 L75.6953334,51 L77.0343334,51 L77.0343334,48.985 L78.0743334,47.607 L79.5823334,51 L81.0383334,51 Z M84.4096667,51 L84.4096667,41.523 L83.0706667,42.225 L83.0706667,51 L84.4096667,51 Z M96.153,51 L96.153,47.087 C96.153,45.072 95.399,44.032 93.813,44.032 C92.747,44.032 92.214,44.422 91.72,45.033 C91.356,44.383 90.771,44.032 89.848,44.032 C89.146,44.032 88.561,44.331 88.223,44.825 L88.223,44.175 L86.884,44.175 L86.884,51 L88.223,51 L88.223,47.009 C88.223,45.904 88.639,45.267 89.536,45.267 C90.42,45.267 90.849,45.761 90.849,47.139 L90.849,51 L92.188,51 L92.188,47.009 C92.188,45.904 92.604,45.267 93.501,45.267 C94.385,45.267 94.814,45.761 94.814,47.139 L94.814,51 L96.153,51 Z M103.996333,51 L103.996333,47.087 C103.996333,45.072 103.151333,44.032 101.565333,44.032 C100.863333,44.032 100.187333,44.331 99.8493334,44.825 L99.8493334,44.175 L98.5103334,44.175 L98.5103334,51 L99.8493334,51 L99.8493334,47.009 C99.8493334,45.904 100.356333,45.267 101.253333,45.267 C102.137333,45.267 102.657333,45.761 102.657333,47.139 L102.657333,51 L103.996333,51 Z M112.112667,47.555 C112.112667,45.423 110.812667,44.032 109.070667,44.032 C107.354667,44.032 106.028667,45.358 106.028667,47.594 C106.028667,49.726 107.315667,51.143 109.031667,51.143 C110.786667,51.143 112.112667,49.817 112.112667,47.555 L112.112667,47.555 Z M110.760667,47.594 C110.760667,48.842 110.097667,49.869 109.083667,49.869 C108.069667,49.869 107.380667,49.05 107.380667,47.555 C107.380667,46.203 108.004667,45.306 109.018667,45.306 C110.097667,45.306 110.760667,46.203 110.760667,47.594 L110.760667,47.594 Z M119.93,47.698 C119.93,45.098 118.773,44.032 117.304,44.032 C116.589,44.032 116.017,44.37 115.523,44.825 L115.523,44.175 L114.197,44.175 L114.197,53.509 L115.523,52.82 L115.523,50.363 C115.9,50.779 116.55,51.143 117.239,51.143 C118.656,51.143 119.93,50.038 119.93,47.698 L119.93,47.698 Z M118.591,47.737 C118.591,49.18 118.071,49.908 117.109,49.908 C116.433,49.908 115.809,49.414 115.51,49.011 L115.51,46.138 C115.861,45.696 116.42,45.267 117.057,45.267 C118.045,45.267 118.591,46.021 118.591,47.737 L118.591,47.737 Z M127.474333,52.82 L127.474333,44.175 L126.148333,44.175 L126.148333,44.812 C125.771333,44.396 125.121333,44.032 124.432333,44.032 C123.015333,44.032 121.741333,45.137 121.741333,47.477 C121.741333,50.077 122.898333,51.143 124.367333,51.143 C125.082333,51.143 125.654333,50.805 126.148333,50.35 L126.148333,53.509 L127.474333,52.82 Z M126.161333,49.037 C125.810333,49.479 125.251333,49.908 124.614333,49.908 C123.626333,49.908 123.080333,49.154 123.080333,47.438 C123.080333,45.995 123.600333,45.267 124.562333,45.267 C125.238333,45.267 125.862333,45.761 126.161333,46.164 L126.161333,49.037 Z M133.939667,44.318 C133.666667,44.136 133.328667,44.032 132.782667,44.032 C132.106667,44.032 131.534667,44.37 131.222667,44.825 L131.222667,44.175 L129.883667,44.175 L129.883667,51 L131.222667,51 L131.222667,47.1 C131.222667,45.943 131.716667,45.345 132.561667,45.345 C133.003667,45.345 133.302667,45.436 133.588667,45.592 L133.939667,44.318 Z M140.522,49.128 C140.522,47.841 139.742,47.425 138.221,46.84 C137.194,46.437 136.96,46.19 136.96,45.852 C136.96,45.488 137.246,45.228 137.896,45.228 C138.546,45.228 139.105,45.423 139.664,45.813 L140.249,44.786 C139.638,44.344 138.793,44.032 137.935,44.032 C136.57,44.032 135.608,44.669 135.608,45.891 C135.608,46.97 136.141,47.464 137.61,48.036 C138.598,48.413 139.196,48.66 139.196,49.18 C139.196,49.661 138.793,49.934 137.948,49.934 C137.311,49.934 136.596,49.7 135.959,49.258 L135.348,50.272 C136.037,50.779 137.038,51.143 137.961,51.143 C139.3,51.143 140.522,50.636 140.522,49.128 L140.522,49.128 Z M146.090333,49.648 C145.843333,49.791 145.453333,49.921 145.102333,49.921 C144.608333,49.921 144.400333,49.739 144.400333,49.102 L144.400333,45.397 L146.090333,45.397 L146.090333,44.175 L144.400333,44.175 L144.400333,41.523 L143.087333,42.225 L143.087333,44.175 L142.112333,44.175 L142.112333,45.397 L143.087333,45.397 L143.087333,49.336 C143.087333,50.558 143.672333,51.143 144.621333,51.143 C145.154333,51.143 145.609333,51.013 145.934333,50.831 L146.090333,49.648 Z M153.777667,51 L153.777667,44.175 L152.438667,44.175 L152.438667,48.166 C152.438667,49.271 151.931667,49.908 151.034667,49.908 C150.150667,49.908 149.630667,49.414 149.630667,48.036 L149.630667,44.175 L148.291667,44.175 L148.291667,48.088 C148.291667,50.103 149.136667,51.143 150.722667,51.143 C151.424667,51.143 152.100667,50.844 152.438667,50.35 L152.438667,51 L153.777667,51 Z M161.816,44.175 L160.399,44.175 L159.229,47.88 C159.021,48.543 158.839,49.18 158.761,49.557 C158.67,49.18 158.475,48.543 158.254,47.88 L157.032,44.175 L155.628,44.175 L158.072,51 L159.411,51 L161.816,44.175 Z M171.791333,44.175 L170.465333,44.175 L169.659333,47.49 C169.529333,48.01 169.399333,48.647 169.321333,48.985 C169.243333,48.647 169.100333,48.036 168.957333,47.503 L168.034333,44.175 L166.955333,44.175 L166.045333,47.49 C165.902333,48.023 165.746333,48.647 165.668333,48.985 C165.603333,48.66 165.460333,48.01 165.330333,47.49 L164.524333,44.175 L163.198333,44.175 L165.070333,51 L166.214333,51 L167.124333,47.568 C167.267333,47.048 167.410333,46.424 167.475333,46.099 C167.540333,46.424 167.683333,47.035 167.826333,47.555 L168.749333,51 L169.893333,51 L171.791333,44.175 Z M179.127667,51 L176.969667,47.464 L178.984667,44.175 L177.450667,44.175 L176.930667,45.111 C176.670667,45.592 176.345667,46.242 176.202667,46.502 C176.085667,46.242 175.760667,45.631 175.487667,45.137 L174.954667,44.175 L173.407667,44.175 L175.409667,47.464 L173.264667,51 L174.772667,51 L175.435667,49.83 C175.695667,49.362 176.059667,48.699 176.176667,48.439 C176.306667,48.699 176.618667,49.323 176.891667,49.817 L177.541667,51 L179.127667,51 Z M186.88,44.175 L185.463,44.175 L184.306,47.542 C184.098,48.127 183.812,49.102 183.695,49.505 C183.617,49.128 183.305,48.114 183.097,47.516 L181.979,44.175 L180.51,44.175 L183.019,50.87 L182.031,53.405 L183.448,53.405 L186.88,44.175 Z M193.761333,51 L193.761333,49.83 L191.330333,49.83 C190.992333,49.83 190.329333,49.817 190.082333,49.83 C190.264333,49.622 190.628333,49.18 190.901333,48.829 L193.761333,45.254 L193.761333,44.175 L188.756333,44.175 L188.756333,45.345 L191.018333,45.345 C191.356333,45.345 191.993333,45.358 192.240333,45.345 C192.058333,45.553 191.694333,45.995 191.421333,46.333 L188.496333,49.908 L188.496333,51 L193.761333,51 Z" id="abcdefghijklmnopqrst"></path>
        </g>
    </g>
</svg>