<?xml version="1.0" encoding="UTF-8" standalone="no"?>
<svg width="112px" height="85px" viewBox="0 0 112 85" version="1.1" xmlns="http://www.w3.org/2000/svg" xmlns:xlink="http://www.w3.org/1999/xlink">
    <!-- Generator: Sketch 3.8.3 (29802) - http://www.bohemiancoding.com/sketch -->
    <title>Artboard 3</title>
    <desc>Created with Sketch.</desc>
    <defs></defs>
    <g id="Page-1" stroke="none" stroke-width="1" fill="none" fill-rule="evenodd">
        <g id="Artboard-3" fill="#000000">
            <g id="Group-2" transform="translate(37.000000, 18.000000)">
                <path d="M25.5215,5.4785 C25.9275,6.1445 26.2865,6.8525 26.5865,7.5985 L26.5865,7.5975 C27.1445,8.9715 27.4765,10.3975 27.5915,11.8165 C27.6255,12.2125 27.6415,12.6085 27.6415,13.0025 C27.6415,13.6815 27.5895,14.3555 27.4955,15.0195 L38.3215,-0.0005 L28.7135,-0.0005 L25.1725,4.9105 L25.5215,5.4785 Z" id="Fill-1"></path>
                <path d="M32.7637,31.5039 L15.6007,31.5039 C15.6007,31.5039 22.8717,21.5009 23.3867,20.6989 C24.6237,18.7689 25.4897,16.9569 25.7627,15.6729 C26.0207,14.4639 26.1037,13.2089 25.9997,11.9459 C25.8957,10.6839 25.5997,9.4159 25.1057,8.1909 C24.8367,7.5279 24.5187,6.8969 24.1547,6.3029 L24.1507,6.3089 C23.1907,4.7579 21.9137,3.4299 20.4087,2.4119 C19.3827,1.7189 18.2517,1.1699 17.0427,0.7929 C15.8327,0.4179 14.5457,0.2139 13.2247,0.2159 C11.4627,0.2139 9.7627,0.5729 8.2247,1.2269 C5.9137,2.2039 3.9607,3.8259 2.5767,5.8749 C1.8857,6.8989 1.3337,8.0299 0.9597,9.2409 C0.5817,10.4489 0.3817,11.7359 0.3817,13.0579 L0.3817,14.3089 L8.2917,19.8899 L8.2917,13.0579 C8.2917,12.3659 8.4297,11.7279 8.6787,11.1389 C9.0487,10.2599 9.6787,9.4979 10.4697,8.9649 C10.8647,8.6989 11.2957,8.4879 11.7567,8.3469 C12.2167,8.2039 12.7047,8.1249 13.2247,8.1249 C13.9177,8.1249 14.5547,8.2629 15.1447,8.5119 C16.0227,8.8829 16.7857,9.5139 17.3167,10.3039 C17.5827,10.6969 17.7927,11.1299 17.9357,11.5899 C18.0797,12.0499 18.1567,12.5389 18.1567,13.0579 C18.1567,13.7509 18.0187,14.3899 17.7707,14.9769 C17.6777,15.1979 17.5697,15.4099 17.4457,15.6129 L16.7297,16.6069 L0.3767,39.2989 L7.8927,39.2989 L9.9837,39.2989 L38.3437,39.2989 L38.3437,39.2489 L32.7637,31.5039 Z" id="Fill-4"></path>
            </g>
            <polygon id="Fill-6" points="19 66.372 19 62.323 19.618 62 19.618 66.372"></polygon>
            <path d="M23.338,63.558 C22.924,63.558 22.672,63.846 22.618,64.35 L24.081,64.35 C24.051,63.918 23.847,63.558 23.338,63.558 M24.687,64.86 L22.606,64.86 C22.672,65.465 23.014,65.723 23.398,65.723 C23.661,65.723 23.871,65.627 24.081,65.471 L24.447,65.868 C24.171,66.131 23.841,66.281 23.361,66.281 C22.624,66.281 22,65.687 22,64.643 C22,63.577 22.564,63 23.38,63 C24.273,63 24.705,63.726 24.705,64.578 C24.705,64.692 24.692,64.793 24.687,64.86" id="Fill-8"></path>
            <path d="M27.745,66.148 L27.127,66.148 L26,63 L26.647,63 L27.211,64.709 C27.312,65.014 27.403,65.308 27.445,65.482 C27.48,65.308 27.564,65.014 27.661,64.709 L28.2,63 L28.854,63 L27.745,66.148 Z" id="Fill-10"></path>
            <path d="M31.338,63.558 C30.924,63.558 30.672,63.846 30.618,64.35 L32.081,64.35 C32.051,63.918 31.847,63.558 31.338,63.558 M32.687,64.86 L30.606,64.86 C30.672,65.465 31.014,65.723 31.398,65.723 C31.661,65.723 31.871,65.627 32.081,65.471 L32.447,65.868 C32.171,66.131 31.841,66.281 31.361,66.281 C30.624,66.281 30,65.687 30,64.643 C30,63.577 30.564,63 31.38,63 C32.273,63 32.705,63.726 32.705,64.578 C32.705,64.692 32.692,64.793 32.687,64.86" id="Fill-12"></path>
            <polygon id="Fill-14" points="35 66.372 35 62.323 35.618 62 35.618 66.372"></polygon>
            <path d="M40,66.264 C40.042,65.034 40.785,64.489 41.613,63.996 C42.183,63.66 42.326,63.475 42.326,63.181 C42.326,62.846 42.099,62.629 41.522,62.629 C41.169,62.629 40.779,62.791 40.51,63.049 L40.107,62.57 C40.485,62.215 41.02,62 41.541,62 C42.41,62 42.968,62.371 42.968,63.145 C42.968,63.793 42.65,64.069 41.913,64.506 C41.109,64.981 40.881,65.25 40.785,65.652 L43.01,65.652 L43.01,66.264 L40,66.264 Z" id="Fill-16"></path>
            <path d="M49.319,63.57 C49.025,63.57 48.767,63.767 48.605,63.971 L48.605,65.297 C48.743,65.482 49.031,65.711 49.342,65.711 C49.787,65.711 50.026,65.375 50.026,64.709 C50.026,63.918 49.774,63.57 49.319,63.57 M49.403,66.28 C49.085,66.28 48.785,66.112 48.611,65.92 L48.611,67.053 L48,67.371 L48,63.066 L48.611,63.066 L48.611,63.365 C48.839,63.156 49.103,63 49.432,63 C50.11,63 50.644,63.492 50.644,64.691 C50.644,65.77 50.056,66.28 49.403,66.28" id="Fill-18"></path>
            <path d="M54.709,63.72 C54.577,63.649 54.438,63.606 54.235,63.606 C53.846,63.606 53.617,63.882 53.617,64.416 L53.617,66.215 L53,66.215 L53,63.067 L53.617,63.067 L53.617,63.366 C53.762,63.157 54.025,63 54.337,63 C54.589,63 54.745,63.048 54.871,63.132 L54.709,63.72 Z" id="Fill-21"></path>
            <path d="M57.38,63.588 C56.912,63.588 56.624,64.002 56.624,64.625 C56.624,65.315 56.942,65.693 57.409,65.693 C57.877,65.693 58.183,65.219 58.183,64.643 C58.183,64.002 57.877,63.588 57.38,63.588 M57.386,66.28 C56.594,66.28 56,65.627 56,64.643 C56,63.611 56.612,63 57.403,63 C58.207,63 58.807,63.642 58.807,64.625 C58.807,65.668 58.195,66.28 57.386,66.28" id="Fill-23"></path>
            <path d="M63.039,64.141 C62.901,63.955 62.613,63.728 62.302,63.728 C61.858,63.728 61.618,64.064 61.618,64.729 C61.618,65.521 61.87,65.869 62.326,65.869 C62.619,65.869 62.877,65.67 63.039,65.466 L63.039,64.141 Z M63.033,66.372 L63.033,66.072 C62.806,66.283 62.542,66.438 62.212,66.438 C61.534,66.438 61,65.947 61,64.747 C61,63.667 61.588,63.158 62.242,63.158 C62.56,63.158 62.859,63.326 63.033,63.517 L63.033,62.318 L63.644,62 L63.644,66.372 L63.033,66.372 Z" id="Fill-25"></path>
            <path d="M67.913,66.148 L67.913,65.847 C67.757,66.076 67.445,66.213 67.121,66.213 C66.39,66.213 66,65.734 66,64.804 L66,63 L66.618,63 L66.618,64.781 C66.618,65.416 66.857,65.644 67.266,65.644 C67.68,65.644 67.913,65.35 67.913,64.84 L67.913,63 L68.53,63 L68.53,66.148 L67.913,66.148 Z" id="Fill-27"></path>
            <path d="M72.129,63.972 C71.871,63.707 71.644,63.588 71.361,63.588 C70.912,63.588 70.624,63.991 70.624,64.631 C70.624,65.249 70.888,65.694 71.38,65.694 C71.673,65.694 71.847,65.561 72.093,65.303 L72.489,65.694 C72.243,66.004 71.931,66.281 71.361,66.281 C70.594,66.281 70,65.633 70,64.65 C70,63.606 70.612,63 71.38,63 C71.841,63 72.201,63.186 72.495,63.534 L72.129,63.972 Z" id="Fill-29"></path>
            <path d="M75.763,66.294 C75.613,66.378 75.404,66.438 75.158,66.438 C74.72,66.438 74.45,66.167 74.45,65.605 L74.45,63.787 L74,63.787 L74,63.224 L74.45,63.224 L74.45,62.323 L75.055,62 L75.055,63.224 L75.835,63.224 L75.835,63.787 L75.055,63.787 L75.055,65.496 C75.055,65.79 75.152,65.874 75.379,65.874 C75.541,65.874 75.721,65.814 75.835,65.748 L75.763,66.294 Z" id="Fill-31"></path>
            <path d="M78.09,66.353 L78.708,66.353 L78.708,63.205 L78.09,63.205 L78.09,66.353 Z M78.402,62.797 C78.181,62.797 78,62.617 78,62.402 C78,62.18 78.181,62 78.402,62 C78.618,62 78.798,62.18 78.798,62.402 C78.798,62.617 78.618,62.797 78.402,62.797 L78.402,62.797 Z" id="Fill-33"></path>
            <path d="M82.38,63.588 C81.912,63.588 81.624,64.002 81.624,64.625 C81.624,65.315 81.942,65.693 82.409,65.693 C82.877,65.693 83.183,65.219 83.183,64.643 C83.183,64.002 82.877,63.588 82.38,63.588 M82.386,66.28 C81.594,66.28 81,65.627 81,64.643 C81,63.611 81.612,63 82.403,63 C83.207,63 83.807,63.642 83.807,64.625 C83.807,65.668 83.195,66.28 82.386,66.28" id="Fill-35"></path>
            <path d="M87.913,66.215 L87.913,64.434 C87.913,63.798 87.673,63.57 87.265,63.57 C86.851,63.57 86.617,63.863 86.617,64.373 L86.617,66.215 L86,66.215 L86,63.067 L86.617,63.067 L86.617,63.365 C86.773,63.139 87.085,63 87.409,63 C88.141,63 88.53,63.481 88.53,64.409 L88.53,66.215 L87.913,66.215 Z" id="Fill-36"></path>
            <path d="M91.206,66.28 C90.78,66.28 90.318,66.112 90,65.879 L90.282,65.41 C90.576,65.615 90.906,65.722 91.199,65.722 C91.59,65.722 91.775,65.596 91.775,65.375 C91.775,65.134 91.499,65.021 91.044,64.847 C90.366,64.583 90.12,64.355 90.12,63.857 C90.12,63.294 90.564,63 91.193,63 C91.59,63 91.979,63.144 92.261,63.347 L91.991,63.822 C91.733,63.641 91.476,63.551 91.176,63.551 C90.876,63.551 90.744,63.672 90.744,63.84 C90.744,63.996 90.852,64.109 91.325,64.295 C92.027,64.565 92.387,64.758 92.387,65.35 C92.387,66.047 91.823,66.28 91.206,66.28" id="Fill-37"></path>
        </g>
    </g>
</svg>