<?xml version="1.0" encoding="UTF-8" standalone="no"?>
<svg width="112px" height="85px" viewBox="0 0 112 85" version="1.1" xmlns="http://www.w3.org/2000/svg" xmlns:xlink="http://www.w3.org/1999/xlink">
    <!-- Generator: Sketch 3.8.3 (29802) - http://www.bohemiancoding.com/sketch -->
    <title>Artboard 3</title>
    <desc>Created with Sketch.</desc>
    <defs></defs>
    <g id="Page-1" stroke="none" stroke-width="1" fill="none" fill-rule="evenodd">
        <g id="Artboard-3" fill="#FFFFFF">
            <path d="M62.5215,23.4785 C62.9275,24.1445 63.2865,24.8525 63.5865,25.5985 L63.5865,25.5975 C64.1445,26.9715 64.4765,28.3975 64.5915,29.8165 C64.6255,30.2125 64.6415,30.6085 64.6415,31.0025 C64.6415,31.6815 64.5895,32.3555 64.4955,33.0195 L75.3215,17.9995 L65.7135,17.9995 L62.1725,22.9105 L62.5215,23.4785 Z" id="Fill-1"></path>
            <path d="M69.7637,49.5039 L52.6007,49.5039 C52.6007,49.5039 59.8717,39.5009 60.3867,38.6989 C61.6237,36.7689 62.4897,34.9569 62.7627,33.6729 C63.0207,32.4639 63.1037,31.2089 62.9997,29.9459 C62.8957,28.6839 62.5997,27.4159 62.1057,26.1909 C61.8367,25.5279 61.5187,24.8969 61.1547,24.3029 L61.1507,24.3089 C60.1907,22.7579 58.9137,21.4299 57.4087,20.4119 C56.3827,19.7189 55.2517,19.1699 54.0427,18.7929 C52.8327,18.4179 51.5457,18.2139 50.2247,18.2159 C48.4627,18.2139 46.7627,18.5729 45.2247,19.2269 C42.9137,20.2039 40.9607,21.8259 39.5767,23.8749 C38.8857,24.8989 38.3337,26.0299 37.9597,27.2409 C37.5817,28.4489 37.3817,29.7359 37.3817,31.0579 L37.3817,32.3089 L45.2917,37.8899 L45.2917,31.0579 C45.2917,30.3659 45.4297,29.7279 45.6787,29.1389 C46.0487,28.2599 46.6787,27.4979 47.4697,26.9649 C47.8647,26.6989 48.2957,26.4879 48.7567,26.3469 C49.2167,26.2039 49.7047,26.1249 50.2247,26.1249 C50.9177,26.1249 51.5547,26.2629 52.1447,26.5119 C53.0227,26.8829 53.7857,27.5139 54.3167,28.3039 C54.5827,28.6969 54.7927,29.1299 54.9357,29.5899 C55.0797,30.0499 55.1567,30.5389 55.1567,31.0579 C55.1567,31.7509 55.0187,32.3899 54.7707,32.9769 C54.6777,33.1979 54.5697,33.4099 54.4457,33.6129 L53.7297,34.6069 L37.3767,57.2989 L44.8927,57.2989 L46.9837,57.2989 L75.3437,57.2989 L75.3437,57.2489 L69.7637,49.5039 Z" id="Fill-4"></path>
            <polygon id="Fill-6" points="19 66.372 19 62.323 19.618 62 19.618 66.372"></polygon>
            <path d="M23.338,63.558 C22.924,63.558 22.672,63.846 22.618,64.35 L24.081,64.35 C24.051,63.918 23.847,63.558 23.338,63.558 M24.687,64.86 L22.606,64.86 C22.672,65.465 23.014,65.723 23.398,65.723 C23.661,65.723 23.871,65.627 24.081,65.471 L24.447,65.868 C24.171,66.131 23.841,66.281 23.361,66.281 C22.624,66.281 22,65.687 22,64.643 C22,63.577 22.564,63 23.38,63 C24.273,63 24.705,63.726 24.705,64.578 C24.705,64.692 24.692,64.793 24.687,64.86" id="Fill-8"></path>
            <path d="M27.745,66.148 L27.127,66.148 L26,63 L26.647,63 L27.211,64.709 C27.312,65.014 27.403,65.308 27.445,65.482 C27.48,65.308 27.564,65.014 27.661,64.709 L28.2,63 L28.854,63 L27.745,66.148 Z" id="Fill-10"></path>
            <path d="M31.338,63.558 C30.924,63.558 30.672,63.846 30.618,64.35 L32.081,64.35 C32.051,63.918 31.847,63.558 31.338,63.558 M32.687,64.86 L30.606,64.86 C30.672,65.465 31.014,65.723 31.398,65.723 C31.661,65.723 31.871,65.627 32.081,65.471 L32.447,65.868 C32.171,66.131 31.841,66.281 31.361,66.281 C30.624,66.281 30,65.687 30,64.643 C30,63.577 30.564,63 31.38,63 C32.273,63 32.705,63.726 32.705,64.578 C32.705,64.692 32.692,64.793 32.687,64.86" id="Fill-12"></path>
            <polygon id="Fill-14" points="35 66.372 35 62.323 35.618 62 35.618 66.372"></polygon>
            <path d="M40,66.264 C40.042,65.034 40.785,64.489 41.613,63.996 C42.183,63.66 42.326,63.475 42.326,63.181 C42.326,62.846 42.099,62.629 41.522,62.629 C41.169,62.629 40.779,62.791 40.51,63.049 L40.107,62.57 C40.485,62.215 41.02,62 41.541,62 C42.41,62 42.968,62.371 42.968,63.145 C42.968,63.793 42.65,64.069 41.913,64.506 C41.109,64.981 40.881,65.25 40.785,65.652 L43.01,65.652 L43.01,66.264 L40,66.264 Z" id="Fill-16"></path>
            <path d="M49.319,63.57 C49.025,63.57 48.767,63.767 48.605,63.971 L48.605,65.297 C48.743,65.482 49.031,65.711 49.342,65.711 C49.787,65.711 50.026,65.375 50.026,64.709 C50.026,63.918 49.774,63.57 49.319,63.57 M49.403,66.28 C49.085,66.28 48.785,66.112 48.611,65.92 L48.611,67.053 L48,67.371 L48,63.066 L48.611,63.066 L48.611,63.365 C48.839,63.156 49.103,63 49.432,63 C50.11,63 50.644,63.492 50.644,64.691 C50.644,65.77 50.056,66.28 49.403,66.28" id="Fill-18"></path>
            <path d="M54.709,63.72 C54.577,63.649 54.438,63.606 54.235,63.606 C53.846,63.606 53.617,63.882 53.617,64.416 L53.617,66.215 L53,66.215 L53,63.067 L53.617,63.067 L53.617,63.366 C53.762,63.157 54.025,63 54.337,63 C54.589,63 54.745,63.048 54.871,63.132 L54.709,63.72 Z" id="Fill-21"></path>
            <path d="M57.38,63.588 C56.912,63.588 56.624,64.002 56.624,64.625 C56.624,65.315 56.942,65.693 57.409,65.693 C57.877,65.693 58.183,65.219 58.183,64.643 C58.183,64.002 57.877,63.588 57.38,63.588 M57.386,66.28 C56.594,66.28 56,65.627 56,64.643 C56,63.611 56.612,63 57.403,63 C58.207,63 58.807,63.642 58.807,64.625 C58.807,65.668 58.195,66.28 57.386,66.28" id="Fill-23"></path>
            <path d="M63.039,64.141 C62.901,63.955 62.613,63.728 62.302,63.728 C61.858,63.728 61.618,64.064 61.618,64.729 C61.618,65.521 61.87,65.869 62.326,65.869 C62.619,65.869 62.877,65.67 63.039,65.466 L63.039,64.141 Z M63.033,66.372 L63.033,66.072 C62.806,66.283 62.542,66.438 62.212,66.438 C61.534,66.438 61,65.947 61,64.747 C61,63.667 61.588,63.158 62.242,63.158 C62.56,63.158 62.859,63.326 63.033,63.517 L63.033,62.318 L63.644,62 L63.644,66.372 L63.033,66.372 Z" id="Fill-25"></path>
            <path d="M67.913,66.148 L67.913,65.847 C67.757,66.076 67.445,66.213 67.121,66.213 C66.39,66.213 66,65.734 66,64.804 L66,63 L66.618,63 L66.618,64.781 C66.618,65.416 66.857,65.644 67.266,65.644 C67.68,65.644 67.913,65.35 67.913,64.84 L67.913,63 L68.53,63 L68.53,66.148 L67.913,66.148 Z" id="Fill-27"></path>
            <path d="M72.129,63.972 C71.871,63.707 71.644,63.588 71.361,63.588 C70.912,63.588 70.624,63.991 70.624,64.631 C70.624,65.249 70.888,65.694 71.38,65.694 C71.673,65.694 71.847,65.561 72.093,65.303 L72.489,65.694 C72.243,66.004 71.931,66.281 71.361,66.281 C70.594,66.281 70,65.633 70,64.65 C70,63.606 70.612,63 71.38,63 C71.841,63 72.201,63.186 72.495,63.534 L72.129,63.972 Z" id="Fill-29"></path>
            <path d="M75.763,66.294 C75.613,66.378 75.404,66.438 75.158,66.438 C74.72,66.438 74.45,66.167 74.45,65.605 L74.45,63.787 L74,63.787 L74,63.224 L74.45,63.224 L74.45,62.323 L75.055,62 L75.055,63.224 L75.835,63.224 L75.835,63.787 L75.055,63.787 L75.055,65.496 C75.055,65.79 75.152,65.874 75.379,65.874 C75.541,65.874 75.721,65.814 75.835,65.748 L75.763,66.294 Z" id="Fill-31"></path>
            <path d="M78.09,66.353 L78.708,66.353 L78.708,63.205 L78.09,63.205 L78.09,66.353 Z M78.402,62.797 C78.181,62.797 78,62.617 78,62.402 C78,62.18 78.181,62 78.402,62 C78.618,62 78.798,62.18 78.798,62.402 C78.798,62.617 78.618,62.797 78.402,62.797 L78.402,62.797 Z" id="Fill-33"></path>
            <path d="M82.38,63.588 C81.912,63.588 81.624,64.002 81.624,64.625 C81.624,65.315 81.942,65.693 82.409,65.693 C82.877,65.693 83.183,65.219 83.183,64.643 C83.183,64.002 82.877,63.588 82.38,63.588 M82.386,66.28 C81.594,66.28 81,65.627 81,64.643 C81,63.611 81.612,63 82.403,63 C83.207,63 83.807,63.642 83.807,64.625 C83.807,65.668 83.195,66.28 82.386,66.28" id="Fill-35"></path>
            <path d="M87.913,66.215 L87.913,64.434 C87.913,63.798 87.673,63.57 87.265,63.57 C86.851,63.57 86.617,63.863 86.617,64.373 L86.617,66.215 L86,66.215 L86,63.067 L86.617,63.067 L86.617,63.365 C86.773,63.139 87.085,63 87.409,63 C88.141,63 88.53,63.481 88.53,64.409 L88.53,66.215 L87.913,66.215 Z" id="Fill-36"></path>
            <path d="M91.206,66.28 C90.78,66.28 90.318,66.112 90,65.879 L90.282,65.41 C90.576,65.615 90.906,65.722 91.199,65.722 C91.59,65.722 91.775,65.596 91.775,65.375 C91.775,65.134 91.499,65.021 91.044,64.847 C90.366,64.583 90.12,64.355 90.12,63.857 C90.12,63.294 90.564,63 91.193,63 C91.59,63 91.979,63.144 92.261,63.347 L91.991,63.822 C91.733,63.641 91.476,63.551 91.176,63.551 C90.876,63.551 90.744,63.672 90.744,63.84 C90.744,63.996 90.852,64.109 91.325,64.295 C92.027,64.565 92.387,64.758 92.387,65.35 C92.387,66.047 91.823,66.28 91.206,66.28" id="Fill-37"></path>
        </g>
    </g>
</svg>