<?xml version="1.0" encoding="UTF-8" standalone="no"?>
<svg width="209px" height="209px" viewBox="0 0 209 209" version="1.1" xmlns="http://www.w3.org/2000/svg" xmlns:xlink="http://www.w3.org/1999/xlink">
    <!-- Generator: Sketch 3.8.3 (29802) - http://www.bohemiancoding.com/sketch -->
    <title>Artboard 1 Copy</title>
    <desc>Created with Sketch.</desc>
    <defs>
        <rect id="path-1" x="0" y="0" width="71.3924051" height="73.7721519"></rect>
        <rect id="path-3" x="127.607595" y="46" width="71.3924051" height="73.7721519"></rect>
        <mask id="mask-4" maskContentUnits="userSpaceOnUse" maskUnits="objectBoundingBox" x="0" y="0" width="71.3924051" height="73.7721519" fill="white">
            <use xlink:href="#path-3"></use>
        </mask>
        <rect id="path-5" x="0" y="0" width="45.2151899" height="46.4050633"></rect>
        <rect id="path-7" x="153.78481" y="117.392405" width="45.2151899" height="46.4050633"></rect>
        <mask id="mask-8" maskContentUnits="userSpaceOnUse" maskUnits="objectBoundingBox" x="0" y="0" width="45.2151899" height="46.4050633" fill="white">
            <use xlink:href="#path-7"></use>
        </mask>
        <rect id="path-9" x="-1.42108547e-14" y="5.68434189e-14" width="28.556962" height="28.556962"></rect>
        <polygon id="path-11" points="127.780872 135.605579 156.164558 135.605579 156.164557 163.797468 127.607595 163.797468"></polygon>
        <mask id="mask-12" maskContentUnits="userSpaceOnUse" maskUnits="objectBoundingBox" x="0" y="0" width="28.556963" height="28.191889" fill="white">
            <use xlink:href="#path-11"></use>
        </mask>
        <rect id="path-13" x="0" y="0" width="19.0379747" height="20.2278481"></rect>
        <rect id="path-15" x="127.607595" y="117.392405" width="19.0379747" height="20.2278481"></rect>
        <mask id="mask-16" maskContentUnits="userSpaceOnUse" maskUnits="objectBoundingBox" x="0" y="0" width="19.0379747" height="20.2278481" fill="white">
            <use xlink:href="#path-15"></use>
        </mask>
        <rect id="path-17" x="0" y="0" width="118.987342" height="117.797468"></rect>
        <mask id="mask-18" maskContentUnits="userSpaceOnUse" maskUnits="objectBoundingBox" x="0" y="0" width="118.987342" height="117.797468" fill="white">
            <use xlink:href="#path-17"></use>
        </mask>
        <mask id="mask-20" maskContentUnits="userSpaceOnUse" maskUnits="objectBoundingBox" x="0" y="0" width="118.987342" height="117.797468" fill="white">
            <use xlink:href="#path-17"></use>
        </mask>
        <rect id="path-21" x="0" y="0" width="8.32911392" height="10.7088608"></rect>
        <rect id="path-23" x="147.835443" y="126.911392" width="8.32911392" height="10.7088608"></rect>
        <mask id="mask-24" maskContentUnits="userSpaceOnUse" maskUnits="objectBoundingBox" x="0" y="0" width="8.32911392" height="10.7088608" fill="white">
            <use xlink:href="#path-23"></use>
        </mask>
        <rect id="path-25" x="11" y="46" width="118.987342" height="117.797468"></rect>
        <mask id="mask-26" maskContentUnits="userSpaceOnUse" maskUnits="objectBoundingBox" x="0" y="0" width="118.987342" height="117.797468" fill="white">
            <use xlink:href="#path-25"></use>
        </mask>
        <polygon id="path-27" points="0.422237039 -2.84217094e-14 11.8987342 -2.84217094e-14 11.8987342 11.8987342 0.422237039 11.8987341"></polygon>
        <polygon id="path-29" points="144.657564 117.392405 156.164557 117.392405 156.164557 129.291139 144.657564 129.291139"></polygon>
        <mask id="mask-30" maskContentUnits="userSpaceOnUse" maskUnits="objectBoundingBox" x="0" y="0" width="11.5069928" height="11.8987342" fill="white">
            <use xlink:href="#path-29"></use>
        </mask>
        <mask id="mask-32" maskContentUnits="userSpaceOnUse" maskUnits="objectBoundingBox" x="0" y="0" width="11.5069928" height="11.8987342" fill="white">
            <use xlink:href="#path-29"></use>
        </mask>
    </defs>
    <g id="Page-1" stroke="none" stroke-width="1" fill="none" fill-rule="evenodd">
        <g id="Artboard-1-Copy">
            <path d="M149.620253,135.240506 C151.920274,135.240506 153.78481,133.375971 153.78481,131.075949 C153.78481,128.775928 151.920274,126.911392 149.620253,126.911392 C147.320232,126.911392 145.455696,128.775928 145.455696,131.075949 C145.455696,133.375971 147.320232,135.240506 149.620253,135.240506 Z" id="Oval-2" stroke="#1FDA9A" stroke-width="2"></path>
            <g id="Oval-2" transform="translate(127.607595, 46.000000)">
                <mask id="mask-2" fill="white">
                    <use xlink:href="#path-1"></use>
                </mask>
                <use id="Mask" fill="#FFFFFF" xlink:href="#path-1"></use>
                <ellipse stroke="#1FDA9A" stroke-width="2" mask="url(#mask-2)" cx="-4.75949367" cy="76.1518987" rx="73.7721519" ry="73.7721519"></ellipse>
            </g>
            <use id="Mask" stroke="#000000" mask="url(#mask-4)" stroke-width="4" xlink:href="#path-3"></use>
            <g id="Oval-2" transform="translate(153.784810, 117.392405)">
                <mask id="mask-6" fill="white">
                    <use xlink:href="#path-5"></use>
                </mask>
                <use id="Mask" fill="#FFFFFF" xlink:href="#path-5"></use>
                <path d="M-2.37974684,45.2151899 C22.591913,45.2151899 42.835443,24.9716598 42.835443,0 C42.835443,-24.9716598 22.591913,-45.2151899 -2.37974684,-45.2151899 C-27.3514067,-45.2151899 -47.5949367,-24.9716598 -47.5949367,0 C-47.5949367,24.9716598 -27.3514067,45.2151899 -2.37974684,45.2151899 Z" stroke="#1FDA9A" stroke-width="2" mask="url(#mask-6)"></path>
            </g>
            <use id="Mask" stroke="#000000" mask="url(#mask-8)" stroke-width="4" xlink:href="#path-7"></use>
            <g id="Oval-2" transform="translate(127.607595, 135.240506)">
                <mask id="mask-10" fill="white">
                    <use xlink:href="#path-9"></use>
                </mask>
                <use id="Mask" fill="#FFFFFF" xlink:href="#path-9"></use>
                <ellipse stroke="#1FDA9A" stroke-width="2" mask="url(#mask-10)" cx="29.7468354" cy="-1.18987342" rx="28.556962" ry="28.556962"></ellipse>
            </g>
            <use id="Mask" stroke="#000000" mask="url(#mask-12)" stroke-width="4" xlink:href="#path-11"></use>
            <g id="Oval-2" transform="translate(127.607595, 117.392405)">
                <mask id="mask-14" fill="white">
                    <use xlink:href="#path-13"></use>
                </mask>
                <use id="Mask" fill="#FFFFFF" xlink:href="#path-13"></use>
                <path d="M23.2025316,45.2151899 C36.016936,45.2151899 46.4050633,35.0934248 46.4050633,22.6075949 C46.4050633,10.121765 38.4593078,0 25.6449034,0 C17.9342185,0 10.2177063,3.66475806 5.29416492,9.30415795 C2.03526187,13.0368893 0,17.63474 0,22.6075949 C0,35.0934248 10.3881273,45.2151899 23.2025316,45.2151899 Z" stroke="#1FDA9A" stroke-width="2" mask="url(#mask-14)"></path>
            </g>
            <use id="Mask" stroke="#000000" mask="url(#mask-16)" stroke-width="4" xlink:href="#path-15"></use>
            <g id="Oval-2" transform="translate(11.000000, 46.000000)">
                <mask id="mask-19" fill="white">
                    <use xlink:href="#path-17"></use>
                </mask>
                <g id="Mask" stroke="#000000" mask="url(#mask-18)" stroke-width="4" fill="#FFFFFF">
                    <use mask="url(#mask-20)" xlink:href="#path-17"></use>
                </g>
                <ellipse stroke="#1FDA9A" stroke-width="2" mask="url(#mask-19)" cx="120.177215" cy="121.367089" rx="118.987342" ry="118.987342"></ellipse>
            </g>
            <g id="Oval-2" transform="translate(147.835443, 126.911392)">
                <mask id="mask-22" fill="white">
                    <use xlink:href="#path-21"></use>
                </mask>
                <use id="Mask" fill="#FFFFFF" xlink:href="#path-21"></use>
                <path d="M-1.18987342,8.32911392 C3.41016918,8.32911392 7.13924051,4.6000426 7.13924051,0 C7.13924051,-4.6000426 3.41016918,-8.32911392 -1.18987342,-8.32911392 C-5.78991602,-8.32911392 -9.51898734,-4.6000426 -9.51898734,0 C-9.51898734,4.6000426 -5.78991602,8.32911392 -1.18987342,8.32911392 Z" stroke="#1FDA9A" stroke-width="2" mask="url(#mask-22)"></path>
            </g>
            <use id="Mask" stroke="#000000" mask="url(#mask-24)" stroke-width="4" xlink:href="#path-23"></use>
            <use id="Mask" stroke="#000000" mask="url(#mask-26)" stroke-width="4" xlink:href="#path-25"></use>
            <g id="Oval-2" transform="translate(144.265823, 117.392405)">
                <mask id="mask-28" fill="white">
                    <use xlink:href="#path-27"></use>
                </mask>
                <use id="Mask" fill="#FFFFFF" xlink:href="#path-27"></use>
                <path d="M-2.37974684,24.9873418 C4.19174259,24.9873418 9.51898734,19.660097 9.51898734,13.0886076 C9.51898734,6.51711817 4.19174259,1.18987342 -2.37974684,1.18987342 C-8.95123626,1.18987342 -14.278481,6.51711817 -14.278481,13.0886076 C-14.278481,19.660097 -8.95123626,24.9873418 -2.37974684,24.9873418 Z" stroke="#1FDA9A" stroke-width="2" mask="url(#mask-28)"></path>
            </g>
            <mask id="mask-31" fill="white">
                <use xlink:href="#path-29"></use>
            </mask>
            <g id="Mask" stroke="#000000" mask="url(#mask-30)" stroke-width="4">
                <use mask="url(#mask-32)" xlink:href="#path-29"></use>
            </g>
        </g>
    </g>
</svg>