<?xml version="1.0" encoding="UTF-8" standalone="no"?>
<svg width="845px" height="105px" viewBox="0 0 845 105" version="1.1" xmlns="http://www.w3.org/2000/svg" xmlns:xlink="http://www.w3.org/1999/xlink" xmlns:sketch="http://www.bohemiancoding.com/sketch/ns">
    <!-- Generator: Sketch 3.5.2 (25235) - http://www.bohemiancoding.com/sketch -->
    <title>Artboard 3</title>
    <desc>Created with Sketch.</desc>
    <defs></defs>
    <g id="Page-1" stroke="none" stroke-width="1" fill="none" fill-rule="evenodd" sketch:type="MSPage">
        <g id="Artboard-3" sketch:type="MSArtboardGroup">
            <rect id="Rectangle-15" fill="#61C275" sketch:type="MSShapeGroup" x="430" y="0" width="200" height="105"></rect>
            <text id="#4F995E" sketch:type="MSTextLayer" font-family="Roboto" font-size="24" font-weight="normal" sketch:alignment="right" fill="#FFFFFF">
                <tspan x="267.410156" y="61">#4F995E</tspan>
            </text>
            <rect id="Rectangle-15" fill="#4F995E" sketch:type="MSShapeGroup" x="215" y="0" width="200" height="105"></rect>
            <rect id="Rectangle-15" fill="#363636" sketch:type="MSShapeGroup" x="0" y="0" width="200" height="105"></rect>
            <rect id="Rectangle-15" fill="#EFF1F2" sketch:type="MSShapeGroup" x="645" y="0" width="200" height="105"></rect>
            <path d="M61.5703125,56.4921875 L58.4765625,56.4921875 L57.5390625,61.296875 L55.8632812,61.296875 L56.8007812,56.4921875 L54,56.4921875 L54,54.8867188 L57.1054688,54.8867188 L57.9140625,50.7382812 L54.890625,50.7382812 L54.890625,49.109375 L58.2304688,49.109375 L59.1914062,44.234375 L60.8671875,44.234375 L59.90625,49.109375 L63,49.109375 L63.9609375,44.234375 L65.6484375,44.234375 L64.6875,49.109375 L67.078125,49.109375 L67.078125,50.7382812 L64.3710938,50.7382812 L63.5625,54.8867188 L66.1992188,54.8867188 L66.1992188,56.4921875 L63.2578125,56.4921875 L62.3203125,61.296875 L60.6328125,61.296875 L61.5703125,56.4921875 Z M58.78125,54.8867188 L61.875,54.8867188 L62.6835938,50.7382812 L59.5898438,50.7382812 L58.78125,54.8867188 Z M71.953125,51.7109375 L73.5820312,51.7109375 C74.6054739,51.6953124 75.4101533,51.4257839 75.9960938,50.9023438 C76.5820342,50.3789036 76.875,49.6718795 76.875,48.78125 C76.875,46.78124 75.8789162,45.78125 73.8867188,45.78125 C72.9492141,45.78125 72.2011747,46.0488254 71.6425781,46.5839844 C71.0839816,47.1191433 70.8046875,47.8281206 70.8046875,48.7109375 L68.6367188,48.7109375 C68.6367188,47.3593682 69.1308544,46.2363326 70.1191406,45.3417969 C71.1074268,44.4472612 72.3632736,44 73.8867188,44 C75.4961018,44 76.7578079,44.425777 77.671875,45.2773438 C78.5859421,46.1289105 79.0429688,47.3124924 79.0429688,48.828125 C79.0429688,49.5703162 78.8027368,50.289059 78.3222656,50.984375 C77.8417945,51.679691 77.1875041,52.199217 76.359375,52.5429688 C77.2968797,52.8398452 78.0214818,53.3320278 78.5332031,54.0195312 C79.0449244,54.7070347 79.3007812,55.54687 79.3007812,56.5390625 C79.3007812,58.0703202 78.8007863,59.2851518 77.8007812,60.1835938 C76.8007762,61.0820357 75.500008,61.53125 73.8984375,61.53125 C72.296867,61.53125 70.9941456,61.0976606 69.9902344,60.2304688 C68.9863231,59.3632769 68.484375,58.2187571 68.484375,56.796875 L70.6640625,56.796875 C70.6640625,57.695317 70.9570283,58.4140598 71.5429688,58.953125 C72.1289092,59.4921902 72.9140576,59.7617188 73.8984375,59.7617188 C74.9453177,59.7617188 75.746091,59.488284 76.3007812,58.9414062 C76.8554715,58.3945285 77.1328125,57.6093801 77.1328125,56.5859375 C77.1328125,55.593745 76.828128,54.8320339 76.21875,54.3007812 C75.609372,53.7695286 74.7304745,53.4960938 73.5820312,53.4804688 L71.953125,53.4804688 L71.953125,51.7109375 Z M90.7851562,44.2226562 L90.7851562,46.0625 L90.3867188,46.0625 C88.6992103,46.0937502 87.3554738,46.5937452 86.3554688,47.5625 C85.3554637,48.5312548 84.7773445,49.8945225 84.6210938,51.6523438 C85.5195357,50.6210886 86.746086,50.1054688 88.3007812,50.1054688 C89.7851637,50.1054688 90.9706987,50.628901 91.8574219,51.6757812 C92.7441451,52.7226615 93.1875,54.0742105 93.1875,55.7304688 C93.1875,57.48829 92.7089892,58.894526 91.7519531,59.9492188 C90.7949171,61.0039115 89.5117268,61.53125 87.9023438,61.53125 C86.2695231,61.53125 84.9453176,60.9043031 83.9296875,59.6503906 C82.9140574,58.3964781 82.40625,56.7812599 82.40625,54.8046875 L82.40625,53.9726562 C82.40625,50.8320155 83.0761652,48.4316489 84.4160156,46.7714844 C85.7558661,45.1113198 87.7499868,44.2617189 90.3984375,44.2226562 L90.7851562,44.2226562 Z M87.9375,51.9101562 C87.1953088,51.9101562 86.5117219,52.1328103 85.8867188,52.578125 C85.2617156,53.0234397 84.8281262,53.5820279 84.5859375,54.2539062 L84.5859375,55.0507812 C84.5859375,56.4570383 84.9023406,57.5898395 85.5351562,58.4492188 C86.1679719,59.308598 86.9570265,59.7382812 87.9023438,59.7382812 C88.8789111,59.7382812 89.6464816,59.3789098 90.2050781,58.6601562 C90.7636747,57.9414027 91.0429688,57.0000058 91.0429688,55.8359375 C91.0429688,54.6640566 90.7597685,53.7168005 90.1933594,52.9941406 C89.6269503,52.2714808 88.8750047,51.9101562 87.9375,51.9101562 L87.9375,51.9101562 Z M98.90625,51.7109375 L100.535156,51.7109375 C101.558599,51.6953124 102.363278,51.4257839 102.949219,50.9023438 C103.535159,50.3789036 103.828125,49.6718795 103.828125,48.78125 C103.828125,46.78124 102.832041,45.78125 100.839844,45.78125 C99.9023391,45.78125 99.1542997,46.0488254 98.5957031,46.5839844 C98.0371066,47.1191433 97.7578125,47.8281206 97.7578125,48.7109375 L95.5898438,48.7109375 C95.5898438,47.3593682 96.0839794,46.2363326 97.0722656,45.3417969 C98.0605518,44.4472612 99.3163986,44 100.839844,44 C102.449227,44 103.710933,44.425777 104.625,45.2773438 C105.539067,46.1289105 105.996094,47.3124924 105.996094,48.828125 C105.996094,49.5703162 105.755862,50.289059 105.275391,50.984375 C104.794919,51.679691 104.140629,52.199217 103.3125,52.5429688 C104.250005,52.8398452 104.974607,53.3320278 105.486328,54.0195312 C105.998049,54.7070347 106.253906,55.54687 106.253906,56.5390625 C106.253906,58.0703202 105.753911,59.2851518 104.753906,60.1835938 C103.753901,61.0820357 102.453133,61.53125 100.851562,61.53125 C99.249992,61.53125 97.9472706,61.0976606 96.9433594,60.2304688 C95.9394481,59.3632769 95.4375,58.2187571 95.4375,56.796875 L97.6171875,56.796875 C97.6171875,57.695317 97.9101533,58.4140598 98.4960938,58.953125 C99.0820342,59.4921902 99.8671826,59.7617188 100.851562,59.7617188 C101.898443,59.7617188 102.699216,59.488284 103.253906,58.9414062 C103.808597,58.3945285 104.085938,57.6093801 104.085938,56.5859375 C104.085938,55.593745 103.781253,54.8320339 103.171875,54.3007812 C102.562497,53.7695286 101.683599,53.4960938 100.535156,53.4804688 L98.90625,53.4804688 L98.90625,51.7109375 Z M117.738281,44.2226562 L117.738281,46.0625 L117.339844,46.0625 C115.652335,46.0937502 114.308599,46.5937452 113.308594,47.5625 C112.308589,48.5312548 111.73047,49.8945225 111.574219,51.6523438 C112.472661,50.6210886 113.699211,50.1054688 115.253906,50.1054688 C116.738289,50.1054688 117.923824,50.628901 118.810547,51.6757812 C119.69727,52.7226615 120.140625,54.0742105 120.140625,55.7304688 C120.140625,57.48829 119.662114,58.894526 118.705078,59.9492188 C117.748042,61.0039115 116.464852,61.53125 114.855469,61.53125 C113.222648,61.53125 111.898443,60.9043031 110.882812,59.6503906 C109.867182,58.3964781 109.359375,56.7812599 109.359375,54.8046875 L109.359375,53.9726562 C109.359375,50.8320155 110.02929,48.4316489 111.369141,46.7714844 C112.708991,45.1113198 114.703112,44.2617189 117.351562,44.2226562 L117.738281,44.2226562 Z M114.890625,51.9101562 C114.148434,51.9101562 113.464847,52.1328103 112.839844,52.578125 C112.214841,53.0234397 111.781251,53.5820279 111.539062,54.2539062 L111.539062,55.0507812 C111.539062,56.4570383 111.855466,57.5898395 112.488281,58.4492188 C113.121097,59.308598 113.910152,59.7382812 114.855469,59.7382812 C115.832036,59.7382812 116.599607,59.3789098 117.158203,58.6601562 C117.7168,57.9414027 117.996094,57.0000058 117.996094,55.8359375 C117.996094,54.6640566 117.712893,53.7168005 117.146484,52.9941406 C116.580075,52.2714808 115.82813,51.9101562 114.890625,51.9101562 L114.890625,51.9101562 Z M125.859375,51.7109375 L127.488281,51.7109375 C128.511724,51.6953124 129.316403,51.4257839 129.902344,50.9023438 C130.488284,50.3789036 130.78125,49.6718795 130.78125,48.78125 C130.78125,46.78124 129.785166,45.78125 127.792969,45.78125 C126.855464,45.78125 126.107425,46.0488254 125.548828,46.5839844 C124.990232,47.1191433 124.710938,47.8281206 124.710938,48.7109375 L122.542969,48.7109375 C122.542969,47.3593682 123.037104,46.2363326 124.025391,45.3417969 C125.013677,44.4472612 126.269524,44 127.792969,44 C129.402352,44 130.664058,44.425777 131.578125,45.2773438 C132.492192,46.1289105 132.949219,47.3124924 132.949219,48.828125 C132.949219,49.5703162 132.708987,50.289059 132.228516,50.984375 C131.748044,51.679691 131.093754,52.199217 130.265625,52.5429688 C131.20313,52.8398452 131.927732,53.3320278 132.439453,54.0195312 C132.951174,54.7070347 133.207031,55.54687 133.207031,56.5390625 C133.207031,58.0703202 132.707036,59.2851518 131.707031,60.1835938 C130.707026,61.0820357 129.406258,61.53125 127.804688,61.53125 C126.203117,61.53125 124.900396,61.0976606 123.896484,60.2304688 C122.892573,59.3632769 122.390625,58.2187571 122.390625,56.796875 L124.570312,56.796875 C124.570312,57.695317 124.863278,58.4140598 125.449219,58.953125 C126.035159,59.4921902 126.820308,59.7617188 127.804688,59.7617188 C128.851568,59.7617188 129.652341,59.488284 130.207031,58.9414062 C130.761722,58.3945285 131.039062,57.6093801 131.039062,56.5859375 C131.039062,55.593745 130.734378,54.8320339 130.125,54.3007812 C129.515622,53.7695286 128.636724,53.4960938 127.488281,53.4804688 L125.859375,53.4804688 L125.859375,51.7109375 Z M144.691406,44.2226562 L144.691406,46.0625 L144.292969,46.0625 C142.60546,46.0937502 141.261724,46.5937452 140.261719,47.5625 C139.261714,48.5312548 138.683595,49.8945225 138.527344,51.6523438 C139.425786,50.6210886 140.652336,50.1054688 142.207031,50.1054688 C143.691414,50.1054688 144.876949,50.628901 145.763672,51.6757812 C146.650395,52.7226615 147.09375,54.0742105 147.09375,55.7304688 C147.09375,57.48829 146.615239,58.894526 145.658203,59.9492188 C144.701167,61.0039115 143.417977,61.53125 141.808594,61.53125 C140.175773,61.53125 138.851568,60.9043031 137.835938,59.6503906 C136.820307,58.3964781 136.3125,56.7812599 136.3125,54.8046875 L136.3125,53.9726562 C136.3125,50.8320155 136.982415,48.4316489 138.322266,46.7714844 C139.662116,45.1113198 141.656237,44.2617189 144.304688,44.2226562 L144.691406,44.2226562 Z M141.84375,51.9101562 C141.101559,51.9101562 140.417972,52.1328103 139.792969,52.578125 C139.167966,53.0234397 138.734376,53.5820279 138.492188,54.2539062 L138.492188,55.0507812 C138.492188,56.4570383 138.808591,57.5898395 139.441406,58.4492188 C140.074222,59.308598 140.863277,59.7382812 141.808594,59.7382812 C142.785161,59.7382812 143.552732,59.3789098 144.111328,58.6601562 C144.669925,57.9414027 144.949219,57.0000058 144.949219,55.8359375 C144.949219,54.6640566 144.666018,53.7168005 144.099609,52.9941406 C143.5332,52.2714808 142.781255,51.9101562 141.84375,51.9101562 L141.84375,51.9101562 Z" id="#363636" fill="#FFFFFF" sketch:type="MSShapeGroup"></path>
            <path d="M276.570312,56.4921875 L273.476562,56.4921875 L272.539062,61.296875 L270.863281,61.296875 L271.800781,56.4921875 L269,56.4921875 L269,54.8867188 L272.105469,54.8867188 L272.914062,50.7382812 L269.890625,50.7382812 L269.890625,49.109375 L273.230469,49.109375 L274.191406,44.234375 L275.867188,44.234375 L274.90625,49.109375 L278,49.109375 L278.960938,44.234375 L280.648438,44.234375 L279.6875,49.109375 L282.078125,49.109375 L282.078125,50.7382812 L279.371094,50.7382812 L278.5625,54.8867188 L281.199219,54.8867188 L281.199219,56.4921875 L278.257812,56.4921875 L277.320312,61.296875 L275.632812,61.296875 L276.570312,56.4921875 Z M273.78125,54.8867188 L276.875,54.8867188 L277.683594,50.7382812 L274.589844,50.7382812 L273.78125,54.8867188 Z M292.953125,55.5664062 L295.320312,55.5664062 L295.320312,57.3359375 L292.953125,57.3359375 L292.953125,61.296875 L290.773438,61.296875 L290.773438,57.3359375 L283.003906,57.3359375 L283.003906,56.0585938 L290.644531,44.234375 L292.953125,44.234375 L292.953125,55.5664062 Z M285.464844,55.5664062 L290.773438,55.5664062 L290.773438,47.1992188 L290.515625,47.6679688 L285.464844,55.5664062 Z M307.25,53.7617188 L300.089844,53.7617188 L300.089844,61.296875 L297.839844,61.296875 L297.839844,44.234375 L308.410156,44.234375 L308.410156,46.0859375 L300.089844,46.0859375 L300.089844,51.921875 L307.25,51.921875 L307.25,53.7617188 Z M318.851562,53.796875 C318.398435,54.3359402 317.857425,54.7695296 317.228516,55.0976562 C316.599606,55.4257829 315.91016,55.5898438 315.160156,55.5898438 C314.175776,55.5898438 313.318363,55.3476587 312.587891,54.8632812 C311.857418,54.3789038 311.292971,53.69727 310.894531,52.8183594 C310.496092,51.9394487 310.296875,50.9687553 310.296875,49.90625 C310.296875,48.7656193 310.51367,47.7382858 310.947266,46.8242188 C311.380862,45.9101517 311.99609,45.2109399 312.792969,44.7265625 C313.589848,44.2421851 314.519526,44 315.582031,44 C317.26954,44 318.599605,44.6308531 319.572266,45.8925781 C320.544927,47.1543032 321.03125,48.8749891 321.03125,51.0546875 L321.03125,51.6875 C321.03125,55.0078291 320.375007,57.431633 319.0625,58.9589844 C317.749993,60.4863358 315.769544,61.2695311 313.121094,61.3085938 L312.699219,61.3085938 L312.699219,59.4804688 L313.15625,59.4804688 C314.945321,59.4492186 316.320308,58.9824264 317.28125,58.0800781 C318.242192,57.1777299 318.765625,55.7500098 318.851562,53.796875 L318.851562,53.796875 Z M315.511719,53.796875 C316.238285,53.796875 316.9082,53.574221 317.521484,53.1289062 C318.134769,52.6835915 318.58203,52.1328158 318.863281,51.4765625 L318.863281,50.609375 C318.863281,49.1874929 318.554691,48.0312545 317.9375,47.140625 C317.320309,46.2499955 316.539067,45.8046875 315.59375,45.8046875 C314.64062,45.8046875 313.875003,46.1699182 313.296875,46.9003906 C312.718747,47.630863 312.429688,48.593744 312.429688,49.7890625 C312.429688,50.9531308 312.708982,51.9121056 313.267578,52.6660156 C313.826175,53.4199256 314.574214,53.796875 315.511719,53.796875 L315.511719,53.796875 Z M332.328125,53.796875 C331.874998,54.3359402 331.333988,54.7695296 330.705078,55.0976562 C330.076169,55.4257829 329.386723,55.5898438 328.636719,55.5898438 C327.652339,55.5898438 326.794926,55.3476587 326.064453,54.8632812 C325.333981,54.3789038 324.769533,53.69727 324.371094,52.8183594 C323.972654,51.9394487 323.773438,50.9687553 323.773438,49.90625 C323.773438,48.7656193 323.990232,47.7382858 324.423828,46.8242188 C324.857424,45.9101517 325.472652,45.2109399 326.269531,44.7265625 C327.06641,44.2421851 327.996088,44 329.058594,44 C330.746102,44 332.076167,44.6308531 333.048828,45.8925781 C334.021489,47.1543032 334.507812,48.8749891 334.507812,51.0546875 L334.507812,51.6875 C334.507812,55.0078291 333.851569,57.431633 332.539062,58.9589844 C331.226556,60.4863358 329.246107,61.2695311 326.597656,61.3085938 L326.175781,61.3085938 L326.175781,59.4804688 L326.632812,59.4804688 C328.421884,59.4492186 329.79687,58.9824264 330.757812,58.0800781 C331.718755,57.1777299 332.242187,55.7500098 332.328125,53.796875 L332.328125,53.796875 Z M328.988281,53.796875 C329.714847,53.796875 330.384763,53.574221 330.998047,53.1289062 C331.611331,52.6835915 332.058592,52.1328158 332.339844,51.4765625 L332.339844,50.609375 C332.339844,49.1874929 332.031253,48.0312545 331.414062,47.140625 C330.796872,46.2499955 330.01563,45.8046875 329.070312,45.8046875 C328.117183,45.8046875 327.351565,46.1699182 326.773438,46.9003906 C326.19531,47.630863 325.90625,48.593744 325.90625,49.7890625 C325.90625,50.9531308 326.185544,51.9121056 326.744141,52.6660156 C327.302737,53.4199256 328.050777,53.796875 328.988281,53.796875 L328.988281,53.796875 Z M338.492188,52.7421875 L339.359375,44.234375 L348.101562,44.234375 L348.101562,46.2382812 L341.199219,46.2382812 L340.683594,50.890625 C341.519535,50.398435 342.468745,50.1523438 343.53125,50.1523438 C345.085945,50.1523438 346.320308,50.6660105 347.234375,51.6933594 C348.148442,52.7207083 348.605469,54.1093662 348.605469,55.859375 C348.605469,57.6171963 348.130864,59.0019481 347.181641,60.0136719 C346.232417,61.0253957 344.906259,61.53125 343.203125,61.53125 C341.695305,61.53125 340.464849,61.1132854 339.511719,60.2773438 C338.558589,59.4414021 338.015626,58.2851636 337.882812,56.8085938 L339.933594,56.8085938 C340.066407,57.7851611 340.41406,58.5214819 340.976562,59.0175781 C341.539065,59.5136744 342.281245,59.7617188 343.203125,59.7617188 C344.210943,59.7617188 345.00195,59.4179722 345.576172,58.7304688 C346.150393,58.0429653 346.4375,57.0937561 346.4375,55.8828125 C346.4375,54.7421818 346.126956,53.8261753 345.505859,53.1347656 C344.884763,52.4433559 344.058599,52.0976562 343.027344,52.0976562 C342.082027,52.0976562 341.339846,52.3046854 340.800781,52.71875 L340.226562,53.1875 L338.492188,52.7421875 Z M361.179688,53.4101562 L353.785156,53.4101562 L353.785156,59.4570312 L362.375,59.4570312 L362.375,61.296875 L351.535156,61.296875 L351.535156,44.234375 L362.257812,44.234375 L362.257812,46.0859375 L353.785156,46.0859375 L353.785156,51.5703125 L361.179688,51.5703125 L361.179688,53.4101562 Z" id="#4F995E" fill="#FFFFFF" sketch:type="MSShapeGroup"></path>
            <path d="M490.570312,56.4921875 L487.476562,56.4921875 L486.539062,61.296875 L484.863281,61.296875 L485.800781,56.4921875 L483,56.4921875 L483,54.8867188 L486.105469,54.8867188 L486.914062,50.7382812 L483.890625,50.7382812 L483.890625,49.109375 L487.230469,49.109375 L488.191406,44.234375 L489.867188,44.234375 L488.90625,49.109375 L492,49.109375 L492.960938,44.234375 L494.648438,44.234375 L493.6875,49.109375 L496.078125,49.109375 L496.078125,50.7382812 L493.371094,50.7382812 L492.5625,54.8867188 L495.199219,54.8867188 L495.199219,56.4921875 L492.257812,56.4921875 L491.320312,61.296875 L489.632812,61.296875 L490.570312,56.4921875 Z M487.78125,54.8867188 L490.875,54.8867188 L491.683594,50.7382812 L488.589844,50.7382812 L487.78125,54.8867188 Z M506.308594,44.2226562 L506.308594,46.0625 L505.910156,46.0625 C504.222648,46.0937502 502.878911,46.5937452 501.878906,47.5625 C500.878901,48.5312548 500.300782,49.8945225 500.144531,51.6523438 C501.042973,50.6210886 502.269523,50.1054688 503.824219,50.1054688 C505.308601,50.1054688 506.494136,50.628901 507.380859,51.6757812 C508.267583,52.7226615 508.710938,54.0742105 508.710938,55.7304688 C508.710938,57.48829 508.232427,58.894526 507.275391,59.9492188 C506.318355,61.0039115 505.035164,61.53125 503.425781,61.53125 C501.792961,61.53125 500.468755,60.9043031 499.453125,59.6503906 C498.437495,58.3964781 497.929688,56.7812599 497.929688,54.8046875 L497.929688,53.9726562 C497.929688,50.8320155 498.599603,48.4316489 499.939453,46.7714844 C501.279304,45.1113198 503.273424,44.2617189 505.921875,44.2226562 L506.308594,44.2226562 Z M503.460938,51.9101562 C502.718746,51.9101562 502.035159,52.1328103 501.410156,52.578125 C500.785153,53.0234397 500.351564,53.5820279 500.109375,54.2539062 L500.109375,55.0507812 C500.109375,56.4570383 500.425778,57.5898395 501.058594,58.4492188 C501.691409,59.308598 502.480464,59.7382812 503.425781,59.7382812 C504.402349,59.7382812 505.169919,59.3789098 505.728516,58.6601562 C506.287112,57.9414027 506.566406,57.0000058 506.566406,55.8359375 C506.566406,54.6640566 506.283206,53.7168005 505.716797,52.9941406 C505.150388,52.2714808 504.398442,51.9101562 503.460938,51.9101562 L503.460938,51.9101562 Z M518.402344,61.296875 L516.222656,61.296875 L516.222656,46.8476562 L511.851562,48.453125 L511.851562,46.484375 L518.0625,44.1523438 L518.402344,44.1523438 L518.402344,61.296875 Z M537.867188,55.8828125 C537.656249,57.687509 536.99024,59.0800732 535.869141,60.0605469 C534.748041,61.0410205 533.257822,61.53125 531.398438,61.53125 C529.382802,61.53125 527.767584,60.808601 526.552734,59.3632812 C525.337885,57.9179615 524.730469,55.9843871 524.730469,53.5625 L524.730469,51.921875 C524.730469,50.3359296 525.013669,48.9414123 525.580078,47.7382812 C526.146487,46.5351502 526.949214,45.6113313 527.988281,44.9667969 C529.027349,44.3222624 530.230462,44 531.597656,44 C533.410165,44 534.863276,44.5058543 535.957031,45.5175781 C537.050787,46.5293019 537.687499,47.9296786 537.867188,49.71875 L535.605469,49.71875 C535.410155,48.3593682 534.986331,47.375003 534.333984,46.765625 C533.681637,46.156247 532.769537,45.8515625 531.597656,45.8515625 C530.160149,45.8515625 529.033207,46.3828072 528.216797,47.4453125 C527.400387,48.5078178 526.992188,50.0195214 526.992188,51.9804688 L526.992188,53.6328125 C526.992188,55.4843843 527.378902,56.9570258 528.152344,58.0507812 C528.925785,59.1445367 530.007806,59.6914062 531.398438,59.6914062 C532.648444,59.6914062 533.607419,59.408206 534.275391,58.8417969 C534.943363,58.2753878 535.386718,57.2890695 535.605469,55.8828125 L537.867188,55.8828125 Z M551.554688,61.296875 L540.375,61.296875 L540.375,59.7382812 L546.28125,53.1757812 C547.156254,52.1835888 547.759764,51.3769562 548.091797,50.7558594 C548.42383,50.1347625 548.589844,49.4921908 548.589844,48.828125 C548.589844,47.9374955 548.320315,47.2070341 547.78125,46.6367188 C547.242185,46.0664034 546.523442,45.78125 545.625,45.78125 C544.54687,45.78125 543.708987,46.0878876 543.111328,46.7011719 C542.513669,47.3144562 542.214844,48.1679633 542.214844,49.2617188 L540.046875,49.2617188 C540.046875,47.6913984 540.552729,46.4218798 541.564453,45.453125 C542.576177,44.4843702 543.929679,44 545.625,44 C547.210945,44 548.464839,44.4160115 549.386719,45.2480469 C550.308598,46.0800823 550.769531,47.1874931 550.769531,48.5703125 C550.769531,50.2500084 549.699229,52.2499884 547.558594,54.5703125 L542.988281,59.5273438 L551.554688,59.5273438 L551.554688,61.296875 Z M564.867188,45.453125 L557.800781,61.296875 L555.527344,61.296875 L562.570312,46.015625 L553.335938,46.015625 L553.335938,44.234375 L564.867188,44.234375 L564.867188,45.453125 Z M568.324219,52.7421875 L569.191406,44.234375 L577.933594,44.234375 L577.933594,46.2382812 L571.03125,46.2382812 L570.515625,50.890625 C571.351567,50.398435 572.300776,50.1523438 573.363281,50.1523438 C574.917977,50.1523438 576.152339,50.6660105 577.066406,51.6933594 C577.980473,52.7207083 578.4375,54.1093662 578.4375,55.859375 C578.4375,57.6171963 577.962895,59.0019481 577.013672,60.0136719 C576.064448,61.0253957 574.73829,61.53125 573.035156,61.53125 C571.527336,61.53125 570.29688,61.1132854 569.34375,60.2773438 C568.39062,59.4414021 567.847657,58.2851636 567.714844,56.8085938 L569.765625,56.8085938 C569.898438,57.7851611 570.246091,58.5214819 570.808594,59.0175781 C571.371097,59.5136744 572.113277,59.7617188 573.035156,59.7617188 C574.042974,59.7617188 574.833982,59.4179722 575.408203,58.7304688 C575.982425,58.0429653 576.269531,57.0937561 576.269531,55.8828125 C576.269531,54.7421818 575.958987,53.8261753 575.337891,53.1347656 C574.716794,52.4433559 573.89063,52.0976562 572.859375,52.0976562 C571.914058,52.0976562 571.171878,52.3046854 570.632812,52.71875 L570.058594,53.1875 L568.324219,52.7421875 Z" id="#61C275" fill="#000000" sketch:type="MSShapeGroup"></path>
            <path d="M706.570312,56.4921875 L703.476562,56.4921875 L702.539062,61.296875 L700.863281,61.296875 L701.800781,56.4921875 L699,56.4921875 L699,54.8867188 L702.105469,54.8867188 L702.914062,50.7382812 L699.890625,50.7382812 L699.890625,49.109375 L703.230469,49.109375 L704.191406,44.234375 L705.867188,44.234375 L704.90625,49.109375 L708,49.109375 L708.960938,44.234375 L710.648438,44.234375 L709.6875,49.109375 L712.078125,49.109375 L712.078125,50.7382812 L709.371094,50.7382812 L708.5625,54.8867188 L711.199219,54.8867188 L711.199219,56.4921875 L708.257812,56.4921875 L707.320312,61.296875 L705.632812,61.296875 L706.570312,56.4921875 Z M703.78125,54.8867188 L706.875,54.8867188 L707.683594,50.7382812 L704.589844,50.7382812 L703.78125,54.8867188 Z M724.007812,53.4101562 L716.613281,53.4101562 L716.613281,59.4570312 L725.203125,59.4570312 L725.203125,61.296875 L714.363281,61.296875 L714.363281,44.234375 L725.085938,44.234375 L725.085938,46.0859375 L716.613281,46.0859375 L716.613281,51.5703125 L724.007812,51.5703125 L724.007812,53.4101562 Z M737.414062,53.7617188 L730.253906,53.7617188 L730.253906,61.296875 L728.003906,61.296875 L728.003906,44.234375 L738.574219,44.234375 L738.574219,46.0859375 L730.253906,46.0859375 L730.253906,51.921875 L737.414062,51.921875 L737.414062,53.7617188 Z M750.679688,53.7617188 L743.519531,53.7617188 L743.519531,61.296875 L741.269531,61.296875 L741.269531,44.234375 L751.839844,44.234375 L751.839844,46.0859375 L743.519531,46.0859375 L743.519531,51.921875 L750.679688,51.921875 L750.679688,53.7617188 Z M761.097656,61.296875 L758.917969,61.296875 L758.917969,46.8476562 L754.546875,48.453125 L754.546875,46.484375 L760.757812,44.1523438 L761.097656,44.1523438 L761.097656,61.296875 Z M777.421875,53.7617188 L770.261719,53.7617188 L770.261719,61.296875 L768.011719,61.296875 L768.011719,44.234375 L778.582031,44.234375 L778.582031,46.0859375 L770.261719,46.0859375 L770.261719,51.921875 L777.421875,51.921875 L777.421875,53.7617188 Z M791.894531,61.296875 L780.714844,61.296875 L780.714844,59.7382812 L786.621094,53.1757812 C787.496098,52.1835888 788.099608,51.3769562 788.431641,50.7558594 C788.763674,50.1347625 788.929688,49.4921908 788.929688,48.828125 C788.929688,47.9374955 788.660159,47.2070341 788.121094,46.6367188 C787.582029,46.0664034 786.863286,45.78125 785.964844,45.78125 C784.886713,45.78125 784.048831,46.0878876 783.451172,46.7011719 C782.853513,47.3144562 782.554688,48.1679633 782.554688,49.2617188 L780.386719,49.2617188 C780.386719,47.6913984 780.892573,46.4218798 781.904297,45.453125 C782.916021,44.4843702 784.269523,44 785.964844,44 C787.550789,44 788.804683,44.4160115 789.726562,45.2480469 C790.648442,46.0800823 791.109375,47.1874931 791.109375,48.5703125 C791.109375,50.2500084 790.039073,52.2499884 787.898438,54.5703125 L783.328125,59.5273438 L791.894531,59.5273438 L791.894531,61.296875 Z" id="#EFF1F2" fill="#000000" sketch:type="MSShapeGroup"></path>
        </g>
    </g>
</svg>