<?xml version="1.0" encoding="UTF-8" standalone="no"?>
<svg width="800px" height="1000px" viewBox="0 0 800 1000" version="1.1" xmlns="http://www.w3.org/2000/svg" xmlns:xlink="http://www.w3.org/1999/xlink">
    <!-- Generator: Sketch 41.2 (35397) - http://www.bohemiancoding.com/sketch -->
    <title>Artboard</title>
    <desc>Created with Sketch.</desc>
    <defs>
        <filter x="-50%" y="-50%" width="200%" height="200%" filterUnits="objectBoundingBox" id="filter-1">
            <feOffset dx="0" dy="2" in="SourceAlpha" result="shadowOffsetOuter1"></feOffset>
            <feGaussianBlur stdDeviation="5.5" in="shadowOffsetOuter1" result="shadowBlurOuter1"></feGaussianBlur>
            <feColorMatrix values="0 0 0 0 0   0 0 0 0 0   0 0 0 0 0  0 0 0 0.5 0" type="matrix" in="shadowBlurOuter1" result="shadowMatrixOuter1"></feColorMatrix>
            <feMerge>
                <feMergeNode in="shadowMatrixOuter1"></feMergeNode>
                <feMergeNode in="SourceGraphic"></feMergeNode>
            </feMerge>
        </filter>
        <polygon id="path-2" points="0 985 612 985 612 0.48 0 0.48"></polygon>
    </defs>
    <g id="Page-1" stroke="none" stroke-width="1" fill="none" fill-rule="evenodd">
        <g id="Artboard">
            <g id="Page-1" filter="url(#filter-1)" transform="translate(94.000000, -36.000000)">
                <polygon id="Fill-1" fill="#526989" points="0 985.52 611.999 985.52 611.999 76.58 0 76.58"></polygon>
                <g id="Group-145" transform="translate(0.000000, 0.520000)">
                    <path d="M412.1538,362.5312 C412.9598,371.1562 390.9798,402.2622 369.5068,357.6032 C348.0608,313.0042 306.1138,336.5942 305.9978,336.6582 C305.8828,336.5942 263.9368,313.0042 242.4928,357.6032 C221.0188,402.2622 199.0398,371.1562 199.8468,362.5312 C200.6528,353.9072 182.5808,425.7732 252.9138,406.8832 C288.5428,397.3132 301.6928,384.1622 305.9978,373.5122 C310.3068,384.1622 323.4538,397.3132 359.0848,406.8832 C429.4198,425.7732 411.3448,353.9072 412.1538,362.5312 Z" id="Fill-2" fill="#22150E"></path>
                    <polygon id="Fill-4" fill="#FEFEFE" points="174.7329 683.1406 174.7329 691.7366 178.9949 691.7366 178.9949 693.9756 174.7329 693.9756 174.7329 706.1836 172.4219 706.1836 172.4219 680.9016 180.6929 680.9016 180.6929 683.1406"></polygon>
                    <mask id="mask-3" fill="white">
                        <use xlink:href="#path-2"></use>
                    </mask>
                    <g id="Clip-7"></g>
                    <polygon id="Fill-6" fill="#FEFEFE" mask="url(#mask-3)" points="183.508 706.183 185.819 706.183 185.819 680.901 183.508 680.901"></polygon>
                    <path d="M193.2216,683.1406 L191.9936,683.1406 L191.9936,692.1696 L193.2216,692.1696 C195.3166,692.1696 196.5806,690.5086 196.5806,687.5826 C196.5806,684.6936 195.3166,683.1406 193.2216,683.1406 L193.2216,683.1406 Z M196.7976,706.1836 L194.0166,694.2646 C193.4746,694.3366 192.7886,694.3366 191.9936,694.3366 L191.9936,706.1836 L189.6826,706.1836 L189.6826,680.9016 L193.2936,680.9016 C196.4726,680.9016 198.9286,682.9956 198.9286,687.4026 C198.9286,690.3646 197.8446,692.3146 196.2916,693.3986 L199.2536,706.1836 L196.7976,706.1836 Z" id="Fill-8" fill="#FEFEFE" mask="url(#mask-3)"></path>
                    <path d="M205.8242,706.581 C202.9342,706.581 201.5262,704.414 201.0202,700.621 L203.3682,700.08 C203.9102,703.402 204.7412,704.342 205.8602,704.342 C207.3412,704.342 208.1722,703.113 208.1722,701.344 C208.1722,698.996 207.1242,696.432 204.7412,693.795 C202.0322,690.762 201.2732,688.847 201.2732,685.705 C201.2732,682.852 202.8622,680.504 205.6432,680.504 C208.5692,680.504 209.6892,682.49 210.4112,685.488 L208.0632,686.175 C207.3772,683.574 206.7992,682.743 205.5712,682.743 C204.2712,682.743 203.6212,684.188 203.6212,685.488 C203.6212,687.511 204.1262,689.1 206.5102,691.772 C209.2552,694.807 210.5192,697.66 210.5192,701.019 C210.5192,704.342 208.7132,706.581 205.8242,706.581" id="Fill-9" fill="#FEFEFE" mask="url(#mask-3)"></path>
                    <polygon id="Fill-10" fill="#FEFEFE" mask="url(#mask-3)" points="218.0263 683.0683 218.0263 706.1833 215.7153 706.1833 215.7153 683.0683 212.0303 683.0683 212.0303 680.9013 221.7103 680.9013 221.7103 683.0683"></polygon>
                    <path d="M234.5644,706.581 C230.8444,706.581 229.6164,702.066 229.6164,693.542 C229.6164,685.163 230.9534,680.504 234.6364,680.504 C237.5264,680.504 238.7544,682.888 239.4404,686.752 L237.1654,687.366 C236.4424,683.683 235.7564,682.743 234.6004,682.743 C232.7944,682.743 232.0004,686.211 232.0004,693.542 C232.0004,701.163 232.8314,704.342 234.7454,704.342 C236.0814,704.342 236.6954,703.077 237.3094,699.899 L239.5124,700.549 C238.8624,704.161 237.6344,706.581 234.5644,706.581" id="Fill-11" fill="#FEFEFE" mask="url(#mask-3)"></path>
                    <polygon id="Fill-12" fill="#FEFEFE" mask="url(#mask-3)" points="242.2192 706.1835 242.2192 680.9015 244.5312 680.9015 244.5312 703.9445 249.8762 703.9445 249.8762 706.1835"></polygon>
                    <path d="M257.7114,692.206 C257.3144,689.389 256.9884,687.149 256.7714,684.693 C256.5554,687.149 256.2304,689.389 255.8334,692.206 L255.0744,697.335 L258.4694,697.335 L257.7114,692.206 Z M259.8064,706.184 L258.7944,699.538 L254.7494,699.538 L253.7384,706.184 L251.3184,706.184 L255.5444,680.901 L258.0724,680.901 L262.2984,706.184 L259.8064,706.184 Z" id="Fill-13" fill="#FEFEFE" mask="url(#mask-3)"></path>
                    <path d="M268.728,706.581 C265.838,706.581 264.43,704.414 263.924,700.621 L266.272,700.08 C266.814,703.402 267.644,704.342 268.764,704.342 C270.245,704.342 271.076,703.113 271.076,701.344 C271.076,698.996 270.028,696.432 267.644,693.795 C264.935,690.762 264.177,688.847 264.177,685.705 C264.177,682.852 265.766,680.504 268.547,680.504 C271.473,680.504 272.592,682.49 273.315,685.488 L270.967,686.175 C270.281,683.574 269.704,682.743 268.475,682.743 C267.175,682.743 266.525,684.188 266.525,685.488 C266.525,687.511 267.031,689.1 269.414,691.772 C272.159,694.807 273.423,697.66 273.423,701.019 C273.423,704.342 271.618,706.581 268.728,706.581" id="Fill-14" fill="#FEFEFE" mask="url(#mask-3)"></path>
                    <path d="M280.2143,706.581 C277.3253,706.581 275.9163,704.414 275.4113,700.621 L277.7593,700.08 C278.3003,703.402 279.1313,704.342 280.2503,704.342 C281.7323,704.342 282.5623,703.113 282.5623,701.344 C282.5623,698.996 281.5153,696.432 279.1313,693.795 C276.4223,690.762 275.6633,688.847 275.6633,685.705 C275.6633,682.852 277.2533,680.504 280.0343,680.504 C282.9593,680.504 284.0793,682.49 284.8013,685.488 L282.4533,686.175 C281.7683,683.574 281.1903,682.743 279.9623,682.743 C278.6613,682.743 278.0113,684.188 278.0113,685.488 C278.0113,687.511 278.5173,689.1 280.9003,691.772 C283.6463,694.807 284.9093,697.66 284.9093,701.019 C284.9093,704.342 283.1043,706.581 280.2143,706.581" id="Fill-15" fill="#FEFEFE" mask="url(#mask-3)"></path>
                    <path d="M297.5844,683.1406 L296.3564,683.1406 L296.3564,692.4586 L297.5844,692.4586 C299.6794,692.4586 300.9424,690.7976 300.9424,687.7276 C300.9424,684.6936 299.6794,683.1406 297.5844,683.1406 M297.4764,694.6986 L296.3564,694.6986 L296.3564,706.1836 L294.0444,706.1836 L294.0444,680.9016 L297.6564,680.9016 C300.8344,680.9016 303.2904,682.9236 303.2904,687.5826 C303.2904,692.6036 300.4734,694.6986 297.4764,694.6986" id="Fill-16" fill="#FEFEFE" mask="url(#mask-3)"></path>
                    <path d="M309.5014,683.1406 L308.2724,683.1406 L308.2724,692.1696 L309.5014,692.1696 C311.5964,692.1696 312.8594,690.5086 312.8594,687.5826 C312.8594,684.6936 311.5964,683.1406 309.5014,683.1406 L309.5014,683.1406 Z M313.0764,706.1836 L310.2954,694.2646 C309.7534,694.3366 309.0674,694.3366 308.2724,694.3366 L308.2724,706.1836 L305.9614,706.1836 L305.9614,680.9016 L309.5734,680.9016 C312.7514,680.9016 315.2074,682.9956 315.2074,687.4026 C315.2074,690.3646 314.1244,692.3146 312.5704,693.3986 L315.5324,706.1836 L313.0764,706.1836 Z" id="Fill-17" fill="#FEFEFE" mask="url(#mask-3)"></path>
                    <path d="M322.7573,682.7431 C320.8793,682.7431 319.9403,686.0301 319.9403,693.5421 C319.9403,701.0541 320.9513,704.3421 322.8293,704.3421 C324.7073,704.3421 325.6473,701.0541 325.6473,693.5421 C325.6473,686.0301 324.6353,682.7431 322.7573,682.7431 M322.7933,706.5811 C318.9653,706.5811 317.5563,702.0661 317.5563,693.5421 C317.5563,685.0181 318.9653,680.5041 322.7933,680.5041 C326.6213,680.5041 328.0303,685.0181 328.0303,693.5421 C328.0303,702.0661 326.6213,706.5811 322.7933,706.5811" id="Fill-18" fill="#FEFEFE" mask="url(#mask-3)"></path>
                    <polygon id="Fill-19" fill="#FEFEFE" mask="url(#mask-3)" points="333.4809 683.1406 333.4809 691.7366 337.7429 691.7366 337.7429 693.9756 333.4809 693.9756 333.4809 706.1836 331.1699 706.1836 331.1699 680.9016 339.4409 680.9016 339.4409 683.1406"></polygon>
                    <polygon id="Fill-20" fill="#FEFEFE" mask="url(#mask-3)" points="342.0747 706.1835 342.0747 680.9015 350.1297 680.9015 350.1297 683.1405 344.3867 683.1405 344.3867 691.5555 348.3947 691.5555 348.3947 693.7945 344.3867 693.7945 344.3867 703.9445 350.4897 703.9445 350.4897 706.1835"></polygon>
                    <path d="M356.9194,706.581 C354.0304,706.581 352.6214,704.414 352.1164,700.621 L354.4644,700.08 C355.0054,703.402 355.8364,704.342 356.9554,704.342 C358.4374,704.342 359.2674,703.113 359.2674,701.344 C359.2674,698.996 358.2204,696.432 355.8364,693.795 C353.1274,690.762 352.3684,688.847 352.3684,685.705 C352.3684,682.852 353.9584,680.504 356.7394,680.504 C359.6644,680.504 360.7844,682.49 361.5064,685.488 L359.1584,686.175 C358.4734,683.574 357.8954,682.743 356.6674,682.743 C355.3664,682.743 354.7164,684.188 354.7164,685.488 C354.7164,687.511 355.2224,689.1 357.6054,691.772 C360.3514,694.807 361.6144,697.66 361.6144,701.019 C361.6144,704.342 359.8094,706.581 356.9194,706.581" id="Fill-21" fill="#FEFEFE" mask="url(#mask-3)"></path>
                    <path d="M368.4057,706.581 C365.5167,706.581 364.1077,704.414 363.6027,700.621 L365.9507,700.08 C366.4917,703.402 367.3227,704.342 368.4417,704.342 C369.9237,704.342 370.7537,703.113 370.7537,701.344 C370.7537,698.996 369.7067,696.432 367.3227,693.795 C364.6137,690.762 363.8547,688.847 363.8547,685.705 C363.8547,682.852 365.4447,680.504 368.2257,680.504 C371.1507,680.504 372.2707,682.49 372.9927,685.488 L370.6447,686.175 C369.9597,683.574 369.3817,682.743 368.1537,682.743 C366.8527,682.743 366.2027,684.188 366.2027,685.488 C366.2027,687.511 366.7087,689.1 369.0927,691.772 C371.8377,694.807 373.1007,697.66 373.1007,701.019 C373.1007,704.342 371.2957,706.581 368.4057,706.581" id="Fill-22" fill="#FEFEFE" mask="url(#mask-3)"></path>
                    <polygon id="Fill-23" fill="#FEFEFE" mask="url(#mask-3)" points="376.35 706.183 378.661 706.183 378.661 680.901 376.35 680.901"></polygon>
                    <path d="M387.1831,682.7431 C385.3051,682.7431 384.3661,686.0301 384.3661,693.5421 C384.3661,701.0541 385.3771,704.3421 387.2551,704.3421 C389.1331,704.3421 390.0731,701.0541 390.0731,693.5421 C390.0731,686.0301 389.0611,682.7431 387.1831,682.7431 M387.2191,706.5811 C383.3911,706.5811 381.9821,702.0661 381.9821,693.5421 C381.9821,685.0181 383.3911,680.5041 387.2191,680.5041 C391.0471,680.5041 392.4561,685.0181 392.4561,693.5421 C392.4561,702.0661 391.0471,706.5811 387.2191,706.5811" id="Fill-24" fill="#FEFEFE" mask="url(#mask-3)"></path>
                    <path d="M403.7954,706.1835 L399.9304,694.4095 C399.0274,691.6635 398.1244,688.7755 397.6914,686.6435 C397.7274,688.1975 397.7634,690.7615 397.7634,693.2175 L397.7634,706.1835 L395.5964,706.1835 L395.5964,680.9015 L397.8714,680.9015 L401.3034,691.4475 C402.2054,694.1925 403.1094,697.0815 403.5424,699.2125 C403.5064,697.6605 403.4704,695.0955 403.4704,692.6395 L403.4704,680.9015 L405.6374,680.9015 L405.6374,706.1835 L403.7954,706.1835 Z" id="Fill-25" fill="#FEFEFE" mask="url(#mask-3)"></path>
                    <path d="M414.6997,692.206 C414.3027,689.389 413.9767,687.149 413.7607,684.693 C413.5437,687.149 413.2187,689.389 412.8217,692.206 L412.0627,697.335 L415.4577,697.335 L414.6997,692.206 Z M416.7947,706.184 L415.7827,699.538 L411.7377,699.538 L410.7257,706.184 L408.3067,706.184 L412.5327,680.901 L415.0607,680.901 L419.2867,706.184 L416.7947,706.184 Z" id="Fill-26" fill="#FEFEFE" mask="url(#mask-3)"></path>
                    <polygon id="Fill-27" fill="#FEFEFE" mask="url(#mask-3)" points="421.9565 706.1835 421.9565 680.9015 424.2675 680.9015 424.2675 703.9445 429.6135 703.9445 429.6135 706.1835"></polygon>
                    <path d="M435.9311,706.581 C433.0421,706.581 431.6331,704.414 431.1281,700.621 L433.4761,700.08 C434.0171,703.402 434.8481,704.342 435.9671,704.342 C437.4491,704.342 438.2791,703.113 438.2791,701.344 C438.2791,698.996 437.2321,696.432 434.8481,693.795 C432.1391,690.762 431.3801,688.847 431.3801,685.705 C431.3801,682.852 432.9701,680.504 435.7511,680.504 C438.6761,680.504 439.7961,682.49 440.5181,685.488 L438.1701,686.175 C437.4851,683.574 436.9071,682.743 435.6791,682.743 C434.3781,682.743 433.7281,684.188 433.7281,685.488 C433.7281,687.511 434.2341,689.1 436.6171,691.772 C439.3631,694.807 440.6261,697.66 440.6261,701.019 C440.6261,704.342 438.8211,706.581 435.9311,706.581" id="Fill-28" fill="#FEFEFE" mask="url(#mask-3)"></path>
                    <path d="M75.063,627.9209 C74.398,622.3769 73.622,616.0579 73.289,609.9589 C73.067,616.0579 72.292,622.4869 71.626,628.0309 L69.963,642.1119 L76.837,642.1119 L75.063,627.9209 Z M80.163,670.3839 L78.057,653.3099 L68.965,653.3099 L66.97,670.3839 L54.663,670.3839 L66.97,592.7749 L80.274,592.7749 L92.581,670.3839 L80.163,670.3839 Z" id="Fill-29" fill="#FEFEFE" mask="url(#mask-3)"></path>
                    <polygon id="Fill-30" fill="#FEFEFE" mask="url(#mask-3)" points="96.3496 670.3837 96.3496 592.7747 108.7666 592.7747 108.7666 658.8537 123.5126 658.8537 123.5126 670.3837"></polygon>
                    <path d="M143.1362,603.3076 L140.2542,603.3076 L140.2542,627.3666 L142.8032,627.3666 C147.0172,627.3666 149.1232,623.8186 149.1232,615.2816 C149.1232,606.5226 147.4602,603.3076 143.1362,603.3076 M143.4692,638.0096 L140.2542,638.0096 L140.2542,670.3836 L127.9472,670.3836 L127.9472,592.7746 L144.2452,592.7746 C153.6692,592.7746 161.6522,598.2066 161.6522,614.7266 C161.6522,631.1356 153.5582,638.0096 143.4692,638.0096" id="Fill-31" fill="#FEFEFE" mask="url(#mask-3)"></path>
                    <polygon id="Fill-32" fill="#FEFEFE" mask="url(#mask-3)" points="188.5937 670.3837 188.5937 634.7937 178.3937 634.7937 178.3937 670.3837 165.9757 670.3837 165.9757 592.7747 178.3937 592.7747 178.3937 623.2637 188.5937 623.2637 188.5937 592.7747 201.0117 592.7747 201.0117 670.3837"></polygon>
                    <path d="M225.1806,627.9209 C224.5156,622.3769 223.7396,616.0579 223.4066,609.9589 C223.1846,616.0579 222.4096,622.4869 221.7436,628.0309 L220.0806,642.1119 L226.9546,642.1119 L225.1806,627.9209 Z M230.2806,670.3839 L228.1746,653.3099 L219.0826,653.3099 L217.0876,670.3839 L204.7806,670.3839 L217.0876,592.7749 L230.3916,592.7749 L242.6986,670.3839 L230.2806,670.3839 Z" id="Fill-33" fill="#FEFEFE" mask="url(#mask-3)"></path>
                    <path d="M286.4907,670.3837 L278.8407,635.3487 L276.9557,640.4487 L276.9557,670.3837 L264.6497,670.3837 L264.6497,592.7747 L276.9557,592.7747 L276.9557,607.0767 C276.9557,612.8417 276.8447,618.3857 276.7337,623.0417 C277.8437,618.3857 280.0597,610.9567 281.6127,606.5227 L286.3807,592.7747 L299.1307,592.7747 L288.1537,621.6007 L299.3517,670.3837 L286.4907,670.3837 Z" id="Fill-34" fill="#FEFEFE" mask="url(#mask-3)"></path>
                    <path d="M319.9731,627.9209 C319.3071,622.3769 318.5321,616.0579 318.1991,609.9589 C317.9771,616.0579 317.2011,622.4869 316.5351,628.0309 L314.8721,642.1119 L321.7461,642.1119 L319.9731,627.9209 Z M325.0731,670.3839 L322.9661,653.3099 L313.8741,653.3099 L311.8791,670.3839 L299.5731,670.3839 L311.8791,592.7749 L325.1841,592.7749 L337.4911,670.3839 L325.0731,670.3839 Z" id="Fill-35" fill="#FEFEFE" mask="url(#mask-3)"></path>
                    <path d="M356.4487,603.3076 L353.5657,603.3076 L353.5657,627.3666 L356.1157,627.3666 C360.3287,627.3666 362.4347,623.8186 362.4347,615.2816 C362.4347,606.5226 360.7717,603.3076 356.4487,603.3076 M356.7807,638.0096 L353.5657,638.0096 L353.5657,670.3836 L341.2587,670.3836 L341.2587,592.7746 L357.5567,592.7746 C366.9807,592.7746 374.9637,598.2066 374.9637,614.7266 C374.9637,631.1356 366.8707,638.0096 356.7807,638.0096" id="Fill-36" fill="#FEFEFE" mask="url(#mask-3)"></path>
                    <path d="M394.477,603.3076 L391.594,603.3076 L391.594,627.3666 L394.144,627.3666 C398.357,627.3666 400.463,623.8186 400.463,615.2816 C400.463,606.5226 398.8,603.3076 394.477,603.3076 M394.809,638.0096 L391.594,638.0096 L391.594,670.3836 L379.288,670.3836 L379.288,592.7746 L395.585,592.7746 C405.009,592.7746 412.992,598.2066 412.992,614.7266 C412.992,631.1356 404.899,638.0096 394.809,638.0096" id="Fill-37" fill="#FEFEFE" mask="url(#mask-3)"></path>
                    <path d="M429.8374,627.9209 C429.1714,622.3769 428.3964,616.0579 428.0634,609.9589 C427.8414,616.0579 427.0644,622.4869 426.3994,628.0309 L424.7364,642.1119 L431.6104,642.1119 L429.8374,627.9209 Z M434.9374,670.3839 L432.8304,653.3099 L423.7384,653.3099 L421.7434,670.3839 L409.4374,670.3839 L421.7434,592.7749 L435.0484,592.7749 L447.3544,670.3839 L434.9374,670.3839 Z" id="Fill-38" fill="#FEFEFE" mask="url(#mask-3)"></path>
                    <path d="M484.4946,603.3076 L481.6116,603.3076 L481.6116,627.3666 L484.1616,627.3666 C488.3746,627.3666 490.4806,623.8186 490.4806,615.2816 C490.4806,606.5226 488.8176,603.3076 484.4946,603.3076 M484.8266,638.0096 L481.6116,638.0096 L481.6116,670.3836 L469.3046,670.3836 L469.3046,592.7746 L485.6026,592.7746 C495.0266,592.7746 503.0096,598.2066 503.0096,614.7266 C503.0096,631.1356 494.9166,638.0096 484.8266,638.0096" id="Fill-39" fill="#FEFEFE" mask="url(#mask-3)"></path>
                    <path d="M521.9682,671.6035 C510.8812,671.6035 505.8922,663.8425 504.7842,650.6485 L516.6472,648.5415 C517.5332,657.9655 519.1972,660.2945 521.9682,660.2945 C525.0722,660.2945 526.4032,658.2985 526.4032,653.3095 C526.4032,645.8815 524.0752,642.4445 517.0902,634.6835 C509.2182,626.7015 505.3372,619.3835 505.3372,610.5135 C505.3372,599.6485 510.6592,591.5545 521.3032,591.5545 C532.1682,591.5545 536.4922,598.8725 537.9342,610.2915 L526.2922,612.7315 C525.4062,605.0815 524.0752,602.7525 521.3032,602.7525 C518.6422,602.7525 517.3122,604.6375 517.3122,609.5155 C517.3122,614.9485 519.1972,618.1645 525.2942,624.7055 C534.2752,633.7965 538.4882,641.5575 538.4882,652.2015 C538.4882,663.6215 532.5012,671.6035 521.9682,671.6035" id="Fill-40" fill="#FEFEFE" mask="url(#mask-3)"></path>
                    <polygon id="Fill-41" fill="#FEFEFE" mask="url(#mask-3)" points="543.699 670.383 556.116 670.383 556.116 592.774 543.699 592.774"></polygon>
                    <path d="M379.4067,437.996 C379.4067,437.996 346.5467,443.563 330.2617,453.206 C313.9727,462.847 320.6297,464.205 313.5457,468.007 L307.3697,468.007 L304.6297,468.007 L298.4527,468.007 C291.3717,464.205 298.0287,462.847 281.7407,453.206 C265.4507,443.563 232.5937,437.996 232.5937,437.996 C232.5937,437.996 219.8447,467.6 220.8377,482.401 C221.8287,497.203 234.5757,532.104 235.2837,530.476 C235.9917,528.844 259.0787,525.723 277.4907,515.944 C295.9027,506.165 299.4447,493.946 299.4447,493.946 L304.6297,493.946 L307.3697,493.946 L312.5567,493.946 C312.5567,493.946 316.0967,506.165 334.5067,515.944 C352.9217,525.723 376.0077,528.844 376.7167,530.476 C377.4227,532.104 390.1727,497.203 391.1627,482.401 C392.1527,467.6 379.4067,437.996 379.4067,437.996" id="Fill-42" fill="#C5B22F" mask="url(#mask-3)"></path>
                    <path d="M476.1255,272.6923 C476.1295,274.0513 475.8895,277.2123 475.1275,280.7583 C474.3805,284.3233 473.1045,288.3513 471.2155,291.7213 C469.9595,293.9743 468.4505,295.9223 466.7125,297.3613 C464.3765,299.2733 461.7605,300.4143 457.9645,300.4413 L376.3685,300.4413 C369.8455,300.4223 365.5125,298.5013 362.4605,296.3503 C359.4285,294.2013 357.7295,291.7223 357.1365,290.7153 C357.0015,290.4913 356.9415,290.3733 356.9205,290.3233 L352.1205,279.3963 L342.0945,256.5803 C336.7955,243.4723 332.7045,232.2453 329.9715,222.8623 C327.2205,213.4733 325.8595,205.9193 325.8695,200.3793 C325.8645,197.1273 326.3285,194.6063 327.0735,192.7583 C327.8375,190.9033 328.8095,189.6833 330.2095,188.6583 C331.1575,187.9813 332.3315,187.4023 333.8415,186.9513 C334.9775,186.6123 336.3245,186.3633 337.8345,186.2023 L365.8275,186.2023 C391.9815,186.2083 436.5545,186.2193 448.8435,186.2193 C450.7205,186.2193 452.5225,186.1983 454.2395,186.1983 C457.3605,186.1963 460.1855,186.2743 462.5915,186.6173 C464.9975,186.9573 466.9325,187.5463 468.4745,188.4443 C469.5175,189.0483 470.4085,189.7853 471.2595,190.8113 C472.3805,192.1793 473.4425,194.1103 474.2865,196.9613 C475.4185,200.7483 476.1295,206.1293 476.1255,213.4323 L476.1255,272.6923 Z M317.8465,190.3433 C316.8075,193.3823 316.3695,196.7243 316.3695,200.3793 C316.3745,202.9613 316.5985,205.7123 317.0155,208.6483 L305.9975,208.6483 L294.9875,208.6483 C295.4055,205.7123 295.6285,202.9613 295.6305,200.3793 C295.6305,196.7243 295.1885,193.3823 294.1545,190.3433 C293.6535,188.8773 292.9875,187.4933 292.1945,186.2023 L305.9975,186.2023 L319.8065,186.2023 C319.0055,187.4933 318.3435,188.8773 317.8465,190.3433 L317.8465,190.3433 Z M282.0335,222.8623 C279.2935,232.2453 275.2035,243.4723 269.9025,256.5803 L259.8795,279.3963 L255.0795,290.3233 C255.0565,290.3733 254.9945,290.4913 254.8595,290.7153 C254.2665,291.7223 252.5725,294.2013 249.5375,296.3503 C246.4815,298.5013 242.1555,300.4223 235.6305,300.4413 L154.0305,300.4413 C150.2415,300.4143 147.6245,299.2733 145.2855,297.3613 C143.5515,295.9223 142.0395,293.9743 140.7825,291.7213 C138.8935,288.3513 137.6195,284.3233 136.8705,280.7583 C136.1125,277.2123 135.8695,274.0513 135.8755,272.6923 L135.8755,213.4323 C135.8705,206.1293 136.5815,200.7483 137.7115,196.9613 C138.5605,194.1103 139.6155,192.1793 140.7415,190.8113 C141.5895,189.7853 142.4845,189.0483 143.5215,188.4443 C145.0665,187.5463 147.0015,186.9573 149.4105,186.6173 C151.8095,186.2743 154.6385,186.1963 157.7625,186.1983 C159.4795,186.1983 161.2835,186.2193 163.1575,186.2193 C175.4475,186.2193 220.0175,186.2083 246.1745,186.2023 L274.1635,186.2023 C275.6745,186.3633 277.0195,186.6123 278.1575,186.9513 C279.6675,187.4023 280.8455,187.9813 281.7875,188.6583 C283.1925,189.6833 284.1595,190.9033 284.9225,192.7583 C285.6745,194.6063 286.1345,197.1273 286.1315,200.3793 C286.1425,205.9193 284.7815,213.4733 282.0335,222.8623 L282.0335,222.8623 Z M490.3365,192.5613 L482.8085,192.5613 C481.8435,189.8363 480.6325,187.4493 479.1105,185.4443 C477.6125,183.4673 475.8335,181.8613 473.9005,180.6423 C471.3135,179.0133 468.5105,178.0763 465.6905,177.5313 C461.9315,176.8073 458.1055,176.7283 454.2395,176.7243 C452.4455,176.7243 450.6435,176.7443 448.8435,176.7443 C436.8965,176.7443 394.4315,176.7343 368.0425,176.7303 L368.0425,176.7283 L364.7605,176.7283 L359.8355,176.7283 C351.6715,176.7253 346.4015,176.7243 346.3235,176.7243 L337.4935,176.7283 L305.9975,176.7283 L274.5035,176.7283 L265.6775,176.7243 C265.5985,176.7243 260.3305,176.7253 252.1615,176.7283 L247.2415,176.7283 L243.9595,176.7283 L243.9595,176.7303 C217.5725,176.7343 175.1045,176.7443 163.1575,176.7443 C161.3545,176.7443 159.5535,176.7243 157.7625,176.7243 C153.8935,176.7283 150.0685,176.8073 146.3055,177.5313 C143.4915,178.0763 140.6845,179.0133 138.1025,180.6423 C136.1685,181.8613 134.3865,183.4673 132.8895,185.4443 C131.3655,187.4493 130.1585,189.8363 129.1935,192.5613 L121.6635,192.5613 L121.6635,213.3853 L126.3785,213.3853 C126.3785,213.4003 126.3765,213.4163 126.3765,213.4323 L126.3765,272.6923 C126.3815,274.6813 126.6225,277.6913 127.3005,281.3313 C128.3345,286.7643 130.2955,293.4933 134.3405,299.3003 C136.3715,302.1913 138.9675,304.8583 142.2765,306.8063 C145.5795,308.7613 149.5855,309.9253 154.0305,309.9163 L164.2885,309.9163 L235.6305,309.9163 C240.6355,309.9173 244.9575,308.9983 248.5615,307.5773 C253.9775,305.4433 257.7275,302.2193 260.1035,299.5253 C262.4885,296.8233 263.5425,294.6383 263.6885,294.3383 L263.7145,294.2823 L268.5805,283.1983 L278.6645,260.2473 L278.6895,260.1843 C284.0695,246.8773 288.2695,235.3843 291.1525,225.5113 C291.9015,222.9373 292.5575,220.4823 293.1275,218.1223 L305.9975,218.1223 L318.8705,218.1223 C319.4405,220.4823 320.0965,222.9373 320.8445,225.5113 C323.7295,235.3843 327.9315,246.8773 333.3155,260.1843 L333.3335,260.2473 L343.4155,283.1983 L348.2835,294.2823 L348.3135,294.3383 C348.4545,294.6383 349.5155,296.8233 351.8985,299.5253 C354.2715,302.2193 358.0215,305.4433 363.4375,307.5773 C367.0395,308.9983 371.3625,309.9173 376.3685,309.9163 L447.7095,309.9163 L457.9645,309.9163 C462.4165,309.9253 466.4215,308.7613 469.7245,306.8063 C473.0275,304.8583 475.6275,302.1913 477.6605,299.3003 C481.7025,293.4933 483.6635,286.7643 484.7025,281.3313 C485.3795,277.6913 485.6185,274.6813 485.6235,272.6923 L485.6235,213.4323 L485.6235,213.3853 L490.3365,213.3853 L490.3365,192.5613 Z" id="Fill-45" fill="#2A2728" mask="url(#mask-3)"></path>
                    <path d="M173.3925,831.3681 L172.4415,831.3681 L172.4415,838.5891 L173.3925,838.5891 C175.0165,838.5891 175.9955,837.3011 175.9955,834.9231 C175.9955,832.5721 175.0165,831.3681 173.3925,831.3681 M173.3095,840.3231 L172.4415,840.3231 L172.4415,849.2221 L170.6505,849.2221 L170.6505,829.6341 L173.4485,829.6341 C175.9115,829.6341 177.8145,831.2001 177.8145,834.8101 C177.8145,838.7001 175.6315,840.3231 173.3095,840.3231" id="Fill-46" fill="#FEFEFE" mask="url(#mask-3)"></path>
                    <path d="M182.8789,849.5302 C180.6399,849.5302 179.5489,847.8512 179.1569,844.9132 L180.9759,844.4932 C181.3959,847.0672 182.0399,847.7962 182.9069,847.7962 C184.0539,847.7962 184.6979,846.8442 184.6979,845.4722 C184.6979,843.6532 183.8859,841.6672 182.0399,839.6242 C179.9409,837.2732 179.3529,835.7902 179.3529,833.3552 C179.3529,831.1442 180.5849,829.3252 182.7389,829.3252 C185.0059,829.3252 185.8739,830.8652 186.4329,833.1872 L184.6139,833.7192 C184.0829,831.7042 183.6349,831.0602 182.6829,831.0602 C181.6759,831.0602 181.1719,832.1792 181.1719,833.1872 C181.1719,834.7552 181.5639,835.9862 183.4109,838.0562 C185.5379,840.4072 186.5169,842.6182 186.5169,845.2212 C186.5169,847.7962 185.1179,849.5302 182.8789,849.5302" id="Fill-47" fill="#FEFEFE" mask="url(#mask-3)"></path>
                    <polygon id="Fill-48" fill="#FEFEFE" mask="url(#mask-3)" points="189.036 849.223 190.827 849.223 190.827 829.634 189.036 829.634"></polygon>
                    <path d="M204.0346,849.2226 L201.1526,839.1486 L200.3126,841.0236 L200.3126,849.2226 L198.5216,849.2226 L198.5216,829.6336 L200.3126,829.6336 L200.3126,834.8386 C200.3126,836.1256 200.2846,837.0496 200.2846,838.1406 C200.6766,837.0496 201.2366,835.7056 201.7956,834.4476 L203.9226,829.6336 L205.8816,829.6336 L202.3836,836.9656 L205.9376,849.2226 L204.0346,849.2226 Z" id="Fill-49" fill="#FEFEFE" mask="url(#mask-3)"></path>
                    <path d="M212.0097,838.3925 C211.7017,836.2095 211.4507,834.4745 211.2827,832.5725 C211.1147,834.4745 210.8627,836.2095 210.5547,838.3925 L209.9677,842.3665 L212.5977,842.3665 L212.0097,838.3925 Z M213.6337,849.2225 L212.8497,844.0735 L209.7157,844.0735 L208.9317,849.2225 L207.0567,849.2225 L210.3307,829.6335 L212.2897,829.6335 L215.5637,849.2225 L213.6337,849.2225 Z" id="Fill-50" fill="#FEFEFE" mask="url(#mask-3)"></path>
                    <path d="M220.3774,831.3681 L219.4264,831.3681 L219.4264,838.5891 L220.3774,838.5891 C222.0014,838.5891 222.9794,837.3011 222.9794,834.9231 C222.9794,832.5721 222.0014,831.3681 220.3774,831.3681 M220.2934,840.3231 L219.4264,840.3231 L219.4264,849.2221 L217.6354,849.2221 L217.6354,829.6341 L220.4334,829.6341 C222.8964,829.6341 224.7994,831.2001 224.7994,834.8101 C224.7994,838.7001 222.6164,840.3231 220.2934,840.3231" id="Fill-51" fill="#FEFEFE" mask="url(#mask-3)"></path>
                    <path d="M229.6118,831.3681 L228.6608,831.3681 L228.6608,838.5891 L229.6118,838.5891 C231.2348,838.5891 232.2138,837.3011 232.2138,834.9231 C232.2138,832.5721 231.2348,831.3681 229.6118,831.3681 M229.5278,840.3231 L228.6608,840.3231 L228.6608,849.2221 L226.8698,849.2221 L226.8698,829.6341 L229.6678,829.6341 C232.1308,829.6341 234.0338,831.2001 234.0338,834.8101 C234.0338,838.7001 231.8508,840.3231 229.5278,840.3231" id="Fill-52" fill="#FEFEFE" mask="url(#mask-3)"></path>
                    <path d="M239.2964,838.3925 C238.9884,836.2095 238.7364,834.4745 238.5684,832.5725 C238.4004,834.4745 238.1494,836.2095 237.8414,838.3925 L237.2544,842.3665 L239.8844,842.3665 L239.2964,838.3925 Z M240.9194,849.2225 L240.1364,844.0735 L237.0024,844.0735 L236.2184,849.2225 L234.3434,849.2225 L237.6174,829.6335 L239.5764,829.6335 L242.8504,849.2225 L240.9194,849.2225 Z" id="Fill-53" fill="#FEFEFE" mask="url(#mask-3)"></path>
                    <path d="M253.0371,849.5302 C250.1551,849.5302 249.2031,846.0322 249.2031,839.4282 C249.2031,832.9352 250.2391,829.3252 253.0931,829.3252 C255.3321,829.3252 256.2831,831.1732 256.8151,834.1672 L255.0521,834.6422 C254.4921,831.7882 253.9601,831.0602 253.0651,831.0602 C251.6661,831.0602 251.0501,833.7472 251.0501,839.4282 C251.0501,845.3332 251.6941,847.7962 253.1771,847.7962 C254.2121,847.7962 254.6881,846.8162 255.1641,844.3532 L256.8711,844.8572 C256.3671,847.6552 255.4151,849.5302 253.0371,849.5302" id="Fill-54" fill="#FEFEFE" mask="url(#mask-3)"></path>
                    <polygon id="Fill-55" fill="#FEFEFE" mask="url(#mask-3)" points="264.9585 849.2226 264.9585 839.6236 260.7605 839.6236 260.7605 849.2226 258.9695 849.2226 258.9695 829.6336 260.7605 829.6336 260.7605 837.9166 264.9585 837.9166 264.9585 829.6336 266.7495 829.6336 266.7495 849.2226"></polygon>
                    <path d="M273.7739,838.3925 C273.4659,836.2095 273.2139,834.4745 273.0459,832.5725 C272.8779,834.4745 272.6269,836.2095 272.3189,838.3925 L271.7309,842.3665 L274.3619,842.3665 L273.7739,838.3925 Z M275.3969,849.2225 L274.6139,844.0735 L271.4789,844.0735 L270.6959,849.2225 L268.8209,849.2225 L272.0949,829.6335 L274.0539,829.6335 L277.3289,849.2225 L275.3969,849.2225 Z" id="Fill-56" fill="#FEFEFE" mask="url(#mask-3)"></path>
                    <path d="M282.1411,831.3681 L281.1891,831.3681 L281.1891,838.5891 L282.1411,838.5891 C283.7641,838.5891 284.7441,837.3011 284.7441,834.9231 C284.7441,832.5721 283.7641,831.3681 282.1411,831.3681 M282.0571,840.3231 L281.1891,840.3231 L281.1891,849.2221 L279.3981,849.2221 L279.3981,829.6341 L282.1971,829.6341 C284.6601,829.6341 286.5621,831.2001 286.5621,834.8101 C286.5621,838.7001 284.3791,840.3231 282.0571,840.3231" id="Fill-57" fill="#FEFEFE" mask="url(#mask-3)"></path>
                    <polygon id="Fill-58" fill="#FEFEFE" mask="url(#mask-3)" points="292.1889 831.3125 292.1889 849.2225 290.3979 849.2225 290.3979 831.3125 287.5429 831.3125 287.5429 829.6335 295.0429 829.6335 295.0429 831.3125"></polygon>
                    <polygon id="Fill-59" fill="#FEFEFE" mask="url(#mask-3)" points="296.8891 849.2226 296.8891 829.6336 303.1301 829.6336 303.1301 831.3686 298.6801 831.3686 298.6801 837.8886 301.7861 837.8886 301.7861 839.6236 298.6801 839.6236 298.6801 847.4876 303.4101 847.4876 303.4101 849.2226"></polygon>
                    <path d="M308.2231,831.3681 L307.2711,831.3681 L307.2711,838.3641 L308.2231,838.3641 C309.8461,838.3641 310.8261,837.0771 310.8261,834.8101 C310.8261,832.5721 309.8461,831.3681 308.2231,831.3681 L308.2231,831.3681 Z M310.9941,849.2221 L308.8381,839.9871 C308.4181,840.0441 307.8871,840.0441 307.2711,840.0441 L307.2711,849.2221 L305.4801,849.2221 L305.4801,829.6341 L308.2791,829.6341 C310.7421,829.6341 312.6441,831.2571 312.6441,834.6711 C312.6441,836.9661 311.8051,838.4761 310.6011,839.3161 L312.8961,849.2221 L310.9941,849.2221 Z" id="Fill-60" fill="#FEFEFE" mask="url(#mask-3)"></path>
                    <polygon id="Fill-61" fill="#FEFEFE" mask="url(#mask-3)" points="319.6118 851.7412 317.9618 851.7412 323.0268 827.1152 324.6768 827.1152"></polygon>
                    <polygon id="Fill-62" fill="#FEFEFE" mask="url(#mask-3)" points="332.2895 831.3681 332.2895 838.0291 335.5925 838.0291 335.5925 839.7631 332.2895 839.7631 332.2895 849.2221 330.4985 849.2221 330.4985 829.6341 336.9075 829.6341 336.9075 831.3681"></polygon>
                    <path d="M341.9165,838.3925 C341.6085,836.2095 341.3565,834.4745 341.1885,832.5725 C341.0205,834.4745 340.7685,836.2095 340.4615,838.3925 L339.8735,842.3665 L342.5045,842.3665 L341.9165,838.3925 Z M343.5395,849.2225 L342.7565,844.0735 L339.6215,844.0735 L338.8385,849.2225 L336.9635,849.2225 L340.2375,829.6335 L342.1965,829.6335 L345.4715,849.2225 L343.5395,849.2225 Z" id="Fill-63" fill="#FEFEFE" mask="url(#mask-3)"></path>
                    <polygon id="Fill-64" fill="#FEFEFE" mask="url(#mask-3)" points="347.5405 849.2226 347.5405 829.6336 349.3315 829.6336 349.3315 847.4876 353.4745 847.4876 353.4745 849.2226"></polygon>
                    <polygon id="Fill-65" fill="#FEFEFE" mask="url(#mask-3)" points="355.3755 849.2226 355.3755 829.6336 357.1665 829.6336 357.1665 847.4876 361.3095 847.4876 361.3095 849.2226"></polygon>
                    <path d="M367.0727,849.2226 C367.0727,843.7656 368.1637,841.4706 370.6817,838.2806 C371.8017,836.8816 372.3047,835.3986 372.3047,834.0276 C372.3047,832.0686 371.8297,831.0606 370.7657,831.0606 C369.7587,831.0606 369.3677,831.7876 368.8637,834.2226 L367.1567,833.7186 C367.6597,831.0326 368.4997,829.3256 370.9627,829.3256 C373.1447,829.3256 374.1527,831.2286 374.1527,833.9436 C374.1527,835.8736 373.2847,837.7776 371.7737,839.7636 C369.6187,842.5626 368.9477,844.3806 368.9477,847.5156 L374.1797,847.5156 L374.1797,849.2226 L367.0727,849.2226 Z" id="Fill-66" fill="#FEFEFE" mask="url(#mask-3)"></path>
                    <path d="M379.7514,831.0605 C378.3244,831.0605 377.6814,833.6075 377.6814,839.4275 C377.6814,845.2485 378.3804,847.7955 379.8084,847.7955 C381.2344,847.7955 381.8784,845.2485 381.8784,839.4275 C381.8784,833.6075 381.1794,831.0605 379.7514,831.0605 M379.7794,849.5305 C376.8694,849.5305 375.8614,846.0325 375.8614,839.4275 C375.8614,832.8235 376.8694,829.3255 379.7794,829.3255 C382.6894,829.3255 383.6974,832.8235 383.6974,839.4275 C383.6974,846.0325 382.6894,849.5305 379.7794,849.5305" id="Fill-67" fill="#FEFEFE" mask="url(#mask-3)"></path>
                    <path d="M386.9165,849.2226 L386.9165,832.7676 L384.7625,832.7676 L384.7625,831.5646 C386.3285,831.4246 386.9165,831.0326 387.2525,829.6336 L388.6795,829.6336 L388.6795,849.2226 L386.9165,849.2226 Z" id="Fill-68" fill="#FEFEFE" mask="url(#mask-3)"></path>
                    <path d="M390.7788,849.2226 C390.7788,843.7656 391.8698,841.4706 394.3878,838.2806 C395.5078,836.8816 396.0108,835.3986 396.0108,834.0276 C396.0108,832.0686 395.5358,831.0606 394.4718,831.0606 C393.4648,831.0606 393.0738,831.7876 392.5698,834.2226 L390.8628,833.7186 C391.3668,831.0326 392.2058,829.3256 394.6688,829.3256 C396.8508,829.3256 397.8588,831.2286 397.8588,833.9436 C397.8588,835.8736 396.9908,837.7776 395.4798,839.7636 C393.3248,842.5626 392.6538,844.3806 392.6538,847.5156 L397.8858,847.5156 L397.8858,849.2226 L390.7788,849.2226 Z" id="Fill-69" fill="#FEFEFE" mask="url(#mask-3)"></path>
                    <path d="M407.6245,831.3681 L406.6725,831.3681 L406.6725,838.3641 L407.6245,838.3641 C409.2475,838.3641 410.2275,837.0771 410.2275,834.8101 C410.2275,832.5721 409.2475,831.3681 407.6245,831.3681 L407.6245,831.3681 Z M410.3955,849.2221 L408.2395,839.9871 C407.8195,840.0441 407.2885,840.0441 406.6725,840.0441 L406.6725,849.2221 L404.8815,849.2221 L404.8815,829.6341 L407.6805,829.6341 C410.1425,829.6341 412.0455,831.2571 412.0455,834.6711 C412.0455,836.9661 411.2065,838.4761 410.0035,839.3161 L412.2975,849.2221 L410.3955,849.2221 Z" id="Fill-70" fill="#FEFEFE" mask="url(#mask-3)"></path>
                    <path d="M418.1479,849.5302 C415.7969,849.5302 414.2869,847.6552 414.2869,844.6612 L414.2869,829.6342 L416.0779,829.6342 L416.0779,844.6052 C416.0779,846.5922 416.8889,847.7962 418.1759,847.7962 C419.4629,847.7962 420.2749,846.5922 420.2749,844.6052 L420.2749,829.6342 L422.0659,829.6342 L422.0659,844.6612 C422.0659,847.6552 420.4989,849.5302 418.1479,849.5302" id="Fill-71" fill="#FEFEFE" mask="url(#mask-3)"></path>
                    <path d="M427.8872,849.5302 C425.6482,849.5302 424.5572,847.8512 424.1642,844.9132 L425.9842,844.4932 C426.4042,847.0672 427.0472,847.7962 427.9142,847.7962 C429.0622,847.7962 429.7052,846.8442 429.7052,845.4722 C429.7052,843.6532 428.8942,841.6672 427.0472,839.6242 C424.9492,837.2732 424.3612,835.7902 424.3612,833.3552 C424.3612,831.1442 425.5922,829.3252 427.7462,829.3252 C430.0132,829.3252 430.8812,830.8652 431.4412,833.1872 L429.6212,833.7192 C429.0902,831.7042 428.6422,831.0602 427.6912,831.0602 C426.6832,831.0602 426.1802,832.1792 426.1802,833.1872 C426.1802,834.7552 426.5722,835.9862 428.4182,838.0562 C430.5452,840.4072 431.5252,842.6182 431.5252,845.2212 C431.5252,847.7962 430.1252,849.5302 427.8872,849.5302" id="Fill-72" fill="#FEFEFE" mask="url(#mask-3)"></path>
                    <polygon id="Fill-73" fill="#FEFEFE" mask="url(#mask-3)" points="439.8921 849.2226 439.8921 839.6236 435.6941 839.6236 435.6941 849.2226 433.9031 849.2226 433.9031 829.6336 435.6941 829.6336 435.6941 837.9166 439.8921 837.9166 439.8921 829.6336 441.6831 829.6336 441.6831 849.2226"></polygon>
                    <polygon id="Fill-74" fill="#FEFEFE" mask="url(#mask-3)" points="128.4414 858.2714 128.4414 870.8104 127.1874 870.8104 127.1874 858.2714 125.1894 858.2714 125.1894 857.0954 130.4404 857.0954 130.4404 858.2714"></polygon>
                    <polygon id="Fill-75" fill="#FEFEFE" mask="url(#mask-3)" points="135.9253 870.8105 135.9253 864.0905 132.9863 864.0905 132.9863 870.8105 131.7323 870.8105 131.7323 857.0955 132.9863 857.0955 132.9863 862.8955 135.9253 862.8955 135.9253 857.0955 137.1793 857.0955 137.1793 870.8105"></polygon>
                    <polygon id="Fill-76" fill="#FEFEFE" mask="url(#mask-3)" points="139.1757 870.8105 139.1757 857.0955 143.5447 857.0955 143.5447 858.3105 140.4297 858.3105 140.4297 862.8755 142.6047 862.8755 142.6047 864.0905 140.4297 864.0905 140.4297 869.5955 143.7407 869.5955 143.7407 870.8105"></polygon>
                    <path d="M151.0073,858.0947 C149.9883,858.0947 149.4793,859.8777 149.4793,863.9527 C149.4793,868.0287 150.0283,869.8117 151.0473,869.8117 C152.0653,869.8117 152.5743,868.0287 152.5743,863.9527 C152.5743,859.8777 152.0263,858.0947 151.0073,858.0947 M151.0273,871.0267 C148.9503,871.0267 148.1863,868.5767 148.1863,863.9527 C148.1863,859.3287 148.9503,856.8807 151.0273,856.8807 C153.1043,856.8807 153.8683,859.3287 153.8683,863.9527 C153.8683,868.5767 153.1043,871.0267 151.0273,871.0267" id="Fill-77" fill="#FEFEFE" mask="url(#mask-3)"></path>
                    <polygon id="Fill-78" fill="#FEFEFE" mask="url(#mask-3)" points="155.5713 870.8105 155.5713 857.0955 156.8253 857.0955 156.8253 869.5955 159.7253 869.5955 159.7253 870.8105"></polygon>
                    <path d="M163.0932,858.291 L162.3092,858.291 L162.3092,869.615 L163.0342,869.615 C164.2692,869.615 165.0332,868.067 165.0332,863.914 C165.0332,860.016 164.3862,858.291 163.0932,858.291 M162.9362,870.811 L161.0552,870.811 L161.0552,857.096 L163.1132,857.096 C165.6012,857.096 166.3062,859.603 166.3062,863.855 C166.3062,868.558 165.2682,870.811 162.9362,870.811" id="Fill-79" fill="#FEFEFE" mask="url(#mask-3)"></path>
                    <polygon id="Fill-80" fill="#FEFEFE" mask="url(#mask-3)" points="167.9902 870.8105 167.9902 857.0955 172.3592 857.0955 172.3592 858.3105 169.2442 858.3105 169.2442 862.8755 171.4192 862.8755 171.4192 864.0905 169.2442 864.0905 169.2442 869.5955 172.5552 869.5955 172.5552 870.8105"></polygon>
                    <path d="M176.0429,871.0263 C174.4759,871.0263 173.7119,869.8503 173.4369,867.7933 L174.7099,867.4993 C175.0049,869.3013 175.4549,869.8113 176.0629,869.8113 C176.8659,869.8113 177.3159,869.1453 177.3159,868.1853 C177.3159,866.9123 176.7479,865.5203 175.4549,864.0903 C173.9849,862.4443 173.5739,861.4063 173.5739,859.7023 C173.5739,858.1543 174.4359,856.8813 175.9449,856.8813 C177.5319,856.8813 178.1389,857.9583 178.5309,859.5843 L177.2569,859.9563 C176.8849,858.5463 176.5719,858.0943 175.9059,858.0943 C175.1999,858.0943 174.8479,858.8793 174.8479,859.5843 C174.8479,860.6813 175.1219,861.5433 176.4149,862.9933 C177.9039,864.6383 178.5899,866.1863 178.5899,868.0083 C178.5899,869.8113 177.6099,871.0263 176.0429,871.0263" id="Fill-81" fill="#FEFEFE" mask="url(#mask-3)"></path>
                    <polygon id="Fill-82" fill="#FEFEFE" mask="url(#mask-3)" points="182.6621 858.2714 182.6621 870.8104 181.4081 870.8104 181.4081 858.2714 179.4101 858.2714 179.4101 857.0954 184.6611 857.0954 184.6611 858.2714"></polygon>
                    <path d="M192.1631,863.2285 C191.9471,861.7005 191.7711,860.4855 191.6531,859.1535 C191.5361,860.4855 191.3601,861.7005 191.1441,863.2285 L190.7331,866.0105 L192.5741,866.0105 L192.1631,863.2285 Z M193.2991,870.8105 L192.7511,867.2055 L190.5561,867.2055 L190.0081,870.8105 L188.6951,870.8105 L190.9871,857.0955 L192.3591,857.0955 L194.6511,870.8105 L193.2991,870.8105 Z" id="Fill-83" fill="#FEFEFE" mask="url(#mask-3)"></path>
                    <path d="M200.5478,870.8105 L198.4508,864.4235 C197.9618,862.9345 197.4718,861.3675 197.2358,860.2105 C197.2558,861.0535 197.2758,862.4445 197.2758,863.7775 L197.2758,870.8105 L196.0998,870.8105 L196.0998,857.0955 L197.3348,857.0955 L199.1958,862.8165 C199.6858,864.3055 200.1748,865.8735 200.4108,867.0295 C200.3908,866.1865 200.3708,864.7955 200.3708,863.4635 L200.3708,857.0955 L201.5468,857.0955 L201.5468,870.8105 L200.5478,870.8105 Z" id="Fill-84" fill="#FEFEFE" mask="url(#mask-3)"></path>
                    <path d="M205.581,858.291 L204.797,858.291 L204.797,869.615 L205.522,869.615 C206.757,869.615 207.52,868.067 207.52,863.914 C207.52,860.016 206.874,858.291 205.581,858.291 M205.424,870.811 L203.543,870.811 L203.543,857.096 L205.601,857.096 C208.089,857.096 208.794,859.603 208.794,863.855 C208.794,868.558 207.756,870.811 205.424,870.811" id="Fill-85" fill="#FEFEFE" mask="url(#mask-3)"></path>
                    <polygon id="Fill-86" fill="#FEFEFE" mask="url(#mask-3)" points="213.769 870.8105 213.769 857.0955 215.023 857.0955 215.023 869.5955 217.923 869.5955 217.923 870.8105"></polygon>
                    <path d="M222.1728,863.2285 C221.9568,861.7005 221.7808,860.4855 221.6628,859.1535 C221.5458,860.4855 221.3698,861.7005 221.1538,863.2285 L220.7428,866.0105 L222.5838,866.0105 L222.1728,863.2285 Z M223.3088,870.8105 L222.7608,867.2055 L220.5668,867.2055 L220.0178,870.8105 L218.7048,870.8105 L220.9968,857.0955 L222.3688,857.0955 L224.6608,870.8105 L223.3088,870.8105 Z" id="Fill-87" fill="#FEFEFE" mask="url(#mask-3)"></path>
                    <path d="M228.0298,858.3105 L227.3638,858.3105 L227.3638,863.2085 L228.0298,863.2085 C229.1668,863.2085 229.8518,862.3075 229.8518,860.7205 C229.8518,859.1535 229.1668,858.3105 228.0298,858.3105 L228.0298,858.3105 Z M229.9698,870.8105 L228.4608,864.3445 C228.1668,864.3845 227.7948,864.3845 227.3638,864.3845 L227.3638,870.8105 L226.1098,870.8105 L226.1098,857.0955 L228.0688,857.0955 C229.7938,857.0955 231.1258,858.2325 231.1258,860.6235 C231.1258,862.2295 230.5378,863.2875 229.6948,863.8745 L231.3018,870.8105 L229.9698,870.8105 Z" id="Fill-88" fill="#FEFEFE" mask="url(#mask-3)"></path>
                    <path d="M235.123,871.0263 C233.046,871.0263 232.399,868.5773 232.399,863.9533 C232.399,859.4273 233.065,856.8813 235.182,856.8813 C236.671,856.8813 237.356,858.1743 237.728,860.2693 L236.494,860.6023 C236.122,858.6243 235.73,858.0943 235.123,858.0943 C234.123,858.0943 233.692,859.9173 233.692,863.9533 C233.692,868.0673 234.123,869.8113 235.201,869.8113 C236.181,869.8113 236.612,868.7333 236.612,866.5583 L236.612,864.9323 L235.142,864.9323 L235.142,863.7373 L237.846,863.7373 L237.846,866.4413 C237.846,868.8123 237.298,871.0263 235.123,871.0263" id="Fill-89" fill="#FEFEFE" mask="url(#mask-3)"></path>
                    <polygon id="Fill-90" fill="#FEFEFE" mask="url(#mask-3)" points="239.5693 870.8105 239.5693 857.0955 243.9383 857.0955 243.9383 858.3105 240.8233 858.3105 240.8233 862.8755 242.9983 862.8755 242.9983 864.0905 240.8233 864.0905 240.8233 869.5955 244.1343 869.5955 244.1343 870.8105"></polygon>
                    <path d="M247.622,871.0263 C246.055,871.0263 245.291,869.8503 245.016,867.7933 L246.289,867.4993 C246.584,869.3013 247.034,869.8113 247.642,869.8113 C248.445,869.8113 248.895,869.1453 248.895,868.1853 C248.895,866.9123 248.327,865.5203 247.034,864.0903 C245.564,862.4443 245.153,861.4063 245.153,859.7023 C245.153,858.1543 246.015,856.8813 247.524,856.8813 C249.111,856.8813 249.718,857.9583 250.11,859.5843 L248.836,859.9563 C248.464,858.5463 248.151,858.0943 247.485,858.0943 C246.779,858.0943 246.427,858.8793 246.427,859.5843 C246.427,860.6813 246.701,861.5433 247.994,862.9933 C249.483,864.6383 250.169,866.1863 250.169,868.0083 C250.169,869.8113 249.189,871.0263 247.622,871.0263" id="Fill-91" fill="#FEFEFE" mask="url(#mask-3)"></path>
                    <polygon id="Fill-92" fill="#FEFEFE" mask="url(#mask-3)" points="254.2412 858.2714 254.2412 870.8104 252.9872 870.8104 252.9872 858.2714 250.9892 858.2714 250.9892 857.0954 256.2392 857.0954 256.2392 858.2714"></polygon>
                    <path d="M263.2138,871.0263 C261.1948,871.0263 260.5288,868.5773 260.5288,863.9533 C260.5288,859.4083 261.2538,856.8813 263.2528,856.8813 C264.8198,856.8813 265.4858,858.1743 265.8588,860.2693 L264.6238,860.6023 C264.2328,858.6043 263.8598,858.0943 263.2338,858.0943 C262.2538,858.0943 261.8218,859.9753 261.8218,863.9533 C261.8218,868.0873 262.2738,869.8113 263.3118,869.8113 C264.0358,869.8113 264.3688,869.1263 264.7018,867.4013 L265.8978,867.7543 C265.5448,869.7133 264.8788,871.0263 263.2138,871.0263" id="Fill-93" fill="#FEFEFE" mask="url(#mask-3)"></path>
                    <path d="M269.7744,858.0947 C268.7544,858.0947 268.2464,859.8777 268.2464,863.9527 C268.2464,868.0287 268.7954,869.8117 269.8134,869.8117 C270.8324,869.8117 271.3414,868.0287 271.3414,863.9527 C271.3414,859.8777 270.7934,858.0947 269.7744,858.0947 M269.7944,871.0267 C267.7164,871.0267 266.9534,868.5767 266.9534,863.9527 C266.9534,859.3287 267.7164,856.8807 269.7944,856.8807 C271.8704,856.8807 272.6344,859.3287 272.6344,863.9527 C272.6344,868.5767 271.8704,871.0267 269.7944,871.0267" id="Fill-94" fill="#FEFEFE" mask="url(#mask-3)"></path>
                    <polygon id="Fill-95" fill="#FEFEFE" mask="url(#mask-3)" points="273.867 864.267 277.138 864.267 277.138 863.013 273.867 863.013"></polygon>
                    <polygon id="Fill-96" fill="#FEFEFE" mask="url(#mask-3)" points="278.667 870.8105 278.667 857.0955 283.035 857.0955 283.035 858.3105 279.921 858.3105 279.921 862.8755 282.096 862.8755 282.096 864.0905 279.921 864.0905 279.921 869.5955 283.231 869.5955 283.231 870.8105"></polygon>
                    <path d="M286.7187,858.291 L285.9357,858.291 L285.9357,869.615 L286.6597,869.615 C287.8947,869.615 288.6587,868.067 288.6587,863.914 C288.6587,860.016 288.0117,858.291 286.7187,858.291 M286.5627,870.811 L284.6817,870.811 L284.6817,857.096 L286.7387,857.096 C289.2267,857.096 289.9317,859.603 289.9317,863.855 C289.9317,868.558 288.8937,870.811 286.5627,870.811" id="Fill-97" fill="#FEFEFE" mask="url(#mask-3)"></path>
                    <path d="M296.8271,858.3105 L296.1611,858.3105 L296.1611,863.3655 L296.8271,863.3655 C297.9631,863.3655 298.6481,862.4635 298.6481,860.7985 C298.6481,859.1535 297.9631,858.3105 296.8271,858.3105 M296.7671,864.5805 L296.1611,864.5805 L296.1611,870.8105 L294.9071,870.8105 L294.9071,857.0955 L296.8661,857.0955 C298.5901,857.0955 299.9231,858.1935 299.9231,860.7205 C299.9231,863.4435 298.3941,864.5805 296.7671,864.5805" id="Fill-98" fill="#FEFEFE" mask="url(#mask-3)"></path>
                    <path d="M303.292,858.3105 L302.626,858.3105 L302.626,863.2085 L303.292,863.2085 C304.428,863.2085 305.113,862.3075 305.113,860.7205 C305.113,859.1535 304.428,858.3105 303.292,858.3105 L303.292,858.3105 Z M305.231,870.8105 L303.723,864.3445 C303.429,864.3845 303.057,864.3845 302.626,864.3845 L302.626,870.8105 L301.372,870.8105 L301.372,857.0955 L303.331,857.0955 C305.055,857.0955 306.387,858.2325 306.387,860.6235 C306.387,862.2295 305.799,863.2875 304.957,863.8745 L306.563,870.8105 L305.231,870.8105 Z" id="Fill-99" fill="#FEFEFE" mask="url(#mask-3)"></path>
                    <path d="M310.4829,858.0947 C309.4629,858.0947 308.9539,859.8777 308.9539,863.9527 C308.9539,868.0287 309.5029,869.8117 310.5219,869.8117 C311.5399,869.8117 312.0489,868.0287 312.0489,863.9527 C312.0489,859.8777 311.5009,858.0947 310.4829,858.0947 M310.5029,871.0267 C308.4239,871.0267 307.6609,868.5767 307.6609,863.9527 C307.6609,859.3287 308.4239,856.8807 310.5029,856.8807 C312.5789,856.8807 313.3419,859.3287 313.3419,863.9527 C313.3419,868.5767 312.5789,871.0267 310.5029,871.0267" id="Fill-100" fill="#FEFEFE" mask="url(#mask-3)"></path>
                    <polygon id="Fill-101" fill="#FEFEFE" mask="url(#mask-3)" points="316.2993 858.3105 316.2993 862.9735 318.6123 862.9735 318.6123 864.1885 316.2993 864.1885 316.2993 870.8105 315.0453 870.8105 315.0453 857.0955 319.5313 857.0955 319.5313 858.3105"></polygon>
                    <polygon id="Fill-102" fill="#FEFEFE" mask="url(#mask-3)" points="320.9633 870.8105 320.9633 857.0955 325.3323 857.0955 325.3323 858.3105 322.2173 858.3105 322.2173 862.8755 324.3913 862.8755 324.3913 864.0905 322.2173 864.0905 322.2173 869.5955 325.5283 869.5955 325.5283 870.8105"></polygon>
                    <path d="M329.0161,871.0263 C327.4481,871.0263 326.6841,869.8503 326.4111,867.7933 L327.6841,867.4993 C327.9771,869.3013 328.4281,869.8113 329.0361,869.8113 C329.8381,869.8113 330.2891,869.1453 330.2891,868.1853 C330.2891,866.9123 329.7211,865.5203 328.4281,864.0903 C326.9591,862.4443 326.5471,861.4063 326.5471,859.7023 C326.5471,858.1543 327.4091,856.8813 328.9181,856.8813 C330.5041,856.8813 331.1121,857.9583 331.5041,859.5843 L330.2311,859.9563 C329.8581,858.5463 329.5451,858.0943 328.8791,858.0943 C328.1741,858.0943 327.8211,858.8793 327.8211,859.5843 C327.8211,860.6813 328.0941,861.5433 329.3871,862.9933 C330.8771,864.6383 331.5631,866.1863 331.5631,868.0083 C331.5631,869.8113 330.5821,871.0263 329.0161,871.0263" id="Fill-103" fill="#FEFEFE" mask="url(#mask-3)"></path>
                    <path d="M335.2466,871.0263 C333.6786,871.0263 332.9146,869.8503 332.6416,867.7933 L333.9146,867.4993 C334.2076,869.3013 334.6586,869.8113 335.2666,869.8113 C336.0686,869.8113 336.5196,869.1453 336.5196,868.1853 C336.5196,866.9123 335.9516,865.5203 334.6586,864.0903 C333.1896,862.4443 332.7776,861.4063 332.7776,859.7023 C332.7776,858.1543 333.6396,856.8813 335.1486,856.8813 C336.7346,856.8813 337.3426,857.9583 337.7346,859.5843 L336.4616,859.9563 C336.0886,858.5463 335.7756,858.0943 335.1096,858.0943 C334.4046,858.0943 334.0516,858.8793 334.0516,859.5843 C334.0516,860.6813 334.3246,861.5433 335.6176,862.9933 C337.1076,864.6383 337.7936,866.1863 337.7936,868.0083 C337.7936,869.8113 336.8126,871.0263 335.2466,871.0263" id="Fill-104" fill="#FEFEFE" mask="url(#mask-3)"></path>
                    <polygon id="Fill-105" fill="#FEFEFE" mask="url(#mask-3)" points="339.555 870.811 340.809 870.811 340.809 857.096 339.555 857.096"></polygon>
                    <path d="M345.4341,858.0947 C344.4141,858.0947 343.9051,859.8777 343.9051,863.9527 C343.9051,868.0287 344.4541,869.8117 345.4731,869.8117 C346.4911,869.8117 347.0001,868.0287 347.0001,863.9527 C347.0001,859.8777 346.4521,858.0947 345.4341,858.0947 M345.4541,871.0267 C343.3751,871.0267 342.6121,868.5767 342.6121,863.9527 C342.6121,859.3287 343.3751,856.8807 345.4541,856.8807 C347.5301,856.8807 348.2931,859.3287 348.2931,863.9527 C348.2931,868.5767 347.5301,871.0267 345.4541,871.0267" id="Fill-106" fill="#FEFEFE" mask="url(#mask-3)"></path>
                    <path d="M354.4438,870.8105 L352.3478,864.4235 C351.8578,862.9345 351.3678,861.3675 351.1338,860.2105 C351.1528,861.0535 351.1728,862.4445 351.1728,863.7775 L351.1728,870.8105 L349.9968,870.8105 L349.9968,857.0955 L351.2308,857.0955 L353.0918,862.8165 C353.5828,864.3055 354.0728,865.8735 354.3068,867.0295 C354.2878,866.1865 354.2678,864.7955 354.2678,863.4635 L354.2678,857.0955 L355.4438,857.0955 L355.4438,870.8105 L354.4438,870.8105 Z" id="Fill-107" fill="#FEFEFE" mask="url(#mask-3)"></path>
                    <path d="M360.3598,863.2285 C360.1428,861.7005 359.9668,860.4855 359.8498,859.1535 C359.7328,860.4855 359.5548,861.7005 359.3398,863.2285 L358.9278,866.0105 L360.7698,866.0105 L360.3598,863.2285 Z M361.4968,870.8105 L360.9478,867.2055 L358.7528,867.2055 L358.2038,870.8105 L356.8908,870.8105 L359.1838,857.0955 L360.5548,857.0955 L362.8478,870.8105 L361.4968,870.8105 Z" id="Fill-108" fill="#FEFEFE" mask="url(#mask-3)"></path>
                    <polygon id="Fill-109" fill="#FEFEFE" mask="url(#mask-3)" points="364.2973 870.8105 364.2973 857.0955 365.5513 857.0955 365.5513 869.5955 368.4493 869.5955 368.4493 870.8105"></polygon>
                    <path d="M374.8735,864.208 L374.3265,864.208 L374.3265,869.596 L375.1095,869.596 C376.2465,869.596 376.9125,868.753 376.9125,866.893 C376.9125,865.148 376.1465,864.208 374.8735,864.208 M374.9345,858.311 L374.3265,858.311 L374.3265,862.993 L374.9125,862.993 C376.1465,862.993 376.6765,861.975 376.6765,860.623 C376.6765,859.055 376.0295,858.311 374.9345,858.311 M375.0515,870.811 L373.0725,870.811 L373.0725,857.096 L374.9735,857.096 C376.9905,857.096 377.9495,858.487 377.9495,860.583 C377.9495,862.308 377.2835,863.131 376.4805,863.601 C377.4415,864.091 378.1865,864.913 378.1865,866.833 C378.1865,869.654 376.7545,870.811 375.0515,870.811" id="Fill-110" fill="#FEFEFE" mask="url(#mask-3)"></path>
                    <path d="M382.5141,871.0263 C380.8671,871.0263 379.8111,869.7133 379.8111,867.6173 L379.8111,857.0953 L381.0651,857.0953 L381.0651,867.5783 C381.0651,868.9683 381.6311,869.8113 382.5341,869.8113 C383.4341,869.8113 384.0021,868.9683 384.0021,867.5783 L384.0021,857.0953 L385.2561,857.0953 L385.2561,867.6173 C385.2561,869.7133 384.1591,871.0263 382.5141,871.0263" id="Fill-111" fill="#FEFEFE" mask="url(#mask-3)"></path>
                    <path d="M389.3305,871.0263 C387.7645,871.0263 387.0005,869.8503 386.7255,867.7933 L387.9985,867.4993 C388.2935,869.3013 388.7425,869.8113 389.3505,869.8113 C390.1545,869.8113 390.6045,869.1453 390.6045,868.1853 C390.6045,866.9123 390.0375,865.5203 388.7425,864.0903 C387.2735,862.4443 386.8615,861.4063 386.8615,859.7023 C386.8615,858.1543 387.7255,856.8813 389.2325,856.8813 C390.8205,856.8813 391.4285,857.9583 391.8185,859.5843 L390.5455,859.9563 C390.1745,858.5463 389.8595,858.0943 389.1935,858.0943 C388.4885,858.0943 388.1355,858.8793 388.1355,859.5843 C388.1355,860.6813 388.4105,861.5433 389.7035,862.9933 C391.1915,864.6383 391.8775,866.1863 391.8775,868.0083 C391.8775,869.8113 390.8985,871.0263 389.3305,871.0263" id="Fill-112" fill="#FEFEFE" mask="url(#mask-3)"></path>
                    <polygon id="Fill-113" fill="#FEFEFE" mask="url(#mask-3)" points="393.641 870.811 394.895 870.811 394.895 857.096 393.641 857.096"></polygon>
                    <path d="M401.438,870.8105 L399.34,864.4235 C398.852,862.9345 398.362,861.3675 398.125,860.2105 C398.145,861.0535 398.165,862.4445 398.165,863.7775 L398.165,870.8105 L396.991,870.8105 L396.991,857.0955 L398.225,857.0955 L400.084,862.8165 C400.575,864.3055 401.065,865.8735 401.299,867.0295 C401.28,866.1865 401.26,864.7955 401.26,863.4635 L401.26,857.0955 L402.436,857.0955 L402.436,870.8105 L401.438,870.8105 Z" id="Fill-114" fill="#FEFEFE" mask="url(#mask-3)"></path>
                    <polygon id="Fill-115" fill="#FEFEFE" mask="url(#mask-3)" points="404.4341 870.8105 404.4341 857.0955 408.8031 857.0955 408.8031 858.3105 405.6881 858.3105 405.6881 862.8755 407.8641 862.8755 407.8641 864.0905 405.6881 864.0905 405.6881 869.5955 408.9981 869.5955 408.9981 870.8105"></polygon>
                    <path d="M412.4868,871.0263 C410.9188,871.0263 410.1548,869.8503 409.8818,867.7933 L411.1548,867.4993 C411.4478,869.3013 411.8988,869.8113 412.5068,869.8113 C413.3088,869.8113 413.7598,869.1453 413.7598,868.1853 C413.7598,866.9123 413.1918,865.5203 411.8988,864.0903 C410.4298,862.4443 410.0178,861.4063 410.0178,859.7023 C410.0178,858.1543 410.8798,856.8813 412.3888,856.8813 C413.9748,856.8813 414.5828,857.9583 414.9748,859.5843 L413.7018,859.9563 C413.3288,858.5463 413.0158,858.0943 412.3498,858.0943 C411.6448,858.0943 411.2918,858.8793 411.2918,859.5843 C411.2918,860.6813 411.5648,861.5433 412.8578,862.9933 C414.3478,864.6383 415.0338,866.1863 415.0338,868.0083 C415.0338,869.8113 414.0528,871.0263 412.4868,871.0263" id="Fill-116" fill="#FEFEFE" mask="url(#mask-3)"></path>
                    <path d="M418.7173,871.0263 C417.1513,871.0263 416.3873,869.8503 416.1123,867.7933 L417.3853,867.4993 C417.6803,869.3013 418.1293,869.8113 418.7373,869.8113 C419.5413,869.8113 419.9903,869.1453 419.9903,868.1853 C419.9903,866.9123 419.4243,865.5203 418.1293,864.0903 C416.6603,862.4443 416.2483,861.4063 416.2483,859.7023 C416.2483,858.1543 417.1123,856.8813 418.6193,856.8813 C420.2073,856.8813 420.8153,857.9583 421.2053,859.5843 L419.9323,859.9563 C419.5613,858.5463 419.2463,858.0943 418.5803,858.0943 C417.8753,858.0943 417.5223,858.8793 417.5223,859.5843 C417.5223,860.6813 417.7973,861.5433 419.0903,862.9933 C420.5783,864.6383 421.2643,866.1863 421.2643,868.0083 C421.2643,869.8113 420.2853,871.0263 418.7173,871.0263" id="Fill-117" fill="#FEFEFE" mask="url(#mask-3)"></path>
                    <polygon id="Fill-118" fill="#FEFEFE" mask="url(#mask-3)" points="427.4751 858.3105 427.4751 862.9735 429.7881 862.9735 429.7881 864.1885 427.4751 864.1885 427.4751 870.8105 426.2211 870.8105 426.2211 857.0955 430.7071 857.0955 430.7071 858.3105"></polygon>
                    <path d="M434.0571,858.3105 L433.3911,858.3105 L433.3911,863.2085 L434.0571,863.2085 C435.1941,863.2085 435.8791,862.3075 435.8791,860.7205 C435.8791,859.1535 435.1941,858.3105 434.0571,858.3105 L434.0571,858.3105 Z M435.9961,870.8105 L434.4891,864.3445 C434.1941,864.3845 433.8231,864.3845 433.3911,864.3845 L433.3911,870.8105 L432.1371,870.8105 L432.1371,857.0955 L434.0961,857.0955 C435.8211,857.0955 437.1531,858.2325 437.1531,860.6235 C437.1531,862.2295 436.5651,863.2875 435.7231,863.8745 L437.3281,870.8105 L435.9961,870.8105 Z" id="Fill-119" fill="#FEFEFE" mask="url(#mask-3)"></path>
                    <path d="M441.6411,863.2285 C441.4241,861.7005 441.2481,860.4855 441.1311,859.1535 C441.0141,860.4855 440.8361,861.7005 440.6211,863.2285 L440.2091,866.0105 L442.0511,866.0105 L441.6411,863.2285 Z M442.7781,870.8105 L442.2291,867.2055 L440.0341,867.2055 L439.4851,870.8105 L438.1721,870.8105 L440.4651,857.0955 L441.8361,857.0955 L444.1291,870.8105 L442.7781,870.8105 Z" id="Fill-120" fill="#FEFEFE" mask="url(#mask-3)"></path>
                    <polygon id="Fill-121" fill="#FEFEFE" mask="url(#mask-3)" points="447.5747 858.2714 447.5747 870.8104 446.3207 870.8104 446.3207 858.2714 444.3227 858.2714 444.3227 857.0954 449.5727 857.0954 449.5727 858.2714"></polygon>
                    <polygon id="Fill-122" fill="#FEFEFE" mask="url(#mask-3)" points="450.8657 870.8105 450.8657 857.0955 455.2347 857.0955 455.2347 858.3105 452.1197 858.3105 452.1197 862.8755 454.2937 862.8755 454.2937 864.0905 452.1197 864.0905 452.1197 869.5955 455.4297 869.5955 455.4297 870.8105"></polygon>
                    <path d="M458.7993,858.3105 L458.1333,858.3105 L458.1333,863.2085 L458.7993,863.2085 C459.9343,863.2085 460.6213,862.3075 460.6213,860.7205 C460.6213,859.1535 459.9343,858.3105 458.7993,858.3105 L458.7993,858.3105 Z M460.7383,870.8105 L459.2293,864.3445 C458.9363,864.3845 458.5633,864.3845 458.1333,864.3845 L458.1333,870.8105 L456.8793,870.8105 L456.8793,857.0955 L458.8383,857.0955 C460.5613,857.0955 461.8953,858.2325 461.8953,860.6235 C461.8953,862.2295 461.3073,863.2875 460.4633,863.8745 L462.0713,870.8105 L460.7383,870.8105 Z" id="Fill-123" fill="#FEFEFE" mask="url(#mask-3)"></path>
                    <path d="M467.9868,870.8105 L465.8888,864.4235 C465.4008,862.9345 464.9108,861.3675 464.6738,860.2105 C464.6938,861.0535 464.7138,862.4445 464.7138,863.7775 L464.7138,870.8105 L463.5398,870.8105 L463.5398,857.0955 L464.7738,857.0955 L466.6338,862.8165 C467.1238,864.3055 467.6138,865.8735 467.8478,867.0295 C467.8288,866.1865 467.8088,864.7955 467.8088,863.4635 L467.8088,857.0955 L468.9848,857.0955 L468.9848,870.8105 L467.9868,870.8105 Z" id="Fill-124" fill="#FEFEFE" mask="url(#mask-3)"></path>
                    <polygon id="Fill-125" fill="#FEFEFE" mask="url(#mask-3)" points="471.081 870.811 472.335 870.811 472.335 857.096 471.081 857.096"></polygon>
                    <polygon id="Fill-126" fill="#FEFEFE" mask="url(#mask-3)" points="476.977 858.2714 476.977 870.8104 475.723 870.8104 475.723 858.2714 473.725 858.2714 473.725 857.0954 478.975 857.0954 478.975 858.2714"></polygon>
                    <path d="M483.0493,864.874 L483.0493,870.811 L481.7953,870.811 L481.7953,864.913 L479.4833,857.096 L480.7953,857.096 L481.7173,860.524 C482.0293,861.7 482.3053,862.777 482.4423,863.581 C482.5783,862.777 482.8543,861.661 483.1663,860.524 L484.0883,857.096 L485.3623,857.096 L483.0493,864.874 Z" id="Fill-127" fill="#FEFEFE" mask="url(#mask-3)"></path>
                    <path d="M229.4087,930.7216 L227.7857,930.7216 L226.6947,922.8296 C226.4707,921.0106 226.0787,917.9046 226.0227,915.7496 C225.9667,917.9046 225.5747,920.9836 225.3507,922.8296 L224.2597,930.7216 L222.6927,930.7216 L220.3417,911.1326 L222.0487,911.1326 L223.1957,921.8786 C223.3637,923.2496 223.4757,924.8446 223.5597,926.0756 C223.6717,924.8446 223.8117,923.2216 223.9797,921.8226 L225.3507,911.1326 L226.7497,911.1326 L228.1207,921.8226 C228.2887,923.2216 228.4297,924.8446 228.5407,926.0756 C228.6247,924.8446 228.7367,923.2496 228.9047,921.8786 L230.0527,911.1326 L231.7597,911.1326 L229.4087,930.7216 Z" id="Fill-128" fill="#FEFEFE" mask="url(#mask-3)"></path>
                    <path d="M242.7568,930.7216 L241.1338,930.7216 L240.0418,922.8296 C239.8178,921.0106 239.4268,917.9046 239.3708,915.7496 C239.3148,917.9046 238.9228,920.9836 238.6988,922.8296 L237.6078,930.7216 L236.0408,930.7216 L233.6898,911.1326 L235.3968,911.1326 L236.5438,921.8786 C236.7118,923.2496 236.8238,924.8446 236.9078,926.0756 C237.0198,924.8446 237.1598,923.2216 237.3278,921.8226 L238.6988,911.1326 L240.0978,911.1326 L241.4688,921.8226 C241.6368,923.2216 241.7768,924.8446 241.8888,926.0756 C241.9728,924.8446 242.0848,923.2496 242.2528,921.8786 L243.4008,911.1326 L245.1078,911.1326 L242.7568,930.7216 Z" id="Fill-129" fill="#FEFEFE" mask="url(#mask-3)"></path>
                    <path d="M256.1054,930.7216 L254.4824,930.7216 L253.3904,922.8296 C253.1674,921.0106 252.7754,917.9046 252.7194,915.7496 C252.6634,917.9046 252.2714,920.9836 252.0474,922.8296 L250.9564,930.7216 L249.3894,930.7216 L247.0384,911.1326 L248.7454,911.1326 L249.8924,921.8786 C250.0604,923.2496 250.1724,924.8446 250.2564,926.0756 C250.3684,924.8446 250.5084,923.2216 250.6764,921.8226 L252.0474,911.1326 L253.4464,911.1326 L254.8174,921.8226 C254.9854,923.2216 255.1254,924.8446 255.2374,926.0756 C255.3214,924.8446 255.4334,923.2496 255.6014,921.8786 L256.7494,911.1326 L258.4564,911.1326 L256.1054,930.7216 Z" id="Fill-130" fill="#FEFEFE" mask="url(#mask-3)"></path>
                    <path d="M261.1391,931.0293 C260.4401,931.0293 259.9361,930.4983 259.9361,929.7973 C259.9361,929.0703 260.4401,928.5393 261.1391,928.5393 C261.8951,928.5393 262.3431,929.0703 262.3431,929.7973 C262.3431,930.4983 261.8951,931.0293 261.1391,931.0293" id="Fill-131" fill="#FEFEFE" mask="url(#mask-3)"></path>
                    <path d="M268.5273,931.0293 C266.2883,931.0293 265.1973,929.3503 264.8053,926.4123 L266.6243,925.9923 C267.0443,928.5663 267.6883,929.2953 268.5553,929.2953 C269.7023,929.2953 270.3463,928.3423 270.3463,926.9713 C270.3463,925.1523 269.5353,923.1663 267.6883,921.1233 C265.5893,918.7723 265.0013,917.2893 265.0013,914.8543 C265.0013,912.6433 266.2333,910.8243 268.3873,910.8243 C270.6543,910.8243 271.5223,912.3643 272.0813,914.6863 L270.2623,915.2173 C269.7313,913.2033 269.2833,912.5593 268.3313,912.5593 C267.3243,912.5593 266.8203,913.6783 266.8203,914.6863 C266.8203,916.2543 267.2123,917.4853 269.0593,919.5553 C271.1863,921.9063 272.1653,924.1173 272.1653,926.7193 C272.1653,929.2953 270.7663,931.0293 268.5273,931.0293" id="Fill-132" fill="#FEFEFE" mask="url(#mask-3)"></path>
                    <polygon id="Fill-133" fill="#FEFEFE" mask="url(#mask-3)" points="277.4262 912.8671 277.4262 919.5281 280.7282 919.5281 280.7282 921.2631 277.4262 921.2631 277.4262 930.7221 275.6352 930.7221 275.6352 911.1331 282.0432 911.1331 282.0432 912.8671"></polygon>
                    <path d="M288.1176,931.0293 C285.8786,931.0293 284.7876,929.3503 284.3956,926.4123 L286.2146,925.9923 C286.6346,928.5663 287.2786,929.2953 288.1456,929.2953 C289.2926,929.2953 289.9366,928.3423 289.9366,926.9713 C289.9366,925.1523 289.1246,923.1663 287.2786,921.1233 C285.1796,918.7723 284.5916,917.2893 284.5916,914.8543 C284.5916,912.6433 285.8236,910.8243 287.9776,910.8243 C290.2446,910.8243 291.1126,912.3643 291.6716,914.6863 L289.8526,915.2173 C289.3216,913.2033 288.8736,912.5593 287.9216,912.5593 C286.9146,912.5593 286.4106,913.6783 286.4106,914.6863 C286.4106,916.2543 286.8026,917.4853 288.6496,919.5553 C290.7766,921.9063 291.7556,924.1173 291.7556,926.7193 C291.7556,929.2953 290.3566,931.0293 288.1176,931.0293" id="Fill-134" fill="#FEFEFE" mask="url(#mask-3)"></path>
                    <path d="M299.0595,931.0293 C296.7085,931.0293 295.1975,929.1543 295.1975,926.1603 L295.1975,911.1333 L296.9885,911.1333 L296.9885,926.1043 C296.9885,928.0913 297.8005,929.2953 299.0875,929.2953 C300.3745,929.2953 301.1865,928.0913 301.1865,926.1043 L301.1865,911.1333 L302.9775,911.1333 L302.9775,926.1603 C302.9775,929.1543 301.4105,931.0293 299.0595,931.0293" id="Fill-135" fill="#FEFEFE" mask="url(#mask-3)"></path>
                    <path d="M310.7837,919.8916 C310.4767,917.7086 310.2247,915.9736 310.0567,914.0716 C309.8887,915.9736 309.6367,917.7086 309.3287,919.8916 L308.7417,923.8656 L311.3717,923.8656 L310.7837,919.8916 Z M312.4067,930.7216 L311.6237,925.5726 L308.4897,925.5726 L307.7057,930.7216 L305.8307,930.7216 L309.1057,911.1326 L311.0647,911.1326 L314.3387,930.7216 L312.4067,930.7216 Z" id="Fill-136" fill="#FEFEFE" mask="url(#mask-3)"></path>
                    <path d="M323.0141,930.7216 L320.1311,920.6476 L319.2911,922.5226 L319.2911,930.7216 L317.5001,930.7216 L317.5001,911.1326 L319.2911,911.1326 L319.2911,916.3376 C319.2911,917.6246 319.2641,918.5486 319.2641,919.6396 C319.6551,918.5486 320.2151,917.2046 320.7741,915.9466 L322.9011,911.1326 L324.8601,911.1326 L321.3621,918.4646 L324.9161,930.7216 L323.0141,930.7216 Z" id="Fill-137" fill="#FEFEFE" mask="url(#mask-3)"></path>
                    <path d="M330.6528,912.8671 L329.7018,912.8671 L329.7018,920.0881 L330.6528,920.0881 C332.2758,920.0881 333.2558,918.8001 333.2558,916.4221 C333.2558,914.0711 332.2758,912.8671 330.6528,912.8671 M330.5688,921.8221 L329.7018,921.8221 L329.7018,930.7221 L327.9108,930.7221 L327.9108,911.1331 L330.7098,911.1331 C333.1728,911.1331 335.0748,912.6991 335.0748,916.3091 C335.0748,920.1991 332.8908,921.8221 330.5688,921.8221" id="Fill-138" fill="#FEFEFE" mask="url(#mask-3)"></path>
                    <path d="M341.2309,931.0293 C338.9929,931.0293 337.9009,929.3503 337.5079,926.4123 L339.3289,925.9923 C339.7489,928.5663 340.3909,929.2953 341.2579,929.2953 C342.4069,929.2953 343.0489,928.3423 343.0489,926.9713 C343.0489,925.1523 342.2389,923.1663 340.3909,921.1233 C338.2929,918.7723 337.7059,917.2893 337.7059,914.8543 C337.7059,912.6433 338.9359,910.8243 341.0899,910.8243 C343.3579,910.8243 344.2249,912.3643 344.7859,914.6863 L342.9649,915.2173 C342.4339,913.2033 341.9869,912.5593 341.0359,912.5593 C340.0279,912.5593 339.5239,913.6783 339.5239,914.6863 C339.5239,916.2543 339.9169,917.4853 341.7619,919.5553 C343.8889,921.9063 344.8699,924.1173 344.8699,926.7193 C344.8699,929.2953 343.4689,931.0293 341.2309,931.0293" id="Fill-139" fill="#FEFEFE" mask="url(#mask-3)"></path>
                    <polygon id="Fill-140" fill="#FEFEFE" mask="url(#mask-3)" points="348.479 930.722 350.27 930.722 350.27 911.133 348.479 911.133"></polygon>
                    <path d="M354.8579,931.0293 C354.1589,931.0293 353.6549,930.4983 353.6549,929.7973 C353.6549,929.0703 354.1589,928.5393 354.8579,928.5393 C355.6139,928.5393 356.0609,929.0703 356.0609,929.7973 C356.0609,930.4983 355.6139,931.0293 354.8579,931.0293" id="Fill-141" fill="#FEFEFE" mask="url(#mask-3)"></path>
                    <path d="M362.3032,931.0293 C359.4222,931.0293 358.4712,927.5313 358.4712,920.9263 C358.4712,914.4343 359.5062,910.8243 362.3602,910.8243 C364.5982,910.8243 365.5512,912.6723 366.0822,915.6663 L364.3192,916.1413 C363.7602,913.2873 363.2272,912.5593 362.3322,912.5593 C360.9322,912.5593 360.3172,915.2463 360.3172,920.9263 C360.3172,926.8323 360.9612,929.2953 362.4442,929.2953 C363.4792,929.2953 363.9552,928.3153 364.4302,925.8523 L366.1372,926.3563 C365.6352,929.1543 364.6822,931.0293 362.3032,931.0293" id="Fill-142" fill="#FEFEFE" mask="url(#mask-3)"></path>
                    <path d="M372.768,912.5595 C371.313,912.5595 370.584,915.1065 370.584,920.9265 C370.584,926.7485 371.368,929.2945 372.823,929.2945 C374.278,929.2945 375.006,926.7485 375.006,920.9265 C375.006,915.1065 374.223,912.5595 372.768,912.5595 M372.795,931.0295 C369.829,931.0295 368.739,927.5315 368.739,920.9265 C368.739,914.3225 369.829,910.8245 372.795,910.8245 C375.762,910.8245 376.854,914.3225 376.854,920.9265 C376.854,927.5315 375.762,931.0295 372.795,931.0295" id="Fill-143" fill="#FEFEFE" mask="url(#mask-3)"></path>
                    <path d="M388.27,930.7216 L388.27,920.1436 C388.27,918.5486 388.297,917.2606 388.297,915.9176 C388.102,917.3176 387.907,918.4086 387.542,920.1716 L385.135,931.3096 L382.729,920.1716 C382.366,918.4086 382.198,917.3726 381.973,915.9176 C381.973,917.2606 382,918.3806 382,920.1436 L382,930.7216 L380.377,930.7216 L380.377,911.1326 L382.366,911.1326 L384.379,920.5346 C384.772,922.6336 385.051,924.0886 385.135,925.7126 C385.219,924.0886 385.528,922.6066 385.918,920.5346 L387.934,911.1326 L389.893,911.1326 L389.893,930.7216 L388.27,930.7216 Z" id="Fill-144" fill="#FEFEFE" mask="url(#mask-3)"></path>
                </g>
            </g>
        </g>
    </g>
</svg>