<?xml version="1.0" encoding="UTF-8" standalone="no"?>
<svg width="602px" height="600px" viewBox="0 0 602 600" version="1.1" xmlns="http://www.w3.org/2000/svg" xmlns:xlink="http://www.w3.org/1999/xlink" xmlns:sketch="http://www.bohemiancoding.com/sketch/ns">
    <!-- Generator: Sketch 3.5.1 (25234) - http://www.bohemiancoding.com/sketch -->
    <title>graph2</title>
    <desc>Created with Sketch.</desc>
    <defs>
        <filter x="-50%" y="-50%" width="200%" height="200%" filterUnits="objectBoundingBox" id="filter-1">
            <feOffset dx="4" dy="6" in="SourceAlpha" result="shadowOffsetOuter1"></feOffset>
            <feGaussianBlur stdDeviation="3.5" in="shadowOffsetOuter1" result="shadowBlurOuter1"></feGaussianBlur>
            <feColorMatrix values="0 0 0 0 0   0 0 0 0 0   0 0 0 0 0  0 0 0 0.35 0" in="shadowBlurOuter1" type="matrix" result="shadowMatrixOuter1"></feColorMatrix>
            <feMerge>
                <feMergeNode in="shadowMatrixOuter1"></feMergeNode>
                <feMergeNode in="SourceGraphic"></feMergeNode>
            </feMerge>
        </filter>
    </defs>
    <g id="Page-1" stroke="none" stroke-width="1" fill="none" fill-rule="evenodd" sketch:type="MSPage">
        <g id="graph2" sketch:type="MSArtboardGroup">
            <path d="M57.1473977,469.720102 C23.046023,421.655848 3,362.918924 3,299.5 C3,136.852141 134.852141,5 297.5,5 C297.666699,5 297.833366,5.0001385 298,5.0004154 L298,190 C237.248678,190 188,239.248678 188,300 C188,322.636401 194.837508,343.675817 206.559867,361.165589 L57.1473977,469.720102 Z" id="Oval-1" fill-opacity="0.25" fill="#98CB4A" sketch:type="MSShapeGroup"></path>
            <g id="Group" sketch:type="MSLayerGroup" transform="translate(299.000000, 299.500000) scale(-1, -1) rotate(-180.000000) translate(-299.000000, -299.500000) translate(4.000000, 5.000000)" fill-opacity="0.25" fill="#2783CB">
                <path d="M294.037581,185.004123 L294.037581,0.000385596676 C294.204215,0.000138502226 294.370882,-7.38914956e-13 294.537581,-7.38884334e-13 C457.18544,-7.09006407e-13 589.037581,131.852141 589.037581,294.5 C589.037581,457.147859 457.18544,589 294.537581,589 C175.902603,589 73.6515946,518.851887 27,417.771104 L194.455243,339.685442 C211.584211,378.168877 250.158733,405 295,405 C355.751322,405 405,355.751322 405,295 C405,234.248678 355.751322,185 295,185 C294.67887,185 294.358062,185.001376 294.037581,185.004123 Z" id="Oval-1" sketch:type="MSShapeGroup"></path>
            </g>
            <text id="3%" sketch:type="MSTextLayer" font-family="Roboto" font-size="72" font-weight="normal" sketch:alignment="middle" fill="#000000">
                <tspan x="253.417969" y="326">3%</tspan>
            </text>
            <path d="M57.2671702,515.88055 C36.2640628,491.639545 18.6028072,464.424031 5,434.950603 L200.044197,344 C204.530112,354.078447 210.278849,363.470747 217.089442,371.97593 L57.2671702,515.88055 Z" id="Oval-1" fill="#2783CB" filter="url(#filter-1)" sketch:type="MSShapeGroup"></path>
        </g>
    </g>
</svg>