<?xml version="1.0" encoding="UTF-8" standalone="no"?>
<svg width="67px" height="67px" viewBox="0 0 67 67" version="1.1" xmlns="http://www.w3.org/2000/svg" xmlns:xlink="http://www.w3.org/1999/xlink">
    <!-- Generator: Sketch 3.6.1 (26313) - http://www.bohemiancoding.com/sketch -->
    <title>Group</title>
    <desc>Created with Sketch.</desc>
    <defs></defs>
    <g id="Page-1" stroke="none" stroke-width="1" fill="none" fill-rule="evenodd">
        <g id="Group" transform="translate(1.000000, 1.000000)">
            <circle id="Oval-1" stroke="#2783CB" stroke-width="2" fill="#FFFFFF" cx="32.5" cy="32.5" r="32.5"></circle>
            <g id="TabBarFeedBlue" transform="translate(19.678899, 20.275229)" fill="#2783CB">
                <g id="Feed">
                    <path d="M23.7068103,3.38914373 L21.6340837,1.19266055 L19.4318117,3.38914373 L17.2295397,1.19266055 L15.0272677,3.38914373 L12.9545411,1.19266055 L10.7522691,3.38914373 L8.67954256,1.19266055 L6.47727056,3.38914373 L4.27499857,1.19266055 L2.20227199,3.38914373 L0,1.19266055 L0,21.8654434 C0,23.2866972 1.1659087,24.4495413 2.59090823,24.4495413 L23.318174,24.4495413 C24.7431736,24.4495413 25.9090823,23.2866972 25.9090823,21.8654434 L25.9090823,1.19266055 L23.7068103,3.38914373 L23.7068103,3.38914373 Z M12.9545411,21.8654434 L2.59090823,21.8654434 L2.59090823,12.8211009 L12.9545411,12.8211009 L12.9545411,21.8654434 L12.9545411,21.8654434 Z M23.318174,21.8654434 L14.2499952,21.8654434 L14.2499952,20.5733945 L23.318174,20.5733945 L23.318174,21.8654434 L23.318174,21.8654434 Z M23.318174,19.2813456 L14.2499952,19.2813456 L14.2499952,17.9892966 L23.318174,17.9892966 L23.318174,19.2813456 L23.318174,19.2813456 Z M23.318174,16.6972477 L14.2499952,16.6972477 L14.2499952,15.4051988 L23.318174,15.4051988 L23.318174,16.6972477 L23.318174,16.6972477 Z M23.318174,14.1131498 L14.2499952,14.1131498 L14.2499952,12.8211009 L23.318174,12.8211009 L23.318174,14.1131498 L23.318174,14.1131498 Z M23.318174,11.529052 L2.59090823,11.529052 L2.59090823,7.6529052 L23.318174,7.6529052 L23.318174,11.529052 L23.318174,11.529052 Z" id="Shape"></path>
                    <rect id="Rectangle-127" x="0" y="0" width="25.9090823" height="3.67572601"></rect>
                    <path d="M6.92410255,20.4445757 C4.90086666,18.623793 3.57798165,17.3967439 3.57798165,15.8926191 C3.57798165,14.6655699 4.51178283,13.7155963 5.71794269,13.7155963 C6.37938519,13.7155963 7.0408277,14.0322542 7.4688199,14.5468232 C7.89681211,14.0322542 8.55825462,13.7155963 9.21969712,13.7155963 C10.425857,13.7155963 11.3596582,14.6655699 11.3596582,15.8926191 C11.3596582,17.3967439 10.0367732,18.623793 8.01353726,20.4445757 L7.4688199,20.9987269 L6.92410255,20.4445757 Z" id="Shape"></path>
                </g>
            </g>
        </g>
    </g>
</svg>