<?xml version="1.0" encoding="UTF-8" standalone="no"?>
<svg width="67px" height="67px" viewBox="0 0 67 67" version="1.1" xmlns="http://www.w3.org/2000/svg" xmlns:xlink="http://www.w3.org/1999/xlink">
    <!-- Generator: Sketch 3.6.1 (26313) - http://www.bohemiancoding.com/sketch -->
    <title>Group 2</title>
    <desc>Created with Sketch.</desc>
    <defs></defs>
    <g id="Page-1" stroke="none" stroke-width="1" fill="none" fill-rule="evenodd">
        <g id="Group-2" transform="translate(1.000000, 1.000000)">
            <circle id="Oval-1-Copy-2" stroke="#2783CB" stroke-width="2" fill="#FFFFFF" cx="32.5" cy="32.5" r="32.5"></circle>
            <g id="settings" transform="translate(20.275229, 20.871560)" fill="#2783CB">
                <path d="M20.7522936,13.1192661 C20.7522936,12.7614679 20.8715596,12.4036697 20.8715596,11.9266055 C20.8715596,11.4495413 20.8715596,11.0917431 20.7522936,10.733945 L23.2568807,8.70642202 C23.4954128,8.46788991 23.4954128,8.2293578 23.3761468,7.99082569 L20.9908257,3.81651376 C20.8715596,3.69724771 20.6330275,3.57798165 20.2752294,3.69724771 L17.293578,4.88990826 C16.6972477,4.41284404 15.9816514,4.05504587 15.266055,3.69724771 L14.7889908,0.596330275 C14.9082569,0.23853211 14.5504587,0 14.3119266,0 L9.5412844,0 C9.30275229,0 8.94495413,0.23853211 8.94495413,0.47706422 L8.46788991,3.69724771 C7.75229358,3.93577982 7.1559633,4.41284404 6.44036697,4.88990826 L3.57798165,3.69724771 C3.22018349,3.57798165 2.98165138,3.69724771 2.74311927,3.93577982 L0.357798165,8.11009174 C0.23853211,8.2293578 0.357798165,8.58715596 0.596330275,8.82568807 L3.10091743,10.733945 C3.10091743,11.0917431 2.98165138,11.4495413 2.98165138,11.9266055 C2.98165138,12.4036697 2.98165138,12.7614679 3.10091743,13.1192661 L0.596330275,15.146789 C0.357798165,15.3853211 0.357798165,15.6238532 0.47706422,15.8623853 L2.86238532,20.0366972 C2.98165138,20.1559633 3.22018349,20.2752294 3.57798165,20.1559633 L6.55963303,18.9633028 C7.1559633,19.440367 7.87155963,19.7981651 8.58715596,20.1559633 L9.06422018,23.2568807 C9.06422018,23.4954128 9.30275229,23.733945 9.66055046,23.733945 L14.4311927,23.733945 C14.6697248,23.733945 15.0275229,23.4954128 15.0275229,23.2568807 L15.5045872,20.1559633 C16.2201835,19.7981651 16.9357798,19.440367 17.5321101,18.9633028 L20.5137615,20.1559633 C20.7522936,20.2752294 21.1100917,20.1559633 21.2293578,19.9174312 L23.6146789,15.7431193 C23.733945,15.5045872 23.733945,15.146789 23.4954128,15.0275229 L20.7522936,13.1192661 L20.7522936,13.1192661 Z M11.9266055,16.1009174 C9.66055046,16.1009174 7.75229358,14.1926606 7.75229358,11.9266055 C7.75229358,9.66055046 9.66055046,7.75229358 11.9266055,7.75229358 C14.1926606,7.75229358 16.1009174,9.66055046 16.1009174,11.9266055 C16.1009174,14.1926606 14.1926606,16.1009174 11.9266055,16.1009174 L11.9266055,16.1009174 Z" id="Shape"></path>
            </g>
        </g>
    </g>
</svg>