<?xml version="1.0" encoding="UTF-8" standalone="no"?>
<svg width="67px" height="67px" viewBox="0 0 67 67" version="1.1" xmlns="http://www.w3.org/2000/svg" xmlns:xlink="http://www.w3.org/1999/xlink">
    <!-- Generator: Sketch 3.6.1 (26313) - http://www.bohemiancoding.com/sketch -->
    <title>Group 3</title>
    <desc>Created with Sketch.</desc>
    <defs></defs>
    <g id="Page-1" stroke="none" stroke-width="1" fill="none" fill-rule="evenodd">
        <g id="Group-3" transform="translate(1.000000, 1.000000)">
            <path d="M32.5,65 C50.4492544,65 65,50.4492544 65,32.5 C65,14.5507456 50.4492544,0 32.5,0 C14.5507456,0 0,14.5507456 0,32.5 C0,50.4492544 14.5507456,65 32.5,65 Z" id="Oval-1-Copy" stroke="#2783CB" stroke-width="2" fill="#FFFFFF"></path>
            <path d="M42.2857798,42.4388379 C36.5490826,37.4097859 32.7981651,34.0206422 32.7981651,29.866208 C32.7981651,26.4770642 35.4458716,23.853211 38.8658257,23.853211 C40.7412844,23.853211 42.6167431,24.7278287 43.8302752,26.1490826 C45.0438073,24.7278287 46.9192661,23.853211 48.7947248,23.853211 C52.2146789,23.853211 54.8623853,26.4770642 54.8623853,29.866208 C54.8623853,34.0206422 51.1114679,37.4097859 45.3747706,42.4388379 L43.8302752,43.969419 L42.2857798,42.4388379 Z" id="HeartWhite" fill="#2783CB"></path>
            <path d="M23.1716907,22.0259388 L18.4862385,17.3878144 L13.8007864,22.0259388 L15.112713,23.3246136 L17.5491481,20.9127889 L17.5491481,35.8581516 L19.423329,35.8581516 L19.423329,20.9127889 L21.8597641,23.3246136 L23.1716907,22.0259388 Z M26.9200524,28.6049221 C26.9200524,27.5845347 26.076671,26.7496723 25.0458716,26.7496723 L21.2975098,26.7496723 L21.2975098,28.6049221 L25.0458716,28.6049221 L25.0458716,41.5916703 L11.9266055,41.5916703 L11.9266055,28.6049221 L15.6749672,28.6049221 L15.6749672,26.7496723 L11.9266055,26.7496723 C10.895806,26.7496723 10.0524246,27.5845347 10.0524246,28.6049221 L10.0524246,41.5916703 C10.0524246,42.6120577 10.895806,43.4469201 11.9266055,43.4469201 L25.0458716,43.4469201 C26.076671,43.4469201 26.9200524,42.6120577 26.9200524,41.5916703 L26.9200524,28.6049221 Z" id="Share" fill="#2783CB"></path>
        </g>
    </g>
</svg>