<?xml version="1.0" encoding="UTF-8" standalone="no"?>
<svg width="602px" height="600px" viewBox="0 0 602 600" version="1.1" xmlns="http://www.w3.org/2000/svg" xmlns:xlink="http://www.w3.org/1999/xlink" xmlns:sketch="http://www.bohemiancoding.com/sketch/ns">
    <!-- Generator: Sketch 3.5.1 (25234) - http://www.bohemiancoding.com/sketch -->
    <title>graph1</title>
    <desc>Created with Sketch.</desc>
    <defs>
        <filter x="-50%" y="-50%" width="200%" height="200%" filterUnits="objectBoundingBox" id="filter-1">
            <feMorphology radius="7" in="SourceAlpha" operator="dilate" result="shadowSpreadOuter1"></feMorphology>
            <feOffset dx="1" dy="-6" in="shadowSpreadOuter1" result="shadowOffsetOuter1"></feOffset>
            <feGaussianBlur stdDeviation="5" in="shadowOffsetOuter1" result="shadowBlurOuter1"></feGaussianBlur>
            <feColorMatrix values="0 0 0 0 0   0 0 0 0 0   0 0 0 0 0  0 0 0 0.21 0" in="shadowBlurOuter1" type="matrix" result="shadowMatrixOuter1"></feColorMatrix>
            <feMerge>
                <feMergeNode in="shadowMatrixOuter1"></feMergeNode>
                <feMergeNode in="SourceGraphic"></feMergeNode>
            </feMerge>
        </filter>
        <path d="M221.923226,144.713433 C192.922387,177.071828 157.429302,203.491242 117.492418,221.923226 L15.9759361,4.22042797 C26.5463636,-0.482243968 35.9064306,-7.41321042 43.4596016,-15.9759361 L221.923226,144.713433 Z" id="path-2"></path>
    </defs>
    <g id="Page-1" stroke="none" stroke-width="1" fill="none" fill-rule="evenodd" sketch:type="MSPage">
        <g id="graph1" sketch:type="MSArtboardGroup">
            <g id="Group" sketch:type="MSLayerGroup" transform="translate(297.500000, 299.500000) scale(-1, -1) rotate(-180.000000) translate(-297.500000, -299.500000) translate(-83.000000, -81.000000)">
                <circle id="Oval-1" fill="#98CB4A" sketch:type="MSShapeGroup" transform="translate(381.500000, 380.500000) rotate(-270.000000) translate(-381.500000, -380.500000) " cx="381.5" cy="380.5" r="294.5"></circle>
                <path d="M518.289895,661.518791 C619.370677,614.867196 689.518791,512.616188 689.518791,393.981209 C689.518791,231.333351 557.666649,99.4812094 395.018791,99.4812094 C232.370932,99.4812094 100.518791,231.333351 100.518791,393.981209 C100.518791,394.147908 100.518929,394.314575 100.519206,394.481209 L321.520337,394.481209 C321.519346,394.314674 321.518791,394.148006 321.518791,393.981209 C321.518791,353.38828 354.425861,320.481209 395.018791,320.481209 C435.61172,320.481209 468.518791,353.38828 468.518791,393.981209 C468.518791,423.947881 450.585274,449.725956 424.865068,461.168604 L518.289895,661.518791 Z" id="Oval-1" fill="#2783CB" sketch:type="MSShapeGroup" transform="translate(395.018791, 380.500000) rotate(-270.000000) translate(-395.018791, -380.500000) "></path>
                <path d="M318.894004,543.91306 C291.857178,574.08006 258.767777,598.710283 221.535524,615.894004 L126.894004,412.93461 C136.748574,408.550415 145.474753,402.088832 152.516404,394.105996 L318.894004,543.91306 Z" id="Shadow" fill="#0065E7" filter="url(#filter-1)" sketch:type="MSShapeGroup" transform="translate(222.894004, 505.000000) rotate(-270.000000) translate(-222.894004, -505.000000) "></path>
                <path d="M89.4422078,380.5 C89.4422078,541.24678 219.75322,671.557792 380.5,671.557792 C541.24678,671.557792 671.557792,541.24678 671.557792,380.5 C671.557792,219.75322 541.24678,89.4422078 380.5,89.4422078 C219.75322,89.4422078 89.4422078,219.75322 89.4422078,380.5 Z M-1.56319402e-13,380.5 C-1.56319402e-13,590.644347 170.355653,761 380.5,761 C590.644347,761 761,590.644347 761,380.5 C761,170.355653 590.644347,-3.72354339e-13 380.5,-4.10957229e-13 C170.355653,-4.4956012e-13 -4.26325641e-14,170.355653 -1.56319402e-13,380.5 Z" id="Outline" fill="#FAFAFA" sketch:type="MSShapeGroup"></path>
                <path d="M332.923226,532.713433 C303.922387,565.071828 268.429302,591.491242 228.492418,609.923226 L126.975936,392.220428 C137.546364,387.517756 146.906431,380.58679 154.459602,372.024064 L332.923226,532.713433 Z" id="Oval-1" fill="#98CB4A" sketch:type="MSShapeGroup" transform="translate(229.949581, 490.973645) rotate(-270.000000) translate(-229.949581, -490.973645) "></path>
                <path d="M332.923226,502.713433 C303.922387,535.071828 268.429302,561.491242 228.492418,579.923226 L126.975936,362.220428 C137.546364,357.517756 146.906431,350.58679 154.459602,342.024064 L332.923226,502.713433 Z" id="Oval-1" fill="#98CB4A" sketch:type="MSShapeGroup" transform="translate(229.949581, 460.973645) rotate(-270.000000) translate(-229.949581, -460.973645) "></path>
                <path d="M318.923226,552.713433 C289.922387,585.071828 254.429302,611.491242 214.492418,629.923226 L112.975936,412.220428 C123.546364,407.517756 132.906431,400.58679 140.459602,392.024064 L318.923226,552.713433 Z" id="Oval-1" fill="#2783CB" sketch:type="MSShapeGroup" transform="translate(215.949581, 510.973645) rotate(-270.000000) translate(-215.949581, -510.973645) "></path>
                <g id="Rectangle-40-+-Rectangle-40-+-Rectangle-40-+-Rectangle-40-+-Rectangle-40-+-Rectangle-40-+-Rectangle-40-+-Rectangle-40-+-Rectangle-40-+-Rectangle-40-Mask" transform="translate(97.000000, 408.000000)">
                    <mask id="mask-3" sketch:name="Mask" fill="white">
                        <use xlink:href="#path-2"></use>
                    </mask>
                    <use id="Mask" fill="#2783CB" sketch:type="MSShapeGroup" transform="translate(118.949581, 102.973645) rotate(-270.000000) translate(-118.949581, -102.973645) " xlink:href="#path-2"></use>
                    <rect id="Rectangle-40" fill="#5695C7" sketch:type="MSShapeGroup" mask="url(#mask-3)" x="-8.52651283e-14" y="-160" width="15" height="483">
                        <g transform="translate(7.500000, 81.500000) rotate(192.000000) translate(-7.500000, -81.500000) "></g>
                    </rect>
                    <rect id="Rectangle-40" fill="#5695C7" sketch:type="MSShapeGroup" mask="url(#mask-3)" x="-8.52651283e-14" y="-160" width="15" height="483">
                        <g transform="translate(7.500000, 81.500000) rotate(192.000000) translate(-7.500000, -81.500000) "></g>
                    </rect>
                    <rect id="Rectangle-40" fill="#5695C7" sketch:type="MSShapeGroup" mask="url(#mask-3)" x="30" y="-160" width="15" height="483">
                        <g transform="translate(37.500000, 81.500000) rotate(192.000000) translate(-37.500000, -81.500000) "></g>
                    </rect>
                    <rect id="Rectangle-40" fill="#5695C7" sketch:type="MSShapeGroup" mask="url(#mask-3)" x="60" y="-160" width="15" height="483">
                        <g transform="translate(67.500000, 81.500000) rotate(192.000000) translate(-67.500000, -81.500000) "></g>
                    </rect>
                    <rect id="Rectangle-40" fill="#5695C7" sketch:type="MSShapeGroup" mask="url(#mask-3)" x="90" y="-160" width="15" height="483">
                        <g transform="translate(97.500000, 81.500000) rotate(192.000000) translate(-97.500000, -81.500000) "></g>
                    </rect>
                    <rect id="Rectangle-40" fill="#5695C7" sketch:type="MSShapeGroup" mask="url(#mask-3)" x="120" y="-160" width="15" height="483">
                        <g transform="translate(127.500000, 81.500000) rotate(192.000000) translate(-127.500000, -81.500000) "></g>
                    </rect>
                    <rect id="Rectangle-40" fill="#5695C7" sketch:type="MSShapeGroup" mask="url(#mask-3)" x="150" y="-160" width="15" height="483">
                        <g transform="translate(157.500000, 81.500000) rotate(192.000000) translate(-157.500000, -81.500000) "></g>
                    </rect>
                    <rect id="Rectangle-40" fill="#5695C7" sketch:type="MSShapeGroup" mask="url(#mask-3)" x="150" y="-160" width="15" height="483">
                        <g transform="translate(157.500000, 81.500000) rotate(192.000000) translate(-157.500000, -81.500000) "></g>
                    </rect>
                    <rect id="Rectangle-40" fill="#5695C7" sketch:type="MSShapeGroup" mask="url(#mask-3)" x="180" y="-160" width="15" height="483">
                        <g transform="translate(187.500000, 81.500000) rotate(192.000000) translate(-187.500000, -81.500000) "></g>
                    </rect>
                    <rect id="Rectangle-40" fill="#5695C7" sketch:type="MSShapeGroup" mask="url(#mask-3)" x="210" y="-160" width="15" height="483">
                        <g transform="translate(217.500000, 81.500000) rotate(192.000000) translate(-217.500000, -81.500000) "></g>
                    </rect>
                </g>
                <circle id="Oval-1" fill="#98CB4A" sketch:type="MSShapeGroup" cx="381.5" cy="380.5" r="73.5"></circle>
                <circle id="Oval-1" fill="#FAFAFA" sketch:type="MSShapeGroup" cx="382" cy="381" r="110"></circle>
            </g>
            <text id="71%" sketch:type="MSTextLayer" font-family="Roboto" font-size="64" font-weight="420" fill="#FFFFFF">
                <tspan x="440" y="325">71%</tspan>
            </text>
            <text id="29%" sketch:type="MSTextLayer" font-family="Roboto" font-size="64" font-weight="420" fill="#FFFFFF">
                <tspan x="66" y="212">29%</tspan>
            </text>
            <text id="6-users" sketch:type="MSTextLayer" font-family="Roboto" font-size="24" font-weight="260" sketch:alignment="middle" fill="#FFFFFF">
                <tspan x="73.4511719" y="444">6 users</tspan>
            </text>
        </g>
    </g>
</svg>