<?xml version="1.0" encoding="utf-8"?>
<!-- Generator: Adobe Illustrator 16.0.1, SVG Export Plug-In . SVG Version: 6.00 Build 0)  -->
<!DOCTYPE svg PUBLIC "-//W3C//DTD SVG 1.1//EN" "http://www.w3.org/Graphics/SVG/1.1/DTD/svg11.dtd">
<svg version="1.1" id="Layer_1" xmlns="http://www.w3.org/2000/svg" xmlns:xlink="http://www.w3.org/1999/xlink" x="0px" y="0px"
	 width="1155.877px" height="2343.235px" viewBox="0 0 1155.877 2343.235" enable-background="new 0 0 1155.877 2343.235"
	 xml:space="preserve">
<rect id="BKG" x="-420" y="-435.703" display="none" fill="#FF4343" width="2000" height="3200"/>
<g id="Sketch_x5F_White">
	<rect x="88.5" y="312.797" fill="none" stroke="#FFFFFF" stroke-width="7" stroke-miterlimit="10" width="961" height="1704"/>
	<circle fill="none" stroke="#FFFFFF" stroke-width="3" stroke-miterlimit="10" cx="443.25" cy="203.547" r="6.75"/>
	<path fill="#FFFFFF" d="M10,406.297c0,2.761-2.239,5-5,5l0,0c-2.761,0-5-2.239-5-5v-73c0-2.761,2.239-5,5-5l0,0
		c2.761,0,5,2.239,5,5V406.297z"/>
	<path fill="#FFFFFF" d="M5,562.297c-2.761,0-5,2.239-5,5v58v15v58c0,2.761,2.239,5,5,5s5-2.239,5-5v-58v-15v-58
		C10,564.536,7.761,562.297,5,562.297z"/>
	<path fill="#FFFFFF" d="M5,757.297c-2.761,0-5,2.239-5,5v58v15v58c0,2.761,2.239,5,5,5s5-2.239,5-5v-58v-15v-58
		C10,759.536,7.761,757.297,5,757.297z"/>
	<ellipse fill="none" stroke="#FFFFFF" stroke-width="3" stroke-miterlimit="10" cx="567.5" cy="2153.922" rx="90" ry="92.125"/>
	
		<ellipse fill="none" stroke="#FFFFFF" stroke-width="3" stroke-miterlimit="10" cx="567.25" cy="2153.465" rx="77.75" ry="78.166"/>
	<circle fill="none" stroke="#FFFFFF" stroke-width="3" stroke-miterlimit="10" cx="443.604" cy="203.548" r="17.75"/>
	<path fill="none" stroke="#FFFFFF" stroke-width="3" stroke-miterlimit="10" d="M709.75,205.297c0,4.649-5.156,8.5-11.517,8.5
		H548.517c-6.36,0-11.517-3.851-11.517-8.5l0,0c0-4.649,5.156-8.5,11.517-8.5h149.717
		C704.594,196.797,709.75,200.648,709.75,205.297L709.75,205.297z"/>
	<path fill="none" stroke="#FFFFFF" stroke-width="15" stroke-miterlimit="10" d="M972.88,28.797H794.113H221.13h-77.21
		c-31.469,0-60.575,13.695-82.717,36.878C34.636,93.484,17.5,133.987,17.5,179.383v1985.317c0,83.288,57.168,152.097,126.42,152.097
		h77.21h572.983H972.88c36.368,0,69.274-14.458,94.881-37.65c30.715-27.821,49.739-69.003,49.739-114.446V179.383
		C1117.5,96.118,1052.909,28.797,972.88,28.797z"/>
</g>
<g id="Flat">
	<path fill="#070707" stroke="#A7A9AE" stroke-width="15" stroke-miterlimit="10" d="M985.88,26.797H807.113H234.13h-77.21
		c-31.469,0-60.575,13.695-82.717,36.878C47.636,91.484,30.5,131.987,30.5,177.383v1985.317c0,83.288,57.168,152.097,126.42,152.097
		h77.21h572.983H985.88c36.368,0,69.274-14.458,94.881-37.65c30.715-27.821,49.739-69.003,49.739-114.446V177.383
		C1130.5,94.118,1065.909,26.797,985.88,26.797z"/>
	<rect x="99" y="311.297" fill="#5D5D5D" width="964" height="1704"/>
	<circle fill="#343434" cx="409.604" cy="165.548" r="17.75"/>
	<ellipse fill="#0D0A06" cx="409.604" cy="165.634" rx="12" ry="11.627"/>
	<path fill="#304F90" d="M419.604,165.688c0,5.523-4.479,10-9.999,10c-5.523,0-10.001-4.477-10.001-10c0-5.526,4.478-10,10.001-10
		C415.125,155.688,419.604,160.163,419.604,165.688z"/>
	<circle fill="#0D1016" cx="409.604" cy="165.672" r="4.5"/>
	<path fill="#434444" d="M675.75,165.797c0,4.649-5.156,8.5-11.517,8.5H514.517c-6.36,0-11.517-3.851-11.517-8.5l0,0
		c0-4.649,5.156-8.5,11.517-8.5h149.717C670.594,157.297,675.75,161.148,675.75,165.797L675.75,165.797z"/>
	
		<ellipse fill="none" stroke="#35373C" stroke-width="10" stroke-miterlimit="10" cx="580.75" cy="2153.672" rx="80.75" ry="83.375"/>
	<path fill="#DDDDDD" d="M23,406.297c0,1.657-1.343,3-3,3l0,0c-1.657,0-3-1.343-3-3v-81c0-1.657,1.343-3,3-3l0,0
		c1.657,0,3,1.343,3,3V406.297z"/>
	<path fill="#DDDDDD" d="M20,509.297c-1.657,0-3,1.343-3,3v79v2v79c0,1.657,1.343,3,3,3s3-1.343,3-3v-79v-2v-79
		C23,510.641,21.657,509.297,20,509.297z"/>
	<path fill="#DDDDDD" d="M20,712.297c-1.657,0-3,1.343-3,3v79v2v79c0,1.657,1.343,3,3,3s3-1.343,3-3v-79v-2v-79
		C23,713.641,21.657,712.297,20,712.297z"/>
</g>
</svg>
