<?xml version="1.0" encoding="utf-8"?>
<!-- Generator: Adobe Illustrator 16.0.1, SVG Export Plug-In . SVG Version: 6.00 Build 0)  -->
<!DOCTYPE svg PUBLIC "-//W3C//DTD SVG 1.1//EN" "http://www.w3.org/Graphics/SVG/1.1/DTD/svg11.dtd">
<svg version="1.1" id="Layer_1" xmlns="http://www.w3.org/2000/svg" xmlns:xlink="http://www.w3.org/1999/xlink" x="0px" y="0px"
	 width="116.219px" height="149.019px" viewBox="0 0 116.219 149.019" enable-background="new 0 0 116.219 149.019"
	 xml:space="preserve">
<path fill="none" stroke="#000000" stroke-width="5.4" stroke-miterlimit="10" d="M59.593,143.209
	c-23.124,0-41.868-24.66-41.868-68.882c0-44.223,18.744-36.735,41.868-36.735c23.121,0,41.866-7.488,41.866,36.735
	C101.458,118.549,82.714,143.209,59.593,143.209"/>
<path fill="none" stroke="#000000" stroke-width="5.4" stroke-linecap="round" stroke-miterlimit="10" d="M7.73,11.788
	c-0.001-0.001,15.449,8.361,43.39-2.838c29.899-11.986,45.067,7.137,45.067,7.137s12.397,11.555,8.215,26.322"/>
<path fill="none" stroke="#000000" stroke-width="5.4" stroke-linecap="round" stroke-miterlimit="10" d="M7.112,11.47
	c-0.001,0.003-8.387,19.719,7.72,30.939"/>
<path fill="none" stroke="#000000" stroke-width="5.4" stroke-miterlimit="10" d="M14.832,42.409c0,0-6.973,4.354-8.219,6.346
	c-1.117,1.783,4.535,6.915,11.111,25.572"/>
<path fill="none" stroke="#000000" stroke-width="5.4" stroke-linecap="round" stroke-miterlimit="10" d="M101.447,76.127
	c0,0,7.45-21.828,10.062-29.687"/>
<path fill="none" stroke="#000000" stroke-width="5.4" stroke-linecap="round" stroke-miterlimit="10" d="M104.34,42.409
	c0,0,1.945,2.173,7.169,4.032"/>
</svg>
