<?xml version="1.0" encoding="utf-8"?>
<!-- Generator: Adobe Illustrator 16.0.1, SVG Export Plug-In . SVG Version: 6.00 Build 0)  -->
<!DOCTYPE svg PUBLIC "-//W3C//DTD SVG 1.1//EN" "http://www.w3.org/Graphics/SVG/1.1/DTD/svg11.dtd">
<svg version="1.1" id="Layer_1" xmlns="http://www.w3.org/2000/svg" xmlns:xlink="http://www.w3.org/1999/xlink" x="0px" y="0px"
	 width="255.584px" height="255.792px" viewBox="0 0 255.584 255.792" enable-background="new 0 0 255.584 255.792"
	 xml:space="preserve">
<path fill="#363636" d="M29.748,125.264L29.748,125.264c-2.229,0-4.236-0.9-5.698-2.36c-1.46-1.461-2.359-3.469-2.36-5.698
	c0-2.229,0.9-4.236,2.36-5.697c1.461-1.46,3.469-2.359,5.697-2.36h0v-2.16h0c-5.643,0.001-10.216,4.574-10.217,10.217
	c0.001,5.644,4.574,10.217,10.217,10.217h0V125.264z"/>
<rect x="-0.181" y="-0.19" transform="matrix(-1 -2.976974e-04 2.976974e-04 -1 255.5454 255.602)" fill="#FAFAFA" width="255.946" height="255.945"/>
<path fill="#F2F2F2" d="M172.719,82.607l-58.573,58.573l-33.559-33.56l15.121-15.122H47.305c0.081-0.205,0.129-0.427,0.129-0.66
	c0-0.992-0.804-1.796-1.796-1.796c-0.992,0-1.796,0.804-1.796,1.796c0,0.233,0.048,0.456,0.129,0.66h-0.098
	c-0.113,0.468-0.279,0.919-0.49,1.349l13.444,13.442H40.011l-1.31,1.311h-6.32c-0.938-0.333-1.945-0.52-2.998-0.52
	c-4.979,0-9.014,4.036-9.014,9.015c0,2.699,1.192,5.113,3.071,6.766l-0.434,0.434l54.012,54.016l-13.693,13.691l-0.02-0.02
	l-12.492,12.492l75.075,75.075l9.62-5.861l0,0h120.417V165.813L172.719,82.607z"/>
<rect x="209.357" y="110.072" transform="matrix(0.7071 -0.7071 0.7071 0.7071 -46.4531 215.5974)" fill="#F2F2F2" width="55.331" height="107.602"/>
<line fill="none" stroke="#363636" stroke-width="2.16" stroke-miterlimit="10" x1="153.056" y1="164.729" x2="191.248" y2="202.921"/>
<line fill="none" stroke="#363636" stroke-width="2.16" stroke-miterlimit="10" x1="171.324" y1="145.641" x2="209.956" y2="184.272"/>
<circle fill="none" stroke="#363636" stroke-width="2.16" stroke-miterlimit="10" cx="192.847" cy="204.52" r="2.258"/>
<circle fill="none" stroke="#363636" stroke-width="2.16" stroke-miterlimit="10" cx="211.524" cy="185.839" r="2.259"/>
<line fill="none" stroke="#363636" stroke-width="2.16" stroke-miterlimit="10" x1="29.748" y1="108.082" x2="80.285" y2="108.082"/>
<rect x="79.675" y="85.079" fill="#FFFFFF" width="92.99" height="123.742"/>
<rect x="79.675" y="82.607" fill="#0B8FE0" width="92.99" height="9.213"/>
<g>
	<rect x="88.005" y="157.018" fill="#E1E1E1" width="76.332" height="3.418"/>
	<rect x="88.005" y="163.485" fill="#E1E1E1" width="76.332" height="3.418"/>
	<rect x="88.005" y="184.231" fill="#E1E1E1" width="25.017" height="17.086"/>
	<rect x="88.005" y="170.442" fill="#E1E1E1" width="76.332" height="3.416"/>
	<rect x="88.005" y="177.276" fill="#E1E1E1" width="76.332" height="3.418"/>
	<rect x="116.5" y="99.906" fill="#E1E1E1" width="47.531" height="3.418"/>
	<rect x="88.005" y="99.906" fill="#E1E1E1" width="25.017" height="23.675"/>
	<rect x="116.5" y="106.373" fill="#E1E1E1" width="47.531" height="3.418"/>
	<rect x="116.5" y="113.331" fill="#E1E1E1" width="47.531" height="3.416"/>
	<rect x="116.5" y="120.165" fill="#E1E1E1" width="47.531" height="3.416"/>
	<rect x="88.005" y="128.951" fill="#E1E1E1" width="76.026" height="23.676"/>
	<rect x="116.804" y="184.231" fill="#E1E1E1" width="47.532" height="3.416"/>
	<rect x="116.804" y="191.065" fill="#E1E1E1" width="47.532" height="3.418"/>
	<rect x="116.804" y="197.899" fill="#E1E1E1" width="47.532" height="3.418"/>
</g>
<circle fill="#0B8FE0" cx="68.474" cy="191.064" r="22.148"/>
<path fill="#FAFAFA" d="M73.245,193.35h-1.003l-0.356-0.343c1.245-1.448,1.994-3.329,1.994-5.375c0-4.561-3.697-8.258-8.258-8.258
	c-4.562,0-8.259,3.697-8.259,8.258c0,4.562,3.697,8.259,8.259,8.259c2.044,0,3.926-0.748,5.375-1.994l0.342,0.354v1.004l6.353,6.341
	l1.894-1.894L73.245,193.35z M65.622,193.35c-3.164,0-5.718-2.554-5.718-5.718c0-3.163,2.554-5.717,5.718-5.717
	s5.717,2.554,5.717,5.717C71.339,190.796,68.786,193.35,65.622,193.35z"/>
<path fill="none" d="M66.894,173.981h25.382v25.383H66.894V173.981z"/>
<line fill="none" stroke="#363636" stroke-width="2.16" stroke-miterlimit="10" x1="46.917" y1="126.357" x2="79.675" y2="126.357"/>
<line fill="none" stroke="#363636" stroke-width="2.16" stroke-miterlimit="10" x1="29.748" y1="126.357" x2="46.917" y2="126.357"/>
<line fill="none" stroke="#363636" stroke-width="2.16" stroke-miterlimit="10" x1="47.946" y1="91.821" x2="79.675" y2="91.821"/>
<circle fill="none" stroke="#363636" stroke-width="2.16" stroke-miterlimit="10" cx="45.689" cy="91.821" r="2.258"/>
<g>
	<circle fill="#0B8FE0" cx="202.81" cy="121.975" r="22.148"/>
	<g>
		<g>
			<g>
				<path id="SVGID_1_" fill="#FAFAFA" d="M202.81,134.63l-1.793-1.621c-6.66-5.327-11.015-8.918-11.015-13.32
					c0-3.59,3.074-6.37,7.044-6.37c2.178,0,4.354,0.927,5.764,2.433c1.409-1.506,3.586-2.433,5.765-2.433
					c3.97,0,7.044,2.78,7.044,6.37c0,4.402-4.354,7.993-11.016,13.32L202.81,134.63z"/>
			</g>
			<g>
				<defs>
					<path id="SVGID_2_" d="M202.81,134.63l-1.793-1.621c-6.66-5.327-11.015-8.918-11.015-13.32c0-3.59,3.074-6.37,7.044-6.37
						c2.178,0,4.354,0.927,5.764,2.433c1.409-1.506,3.586-2.433,5.765-2.433c3.97,0,7.044,2.78,7.044,6.37
						c0,4.402-4.354,7.993-11.016,13.32L202.81,134.63z"/>
				</defs>
				<clipPath id="SVGID_4_">
					<use xlink:href="#SVGID_2_"  overflow="visible"/>
				</clipPath>
				<g clip-path="url(#SVGID_4_)">
					<g>
						<rect id="SVGID_3_" x="167.365" y="-57.648" fill="#FAFAFA" width="381.25" height="801.815"/>
					</g>
					<g>
						<defs>
							<rect id="SVGID_6_" x="167.365" y="-57.648" width="381.25" height="801.815"/>
						</defs>
						<clipPath id="SVGID_8_">
							<use xlink:href="#SVGID_6_"  overflow="visible"/>
						</clipPath>
						<rect x="187.022" y="110.34" clip-path="url(#SVGID_8_)" fill="#FAFAFA" width="31.572" height="27.27"/>
					</g>
				</g>
				<g clip-path="url(#SVGID_4_)">
					<g>
						<rect id="SVGID_5_" x="201.228" y="117.598" fill="#0B8FE0" width="3.164" height="10.504"/>
					</g>
					<g>
						<defs>
							<rect id="SVGID_10_" x="201.228" y="117.598" width="3.164" height="10.504"/>
						</defs>
						<clipPath id="SVGID_12_">
							<use xlink:href="#SVGID_10_"  overflow="visible"/>
						</clipPath>
						<g clip-path="url(#SVGID_12_)">
							<g>
								<rect id="SVGID_7_" x="167.365" y="-57.648" fill="#0B8FE0" width="381.25" height="801.815"/>
							</g>
							<g>
								<defs>
									<rect id="SVGID_13_" x="167.365" y="-57.648" width="381.25" height="801.815"/>
								</defs>
								<clipPath id="SVGID_14_">
									<use xlink:href="#SVGID_13_"  overflow="visible"/>
								</clipPath>
								<rect x="198.249" y="114.62" clip-path="url(#SVGID_14_)" fill="#0B8FE0" width="9.121" height="16.461"/>
							</g>
						</g>
						<g clip-path="url(#SVGID_12_)">
							<g>
								<rect id="SVGID_9_" x="197.746" y="121.208" fill="#0B8FE0" width="10.127" height="3.282"/>
							</g>
							<g>
								<defs>
									<rect id="SVGID_15_" x="197.746" y="121.208" width="10.127" height="3.282"/>
								</defs>
								<clipPath id="SVGID_16_">
									<use xlink:href="#SVGID_15_"  overflow="visible"/>
								</clipPath>
								<g clip-path="url(#SVGID_16_)">
									<g>
										<rect id="SVGID_11_" x="167.365" y="-57.648" fill="#0B8FE0" width="381.25" height="801.815"/>
									</g>
									<g>
										<defs>
											<rect id="SVGID_17_" x="167.365" y="-57.648" width="381.25" height="801.815"/>
										</defs>
										<clipPath id="SVGID_18_">
											<use xlink:href="#SVGID_17_"  overflow="visible"/>
										</clipPath>
										<rect x="194.769" y="118.23" clip-path="url(#SVGID_18_)" fill="#0B8FE0" width="16.084" height="9.239"/>
									</g>
								</g>
							</g>
						</g>
						<g clip-path="url(#SVGID_12_)">
							<path fill="#363636" d="M30.274,125.275c-0.009,0-0.019,0.001-0.028,0.001c-2.229,0-4.236-0.9-5.698-2.359
								c-1.459-1.463-2.359-3.469-2.36-5.696c0-2.229,0.9-4.236,2.36-5.698c1.462-1.459,3.469-2.358,5.698-2.36
								c0.102,0,0.201,0.012,0.301,0.016c-0.021-0.723,0.038-1.444,0.176-2.151c-0.159-0.008-0.316-0.024-0.477-0.024
								c-5.644,0.002-10.217,4.577-10.218,10.219c0.001,5.644,4.574,10.217,10.218,10.218c0.036,0,0.07-0.004,0.106-0.005
								C30.248,126.719,30.219,125.995,30.274,125.275z"/>
						</g>
					</g>
				</g>
			</g>
		</g>
	</g>
</g>
<rect x="199.979" y="117.598" fill="#FAFAFA" width="5.062" height="10.673"/>
<rect x="201.377" y="117.398" fill="#0B8FE0" width="2.865" height="10.688"/>
<rect x="197.466" y="121.309" fill="#0B8FE0" width="10.688" height="2.865"/>
<g>
	<path fill="#363636" d="M33.417,125.771c-1.139,0.617-2.279-0.508-3.669-0.507c-2.229,0-4.236-0.9-5.697-2.36
		c-1.46-1.461-2.359-3.469-2.36-5.698c0-2.229,0.9-4.236,2.36-5.697c1.461-1.46,3.469-2.359,5.697-2.36c0,0,0.001,0,0.001,0
		c0.411-0.746,0.942-1.43,1.564-2.028c-0.512-0.079-1.032-0.132-1.566-0.132c-5.643,0.001-10.216,4.574-10.217,10.217
		c0.001,5.644,4.574,10.217,10.217,10.218c2.028,0,3.912-0.598,5.501-1.617C34.644,125.377,33.921,126.345,33.417,125.771z"/>
</g>
</svg>
