<?xml version="1.0" encoding="UTF-8" standalone="no"?>
<svg width="423px" height="360px" viewBox="0 0 423 360" version="1.1" xmlns="http://www.w3.org/2000/svg" xmlns:xlink="http://www.w3.org/1999/xlink">
    <!-- Generator: Sketch 3.8.3 (29802) - http://www.bohemiancoding.com/sketch -->
    <title>Artboard 4</title>
    <desc>Created with Sketch.</desc>
    <defs></defs>
    <g id="Page-1" stroke="none" stroke-width="1" fill="none" fill-rule="evenodd">
        <rect id="Rectangle-4" fill="#526989" x="0" y="0" width="423" height="360"></rect>
        <g id="Artboard-4">
            <g id="Group-2" transform="translate(119.000000, 87.000000)">
                <path d="M145.638969,92.9035 C146.043061,97.216 135.023278,112.769 124.258183,90.4395 C113.505622,68.14 92.4752832,79.935 92.417126,79.967 C92.3594702,79.935 71.3296328,68.14 60.5785759,90.4395 C49.8124783,112.769 38.7931965,97.216 39.19779,92.9035 C39.6023835,88.5915 30.5413943,124.5245 65.8031965,115.0795 C83.6659743,110.2945 90.2587927,103.719 92.417126,98.394 C94.5774648,103.719 101.168779,110.2945 119.03256,115.0795 C154.295364,124.5245 145.233373,88.5915 145.638969,92.9035" id="Fill-1" fill="#22150E"></path>
                <path d="M129.221096,130.6359 C129.221096,130.6359 112.74657,133.4194 104.581503,138.2409 C96.4154322,143.0614 99.7529526,143.7404 96.2013537,145.6414 L93.1049851,145.6414 L91.7312724,145.6414 L88.6344024,145.6414 C85.0843076,143.7404 88.4218279,143.0614 80.2552561,138.2409 C72.0881829,133.4194 55.6156626,130.6359 55.6156626,130.6359 C55.6156626,130.6359 49.2238875,145.4379 49.7217331,152.8384 C50.2185759,160.2394 56.6088469,177.6899 56.9643076,176.8754 C57.3192669,176.0599 68.8940501,174.4994 78.1244973,169.6099 C87.3559472,164.7204 89.1317466,158.6109 89.1317466,158.6109 L91.7312724,158.6109 L93.1049851,158.6109 L95.7055136,158.6109 C95.7055136,158.6109 97.4798089,164.7204 106.710256,169.6099 C115.942709,174.4994 127.516991,176.0599 127.872451,176.8754 C128.226408,177.6899 134.618684,160.2394 135.115026,152.8384 C135.611367,145.4379 129.221096,130.6359 129.221096,130.6359" id="Fill-3" fill="#C5B22F"></path>
                <path d="M177.711501,47.98405 C177.713507,48.66355 177.593182,50.24405 177.211149,52.01705 C176.836637,53.79955 176.196908,55.81355 175.249848,57.49855 C174.620146,58.62505 173.863602,59.59905 172.992247,60.31855 C171.821081,61.27455 170.509537,61.84505 168.606393,61.85855 L127.697829,61.85855 C124.427491,61.84905 122.255119,60.88855 120.724984,59.81305 C119.204875,58.73855 118.353073,57.49905 118.05577,56.99555 C117.988087,56.88355 117.958005,56.82455 117.947477,56.79955 L115.540973,51.33605 L110.514388,39.92805 C107.857707,33.37405 105.806664,27.76055 104.436461,23.06905 C103.057233,18.37455 102.374889,14.59755 102.379902,11.82755 C102.377396,10.20155 102.610024,8.94105 102.983534,8.01705 C103.366569,7.08955 103.853886,6.47955 104.555783,5.96705 C105.031068,5.62855 105.619659,5.33905 106.376705,5.11355 C106.946244,4.94405 107.621569,4.81955 108.378615,4.73905 L122.413046,4.73905 C135.525485,4.74205 157.872382,4.74755 164.033534,4.74755 C164.974577,4.74755 165.878019,4.73705 166.738846,4.73705 C168.303575,4.73605 169.719902,4.77505 170.926163,4.94655 C172.132423,5.11655 173.102545,5.41105 173.875634,5.86005 C174.398547,6.16205 174.845255,6.53055 175.271908,7.04355 C175.833927,7.72755 176.366366,8.69305 176.789509,10.11855 C177.357043,12.01205 177.713507,14.70255 177.711501,18.35405 L177.711501,47.98405 Z M98.3575312,6.80955 C97.8366233,8.32905 97.6170298,10.00005 97.6170298,11.82755 C97.6195366,13.11855 97.7318401,14.49405 97.9409051,15.96205 L92.4169756,15.96205 L86.8970569,15.96205 C87.1066233,14.49405 87.2184255,13.11855 87.2194282,11.82755 C87.2194282,10.00005 86.9978293,8.32905 86.4794282,6.80955 C86.2282493,6.07655 85.8943469,5.38455 85.4967724,4.73905 L92.4169756,4.73905 L99.340187,4.73905 C98.9386016,5.38455 98.6067046,6.07655 98.3575312,6.80955 L98.3575312,6.80955 Z M80.4025041,23.06905 C79.0287913,27.76055 76.9782493,33.37405 74.3205664,39.92805 L69.2954851,51.33605 L66.888981,56.79955 C66.8774499,56.82455 66.8463659,56.88355 66.7786829,56.99555 C66.4813794,57.49905 65.632084,58.73855 64.1104715,59.81305 C62.5783306,60.88855 60.4094688,61.84905 57.1381274,61.85855 L16.2275583,61.85855 C14.3279241,61.84505 13.015878,61.27455 11.8432087,60.31855 C10.9738591,59.59905 10.2158103,58.62505 9.58560705,57.49855 C8.63904878,55.81355 7.99982114,53.79955 7.62430623,52.01705 C7.24427913,50.24405 7.12244986,48.66355 7.12545799,47.98405 L7.12545799,18.35405 C7.12295122,14.70255 7.47941463,12.01205 8.0459458,10.11855 C8.47209756,8.69305 9.00052575,7.72755 9.56505149,7.04355 C9.99020054,6.53055 10.4389133,6.16205 10.9588184,5.86005 C11.7334119,5.41105 12.7035339,5.11655 13.9112981,4.94655 C15.1140488,4.77505 16.5323821,4.73605 18.0986152,4.73705 C18.9594417,4.73705 19.8638862,4.74755 20.8034255,4.74755 C26.9650786,4.74755 49.3104715,4.74205 62.4244146,4.73905 L76.4568401,4.73905 C77.2143875,4.81955 77.88871,4.94405 78.459252,5.11355 C79.2162981,5.33905 79.8068943,5.62855 80.2791707,5.96705 C80.9835745,6.47955 81.4683848,7.08955 81.8509187,8.01705 C82.2279377,8.94105 82.458561,10.20155 82.4570569,11.82755 C82.4625718,14.59755 81.7802276,18.37455 80.4025041,23.06905 L80.4025041,23.06905 Z M184.836257,7.91855 L181.062057,7.91855 C180.578249,6.55605 179.971108,5.36255 179.208046,4.36005 C178.457016,3.37155 177.565106,2.56855 176.595986,1.95905 C175.298981,1.14455 173.893683,0.67605 172.479862,0.40355 C170.595268,0.04155 168.677084,0.00205 166.738846,5.00000001e-05 C165.839415,5.00000001e-05 164.936474,0.01005 164.033534,0.01005 C158.043846,0.01005 136.753805,0.00505 123.523547,0.00305 L123.523547,0.00205 L121.8781,0.00205 L119.408927,0.00205 C115.315864,0.00055 112.673724,5.00000001e-05 112.634618,5.00000001e-05 L108.207653,0.00205 L92.4169756,0.00205 L76.6273008,0.00205 L72.2023415,5.00000001e-05 C72.1627344,5.00000001e-05 69.5215962,0.00055 65.4260271,0.00205 L62.9593604,0.00205 L61.3139133,0.00205 L61.3139133,0.00305 C48.0846585,0.00505 26.7931138,0.01005 20.8034255,0.01005 C19.8994824,0.01005 18.996542,5.00000001e-05 18.0986152,5.00000001e-05 C16.1588726,0.00205 14.2411897,0.04155 12.3545908,0.40355 C10.9437778,0.67605 9.53647425,1.14455 8.24197561,1.95905 C7.27235501,2.56855 6.37894038,3.37155 5.62841192,4.36005 C4.86434688,5.36255 4.25921138,6.55605 3.77540379,7.91855 L0.000200542005,7.91855 L0.000200542005,18.33055 L2.36408943,18.33055 C2.36408943,18.33805 2.36308672,18.34605 2.36308672,18.35405 L2.36308672,47.98405 C2.3655935,48.97855 2.48642005,50.48355 2.82633875,52.30355 C3.34473984,55.02005 4.32789702,58.38455 6.35587805,61.28805 C7.37413008,62.73355 8.6756477,64.06705 10.3346314,65.04105 C11.990607,66.01855 13.9990352,66.60055 16.2275583,66.59605 L21.370458,66.59605 L57.1381274,66.59605 C59.6474092,66.59655 61.8142656,66.13705 63.6211491,65.42655 C66.3364878,64.35955 68.2165691,62.74755 69.4077886,61.40055 C70.6035203,60.04955 71.1319485,58.95705 71.2051463,58.80705 L71.2181816,58.77905 L73.6577751,53.23705 L78.713439,41.76155 L78.7259729,41.73005 C81.4232629,35.07655 83.5289539,29.33005 84.9743604,24.39355 C85.3498753,23.10655 85.6787642,21.87905 85.9645366,20.69905 L92.4169756,20.69905 L98.8709187,20.69905 C99.1566911,21.87905 99.4855799,23.10655 99.8605935,24.39355 C101.307003,29.33005 103.413696,35.07655 106.112992,41.73005 L106.122016,41.76155 L111.176678,53.23705 L113.617274,58.77905 L113.632314,58.80705 C113.703005,58.95705 114.234943,60.04955 115.429672,61.40055 C116.619388,62.74755 118.499469,64.35955 121.214808,65.42655 C123.020688,66.13705 125.188046,66.59655 127.697829,66.59605 L163.464997,66.59605 L168.606393,66.59605 C170.838425,66.60055 172.846352,66.01855 174.502328,65.04105 C176.158304,64.06705 177.461827,62.73355 178.481081,61.28805 C180.507558,58.38455 181.490715,55.02005 182.011623,52.30355 C182.351041,50.48355 182.470864,48.97855 182.473371,47.98405 L182.473371,18.35405 L182.473371,18.33055 L184.836257,18.33055 L184.836257,7.91855 Z" id="Fill-5" fill="#2A2728"></path>
            </g>
        </g>
    </g>
</svg>