<?xml version="1.0" encoding="UTF-8" standalone="no"?>
<svg width="423px" height="360px" viewBox="0 0 423 360" version="1.1" xmlns="http://www.w3.org/2000/svg" xmlns:xlink="http://www.w3.org/1999/xlink" style="background: #FFFFFF;">
    <!-- Generator: Sketch 3.8.3 (29802) - http://www.bohemiancoding.com/sketch -->
    <title>Artboard 8</title>
    <desc>Created with Sketch.</desc>
    <defs>
        <rect id="path-1" x="0.492753623" y="4.08888889" width="32.5217391" height="5.11111111"></rect>
        <mask id="mask-2" maskContentUnits="userSpaceOnUse" maskUnits="objectBoundingBox" x="0" y="0" width="32.5217391" height="5.11111111" fill="white">
            <use xlink:href="#path-1"></use>
        </mask>
        <rect id="path-3" x="3.08108108" y="0" width="12.3243243" height="32" rx="1.024"></rect>
        <mask id="mask-4" maskContentUnits="userSpaceOnUse" maskUnits="objectBoundingBox" x="0" y="0" width="12.3243243" height="32" fill="white">
            <use xlink:href="#path-3"></use>
        </mask>
        <path d="M23.5490693,5.69569145 C23.8187514,6.41888013 23.4192267,7.00514039 22.6415653,7.00514039 L1.40342054,7.00514039 C0.632537792,7.00514039 0.229481362,6.41518966 0.493950233,5.71196095 L0.567455767,5.51650807 C0.836051932,4.80230479 1.67524838,4.22332864 2.44327592,4.22332864 L21.6105312,4.22332864 C22.3779219,4.22332864 23.2200117,4.81327936 23.4883176,5.53277757 L23.5490693,5.69569145 Z" id="path-5"></path>
        <mask id="mask-6" maskContentUnits="userSpaceOnUse" maskUnits="objectBoundingBox" x="-1.536" y="-1.536" width="26.2955265" height="5.85381175">
            <rect x="-1.12412289" y="2.68732864" width="26.2955265" height="5.85381175" fill="white"></rect>
            <use xlink:href="#path-5" fill="black"></use>
        </mask>
        <rect id="path-7" x="0" y="9.7375" width="19" height="31.2625" rx="9.5"></rect>
        <mask id="mask-8" maskContentUnits="userSpaceOnUse" maskUnits="objectBoundingBox" x="0" y="0" width="19" height="31.2625" fill="white">
            <use xlink:href="#path-7"></use>
        </mask>
        <rect id="path-9" x="7.18918919" y="12.8125" width="4.62162162" height="10.25" rx="2.31081081"></rect>
        <mask id="mask-10" maskContentUnits="userSpaceOnUse" maskUnits="objectBoundingBox" x="0" y="0" width="4.62162162" height="10.25" fill="white">
            <use xlink:href="#path-9"></use>
        </mask>
        <path d="M19.0029442,4.90432741 C19.1472376,5.4503136 18.8087001,5.89292286 18.2499088,5.89292286 L3.2485466,5.89292286 C2.68836323,5.89292286 2.35009329,5.45826477 2.49773294,4.90432741 L2.71218668,4.09970656 C2.85770712,3.55372037 3.42438292,3.11111111 3.99617398,3.11111111 L17.5085331,3.11111111 C18.0721393,3.11111111 18.643904,3.5457692 18.7902987,4.09970656 L19.0029442,4.90432741 Z" id="path-11"></path>
        <mask id="mask-12" maskContentUnits="userSpaceOnUse" maskUnits="objectBoundingBox" x="-1.536" y="-1.536" width="19.6394588" height="5.85381175">
            <rect x="0.930269665" y="1.57511111" width="19.6394588" height="5.85381175" fill="white"></rect>
            <use xlink:href="#path-11" fill="black"></use>
        </mask>
        <rect id="path-13" x="6" y="0" width="17.5" height="16.5" rx="1.536"></rect>
        <mask id="mask-14" maskContentUnits="userSpaceOnUse" maskUnits="objectBoundingBox" x="0" y="0" width="17.5" height="16.5" fill="white">
            <use xlink:href="#path-13"></use>
        </mask>
        <rect id="path-15" x="0" y="8.25" width="30" height="16.5" rx="1.536"></rect>
        <mask id="mask-16" maskContentUnits="userSpaceOnUse" maskUnits="objectBoundingBox" x="0" y="0" width="30" height="16.5" fill="white">
            <use xlink:href="#path-15"></use>
        </mask>
        <rect id="path-17" x="6" y="16.5" width="17.5" height="16.5" rx="1.536"></rect>
        <mask id="mask-18" maskContentUnits="userSpaceOnUse" maskUnits="objectBoundingBox" x="0" y="0" width="17.5" height="16.5" fill="white">
            <use xlink:href="#path-17"></use>
        </mask>
        <rect id="path-19" x="1.76996664" y="4.45838311" width="18.0257249" height="31.7561633" rx="1.536"></rect>
        <mask id="mask-20" maskContentUnits="userSpaceOnUse" maskUnits="objectBoundingBox" x="0" y="0" width="18.0257249" height="31.7561633" fill="white">
            <use xlink:href="#path-19"></use>
        </mask>
        <path d="M3.25,20.25 L20.150444,3.34955622" id="path-21"></path>
        <path d="M3.86044397,7.5733099 C3.93522279,7.98385352 3.65049246,8.31666489 3.23376896,8.31666489 L-1.6654951,8.31666489 C-2.08637697,8.31666489 -2.3655047,7.97879764 -2.29101873,7.5733099 L-2.28446486,7.53763183 C-2.20905015,7.1270882 -1.79850909,6.79427683 -1.38097716,6.79427683 L2.95160904,6.79427683 C3.37517681,6.79427683 3.78008745,7.13214409 3.85394536,7.53763183 L3.86044397,7.5733099 Z" id="path-22"></path>
        <mask id="mask-23" maskContentUnits="userSpaceOnUse" maskUnits="objectBoundingBox" x="-1.536" y="-1.536" width="9.2442182" height="4.59438806">
            <rect x="-3.83749372" y="5.25827683" width="9.2442182" height="4.59438806" fill="white"></rect>
            <use xlink:href="#path-22" fill="black"></use>
        </mask>
        <path d="M11.5984167,7.67498139 C11.7258533,8.22632651 11.3769251,8.67328004 10.8041559,8.67328004 L-1.72253182,8.67328004 C-2.2886265,8.67328004 -2.64274191,8.22371485 -2.51483049,7.67498139 L-2.34562084,6.94908062 C-2.21710063,6.3977355 -1.65465757,5.95078197 -1.09038628,5.95078197 L10.1773615,5.95078197 C10.7420882,5.95078197 11.303801,6.40034716 11.4306338,6.94908062 L11.5984167,7.67498139 Z" id="path-24"></path>
        <mask id="mask-25" maskContentUnits="userSpaceOnUse" maskUnits="objectBoundingBox" x="-1.536" y="-1.536" width="17.2391654" height="5.79449806">
            <rect x="-4.07798756" y="4.41478197" width="17.2391654" height="5.79449806" fill="white"></rect>
            <use xlink:href="#path-24" fill="black"></use>
        </mask>
        <path d="M3.86044397,7.5733099 C3.93522279,7.98385352 3.65049246,8.31666489 3.23376896,8.31666489 L-1.6654951,8.31666489 C-2.08637697,8.31666489 -2.3655047,7.97879764 -2.29101873,7.5733099 L-2.28446486,7.53763183 C-2.20905015,7.1270882 -1.79850909,6.79427683 -1.38097716,6.79427683 L2.95160904,6.79427683 C3.37517681,6.79427683 3.78008745,7.13214409 3.85394536,7.53763183 L3.86044397,7.5733099 Z" id="path-26"></path>
        <mask id="mask-27" maskContentUnits="userSpaceOnUse" maskUnits="objectBoundingBox" x="-1.536" y="-1.536" width="9.2442182" height="4.59438806">
            <rect x="-3.83749372" y="5.25827683" width="9.2442182" height="4.59438806" fill="white"></rect>
            <use xlink:href="#path-26" fill="black"></use>
        </mask>
        <path d="M11.5984167,7.67498139 C11.7258533,8.22632651 11.3769251,8.67328004 10.8041559,8.67328004 L-1.72253182,8.67328004 C-2.2886265,8.67328004 -2.64274191,8.22371485 -2.51483049,7.67498139 L-2.34562084,6.94908062 C-2.21710063,6.3977355 -1.65465757,5.95078197 -1.09038628,5.95078197 L10.1773615,5.95078197 C10.7420882,5.95078197 11.303801,6.40034716 11.4306338,6.94908062 L11.5984167,7.67498139 Z" id="path-28"></path>
        <mask id="mask-29" maskContentUnits="userSpaceOnUse" maskUnits="objectBoundingBox" x="-1.536" y="-1.536" width="17.2391654" height="5.79449806">
            <rect x="-4.07798756" y="4.41478197" width="17.2391654" height="5.79449806" fill="white"></rect>
            <use xlink:href="#path-28" fill="black"></use>
        </mask>
    </defs>
    <g id="Page-1" stroke="none" stroke-width="1" fill="none" fill-rule="evenodd">
        <g id="Artboard-8">
            <g id="Bulb" transform="translate(366.000000, 124.000000)">
                <path d="M21.8913774,10.9597037 C21.8913774,4.90682648 16.9908257,1.45519152e-14 10.9456887,1.45519152e-14 C4.90055176,1.45519152e-14 0,4.90682648 0,10.9597037 C0,14.7876773 1.96001379,18.157279 4.92999907,20.1172501 C6.72451746,21.10329 7.94098985,23.0130598 7.94098985,25.2073158 C7.94098985,25.2576112 7.94098985,32.3045109 7.94098985,32.3045109 C7.94098985,33.1524405 8.63034418,33.8398233 9.47296349,33.8398233 L12.4184139,33.8398233 C13.2644996,33.8398233 13.9503876,33.151748 13.9503876,32.3045109 L13.9503876,25.2073158 C13.9503876,23.0130598 15.16686,21.10329 16.9613784,20.1172501 C19.9313636,18.157279 21.8913774,14.7876773 21.8913774,10.9597037 Z" id="Combined-Shape" stroke="#363636" stroke-width="1.536" stroke-linecap="round" stroke-linejoin="round" fill="#FFFFFF"></path>
                <rect id="Rectangle-118" stroke="#363636" stroke-width="1.536" fill="#FFFFFF" x="7.65217391" y="26.8169014" width="6.6796214" height="2.3943662" rx="1.024"></rect>
                <rect id="Rectangle-118" stroke="#363636" stroke-width="1.536" fill="#FFFFFF" x="7.65217391" y="29.2112676" width="6.6796214" height="2.3943662" rx="1.024"></rect>
                <rect id="Rectangle-118" stroke="#363636" stroke-width="1.536" fill="#FFFFFF" x="7.65217391" y="31.6056338" width="6.6796214" height="2.3943662" rx="1.024"></rect>
                <ellipse id="Oval-39" fill="#363636" cx="6.55769231" cy="11.1234568" rx="1.48076923" ry="1.4691358"></ellipse>
                <ellipse id="Oval-39" fill="#363636" cx="15.4423077" cy="11.1234568" rx="1.48076923" ry="1.4691358"></ellipse>
                <ellipse id="Oval-39" fill="#363636" cx="11" cy="11.1234568" rx="1.48076923" ry="1.4691358"></ellipse>
            </g>
            <g id="Wireframe" transform="translate(363.000000, 36.000000)" stroke="#363636" stroke-width="1.536">
                <path d="M0,1.01739736 C0,0.455504315 0.462631166,1.21747857e-16 1.02974194,2.70990984e-16 L26.9702581,7.09760035e-15 C27.5389688,7.24726454e-15 28,0.457365353 28,1.01739736 L28,40.9826026 C28,41.5444957 27.5373688,42 26.9702581,42 L1.02974194,42 C0.461031172,42 0,41.5426346 0,40.9826026 L0,1.01739736 Z" id="Rectangle-127" fill="#FFFFFF"></path>
                <path d="M2.54545455,4.12829307 C2.54545455,3.56651899 3.00307232,3.11111111 3.574316,3.11111111 L24.425684,3.11111111 C24.9939085,3.11111111 25.4545455,3.57246983 25.4545455,4.12829307 L25.4545455,15.0568921 C25.4545455,15.6186662 24.9969277,16.0740741 24.425684,16.0740741 L3.574316,16.0740741 C3.00609151,16.0740741 2.54545455,15.6127154 2.54545455,15.0568921 L2.54545455,4.12829307 Z" id="Rectangle-127" fill="#FFFFFF"></path>
                <path d="M2.54545455,20.2038793 C2.54545455,19.6412701 3.00307232,19.1851852 3.574316,19.1851852 L24.425684,19.1851852 C24.9939085,19.1851852 25.4545455,19.6442403 25.4545455,20.2038793 L25.4545455,21.2776022 C25.4545455,21.8402114 24.9969277,22.2962963 24.425684,22.2962963 L3.574316,22.2962963 C3.00609151,22.2962963 2.54545455,21.8372411 2.54545455,21.2776022 L2.54545455,20.2038793 Z" id="Rectangle-127" fill="#FFFFFF"></path>
                <path d="M2.54545455,25.907583 C2.54545455,25.3449738 3.00307232,24.8888889 3.574316,24.8888889 L24.425684,24.8888889 C24.9939085,24.8888889 25.4545455,25.347944 25.4545455,25.907583 L25.4545455,26.9813059 C25.4545455,27.5439151 24.9969277,28 24.425684,28 L3.574316,28 C3.00609151,28 2.54545455,27.5409448 2.54545455,26.9813059 L2.54545455,25.907583 Z" id="Rectangle-127" fill="#FFFFFF"></path>
                <path d="M2.54545455,31.6112867 C2.54545455,31.0486775 3.00307232,30.5925926 3.574316,30.5925926 L24.425684,30.5925926 C24.9939085,30.5925926 25.4545455,31.0516478 25.4545455,31.6112867 L25.4545455,32.6850096 C25.4545455,33.2476188 24.9969277,33.7037037 24.425684,33.7037037 L3.574316,33.7037037 C3.00609151,33.7037037 2.54545455,33.2446485 2.54545455,32.6850096 L2.54545455,31.6112867 Z" id="Rectangle-127" fill="#FFFFFF"></path>
                <path d="M3.30909091,14.7777778 L24.6909091,3.88888889" id="Line" stroke-linecap="square" transform="translate(14.000000, 9.333333) scale(-1, 1) translate(-14.000000, -9.333333) "></path>
                <path d="M3.30909091,14.7777778 L24.6909091,3.88888889" id="Line" stroke-linecap="square"></path>
            </g>
            <g id="Credit-Card" transform="translate(360.000000, 293.000000)">
                <rect id="Rectangle-170" stroke="#363636" stroke-width="1.536" fill="#FFFFFF" x="0" y="0" width="33.5886053" height="22.9930849" rx="1.024"></rect>
                <use id="Rectangle-173" stroke="#484242" mask="url(#mask-2)" stroke-width="1.024" fill="#363636" xlink:href="#path-1"></use>
            </g>
            <g id="Watch" transform="translate(367.000000, 207.000000)" stroke="#363636">
                <use id="Rectangle-199" mask="url(#mask-4)" stroke-width="3.072" fill="#FFFFFF" xlink:href="#path-3"></use>
                <ellipse id="Oval-65" stroke-width="1.536" fill="#FFFFFF" cx="9.5" cy="16" rx="9.5" ry="9.3968254"></ellipse>
                <path d="M8.98648649,10.9206349 L8.98648649,16" id="Line" stroke-width="1.536" stroke-linecap="round" stroke-linejoin="round"></path>
                <path d="M13.8716171,20.8320757 L8.98648648,16" id="Line" stroke-width="1.536" stroke-linecap="round" stroke-linejoin="round"></path>
            </g>
            <g id="Beer" transform="translate(288.000000, 286.000000)" stroke="#363636" stroke-width="1.536" fill="#FFFFFF">
                <path d="M9.69777128,11.4678501 C11.0518098,13.6440452 12.2961801,15.6223435 12.2961801,15.6223435 C12.9641179,16.8598418 13.5055885,18.9946646 13.5055885,20.3907449 L13.5055885,22.282414 L13.5055885,23.8021386 L13.5055885,37.4636842 C13.5055885,38.8644527 12.3424205,40 10.9175552,40 L2.58803337,40 C1.15870201,40 0,38.8702827 0,37.4636842 L0,23.8021386 L0,22.282414 L0,20.3907449 C0,18.9947278 0.528387687,16.8503865 1.18954506,15.6160022 C1.18954506,15.6160022 2.25049584,13.5179241 3.48879883,11.4678505 L4.2025119,1.51894704 C4.24263155,0.959693602 4.73967381,0.506329114 5.31083953,0.506329114 L7.90613703,0.506329114 C8.47812983,0.506329114 8.97421956,0.957944885 9.01446466,1.51894704 L9.69777128,11.4678501 Z" id="Combined-Shape" stroke-linecap="round" stroke-linejoin="round"></path>
                <rect id="Rectangle-96" x="4.14814815" y="21.7721519" width="9.33333333" height="13.3281091" rx="2.56"></rect>
                <path d="M9.84072636,1.5165157 C9.90217568,2.07715644 9.48972493,2.53164557 8.91926691,2.53164557 L4.55700051,2.53164557 C3.98664319,2.53164557 3.57560455,2.06730275 3.6364872,1.5165157 L3.69190917,1.01512987 C3.75388103,0.454489126 4.26475871,-4.4408921e-16 4.82666283,0 L8.65196419,4.4408921e-16 C9.21669947,4.4408921e-16 9.72540241,0.464342817 9.78577171,1.01512987 L9.84072636,1.5165157 Z" id="Rectangle-116"></path>
            </g>
            <g id="Group-4" transform="translate(36.000000, 283.000000)">
                <path d="M1.80481102,6.20769289 C1.7771136,5.63877823 2.20444668,5.17758178 2.77705427,5.17758178 L21.3491383,5.17758178 C21.9137908,5.17758178 22.352625,5.63752827 22.3291872,6.20769289 L20.9184976,40.5250089 C20.8951111,41.0939236 20.4120696,41.55512 19.8427621,41.55512 L4.55907964,41.55512 C3.98835382,41.55512 3.50329678,41.0951735 3.4755385,40.5250089 L1.80481102,6.20769289 Z" id="Rectangle-116" stroke="#363636" stroke-width="1.536" fill="#FFFFFF"></path>
                <path d="M0.314620694,13.5604276 C0.243459432,12.7124998 0.868802068,12.0251184 1.72094872,12.0251184 L22.3261467,12.0251184 C23.1740014,12.0251184 23.803439,12.7121322 23.7319656,13.5604276 L22.6024165,26.9666941 C22.5309741,27.814622 21.7775289,28.5020034 20.9359019,28.5020034 L3.10573003,28.5020034 C2.25678182,28.5020034 1.51091657,27.8149896 1.43972445,26.9666941 L0.314620694,13.5604276 Z" id="Rectangle-116" stroke="#363636" stroke-width="1.536" fill="#FFFFFF"></path>
                <rect id="Rectangle-118" stroke="#363636" stroke-width="1.536" fill="#FFFFFF" x="1.55053295" y="0.0860113727" width="20.6168718" height="5.61008892" rx="1.024"></rect>
                <g id="Rectangle-116">
                    <use fill="#FFFFFF" fill-rule="evenodd" xlink:href="#path-5"></use>
                    <use stroke="#363636" mask="url(#mask-6)" stroke-width="3.072" xlink:href="#path-5"></use>
                </g>
            </g>
            <g id="Ruler" transform="translate(291.000000, 37.000000)">
                <rect id="Rectangle-124" stroke="#363636" stroke-width="1.536" fill="#FFFFFF" x="0" y="0" width="9" height="42" rx="1.024"></rect>
                <ellipse id="Oval-38" fill="#363636" cx="4.5" cy="3.84146341" rx="0.794117647" ry="0.768292683"></ellipse>
                <path d="M5.02941176,8.96341463 L7.71409472,8.96341463" id="Line" stroke="#363636" stroke-width="1.536" stroke-linecap="round" stroke-linejoin="round"></path>
                <path d="M5.02941176,11.5243902 L7.71409472,11.5243902" id="Line" stroke="#363636" stroke-width="1.536" stroke-linecap="round" stroke-linejoin="round"></path>
                <path d="M5.02941176,14.0853659 L7.71409472,14.0853659" id="Line" stroke="#363636" stroke-width="1.536" stroke-linecap="round" stroke-linejoin="round"></path>
                <path d="M5.02941176,19.2073171 L7.71409472,19.2073171" id="Line" stroke="#363636" stroke-width="1.536" stroke-linecap="round" stroke-linejoin="round"></path>
                <path d="M5.02941176,21.7682927 L7.71409472,21.7682927" id="Line" stroke="#363636" stroke-width="1.536" stroke-linecap="round" stroke-linejoin="round"></path>
                <path d="M5.02941176,24.3292683 L7.71409472,24.3292683" id="Line" stroke="#363636" stroke-width="1.536" stroke-linecap="round" stroke-linejoin="round"></path>
                <path d="M3.97058824,16.6463415 L7.71409472,16.6463415" id="Line" stroke="#363636" stroke-width="1.536" stroke-linecap="round" stroke-linejoin="round"></path>
                <path d="M3.97058824,26.8902439 L7.71409472,26.8902439" id="Line" stroke="#363636" stroke-width="1.536" stroke-linecap="round" stroke-linejoin="round"></path>
                <path d="M5.02941176,29.4512195 L7.71409472,29.4512195" id="Line" stroke="#363636" stroke-width="1.536" stroke-linecap="round" stroke-linejoin="round"></path>
                <path d="M5.02941176,32.0121951 L7.71409472,32.0121951" id="Line" stroke="#363636" stroke-width="1.536" stroke-linecap="round" stroke-linejoin="round"></path>
                <path d="M5.02941176,34.5731707 L7.71409472,34.5731707" id="Line" stroke="#363636" stroke-width="1.536" stroke-linecap="round" stroke-linejoin="round"></path>
                <path d="M3.97058824,37.1341463 L7.71409472,37.1341463" id="Line" stroke="#363636" stroke-width="1.536" stroke-linecap="round" stroke-linejoin="round"></path>
            </g>
            <g id="Mouse" transform="translate(285.000000, 119.000000)">
                <path d="M8.86282857,0 C8.86282857,0 8.44634381,1.7199706 9.08684508,2.68107299 C9.93816411,3.95851739 12.2491571,2.88867703 12.6983385,4.85596485 C12.9701134,6.04626256 11.9642972,6.91894339 10.3669445,6.91894368 C7.99844574,6.91894411 9.59423766,11.1296533 9.59423766,11.1296533" id="Line" stroke="#000000" stroke-width="1.536" stroke-linecap="round" stroke-linejoin="round"></path>
                <use id="Rectangle-125" stroke="#363636" mask="url(#mask-8)" stroke-width="3.072" fill="#FFFFFF" xlink:href="#path-7"></use>
                <use id="Rectangle-125" stroke="#363636" mask="url(#mask-10)" stroke-width="3.072" fill="#FFFFFF" xlink:href="#path-9"></use>
            </g>
            <g id="Pizza" transform="translate(131.000000, 304.000000) rotate(-180.000000) translate(-131.000000, -304.000000) translate(114.000000, 285.000000)" stroke="#363636" stroke-width="1.536" fill="#FFFFFF">
                <path d="M15.5773081,1.76784681 C16.3533216,-0.0558424008 17.6111516,-0.05663302 18.3875015,1.76784681 L30.6567566,30.6015058 C31.43277,32.425195 30.613501,34.5881476 28.7792225,35.3284632 L20.5524986,37.3667583 C18.58079,37.4894978 15.3788344,37.5430676 13.4123101,37.3667583 L5.18558673,35.3284632 C3.37264007,34.5415259 2.53170322,32.4259856 3.30805312,30.6015058 L15.5773081,1.76784681 Z" id="Rectangle-147"></path>
                <ellipse id="Oval-42" cx="20.8250678" cy="25.097973" rx="3.466223" ry="3.53040541"></ellipse>
                <path d="M7.38963027,21.0094969 L10.1358637,14.5556448 C11.5174636,15.0202429 12.5145356,16.345918 12.5145356,17.9087838 C12.5145356,19.8585728 10.9626547,21.4391892 9.04831255,21.4391892 C8.44745018,21.4391892 7.88229637,21.2834717 7.38963027,21.0094969 Z" id="Combined-Shape"></path>
                <rect id="Rectangle-152" x="2.17773755e-12" y="31.3243243" width="34" height="6.47635184" rx="1.536"></rect>
                <path d="M20.1309025,5.64864865 L22.8100702,11.9448916 C22.2289847,12.3929129 21.5049428,12.6586877 20.7199543,12.6586877 C18.8056122,12.6586877 17.2537313,11.0780714 17.2537313,9.12828234 C17.2537313,7.38300727 18.4971314,5.93352126 20.1309025,5.64864865 Z" id="Combined-Shape"></path>
            </g>
            <g id="Beer" transform="translate(202.000000, 283.000000)">
                <path d="M14.25,2.85185185 L16.75,0.259259259" id="Line" stroke="#363636" stroke-width="1.536" stroke-linecap="round" stroke-linejoin="round"></path>
                <g id="Rectangle-116">
                    <use fill="#FFFFFF" fill-rule="evenodd" xlink:href="#path-11"></use>
                    <use stroke="#363636" mask="url(#mask-12)" stroke-width="3.072" xlink:href="#path-11"></use>
                </g>
                <rect id="Rectangle-118" stroke="#363636" stroke-width="1.536" fill="#FFFFFF" x="1.5" y="36.2962963" width="18.5" height="5.61008892" rx="1.024"></rect>
                <rect id="Rectangle-96" stroke="#363636" stroke-width="1.536" fill="#FFFFFF" x="0" y="4.66666667" width="21.5656582" height="34.9531926" rx="2.56"></rect>
                <rect id="Rectangle-96" stroke="#363636" stroke-width="1.536" fill="#FFFFFF" x="5" y="9.85185185" width="16.4114936" height="24.8888889" rx="2.56"></rect>
            </g>
            <g id="Printer" transform="translate(279.000000, 205.000000)">
                <use id="Rectangle-196" stroke="#363636" mask="url(#mask-14)" stroke-width="3.072" fill="#FFFFFF" xlink:href="#path-13"></use>
                <use id="Rectangle-196" stroke="#363636" mask="url(#mask-16)" stroke-width="3.072" fill="#FFFFFF" xlink:href="#path-15"></use>
                <use id="Rectangle-196" stroke="#363636" mask="url(#mask-18)" stroke-width="3.072" fill="#FFFFFF" xlink:href="#path-17"></use>
                <path d="M9.25,21.3984375 L20.25,21.3984375" id="Line" stroke="#363636" stroke-width="1.536" stroke-linecap="round" stroke-linejoin="round"></path>
                <path d="M9.25,25.0078125 L20.25,25.0078125" id="Line" stroke="#363636" stroke-width="1.536" stroke-linecap="round" stroke-linejoin="round"></path>
                <path d="M9.25,28.6171875 L20.25,28.6171875" id="Line" stroke="#363636" stroke-width="1.536" stroke-linecap="round" stroke-linejoin="round"></path>
                <ellipse id="Oval-63" fill="#363636" cx="3.25" cy="11.6015625" rx="0.75" ry="0.7734375"></ellipse>
                <ellipse id="Oval-63" fill="#363636" cx="5.75" cy="11.6015625" rx="0.75" ry="0.7734375"></ellipse>
            </g>
            <g id="Notebook" transform="translate(199.000000, 38.000000)" stroke="#363636" stroke-width="1.536">
                <rect id="Rectangle-87" fill="#FFFFFF" x="0.261795301" y="0.908398126" width="26.3275298" height="40.2103997"></rect>
                <g id="Group" transform="translate(3.634615, 13.481481)" fill="#FFFFFF" stroke-linecap="round" stroke-linejoin="round">
                    <rect id="Rectangle-146" x="0" y="-2.57107156e-14" width="17.6538462" height="12.0987654"></rect>
                    <rect id="Rectangle-146" x="0" y="8.81481481" width="17.6538462" height="3.36076818"></rect>
                </g>
                <path d="M24.1442308,0.259259259 L24.1442308,41.7407407" id="Line" stroke-linecap="round" stroke-linejoin="round"></path>
            </g>
            <g id="Search" transform="translate(38.000000, 38.000000)" stroke="#363636" stroke-width="1.536">
                <rect id="Rectangle-82" fill="#FFFFFF" transform="translate(10.444865, 31.370401) rotate(-180.000000) translate(-10.444865, -31.370401) " x="8.5" y="22.7848101" width="3.88973035" height="17.1711815" rx="1.024"></rect>
                <path d="M10.3434006,18.9233429 C15.5036182,18.9233429 19.6868011,14.6872083 19.6868011,9.46167144 C19.6868011,4.2361346 15.5036182,-1.42108547e-14 10.3434006,-1.42108547e-14 C5.18318292,-1.42108547e-14 1,4.2361346 1,9.46167144 C1,14.6872083 5.18318292,18.9233429 10.3434006,18.9233429 Z" id="Oval-41" fill="#FFFFFF" transform="translate(10.343401, 9.461671) rotate(-90.000000) translate(-10.343401, -9.461671) "></path>
                <path d="M10.5,18.9873418 L10.5,21.7721519" id="Line" stroke-linecap="square"></path>
            </g>
            <g id="Pen" transform="translate(127.000000, 38.000000)" stroke="#363636" stroke-width="1.536">
                <rect id="Rectangle-82" fill="#FFFFFF" x="1.00146743" y="0.281919365" width="5.01828017" height="35.1534314" rx="1.024"></rect>
                <path d="M1.41965745,35.4353507 L5.60155758,35.4353507 L4.04907911,40.1477213 C3.75168946,41.0504135 3.27074895,41.054127 2.97213592,40.1477213 L1.41965745,35.4353507 Z" id="Rectangle-84" fill="#FFFFFF"></path>
                <path d="M0,3.33125 L8.20588235,3.33125" id="Line" stroke-linecap="round"></path>
                <path d="M8.20588235,0.76875 L8.20588235,20.7628189" id="Line" stroke-linecap="round"></path>
            </g>
            <g id="Phone" transform="translate(119.000000, 119.000000)">
                <rect id="Rectangle-96" stroke="#363636" stroke-width="1.536" fill="#FFFFFF" x="5.68434189e-14" y="0" width="21.5656582" height="41.6287586" rx="2.56"></rect>
                <ellipse id="Oval-48" fill="#000000" cx="10.7828291" cy="38.4180298" rx="1.38788889" ry="1.43929218"></ellipse>
                <use id="Rectangle-96" stroke="#363636" mask="url(#mask-20)" stroke-width="3.072" stroke-linecap="round" stroke-linejoin="round" fill="#FFFFFF" xlink:href="#path-19"></use>
                <path d="M6.75,2.85185185 L14.75,2.85185185" id="Line" stroke="#464646" stroke-width="1.536" stroke-linecap="round" stroke-linejoin="round"></path>
            </g>
            <g id="Charger" transform="translate(199.000000, 119.000000)" stroke="#363636">
                <g id="Cord" stroke-width="1.536">
                    <path d="M5.60377358,16.65625 L5.60377358,40.74375" id="Line" stroke-linecap="round" stroke-linejoin="round"></path>
                    <path d="M2.80188679,4.35625 L2.80188679,0.25625" id="Line" stroke-linecap="round" stroke-linejoin="round"></path>
                    <path d="M8.40566038,4.35625 L8.40566038,0.25625" id="Line" stroke-linecap="round" stroke-linejoin="round"></path>
                    <rect id="Rectangle-151" fill="#FFFFFF" x="0" y="4.6125" width="11.2075472" height="11.7875" rx="1.536"></rect>
                </g>
                <g id="USB" transform="translate(21.396226, 20.500000) rotate(-180.000000) translate(-21.396226, -20.500000) translate(15.792453, 0.000000)">
                    <path d="M5.60377358,16.65625 L5.60377358,40.74375" id="Line" stroke-width="1.536" stroke-linecap="round" stroke-linejoin="round"></path>
                    <rect id="Rectangle-151" stroke-width="1.536" fill="#FFFFFF" x="0" y="4.6125" width="11.2075472" height="11.7875" rx="1.536"></rect>
                    <rect id="Rectangle-153" stroke-width="1.536" fill="#FFFFFF" x="2.03773585" y="0" width="7.13207547" height="4.6125" rx="0.512"></rect>
                    <ellipse id="Oval-45" stroke-width="0.512" fill="#D8D8D8" cx="6.87735849" cy="2.30625" rx="0.254716981" ry="0.25625"></ellipse>
                    <ellipse id="Oval-45" stroke-width="0.512" fill="#D8D8D8" cx="4.33018868" cy="2.30625" rx="0.254716981" ry="0.25625"></ellipse>
                </g>
            </g>
            <g id="Laptop" transform="translate(29.000000, 128.000000)" stroke="#363636">
                <rect id="Rectangle-170" stroke-width="1.536" fill="#FFFFFF" x="2.86349338" y="0" width="34.9346192" height="22.9522809" rx="1.024"></rect>
                <path d="M0.903579803,21.4285714 L39.8461289,21.4285714 C40.4789797,21.4285714 40.868333,21.9179742 40.7169315,22.5171021 L40.4409943,23.6090438 C40.2890745,24.2102227 39.6726195,24.6975745 39.0659543,24.6975745 L1.68375439,24.6975745 C1.07626062,24.6975745 0.460115958,24.2081717 0.308714411,23.6090438 L0.0327772337,22.5171021 C-0.119142607,21.9159232 0.271592184,21.4285714 0.903579803,21.4285714 Z" id="Rectangle-170" stroke-width="1.536" fill="#FFFFFF"></path>
                <path d="M14.6038162,22.9591837 L25.4850911,22.9591837" id="Line" stroke-width="1.024" stroke-linecap="round" stroke-linejoin="round"></path>
            </g>
            <g id="No-wifi" transform="translate(119.000000, 210.000000)">
                <g id="Group-6" transform="translate(3.000000, 1.500000)" fill="#363636">
                    <g id="Group-2" transform="translate(9.000000, 8.750000) rotate(-315.000000) translate(-9.000000, -8.750000) translate(3.000000, 2.500000)">
                        <path d="M11,1.57053343 L11,0.00272291683 C4.90224734,0.135672712 -3.5971226e-13,5.12034575 -3.5971226e-13,11.25 C-3.5971226e-13,11.3335492 0.00091076783,11.4168856 0.00272291683,11.5 L1.50235161,11.5 C1.50078657,11.4282194 1.5,11.356247 1.5,11.2840909 C1.5,5.9902986 5.73375907,1.68535371 11,1.57053343 Z M11,1.57000494 C11.4321628,1.57000494 11.7825,1.21966774 11.7825,0.787504911 C11.7825,0.355342079 11.4321628,0.00500488281 11,0.00500488281 L11,1.57000494 Z M-3.96127575e-13,11.5 C-3.96127575e-13,11.9142136 0.335786438,12.25 0.75,12.25 C1.16421356,12.25 1.5,11.9142136 1.5,11.5 L-3.96127575e-13,11.5 Z" id="Combined-Shape"></path>
                        <path d="M11,4.70615445 L11,3.13834394 C6.56527079,3.2350347 3,6.86025145 3,11.3181818 C3,11.3789449 3.00066238,11.4395532 3.0019803,11.5 L4.501609,11.5 C4.50053818,11.450887 4.5,11.4016427 4.5,11.3522727 C4.5,7.73020431 7.39678252,4.78471569 11,4.70615445 Z M3,11.5 C3,11.9142136 3.33578644,12.25 3.75,12.25 C4.16421356,12.25 4.5,11.9142136 4.5,11.5 L3,11.5 Z M11,4.70501471 C11.4321628,4.70501471 11.7825,4.35467751 11.7825,3.92251468 C11.7825,3.49035184 11.4321628,3.14001465 11,3.14001465 L11,4.70501471 Z" id="Combined-Shape"></path>
                        <path d="M10.6464466,8.01082559 L10.6464466,6.44301508 C8.15191143,6.49740363 6.14644661,8.53658805 6.14644661,11.0441739 C6.14644661,11.0783531 6.1468192,11.1124453 6.14756053,11.1464466 L7.64718922,11.1464466 C7.646695,11.1237791 7.64644661,11.1010509 7.64644661,11.0782648 C7.64644661,9.4065409 8.98342316,8.04708462 10.6464466,8.01082559 Z M6.14644661,11.1464466 C6.14644661,11.5606602 6.48223305,11.8964466 6.89644661,11.8964466 C7.31066017,11.8964466 7.64644661,11.5606602 7.64644661,11.1464466 L6.14644661,11.1464466 Z M10.6464466,8.01143446 C11.0786094,8.01143446 11.4289466,7.66109726 11.4289466,7.22893443 C11.4289466,6.7967716 11.0786094,6.4464344 10.6464466,6.4464344 L10.6464466,8.01143446 Z" id="Combined-Shape"></path>
                    </g>
                    <ellipse id="Oval-47" cx="9" cy="14.75" rx="1" ry="1"></ellipse>
                </g>
                <g id="Line" stroke-linecap="square">
                    <use stroke="#FFFFFF" stroke-width="3.072" xlink:href="#path-21"></use>
                    <use stroke="#363636" stroke-width="1.536" xlink:href="#path-21"></use>
                </g>
                <ellipse id="Oval-62" stroke="#363636" stroke-width="1.536" cx="12" cy="12" rx="12" ry="12"></ellipse>
            </g>
            <g id="No-wifi" transform="translate(37.000000, 210.000000)">
                <g id="Group-6" transform="translate(3.000000, 1.500000)" fill="#363636">
                    <g id="Group-2" transform="translate(9.000000, 8.750000) rotate(-315.000000) translate(-9.000000, -8.750000) translate(3.000000, 2.500000)">
                        <path d="M11,1.57053343 L11,0.00272291683 C4.90224734,0.135672712 -3.57935903e-13,5.12034575 -3.57935903e-13,11.25 C-3.57935903e-13,11.3335492 0.00091076783,11.4168856 0.00272291683,11.5 L1.50235161,11.5 C1.50078657,11.4282194 1.5,11.356247 1.5,11.2840909 C1.5,5.9902986 5.73375907,1.68535371 11,1.57053343 Z M11,1.57000494 C11.4321628,1.57000494 11.7825,1.21966774 11.7825,0.787504911 C11.7825,0.355342079 11.4321628,0.00500488281 11,0.00500488281 L11,1.57000494 Z M-3.95239397e-13,11.5 C-3.95239397e-13,11.9142136 0.335786438,12.25 0.75,12.25 C1.16421356,12.25 1.5,11.9142136 1.5,11.5 L-3.95239397e-13,11.5 Z" id="Combined-Shape"></path>
                        <path d="M11,4.70615445 L11,3.13834394 C6.56527079,3.2350347 3,6.86025145 3,11.3181818 C3,11.3789449 3.00066238,11.4395532 3.0019803,11.5 L4.501609,11.5 C4.50053818,11.450887 4.5,11.4016427 4.5,11.3522727 C4.5,7.73020431 7.39678252,4.78471569 11,4.70615445 Z M3,11.5 C3,11.9142136 3.33578644,12.25 3.75,12.25 C4.16421356,12.25 4.5,11.9142136 4.5,11.5 L3,11.5 Z M11,4.70501471 C11.4321628,4.70501471 11.7825,4.35467751 11.7825,3.92251468 C11.7825,3.49035184 11.4321628,3.14001465 11,3.14001465 L11,4.70501471 Z" id="Combined-Shape"></path>
                        <path d="M10.6464466,8.01082559 L10.6464466,6.44301508 C8.15191143,6.49740363 6.14644661,8.53658805 6.14644661,11.0441739 C6.14644661,11.0783531 6.1468192,11.1124453 6.14756053,11.1464466 L7.64718922,11.1464466 C7.646695,11.1237791 7.64644661,11.1010509 7.64644661,11.0782648 C7.64644661,9.4065409 8.98342316,8.04708462 10.6464466,8.01082559 Z M6.14644661,11.1464466 C6.14644661,11.5606602 6.48223305,11.8964466 6.89644661,11.8964466 C7.31066017,11.8964466 7.64644661,11.5606602 7.64644661,11.1464466 L6.14644661,11.1464466 Z M10.6464466,8.01143446 C11.0786094,8.01143446 11.4289466,7.66109726 11.4289466,7.22893443 C11.4289466,6.7967716 11.0786094,6.4464344 10.6464466,6.4464344 L10.6464466,8.01143446 Z" id="Combined-Shape"></path>
                    </g>
                    <ellipse id="Oval-47" cx="9" cy="14.75" rx="1" ry="1"></ellipse>
                </g>
                <ellipse id="Oval-62" stroke="#363636" stroke-width="1.536" cx="12" cy="12" rx="12" ry="12"></ellipse>
            </g>
            <g id="Headphones" transform="translate(196.000000, 205.000000)">
                <path d="M17,34 C26.3888407,34 34,26.6160395 34,17.5074627 C34,8.39888584 26.3888407,1.01492537 17,1.01492537 C7.61115925,1.01492537 0,8.39888584 0,17.5074627 C0,26.6160395 7.61115925,34 17,34 L17,34 L17,34 L17,34 Z M17,32.4776119 C25.5221785,32.4776119 32.4307692,25.7752478 32.4307692,17.5074627 C32.4307692,9.23967755 25.5221785,2.53731343 17,2.53731343 C8.47782148,2.53731343 1.56923077,9.23967755 1.56923077,17.5074627 C1.56923077,25.7752478 8.47782148,32.4776119 17,32.4776119 L17,32.4776119 L17,32.4776119 L17,32.4776119 Z" id="Combined-Shape" fill="#363636"></path>
                <rect id="Rectangle-171" fill="#F7F7F8" x="2.09230769" y="22.8358209" width="28.7692308" height="11.1641791"></rect>
                <path d="M29.4837303,5.09057705 L27.162077,7.34292728 C21.6227824,1.96898474 12.7170588,1.85149101 7.03055964,6.99044607 L4.70769231,4.73692251 C11.677607,-1.64528622 22.6621218,-1.52740138 29.4837303,5.09057705 Z" id="Combined-Shape" stroke="#363636" stroke-width="1.536" stroke-linecap="round" stroke-linejoin="round" fill="#FFFFFF"></path>
                <g id="Group-3" transform="translate(0.523077, 15.731343)">
                    <g id="Rectangle-116" transform="translate(0.784615, 7.555471) rotate(-90.000000) translate(-0.784615, -7.555471) ">
                        <use fill="#FFFFFF" fill-rule="evenodd" xlink:href="#path-22"></use>
                        <use stroke="#363636" mask="url(#mask-23)" stroke-width="3.072" xlink:href="#path-22"></use>
                    </g>
                    <g id="Rectangle-116" transform="translate(4.541595, 7.312031) rotate(-90.000000) translate(-4.541595, -7.312031) ">
                        <use fill="#FFFFFF" fill-rule="evenodd" xlink:href="#path-24"></use>
                        <use stroke="#363636" mask="url(#mask-25)" stroke-width="3.072" xlink:href="#path-24"></use>
                    </g>
                </g>
                <g id="Group-3" transform="translate(30.338462, 23.343284) rotate(-180.000000) translate(-30.338462, -23.343284) translate(27.200000, 16.238806)">
                    <g id="Rectangle-116" transform="translate(0.784615, 7.555471) rotate(-90.000000) translate(-0.784615, -7.555471) ">
                        <use fill="#FFFFFF" fill-rule="evenodd" xlink:href="#path-26"></use>
                        <use stroke="#363636" mask="url(#mask-27)" stroke-width="3.072" xlink:href="#path-26"></use>
                    </g>
                    <g id="Rectangle-116" transform="translate(4.541595, 7.312031) rotate(-90.000000) translate(-4.541595, -7.312031) ">
                        <use fill="#FFFFFF" fill-rule="evenodd" xlink:href="#path-28"></use>
                        <use stroke="#363636" mask="url(#mask-29)" stroke-width="3.072" xlink:href="#path-28"></use>
                    </g>
                </g>
            </g>
        </g>
    </g>
</svg>