<?xml version="1.0" encoding="UTF-8" standalone="no"?>
<svg width="423px" height="360px" viewBox="0 0 423 360" version="1.1" xmlns="http://www.w3.org/2000/svg" xmlns:xlink="http://www.w3.org/1999/xlink">
    <!-- Generator: Sketch 3.8.3 (29802) - http://www.bohemiancoding.com/sketch -->
    <title>Artboard 4</title>
    <desc>Created with Sketch.</desc>
    <defs>
        <polygon id="path-1" points="31.323527 0.268235294 0.405608108 0.268235294 0.405608108 35.6089412 31.323527 35.6089412 31.323527 0.268235294"></polygon>
        <polygon id="path-3" points="1.05481622 11.7647059 7.27178919 11.7647059 7.27178919 1.48047059 1.05481622 1.48047059 1.05481622 11.7647059"></polygon>
        <polygon id="path-5" points="0 119.731059 173.214649 119.731059 173.214649 2.35223529 0 2.35223529"></polygon>
    </defs>
    <g id="Page-1" stroke="none" stroke-width="1" fill="none" fill-rule="evenodd">
        <rect id="Rectangle-4" fill="#000000" x="0" y="0" width="423" height="360"></rect>
        <g id="Artboard-4">
            <g id="Page-1" transform="translate(125.000000, 119.000000)">
                <g id="Group-3" transform="translate(101.108108, 2.084000)">
                    <mask id="mask-2" fill="white">
                        <use xlink:href="#path-1"></use>
                    </mask>
                    <g id="Clip-2"></g>
                    <path d="M1.22622973,13.1595294 C2.18087838,14.7265882 3.02501351,16.3924706 3.73041892,18.1477647 L3.73041892,18.1454118 C5.04247297,21.3783529 5.82312162,24.7336471 6.09352703,28.0724706 C6.17347297,29.0042353 6.21109459,29.936 6.21109459,30.8630588 C6.21109459,32.4607059 6.08882432,34.0465882 5.8677973,35.6089412 L31.323527,0.267764706 L8.73174324,0.267764706 L0.405608108,11.8230588 L1.22622973,13.1595294 Z" id="Fill-1" fill="#FEFEFE" mask="url(#mask-2)"></path>
                </g>
                <path d="M119.363295,76.4797647 L79.0070514,76.4797647 C79.0070514,76.4797647 96.103727,52.9432941 97.314673,51.0562353 C100.223295,46.5150588 102.259565,42.2515294 102.901484,39.2303529 C103.508132,36.3856471 103.703295,33.4327059 103.458754,30.4609412 C103.214214,27.4915294 102.518214,24.508 101.356646,21.6256471 C100.724132,20.0656471 99.9764027,18.5809412 99.1205108,17.1832941 L99.1111054,17.1974118 C96.8538081,13.548 93.8511324,10.4232941 90.3123486,8.028 C87.8998622,6.39741176 85.2404838,5.10564706 82.3977,4.21858824 C79.5525649,3.33623529 76.5263757,2.85623529 73.4202405,2.86094118 C69.2771595,2.85623529 65.2798622,3.70094118 61.6634838,5.23976471 C56.2295108,7.53858824 51.6373216,11.3550588 48.3830514,16.1762353 C46.7582676,18.5856471 45.4603216,21.2468235 44.5809162,24.0962353 C43.6921054,26.9385882 43.2218351,29.9668235 43.2218351,33.0774118 L43.2218351,36.0209412 L61.8210243,49.1527059 L61.8210243,33.0774118 C61.8210243,31.4491765 62.1455108,29.948 62.7309973,28.5621176 C63.6009973,26.4938824 65.0823486,24.7009412 66.9422676,23.4468235 C67.8710514,22.8209412 68.8844838,22.3244706 69.9684568,21.9927059 C71.0500784,21.6562353 72.1975378,21.4703529 73.4202405,21.4703529 C75.049727,21.4703529 76.5475378,21.7950588 77.9348351,22.3809412 C79.9993216,23.2538824 81.7934027,24.7385882 83.0419703,26.5974118 C83.6674297,27.5221176 84.1612135,28.5409412 84.4974568,29.6232941 C84.8360514,30.7056471 85.0171054,31.8562353 85.0171054,33.0774118 C85.0171054,34.708 84.6926189,36.2115294 84.1094838,37.5927059 C83.8908081,38.1127059 83.6368622,38.6115294 83.3452946,39.0891765 L81.661727,41.428 L43.2100784,94.8209412 L60.8828351,94.8209412 L65.7995108,94.8209412 L132.483835,94.8209412 L132.483835,94.7032941 L119.363295,76.4797647 Z" id="Fill-4" fill="#FEFEFE"></path>
                <polygon id="Fill-6" fill="#FEFEFE" points="0 117.010353 0 107.483294 1.45313514 106.723294 1.45313514 117.010353"></polygon>
                <path d="M9.28360541,110.758118 C8.31014595,110.758118 7.71760541,111.435765 7.59063243,112.621647 L11.0306595,112.621647 C10.9601189,111.605176 10.4804432,110.758118 9.28360541,110.758118 M12.4555784,113.821647 L7.56241622,113.821647 C7.71760541,115.245176 8.52176757,115.852235 9.42468649,115.852235 C10.0430919,115.852235 10.5368757,115.626353 11.0306595,115.259294 L11.8912541,116.193412 C11.2422811,116.812235 10.4663351,117.165176 9.33768649,117.165176 C7.60474054,117.165176 6.1374973,115.767529 6.1374973,113.311059 C6.1374973,110.802824 7.46365946,109.445176 9.38236216,109.445176 C11.4821189,109.445176 12.4979027,111.153412 12.4979027,113.158118 C12.4979027,113.426353 12.4673351,113.664 12.4555784,113.821647" id="Fill-8" fill="#FEFEFE"></path>
                <path d="M20.3170865,117.010353 L18.8639514,117.010353 L16.2139784,109.603294 L17.7353027,109.603294 L19.0614649,113.624471 C19.2989514,114.342118 19.5129243,115.033882 19.6116811,115.443294 C19.6939784,115.033882 19.8914919,114.342118 20.119573,113.624471 L21.3869514,109.603294 L22.9247351,109.603294 L20.3170865,117.010353 Z" id="Fill-10" fill="#FEFEFE"></path>
                <path d="M29.8236,110.758118 C28.8501405,110.758118 28.2576,111.435765 28.130627,112.621647 L31.5706541,112.621647 C31.5001135,111.605176 31.0204378,110.758118 29.8236,110.758118 M32.995573,113.821647 L28.1024108,113.821647 C28.2576,115.245176 29.0617622,115.852235 29.9646811,115.852235 C30.5830865,115.852235 31.0768703,115.626353 31.5706541,115.259294 L32.4312486,116.193412 C31.7822757,116.812235 31.0063297,117.165176 29.8776811,117.165176 C28.1447351,117.165176 26.6774919,115.767529 26.6774919,113.311059 C26.6774919,110.802824 28.0036541,109.445176 29.9223568,109.445176 C32.0221135,109.445176 33.0378973,111.153412 33.0378973,113.158118 C33.0378973,113.426353 33.0073297,113.664 32.995573,113.821647" id="Fill-12" fill="#FEFEFE"></path>
                <polygon id="Fill-14" fill="#FEFEFE" points="37.7387189 117.010353 37.7387189 107.483294 39.1918541 106.723294 39.1918541 117.010353"></polygon>
                <path d="M50.4668189,117.010353 C50.5655757,114.116235 52.3126297,112.833882 54.2595486,111.673882 C55.5998189,110.883294 55.9360622,110.448 55.9360622,109.756235 C55.9360622,108.968 55.4023054,108.457412 54.0455757,108.457412 C53.2155486,108.457412 52.2985216,108.838588 51.6660081,109.445647 L50.7184135,108.318588 C51.6072243,107.483294 52.8651973,106.977412 54.0902514,106.977412 C56.1335757,106.977412 57.4456297,107.850353 57.4456297,109.671529 C57.4456297,111.196235 56.6979,111.845647 54.9649541,112.873882 C53.0744676,113.991529 52.5383595,114.624471 52.3126297,115.570353 L57.5443865,115.570353 L57.5443865,117.010353 L50.4668189,117.010353 Z" id="Fill-16" fill="#FEFEFE"></path>
                <g id="Group-20" transform="translate(68.189189, 107.966353)">
                    <mask id="mask-4" fill="white">
                        <use xlink:href="#path-3"></use>
                    </mask>
                    <g id="Clip-19"></g>
                    <path d="M4.15624865,2.82164706 C3.46495135,2.82164706 2.8583027,3.28517647 2.47738378,3.76517647 L2.47738378,6.88517647 C2.80187027,7.32047059 3.47905946,7.85929412 4.21032973,7.85929412 C5.25668108,7.85929412 5.81865405,7.06870588 5.81865405,5.50164706 C5.81865405,3.64047059 5.22611351,2.82164706 4.15624865,2.82164706 M4.35376216,9.19811765 C3.60603243,9.19811765 2.90062703,8.80282353 2.49149189,8.35105882 L2.49149189,11.0169412 L1.05481622,11.7651765 L1.05481622,1.63576471 L2.49149189,1.63576471 L2.49149189,2.33929412 C3.0276,1.84752941 3.64835676,1.48047059 4.42195135,1.48047059 C6.01616757,1.48047059 7.27178919,2.63811765 7.27178919,5.45929412 C7.27178919,7.99811765 5.88919459,9.19811765 4.35376216,9.19811765" id="Fill-18" fill="#FEFEFE" mask="url(#mask-4)"></path>
                </g>
                <path d="M84.1250027,111.139529 C83.8146243,110.972471 83.4877865,110.871294 83.0104622,110.871294 C82.0957865,110.871294 81.557327,111.520706 81.557327,112.777176 L81.557327,117.010118 L80.1065432,117.010118 L80.1065432,109.603059 L81.557327,109.603059 L81.557327,110.306588 C81.898273,109.814824 82.5166784,109.445412 83.2503,109.445412 C83.8428405,109.445412 84.2096514,109.558353 84.5059216,109.756 L84.1250027,111.139529 Z" id="Fill-21" fill="#FEFEFE"></path>
                <path d="M91.3650486,110.829412 C90.2646162,110.829412 89.587427,111.803529 89.587427,113.269412 C89.587427,114.892941 90.3351568,115.782353 91.4332378,115.782353 C92.5336703,115.782353 93.2531838,114.667059 93.2531838,113.311765 C93.2531838,111.803529 92.5336703,110.829412 91.3650486,110.829412 M91.3791568,117.163529 C89.5168865,117.163529 88.1201838,115.627059 88.1201838,113.311765 C88.1201838,110.883529 89.5592108,109.445882 91.4191297,109.445882 C93.3096162,109.445882 94.720427,110.956471 94.720427,113.269412 C94.720427,115.723529 93.2814,117.163529 91.3791568,117.163529" id="Fill-23" fill="#FEFEFE"></path>
                <path d="M103.806284,111.76 C103.481797,111.322353 102.804608,110.788235 102.073338,110.788235 C101.029338,110.788235 100.465014,111.578824 100.465014,113.143529 C100.465014,115.007059 101.057554,115.825882 102.12977,115.825882 C102.818716,115.825882 103.425365,115.357647 103.806284,114.877647 L103.806284,111.76 Z M103.792176,117.009412 L103.792176,116.303529 C103.258419,116.8 102.637662,117.164706 101.861716,117.164706 C100.2675,117.164706 99.0118784,116.009412 99.0118784,113.185882 C99.0118784,110.644706 100.394473,109.447059 101.932257,109.447059 C102.679986,109.447059 103.383041,109.842353 103.792176,110.291765 L103.792176,107.470588 L105.228851,106.722353 L105.228851,117.009412 L103.792176,117.009412 Z" id="Fill-25" fill="#FEFEFE"></path>
                <path d="M114.642251,117.010353 L114.642251,116.302118 C114.275441,116.840941 113.541819,117.163294 112.779981,117.163294 C111.061143,117.163294 110.144116,116.036235 110.144116,113.848 L110.144116,109.603294 L111.597251,109.603294 L111.597251,113.793882 C111.597251,115.288 112.159224,115.824471 113.120927,115.824471 C114.092035,115.824471 114.642251,115.132706 114.642251,113.932706 L114.642251,109.603294 L116.093035,109.603294 L116.093035,117.010353 L114.642251,117.010353 Z" id="Fill-27" fill="#FEFEFE"></path>
                <path d="M125.71453,111.732471 C125.107881,111.108941 124.574124,110.828941 123.908692,110.828941 C122.852935,110.828941 122.175746,111.777176 122.175746,113.283059 C122.175746,114.737176 122.796503,115.784235 123.953368,115.784235 C124.642314,115.784235 125.051449,115.471294 125.629881,114.864235 L126.561016,115.784235 C125.982584,116.513647 125.248962,117.165412 123.908692,117.165412 C122.105205,117.165412 120.708503,115.640706 120.708503,113.327765 C120.708503,110.871294 122.14753,109.445412 123.953368,109.445412 C125.037341,109.445412 125.883827,109.883059 126.575124,110.701882 L125.71453,111.732471 Z" id="Fill-29" fill="#FEFEFE"></path>
                <path d="M134.786984,116.826588 C134.434281,117.024235 133.942849,117.165412 133.364416,117.165412 C132.334524,117.165412 131.699659,116.527765 131.699659,115.205412 L131.699659,110.927765 L130.641551,110.927765 L130.641551,109.603059 L131.699659,109.603059 L131.699659,107.483059 L133.122227,106.723059 L133.122227,109.603059 L134.956281,109.603059 L134.956281,110.927765 L133.122227,110.927765 L133.122227,114.948941 C133.122227,115.640706 133.350308,115.838353 133.884065,115.838353 C134.264984,115.838353 134.688227,115.697176 134.956281,115.541882 L134.786984,116.826588 Z" id="Fill-31" fill="#FEFEFE"></path>
                <mask id="mask-6" fill="white">
                    <use xlink:href="#path-5"></use>
                </mask>
                <g id="Clip-34"></g>
                <path d="M139.825459,117.008706 L141.278595,117.008706 L141.278595,109.601647 L139.825459,109.601647 L139.825459,117.008706 Z M140.559081,108.641647 C140.039432,108.641647 139.613838,108.218118 139.613838,107.712235 C139.613838,107.189882 140.039432,106.766353 140.559081,106.766353 C141.066973,106.766353 141.490216,107.189882 141.490216,107.712235 C141.490216,108.218118 141.066973,108.641647 140.559081,108.641647 L140.559081,108.641647 Z" id="Fill-33" fill="#FEFEFE" mask="url(#mask-6)"></path>
                <path d="M149.207586,110.829412 C148.107154,110.829412 147.429965,111.803529 147.429965,113.269412 C147.429965,114.892941 148.177695,115.782353 149.275776,115.782353 C150.376208,115.782353 151.095722,114.667059 151.095722,113.311765 C151.095722,111.803529 150.376208,110.829412 149.207586,110.829412 M149.221695,117.163529 C147.359424,117.163529 145.962722,115.627059 145.962722,113.311765 C145.962722,110.883529 147.401749,109.445882 149.261668,109.445882 C151.152154,109.445882 152.562965,110.956471 152.562965,113.269412 C152.562965,115.723529 151.123938,117.163529 149.221695,117.163529" id="Fill-35" fill="#FEFEFE" mask="url(#mask-6)"></path>
                <path d="M161.678449,117.010353 L161.678449,112.819765 C161.678449,111.323294 161.114124,110.786824 160.154773,110.786824 C159.181314,110.786824 158.631097,111.476235 158.631097,112.676235 L158.631097,117.010353 L157.180314,117.010353 L157.180314,109.603294 L158.631097,109.603294 L158.631097,110.304471 C158.997908,109.772706 159.73153,109.445647 160.493368,109.445647 C162.214557,109.445647 163.129232,110.577412 163.129232,112.760941 L163.129232,117.010353 L161.678449,117.010353 Z" id="Fill-36" fill="#FEFEFE" mask="url(#mask-6)"></path>
                <path d="M170.438643,117.164471 C169.436968,117.164471 168.350643,116.769176 167.602914,116.220941 L168.265995,115.117412 C168.957292,115.599765 169.733238,115.851529 170.422184,115.851529 C171.341562,115.851529 171.776562,115.555059 171.776562,115.035059 C171.776562,114.468 171.127589,114.202118 170.057724,113.792706 C168.463508,113.171529 167.885076,112.635059 167.885076,111.463294 C167.885076,110.138588 168.929076,109.446824 170.408076,109.446824 C171.341562,109.446824 172.256238,109.785647 172.919319,110.263294 L172.284454,111.380941 C171.677805,110.955059 171.073508,110.743294 170.368103,110.743294 C169.662697,110.743294 169.352319,111.028 169.352319,111.423294 C169.352319,111.790353 169.606265,112.056235 170.718454,112.493882 C172.369103,113.129176 173.215589,113.583294 173.215589,114.976235 C173.215589,116.616235 171.889427,117.164471 170.438643,117.164471" id="Fill-37" fill="#FEFEFE" mask="url(#mask-6)"></path>
            </g>
        </g>
    </g>
</svg>