<?xml version="1.0" encoding="UTF-8" standalone="no"?>
<svg width="122px" height="123px" viewBox="0 0 122 123" version="1.1" xmlns="http://www.w3.org/2000/svg" xmlns:xlink="http://www.w3.org/1999/xlink">
    <!-- Generator: Sketch 3.8.3 (29802) - http://www.bohemiancoding.com/sketch -->
    <title>logo</title>
    <desc>Created with Sketch.</desc>
    <defs></defs>
    <g id="Page-1" stroke="none" stroke-width="1" fill="none" fill-rule="evenodd">
        <g id="logo" fill="#1FDA9A">
            <path d="M30.75,1.875 C14.8027778,1.875 1.875,14.8027778 1.875,30.75 C1.875,46.6972222 14.8027778,59.625 30.75,59.625 L30.75,1.875 Z M30.75,1.875 L57,1.875 L57,59.625 L30.75,59.625 L30.75,1.875 Z" id="Combined-Shape-Copy-2"></path>
            <path d="M93,63.375 C77.0527778,63.375 64.125,76.3027778 64.125,92.25 C64.125,108.197222 77.0527778,121.125 93,121.125 L93,63.375 Z M93,63.375 L119.25,63.375 L119.25,121.125 L93,121.125 L93,63.375 Z" id="Combined-Shape" transform="translate(91.687500, 92.250000) rotate(-180.000000) translate(-91.687500, -92.250000) "></path>
            <circle id="Oval-2" transform="translate(31.500000, 92.250000) rotate(-180.000000) translate(-31.500000, -92.250000) " cx="31.5" cy="92.25" r="28.875"></circle>
            <circle id="Oval-2-Copy" cx="89.625" cy="30.75" r="28.875"></circle>
        </g>
    </g>
</svg>