<?xml version="1.0" encoding="UTF-8" standalone="no"?>
<svg width="423px" height="360px" viewBox="0 0 423 360" version="1.1" xmlns="http://www.w3.org/2000/svg" xmlns:xlink="http://www.w3.org/1999/xlink">
    <!-- Generator: Sketch 3.8.3 (29802) - http://www.bohemiancoding.com/sketch -->
    <title>Artboard 4</title>
    <desc>Created with Sketch.</desc>
    <defs></defs>
    <g id="Page-1" stroke="none" stroke-width="1" fill="none" fill-rule="evenodd">
        <rect id="Rectangle-4" fill="#2F2F2F" x="-7" y="0" width="437" height="373"></rect>
        <g id="Artboard-4">
            <path d="M133.775509,126.486954 L133.773485,126.487966 L133.775509,126.486954 Z" id="Fill-3" fill="#DEDDDC"></path>
            <path id="Fill-5" fill="#DEDDDC"></path>
            <path id="Fill-7" fill="#DEDDDC"></path>
            <polygon id="Fill-9" fill="#DEDDDC" points="132.159369 127.970802 132.15804 127.970802 132.15804 127.972129"></polygon>
            <path d="M141.574935,116.692827 L141.574935,116.693839 L141.574935,116.692827 Z" id="Fill-17" fill="#DEDDDC"></path>
            <polygon id="Fill-19" fill="#DEDDDC" points="141.812134 113.282901 141.812134 113.282901 141.813462 113.285555"></polygon>
            <polygon id="Fill-81" fill="#DEDDDC" points="313.529079 114.263194 313.529079 114.265848 313.531736 114.268502"></polygon>
            <path d="M310.780688,109.209326 L310.782713,109.210338 L310.780688,109.209326 Z" id="Fill-83" fill="#DEDDDC"></path>
            <path id="Fill-87" fill="#DEDDDC"></path>
            <path id="Fill-89" fill="#DEDDDC"></path>
            <path id="Fill-91" fill="#DEDDDC"></path>
            <path id="Fill-93" fill="#DEDDDC"></path>
            <polygon id="Fill-95" fill="#DEDDDC" points="297.223009 121.85854 297.223009 121.85854 297.220352 121.855886"></polygon>
            <path id="Fill-121" fill="#DEDDDC"></path>
            <polygon id="Fill-125" fill="#DEDDDC" points="224.439212 265.000154 224.440541 265.000154 224.440541 264.9975"></polygon>
            <path id="Fill-127" fill="#DEDDDC"></path>
            <path d="M170.371186,184.961684 C170.740702,182.951917 171.164887,182.047217 173.991433,181.922745 C176.67726,181.804345 180.304593,185.212652 178.013593,185.561781 C176.647901,185.771258 176.674223,185.432249 175.271073,184.614579 C173.754538,183.729108 172.872761,184.614579 172.769499,185.551661 C172.612581,186.96538 175.496832,188.760611 173.935753,189.592448 C172.239015,190.495124 170.064437,186.633455 170.371186,184.961684 M192.001555,177.456932 C192.522927,175.293345 193.093906,173.82498 194.831139,172.930401 C195.268484,172.704732 195.348461,172.120826 194.946549,171.837476 C193.607179,170.880154 193.146549,169.676925 193.932151,168.425121 C194.807854,167.026581 197.132263,171.329468 203.700542,170.647402 C208.30684,170.170765 211.094917,168.192368 211.942273,168.622454 C212.613477,168.964499 212.238898,170.370122 211.741823,171.262678 C211.014939,172.568116 210.684905,173.226907 209.205828,173.553773 C208.693567,173.666101 208.497167,174.25203 208.826188,174.654794 C209.844635,175.900526 210.38423,177.473124 210.60594,179.197516 C211.084793,182.938761 209.36882,187.66465 200.21494,187.971276 C190.545762,188.295106 191.252399,180.572781 192.001555,177.456932 M198.822927,194.550078 C200.09953,193.86194 200.781869,193.650439 202.041262,194.67455 C202.241712,194.837477 202.225514,195.082373 202.491768,195.122852 C202.761059,195.16333 202.886593,194.920458 203.07692,194.81825 C204.353522,194.131123 205.035862,193.920634 206.295254,194.944745 C207.49188,195.916234 207.387605,197.337037 206.013815,197.387635 C205.466121,197.407875 205.466121,197.407875 205.331475,196.538595 C205.189743,195.597465 204.323151,195.626812 203.757235,195.971893 C202.902791,196.496092 203.11134,197.636579 201.989631,197.387635 C201.181757,197.208517 201.198967,197.04559 201.077482,196.269411 C200.933725,195.328281 200.068146,195.355604 199.502229,195.701697 C198.647786,196.225897 199.120565,197.042554 198.00088,196.791586 C196.782994,196.518355 197.760947,195.12184 198.822927,194.550078 M158.125518,203.61832 C159.036654,204.600941 157.715507,202.100369 158.549703,199.953985 C159.582323,197.299594 162.539466,195.441622 165.270849,195.406203 C169.934853,195.346497 172.067924,199.923626 175.231591,199.657479 C183.783108,198.941006 194.014153,199.388296 194.131589,208.931151 C194.301667,222.952975 184.833952,224.180492 178.578497,223.378001 C176.903019,223.162452 176.433278,223.667424 176.75825,223.808088 C183.450037,226.697255 194.449474,227.619158 202.281194,226.016201 C212.735974,223.876901 219.972418,221.810463 221.156895,217.052191 C222.07613,213.357497 220.876468,208.396832 220.917975,205.875008 C220.991878,201.406159 220.900765,199.569438 220.859258,193.313454 C220.781305,181.788154 222.9164,176.12923 224.470393,170.959088 C224.917862,169.472507 226.160044,167.875622 226.249133,166.376898 C226.380742,164.138425 226.140809,162.635653 223.62,162.824891 C218.479168,163.210451 212.371519,167.585187 202.786368,164.968239 C187.689857,160.845483 195.098405,153.413592 187.116854,152.598958 C184.016967,152.2812 181.5488,158.772973 175.362187,160.61779 C170.433953,162.086155 167.386709,161.921204 164.825405,161.779529 C157.73373,161.384861 158.000996,156.053816 157.235642,157.556588 C156.699084,158.614094 156.921806,161.145025 157.382436,163.867218 C157.491772,164.507794 157.878499,165.063364 158.445428,165.396301 C159.152065,165.810196 159.941716,166.222067 160.829567,166.595483 C166.899758,169.149689 170.386372,165.861806 170.811569,167.408093 C171.169949,168.722639 170.477485,169.669841 169.075348,170.181896 C168.742277,170.302321 168.646102,170.706096 168.885022,170.963135 C169.733391,171.871882 170.012806,173.070052 170.225404,174.660865 C170.612131,177.544973 170.532154,184.59434 161.840928,183.435637 C159.756452,183.157346 158.136654,182.662494 156.884348,182.026978 C156.542166,181.853932 156.13013,181.97132 155.951953,182.306281 C155.285811,183.559097 154.677374,185.151934 154.279512,187.370167 C154.259264,187.48452 154.375687,187.579645 154.487048,187.538154 C155.257464,187.254803 155.875012,187.332725 156.804371,188.087652 C157.003808,188.249567 157.005833,188.663462 157.271075,188.702929 C157.541379,188.74442 157.64869,188.332549 157.838004,188.231352 C159.115619,187.544226 159.798971,187.332725 161.058364,188.356836 C162.252964,189.328325 162.150715,190.749127 160.776924,190.799726 C160.227205,190.820977 160.227205,190.820977 160.094584,189.950685 C159.949815,189.009555 159.085248,189.038902 158.519331,189.384995 C157.662863,189.909194 157.871412,191.049682 156.751727,190.799726 C155.943854,190.620608 155.959039,190.458693 155.839579,189.681502 C155.695822,188.740372 154.830243,188.768707 154.264326,189.1148 C154.158027,189.180578 154.045653,189.231176 154.003134,189.320229 C153.741941,189.87074 153.887723,190.55989 153.854315,191.246004 C153.580974,196.890759 156.955214,202.355385 158.125518,203.61832" id="Fill-135" fill="#DDDDDC"></path>
            <path d="M231.092834,128.204971 C229.573261,129.132946 231.187997,130.265337 232.306669,133.673645 C233.321067,136.763182 232.407907,139.376082 235.782147,140.901118 C238.533778,142.145838 241.454475,144.155606 244.764936,145.45902 C258.397555,150.825485 274.761558,155.36922 274.761558,155.36922 C277.047497,156.440893 279.529837,154.312725 278.760433,151.938649 C275.658521,142.358351 268.655934,129.281705 254.688219,126.461351 C241.669098,123.831247 235.91578,125.260145 231.092834,128.204971" id="Fill-137" fill="#DDDDDC"></path>
            <path d="M216.930439,111.763937 C216.259235,110.739826 209.008618,111.311588 206.482746,111.74471 C201.734715,112.559344 201.614243,113.309212 197.837078,115.142897 C191.302208,118.314404 188.381511,120.666217 185.264413,123.668725 C182.428755,126.39699 183.520094,124.496514 185.317056,127.892678 C186.050015,129.276038 186.991522,131.688569 187.256764,133.03651 C187.52808,134.39963 187.513907,134.751795 188.089947,135.064493 C188.438203,135.253731 189.213681,135.271946 189.600408,134.574701 C190.323243,133.272298 190.217956,133.131635 190.645177,132.059961 C190.645177,132.059961 191.667674,129.664633 191.887359,129.201152 C193.144727,126.517414 197.043377,123.477463 202.280384,119.55204 C208.159236,115.145933 211.183196,114.126882 214.715366,112.969191 C216.803892,112.284089 217.287807,112.308376 216.930439,111.763937" id="Fill-139" fill="#DDDDDC"></path>
            <path d="M227.139212,157.361784 C227.555297,157.361784 228.130325,157.54495 228.900742,157.806038 C229.844273,158.127843 230.799954,158.958669 231.158334,159.430246 C232.064408,160.627404 232.754847,162.198989 232.917839,163.348585 C233.284318,165.931126 230.93055,171.356285 229.046523,182.64276 C227.591743,191.353778 228.151585,197.488326 228.243711,202.440896 C228.39253,210.15209 228.260922,236.950006 241.651584,240.185266 C242.894778,240.486833 244.930661,240.282415 246.248771,240.056747 C247.825037,239.787563 250.701189,238.656183 253.844609,237.892148 C255.897702,237.391224 259.763955,236.816426 259.793314,236.816426 C260.249895,236.816426 260.473629,237.353781 260.565755,237.531887 C261.573067,239.444506 255.4148,241.371293 248.458782,242.639288 C244.735273,243.318318 241.582742,243.14932 240.799166,243.003596 C227.166546,240.46457 226.27667,221.199741 225.070933,202.848719 C224.743937,197.861742 223.969471,191.571351 225.633813,182.861345 C227.790168,171.573858 230.732125,165.816774 229.752148,163.132024 C229.467671,162.349773 229.384656,162.268815 228.250798,160.781223 C227.529988,159.834021 226.180494,159.660974 226.23415,158.688474 C226.263509,158.200705 226.552035,157.860684 226.697817,157.649183 C226.845624,157.440717 226.850685,157.361784 227.139212,157.361784" id="Fill-141" fill="#DDDDDC"></path>
            <path d="M195.980081,136.060067 C197.476369,133.438058 199.697516,125.916103 210.181655,127.840865 C215.305276,128.781995 222.068942,131.321022 222.009212,141.002517 C222.003138,141.752385 221.164893,149.738834 214.820349,155.304656 C210.385142,159.198708 199.181206,158.032921 196.94791,152.61687 C192.749598,142.426355 195.518439,136.870653 195.980081,136.060067 M194.30764,154.140893 C197.202016,161.216571 211.614163,162.687972 217.384691,157.593727 C225.636546,150.308572 225.092902,139.560463 225.041271,138.585938 C224.92586,136.419315 224.129122,125.855385 211.241609,124.458869 C198.026088,123.027947 195.103366,129.575378 193.13025,133.601997 C191.786831,136.337346 188.862084,140.826434 194.30764,154.140893" id="Fill-143" fill="#DDDDDC"></path>
            <path d="M246.391111,120.491652 C246.391111,120.491652 238.179751,114.044406 226.941394,112.974756 C226.381552,112.921122 224.646344,113.31073 223.729133,113.660871 C223.729133,113.660871 216.998875,115.421694 212.468505,118.970665 C211.381216,119.82173 210.446795,120.167823 210.633072,120.546299 C210.946908,121.182826 211.079528,119.875364 214.975141,120.297355 C219.04387,120.739584 222.778515,122.659287 224.795163,124.374572 C225.113048,124.644768 225.520022,124.790491 225.934083,124.750012 C226.6964,124.678163 226.849268,124.551667 227.981102,124.08009 C233.919684,121.612913 240.601348,121.043175 245.778625,121.726253 C246.646229,121.840605 247.409559,120.992576 246.391111,120.491652" id="Fill-145" fill="#DDDDDC"></path>
            <path d="M218.729831,160.131843 C218.212509,160.616576 218.554691,161.04565 219.199573,160.746107 C221.115995,159.855576 224.286749,157.893371 225.518807,156.039446 C226.602047,154.408154 228.607558,150.953296 229.595635,147.635054 C230.056264,146.08978 230.827693,141.758558 230.388323,137.772417 C229.885173,133.201359 226.952328,128.844838 226.606096,128.442075 C225.327469,126.956507 225.327469,127.271229 225.467176,128.017049 C225.555253,128.477494 228.095297,133.025277 228.615657,137.716759 C229.036804,141.521757 228.064926,145.886374 227.750078,147.243423 C227.125444,149.936269 225.499572,153.010626 224.05289,155.308805 C223.102272,156.819673 220.336468,158.625023 218.729831,160.131843" id="Fill-147" fill="#DDDDDC"></path>
            <path d="M159.54851,132.147091 C160.28653,131.12298 161.878994,128.496924 165.994291,127.965641 C170.771681,127.346317 174.946709,130.7526 176.737597,136.309314 C176.95222,136.970129 178.166056,144.271476 173.57393,150.550735 C170.36167,154.939639 162.999691,155.948571 159.879556,151.499961 C154.012853,143.129976 158.541199,133.55069 159.54851,132.147091 M158.350872,152.97035 C162.40644,158.786128 172.182929,157.847022 176.353908,152.110178 C182.316787,143.904132 179.600589,134.320798 179.390015,133.439374 C178.739059,130.721229 177.488778,124.203145 164.823988,124.757703 C159.621401,124.984384 157.782931,128.053682 155.704528,131.88398 C155.171008,132.867612 150.722639,142.02592 158.350872,152.97035" id="Fill-149" fill="#DDDDDC"></path>
            <path d="M184.763896,115.549 C182.493142,116.256365 182.400004,116.338335 178.603604,117.697407 C176.284256,118.529245 174.570308,120.483354 173.617665,121.094583 C173.463784,121.193756 173.516428,121.400197 173.685494,121.472047 C174.81834,121.952731 174.695843,121.667356 176.091905,122.165245 C177.496067,122.668192 177.09213,122.537649 177.849386,122.804808 C178.035662,122.869574 178.207766,122.947496 178.35051,122.808856 C179.284931,121.896061 181.398767,120.545084 183.461983,119.276077 C185.622388,117.947363 191.30079,114.675672 191.30079,114.675672 C191.702703,114.051288 186.860521,114.896281 184.763896,115.549" id="Fill-151" fill="#DDDDDC"></path>
            <path d="M176.659948,155.513324 C176.223615,156.069906 176.628565,156.443322 177.217766,156.051691 C178.976258,154.885904 181.810904,152.475397 182.744312,150.459557 C183.566359,148.685578 184.563547,145.651699 185.033288,142.226188 C185.257023,140.588824 185.283344,138.433333 185.222602,136.939669 C185.156798,135.305341 184.777158,133.906802 184.654661,133.400818 C183.593693,128.94816 180.310566,125.946664 179.710229,126.075184 C179.108879,126.202692 182.320128,130.265742 182.502355,133.975616 C182.543862,134.823645 183.039925,138.057893 182.809104,141.158562 C182.604604,143.913138 181.771421,146.788138 180.693244,149.275555 C179.986607,150.910895 178.015516,153.785895 176.659948,155.513324" id="Fill-153" fill="#DDDDDC"></path>
            <path d="M187.522208,144.266011 C186.859103,144.888372 186.721421,145.851765 186.618159,146.667411 C186.48655,147.714797 185.861916,148.749028 186.194987,149.076906 C186.551342,149.427047 187.404773,149.247928 188.161016,149.388592 C188.852467,149.5161 189.450779,149.991725 189.82232,149.724565 C190.408484,149.302575 189.873951,149.588961 189.42142,146.989216 C189.312084,146.356737 189.52367,145.166663 189.222995,144.707229 C188.836269,144.114216 188.039531,143.780267 187.522208,144.266011" id="Fill-155" fill="#DDDDDC"></path>
            <path d="M250.031302,212.758615 C250.10318,213.869755 250.914091,215.112452 251.837376,215.082093 C252.759648,215.051734 254.057511,213.876839 253.98462,212.766711 C253.913754,211.657594 252.797106,210.79135 251.874834,210.820697 C250.951549,210.852068 249.960436,211.648486 250.031302,212.758615" id="Fill-157" fill="#DDDDDC"></path>
            <path d="M249.747534,221.258536 C249.557207,222.311995 250.039097,223.687259 250.923911,223.906856 C251.808726,224.125441 253.313112,223.378608 253.505463,222.32515 C253.694777,221.271692 252.837297,220.165611 251.95147,219.948038 C251.067668,219.727429 249.93786,220.205078 249.747534,221.258536" id="Fill-159" fill="#DDDDDC"></path>
            <path d="M173.472592,218.14117 C174.163031,212.788873 171.149195,207.518545 166.120737,205.370138 C161.89509,203.564787 160.317813,205.382281 160.399815,204.573719 C160.723774,201.340482 163.151446,200.416556 165.619612,200.628057 C168.047283,200.836522 169.060669,204.602054 172.650545,204.952195 C177.100938,205.383293 182.108137,203.67914 185.770903,204.632413 C189.010498,205.476394 190.763929,211.584631 187.411961,216.051457 C185.584627,218.486251 179.613649,219.963724 173.972704,219.94146 C173.538396,219.940448 173.230635,219.535661 173.314662,219.116707 C173.376416,218.798949 173.42906,218.474107 173.472592,218.14117" id="Fill-161" fill="#DDDDDC"></path>
            <path d="M150.320423,216.05348 C150.914686,210.122338 154.507599,206.289004 160.533246,206.874934 C161.268229,206.945771 162.69365,207.507413 162.047756,207.799872 C161.441345,208.076139 160.878465,208.446519 160.396575,209.518193 C160.178915,210.001914 160.24067,210.642489 159.879252,210.605046 C156.710524,210.271097 154.92166,212.392181 154.009512,215.951272 C153.028522,219.769426 153.800963,221.788301 157.47689,223.339648 C161.15383,224.890994 164.425821,223.079572 165.917047,219.426369 C166.317947,218.448808 166.393875,217.430768 166.21671,216.447136 C166.178239,216.229563 165.825934,215.291469 165.863391,215.072884 C166.05473,213.930372 167.288813,213.071212 168.295112,212.615826 C168.620084,212.468079 169.092862,212.476175 169.255854,212.792921 C170.014122,214.279501 170.436282,215.951272 170.420084,217.702988 C170.379589,222.578648 166.895,227.577768 161.958667,227.957256 C152.935384,228.65349 149.681616,222.427865 150.320423,216.05348" id="Fill-163" fill="#DDDDDC"></path>
            <path d="M162.237576,211.061343 C162.23049,211.536968 162.121153,211.581494 162.814629,212.009556 C163.399781,212.370829 163.591119,212.902112 163.976834,213.026584 C164.775596,213.285648 164.903155,212.198794 165.274696,211.638164 C166.089657,210.407612 167.450287,210.878177 167.297418,210.369157 C166.96131,209.243849 165.949949,208.639704 164.98212,208.353317 C163.659961,207.962698 162.257824,209.703282 162.237576,211.061343" id="Fill-165" fill="#DDDDDC"></path>
            <path d="M249.221606,217.000682 C248.230492,216.042349 247.446915,214.663037 247.14624,213.284737 C246.559064,210.585819 248.670874,208.203647 250.898096,207.733082 C253.12633,207.263529 256.155351,208.913037 256.742527,211.60993 C257.183922,213.642973 255.757488,216.093959 254.073911,217.383206 C255.130829,218.076404 255.985272,219.129862 256.267724,220.432265 C256.856925,223.13017 254.147814,226.570861 251.919581,227.041425 C249.692359,227.510978 247.260638,224.802953 246.673462,222.105047 C246.194609,219.905029 247.511707,217.914489 249.221606,217.000682 M265.971323,187.269072 C263.904056,189.608741 259.725991,190.835246 257.386397,190.835246 C252.706195,190.835246 248.913844,186.328954 248.913844,179.523471 C248.913844,172.719001 252.706195,167.202765 257.386397,167.202765 C262.066599,167.202765 267.988983,171.267839 267.988983,178.07231 C267.988983,181.475557 268.036564,184.928391 265.971323,187.269072 M231.071776,153.969263 C233.591573,155.90617 235.452316,157.672053 236.472788,160.644202 C238.066264,165.286098 234.590786,168.725776 232.838368,179.843253 C231.485837,188.422715 231.655916,199.527036 231.655916,199.527036 C231.483812,208.348359 231.659965,242.947533 250.257264,235.528798 C253.481673,234.241576 261.293145,234.640291 263.441402,230.131975 C268.560974,219.392974 265.170535,215.672981 267.077847,206.815228 C269.102593,197.423156 277.343313,191.978769 278.90338,186.068878 C281.901017,174.702457 278.932739,169.198365 278.12284,167.202765 C276.631614,163.535394 264.292808,161.125899 255.155126,158.433053 C250.540728,157.072968 246.403158,155.83432 242.059064,154.273866 C237.290786,152.558581 236.708671,151.518278 234.19596,150.524525 C232.695623,149.9305 231.357265,148.766738 230.444105,151.152957 C229.781,152.885446 230.253779,153.337796 231.071776,153.969263" id="Fill-167" fill="#DDDDDC"></path>
            <path d="M253.9503,179.269366 C253.9503,183.464984 254.983933,184.129847 257.31138,184.755243 C259.26526,185.280454 263.205417,184.639879 263.205417,180.055665 C263.205417,174.445316 260.989332,174.351203 258.807668,173.401978 C256.167398,172.252382 253.9503,175.073748 253.9503,179.269366" id="Fill-169" fill="#DDDDDC"></path>
            <path d="M200.847167,132.569588 C200.791487,132.278141 200.893736,131.879426 201.010159,131.688164 C201.433331,130.987882 202.293849,130.266349 203.675738,129.791737 C204.547392,129.491182 205.718708,129.561008 206.448629,129.530649 C206.807009,129.516481 207.111734,129.772509 207.158303,130.12265 L210.423207,154.959373 C210.465727,155.283202 210.263252,155.582745 209.945367,155.679894 C209.446267,155.832701 208.395423,156.316421 207.268651,156.184865 C203.903522,155.792222 204.265952,155.344932 204.200148,154.853116 C203.731419,151.29605 200.847167,132.569588 200.847167,132.569588" id="Fill-171" fill="#DDDDDC"></path>
            <path d="M165.206849,129.337157 C164.310213,129.616973 162.575635,129.453428 162.21338,131.597272 C162.21338,131.597272 161.253651,147.034047 161.722379,149.785587 C161.873223,150.676118 162.438127,151.557542 164.069061,152.318542 C165.619004,153.042099 167.681209,152.705113 167.683234,152.209249 C167.684246,148.621824 168.076179,129.682783 168.076179,129.682783 C168.091365,129.387288 167.779596,128.534272 165.206849,129.337157 Z" id="Fill-173" fill="#DDDDDC"></path>
            <path d="M201.699383,175.270879 C198.093309,175.282011 197.555739,176.271716 197.084985,178.225825 C196.69016,179.865213 196.319631,183.931299 201.40782,183.760276 C206.226717,183.598361 205.924017,180.571566 205.631441,178.607337 C205.289259,176.312194 204.692971,175.262784 201.699383,175.270879" id="Fill-175" fill="#DDDDDC"></path>
            <path d="M159.057104,176.748251 C159.124933,173.299465 160.182863,172.830924 162.022346,172.462568 C163.565203,172.152906 167.36059,171.965692 166.95969,176.822125 C166.578026,181.41747 163.778813,181.003575 161.96869,180.642303 C159.851817,180.221324 159.00851,179.111196 159.057104,176.748251" id="Fill-177" fill="#DDDDDC"></path>
            <path d="M282.229533,161.108797 C282.103998,162.900991 281.773965,165.012968 280.930658,164.953262 C280.54798,164.926951 280.308048,164.332926 279.318959,162.720861 C278.341006,161.121952 277.232458,161.180646 277.235495,160.577514 C277.240557,159.772999 277.778127,160.445958 279.34933,159.30547 C280.519634,158.458453 280.6887,157.204625 281.15338,157.237008 C281.598824,157.268379 282.356079,159.316602 282.229533,161.108797" id="Fill-179" fill="#DDDDDC"></path>
        </g>
    </g>
</svg>