<?xml version="1.0" encoding="UTF-8" standalone="no"?>
<svg width="423px" height="360px" viewBox="0 0 423 360" version="1.1" xmlns="http://www.w3.org/2000/svg" xmlns:xlink="http://www.w3.org/1999/xlink">
    <!-- Generator: Sketch 41.2 (35397) - http://www.bohemiancoding.com/sketch -->
    <title>tender</title>
    <desc>Created with Sketch.</desc>
    <defs>
        <rect id="path-1" x="5.24050633" y="0" width="196.518987" height="349"></rect>
        <filter x="-50%" y="-50%" width="200%" height="200%" filterUnits="objectBoundingBox" id="filter-2">
            <feOffset dx="0" dy="2" in="SourceAlpha" result="shadowOffsetOuter1"></feOffset>
            <feGaussianBlur stdDeviation="6.5" in="shadowOffsetOuter1" result="shadowBlurOuter1"></feGaussianBlur>
            <feColorMatrix values="0 0 0 0 0   0 0 0 0 0   0 0 0 0 0  0 0 0 0.25 0" type="matrix" in="shadowBlurOuter1"></feColorMatrix>
        </filter>
        <linearGradient x1="0%" y1="100%" x2="84.1589881%" y2="3.12916416%" id="linearGradient-3">
            <stop stop-color="#FF9F9F" offset="0%"></stop>
            <stop stop-color="#FF6666" offset="100%"></stop>
        </linearGradient>
        <ellipse id="path-4" cx="103.762025" cy="30.3478261" rx="6.81265823" ry="6.80209895"></ellipse>
        <filter x="-50%" y="-50%" width="200%" height="200%" filterUnits="objectBoundingBox" id="filter-5">
            <feOffset dx="0" dy="0" in="SourceAlpha" result="shadowOffsetOuter1"></feOffset>
            <feGaussianBlur stdDeviation="1" in="shadowOffsetOuter1" result="shadowBlurOuter1"></feGaussianBlur>
            <feComposite in="shadowBlurOuter1" in2="SourceAlpha" operator="out" result="shadowBlurOuter1"></feComposite>
            <feColorMatrix values="0 0 0 0 0   0 0 0 0 0   0 0 0 0 0  0 0 0 0.1 0" type="matrix" in="shadowBlurOuter1"></feColorMatrix>
        </filter>
        <mask id="mask-6" maskContentUnits="userSpaceOnUse" maskUnits="objectBoundingBox" x="0" y="0" width="13.6253165" height="13.6041979" fill="white">
            <use xlink:href="#path-4"></use>
        </mask>
        <ellipse id="path-7" cx="51.8810127" cy="51.8005997" rx="4.19240506" ry="4.18590705"></ellipse>
        <filter x="-50%" y="-50%" width="200%" height="200%" filterUnits="objectBoundingBox" id="filter-8">
            <feOffset dx="0" dy="0" in="SourceAlpha" result="shadowOffsetOuter1"></feOffset>
            <feGaussianBlur stdDeviation="1" in="shadowOffsetOuter1" result="shadowBlurOuter1"></feGaussianBlur>
            <feColorMatrix values="0 0 0 0 0   0 0 0 0 0   0 0 0 0 0  0 0 0 0.1 0" type="matrix" in="shadowBlurOuter1"></feColorMatrix>
        </filter>
    </defs>
    <g id="Page-1" stroke="none" stroke-width="1" fill="none" fill-rule="evenodd">
        <g id="tender">
            <g id="Group-19">
                <rect id="Rectangle-4" fill="#FF6666" x="0" y="0" width="423" height="360"></rect>
                <g id="Group" transform="translate(108.000000, 26.000000)">
                    <g id="Rectangle">
                        <use fill="black" fill-opacity="1" filter="url(#filter-2)" xlink:href="#path-1"></use>
                        <use fill="#FFFFFF" fill-rule="evenodd" xlink:href="#path-1"></use>
                    </g>
                    <g id="Status-Bar/Black/100%" transform="translate(5.240506, 0.000000)" fill="#030303">
                        <g id="Pin-Right" transform="translate(162.033987, 1.576361)">
                            <path d="M19.5996156,1.30625 C19.1635229,1.30625 18.81,1.66323066 18.81,2.08183594 L18.81,5.49441406 C18.81,5.92275835 19.1618412,6.27 19.5996156,6.27 L29.7766344,6.27 C30.2127271,6.27 30.56625,5.91301934 30.56625,5.49441406 L30.56625,2.08183594 C30.56625,1.65349165 30.2144088,1.30625 29.7766344,1.30625 L19.5996156,1.30625 Z M30.8275,2.87375 L30.8275,4.7025 L31.219375,4.7025 C31.4358016,4.7025 31.61125,4.53373352 31.61125,4.31466916 L31.61125,3.26158084 C31.61125,3.04738778 31.429472,2.87375 31.219375,2.87375 L30.8275,2.87375 Z M19.5980096,1.5675 C19.3070883,1.5675 19.07125,1.80628089 19.07125,2.09441019 L19.07125,5.48183981 C19.07125,5.77284427 19.3058828,6.00875 19.5980096,6.00875 L29.7782404,6.00875 C30.0691617,6.00875 30.305,5.76996911 30.305,5.48183981 L30.305,2.09441019 C30.305,1.80340573 30.0703672,1.5675 29.7782404,1.5675 L19.5980096,1.5675 Z M19.5972739,1.82875 C19.4510433,1.82875 19.3325,1.94180438 19.3325,2.08587013 L19.3325,5.49037987 C19.3325,5.6323834 19.4527924,5.7475 19.5972739,5.7475 L29.7789761,5.7475 C29.9252067,5.7475 30.04375,5.63444562 30.04375,5.49037987 L30.04375,2.08587013 C30.04375,1.9438666 29.9234576,1.82875 29.7789761,1.82875 L19.5972739,1.82875 Z" id="Battery"></path>
                            <text id="100%" font-family="SFUIText-Regular, SF UI Text" font-size="6.27" font-weight="normal">
                                <tspan x="1.49096191" y="6.26125">100%</tspan>
                            </text>
                        </g>
                        <text id="9:41-AM" font-family="SFUIText-Semibold, SF UI Text" font-size="6.27" font-weight="500">
                            <tspan x="85.5832559" y="7.83860273">9:41 AM</tspan>
                        </text>
                        <g id="Pin-Left" transform="translate(3.135000, 1.576361)">
                            <path d="M47.1004599,4.9316185 C46.8297804,4.6217453 46.4253589,4.42500648 45.9735017,4.42500648 C45.5301313,4.42500648 45.1324315,4.61442433 44.8619363,4.9142785 L45.9917767,6.00875 L47.1004599,4.9316185 Z M48.2390269,3.82545368 C47.6753972,3.23518709 46.8690017,2.86562824 45.9735017,2.86562824 C45.0856223,2.86562824 44.2853373,3.22892404 43.7224184,3.8104324 L44.2919586,4.36214348 C44.7088646,3.92155625 45.3078811,3.64531736 45.9735017,3.64531736 C46.6471717,3.64531736 47.2526169,3.92827781 47.6700897,4.37819957 L48.2390269,3.82545368 L48.2390269,3.82545368 Z M49.37625,2.72059445 C48.5208954,1.84935568 47.3126728,1.30625 45.9735017,1.30625 C44.6410991,1.30625 43.4383247,1.84387953 42.58375,2.70740915 L43.153044,3.25888183 C43.8618267,2.5363804 44.8633611,2.08593912 45.9735017,2.08593912 C47.0908364,2.08593912 48.0981528,2.54223738 48.807702,3.27296232 L49.37625,2.72059445 Z" id="Wi-Fi"></path>
                            <text id="Carrier" font-family="SFUIText-Regular, SF UI Text" font-size="6.27" font-weight="normal">
                                <tspan x="19.855" y="6.26125">Sketch</tspan>
                            </text>
                            <path d="M1.698125,5.225 C2.49168915,5.225 3.135,4.58168915 3.135,3.788125 C3.135,2.99456085 2.49168915,2.35125 1.698125,2.35125 C0.90456085,2.35125 0.26125,2.99456085 0.26125,3.788125 C0.26125,4.58168915 0.90456085,5.225 1.698125,5.225 Z M5.355625,5.225 C6.14918915,5.225 6.7925,4.58168915 6.7925,3.788125 C6.7925,2.99456085 6.14918915,2.35125 5.355625,2.35125 C4.56206085,2.35125 3.91875,2.99456085 3.91875,3.788125 C3.91875,4.58168915 4.56206085,5.225 5.355625,5.225 Z M9.013125,5.225 C9.80668915,5.225 10.45,4.58168915 10.45,3.788125 C10.45,2.99456085 9.80668915,2.35125 9.013125,2.35125 C8.21956085,2.35125 7.57625,2.99456085 7.57625,3.788125 C7.57625,4.58168915 8.21956085,5.225 9.013125,5.225 Z M12.670625,5.225 C13.4641891,5.225 14.1075,4.58168915 14.1075,3.788125 C14.1075,2.99456085 13.4641891,2.35125 12.670625,2.35125 C11.8770609,2.35125 11.23375,2.99456085 11.23375,3.788125 C11.23375,4.58168915 11.8770609,5.225 12.670625,5.225 Z M16.328125,5.225 C17.1216891,5.225 17.765,4.58168915 17.765,3.788125 C17.765,2.99456085 17.1216891,2.35125 16.328125,2.35125 C15.5345609,2.35125 14.89125,2.99456085 14.89125,3.788125 C14.89125,4.58168915 15.5345609,5.225 16.328125,5.225 Z" id="Mobile-Signal"></path>
                        </g>
                    </g>
                    <g id="x_pink" transform="translate(183.417722, 19.359820)" stroke="#FF6666" stroke-width="1.045" stroke-linecap="round">
                        <path d="M7.19049784,0.14598495 L0.146736625,7.17882839" id="Line"></path>
                        <path d="M7.19049727,7.17935293 L0.146736369,0.14650919" id="Line"></path>
                    </g>
                    <ellipse id="Oval-3-Copy" stroke="#FF6666" stroke-width="1.045" cx="41.9240506" cy="306.617691" rx="19.3898734" ry="19.3598201"></ellipse>
                    <path d="M45.1855763,299.851188 L45.1855763,299.851188 C47.8339923,300.977815 49.6848268,303.550805 49.6848268,306.544681 C49.6848268,310.576912 46.3275217,313.845682 42.1860759,313.845682 C38.0446302,313.845682 34.6873251,310.576912 34.6873251,306.544681 C34.6873251,303.550805 36.5381596,300.977815 39.1865756,299.851188" id="Combined-Shape" stroke="#FF6666" stroke-width="0.9796875" stroke-linecap="round"></path>
                    <path d="M42.1860759,306.071458 L42.1860759,297.296747" id="Line" stroke="#FF6666" stroke-width="0.9796875" stroke-linecap="round"></path>
                    <text id="Duck-Breast" font-family="Roboto-Medium, Roboto" font-size="8.36" font-weight="400" letter-spacing="0.278666684" fill="#FF6666">
                        <tspan x="79.3834953" y="24.7436282">Duck Breast</tspan>
                    </text>
                    <g id="Group-6" transform="translate(0.000000, 24.592204)">
                        <ellipse id="Oval-2" stroke="#F8F8F8" stroke-width="1.045" fill="#FFFFFF" cx="103.5" cy="103.33958" rx="84.6341772" ry="84.5029985"></ellipse>
                        <g id="Group-5">
                            <path d="M103.5,176.331334 C143.874812,176.331334 176.605063,143.651813 176.605063,103.33958 C176.605063,63.0273475 143.874812,30.3478261 103.5,30.3478261 C63.1251884,30.3478261 30.3949367,63.0273475 30.3949367,103.33958" id="Oval" stroke="#FF6666" stroke-width="10.45" stroke-linecap="round" opacity="0.100000001" transform="translate(103.500000, 103.339580) rotate(-45.000000) translate(-103.500000, -103.339580) "></path>
                            <path d="M132.507522,70.080248 C119.265436,56.775454 100.921902,48.5382386 80.6514754,48.5382386 C40.2766638,48.5382386 7.54641211,81.21776 7.54641211,121.529993" id="Oval" stroke="#FF6666" stroke-width="10.45" stroke-linecap="round" opacity="0.300000012" transform="translate(70.026967, 85.034116) rotate(-45.000000) translate(-70.026967, -85.034116) "></path>
                            <path d="M88.2456176,66.8437031 C47.870806,66.8437031 15.1405543,99.5232246 15.1405543,139.835457" id="Oval" stroke="url(#linearGradient-3)" stroke-width="10.45" stroke-linecap="round" transform="translate(51.693086, 103.339580) rotate(-45.000000) translate(-51.693086, -103.339580) "></path>
                            <text id="50" font-family="Roboto-Medium, Roboto" font-size="45.98" font-weight="400" fill="#696969">
                                <tspan x="77.3668359" y="118.346327">50</tspan>
                            </text>
                            <text id="째C" font-family="Roboto-Black, Roboto" font-size="10.868" font-weight="700" letter-spacing="0.362266599" fill="#696969">
                                <tspan x="128.071484" y="91.6251874">째C</tspan>
                            </text>
                            <g id="Oval-4">
                                <use fill="black" fill-opacity="1" filter="url(#filter-5)" xlink:href="#path-4"></use>
                                <use stroke-opacity="0.75" stroke="#FF6666" mask="url(#mask-6)" stroke-width="2.09" fill="#FFFFFF" fill-rule="evenodd" xlink:href="#path-4"></use>
                            </g>
                            <g id="Oval-4">
                                <use fill="black" fill-opacity="1" filter="url(#filter-8)" xlink:href="#path-7"></use>
                                <use fill="#FFFFFF" fill-rule="evenodd" xlink:href="#path-7"></use>
                            </g>
                            <text id="Set-to" opacity="0.5" font-family="Roboto-Regular, Roboto" font-size="7.315" font-weight="normal" letter-spacing="0.243833327" fill="#696969">
                                <tspan x="93.3157913" y="78.6836582">Set to</tspan>
                            </text>
                            <path d="M118.697468,173.453523 L124.357832,167.778524 C124.457924,167.678173 124.619634,167.679615 124.715887,167.778524 L130.238486,173.453523" id="Line" stroke="#FF6666" stroke-width="1.82875" stroke-linecap="round"></path>
                            <path d="M76.7734177,173.453523 L82.4337813,167.778524 C82.5338735,167.678173 82.6955831,167.679615 82.7918365,167.778524 L88.3144357,173.453523" id="Line" stroke="#FF6666" stroke-width="1.82875" stroke-linecap="round" transform="translate(82.543927, 170.525173) rotate(-180.000000) translate(-82.543927, -170.525173) "></path>
                        </g>
                    </g>
                    <g id="Group-7" transform="translate(89.088608, 156.971514)" fill="#696969">
                        <g id="Group-3" transform="translate(0.000000, 6.802099)">
                            <text id="30.2" font-family="Roboto-Regular, Roboto" font-size="14.36875" font-weight="normal">
                                <tspan x="0.341351074" y="13">30.2</tspan>
                            </text>
                            <text id="째C-Copy" font-family="Roboto-Black, Roboto" font-size="4.44125" font-weight="700" letter-spacing="0.148041639">
                                <tspan x="26.9776253" y="5.03025232">째C</tspan>
                            </text>
                        </g>
                        <text id="Current" opacity="0.5" font-family="Roboto-Regular, Roboto" font-size="6.27" font-weight="normal" letter-spacing="0.208999985">
                            <tspan x="3.40388904" y="6">Current</tspan>
                        </text>
                    </g>
                    <text id="1:00:00" font-family="Roboto-Regular, Roboto" font-size="24.035" font-weight="normal" letter-spacing="0.801166582" fill="#696969">
                        <tspan x="61.1344008" y="256.410795">1:00:00</tspan>
                    </text>
                    <g id="Group-2" transform="translate(145.686076, 287.257871)">
                        <ellipse id="Oval-3-Copy" fill="#FF6666" cx="19.3898734" cy="19.3598201" rx="19.3898734" ry="19.3598201"></ellipse>
                        <text id="Start" font-family="Roboto-Medium, Roboto" font-size="7.8375" font-weight="400" letter-spacing="0.261249977" fill="#FFFFFF">
                            <tspan x="10.1721367" y="21.6506747">Start</tspan>
                        </text>
                    </g>
                </g>
            </g>
        </g>
    </g>
</svg>