<?xml version="1.0" encoding="UTF-8" standalone="no"?>
<svg width="67px" height="67px" viewBox="0 0 67 67" version="1.1" xmlns="http://www.w3.org/2000/svg" xmlns:xlink="http://www.w3.org/1999/xlink">
    <!-- Generator: Sketch 3.6.1 (26313) - http://www.bohemiancoding.com/sketch -->
    <title>Group 6</title>
    <desc>Created with Sketch.</desc>
    <defs></defs>
    <g id="Page-1" stroke="none" stroke-width="1" fill="none" fill-rule="evenodd">
        <g id="Group-6" transform="translate(1.000000, 1.000000)">
            <g id="Group-3" stroke="#61C275" stroke-width="2" fill="#FFFFFF">
                <path d="M32.5,65 C50.4492544,65 65,50.4492544 65,32.5 C65,14.5507456 50.4492544,0 32.5,0 C14.5507456,0 0,14.5507456 0,32.5 C0,50.4492544 14.5507456,65 32.5,65 Z" id="Oval-1-Copy"></path>
            </g>
            <g id="content-paste" transform="translate(11.000000, 20.000000)" fill="#61C275">
                <path d="M17.7777778,2.05259767 L13.1111111,2.05259767 C12.6666667,0.821039067 11.4444444,0 10,0 C8.55555556,0 7.33333333,0.821039067 6.88888889,2.05259767 L2.22222222,2.05259767 C1,2.05259767 0,2.97626662 0,4.10519534 L0,20.5259767 C0,21.6549054 1,22.5785744 2.22222222,22.5785744 L17.7777778,22.5785744 C19,22.5785744 20,21.6549054 20,20.5259767 L20,4.10519534 C20,2.97626662 19,2.05259767 17.7777778,2.05259767 L17.7777778,2.05259767 Z M10,2.05259767 C10.6666667,2.05259767 11.1111111,2.4631172 11.1111111,3.0788965 C11.1111111,3.6946758 10.6666667,4.10519534 10,4.10519534 C9.33333333,4.10519534 8.88888889,3.6946758 8.88888889,3.0788965 C8.88888889,2.4631172 9.33333333,2.05259767 10,2.05259767 L10,2.05259767 Z M17.7777778,20.5259767 L2.22222222,20.5259767 L2.22222222,4.10519534 L4.44444444,4.10519534 L4.44444444,7.18409184 L15.5555556,7.18409184 L15.5555556,4.10519534 L17.7777778,4.10519534 L17.7777778,20.5259767 L17.7777778,20.5259767 Z" id="Shape"></path>
            </g>
            <g id="create" transform="translate(34.000000, 22.000000)" fill="#61C275">
                <path d="M0,15.7777778 L0,20 L4.22222222,20 L16.4444444,7.66666667 L12.2222222,3.44444444 L0,15.7777778 L0,15.7777778 Z M19.6666667,4.44444444 C20.1111111,4 20.1111111,3.33333333 19.6666667,2.88888889 L17.1111111,0.333333333 C16.6666667,-0.111111111 16,-0.111111111 15.5555556,0.333333333 L13.5555556,2.33333333 L17.7777778,6.55555556 L19.6666667,4.44444444 L19.6666667,4.44444444 Z" id="Shape"></path>
            </g>
        </g>
    </g>
</svg>