<?xml version="1.0" encoding="UTF-8" standalone="no"?>
<svg width="335px" height="81px" viewBox="0 0 335 81" version="1.1" xmlns="http://www.w3.org/2000/svg" xmlns:xlink="http://www.w3.org/1999/xlink" xmlns:sketch="http://www.bohemiancoding.com/sketch/ns">
    <!-- Generator: Sketch 3.5.2 (25235) - http://www.bohemiancoding.com/sketch -->
    <title>Artboard 2</title>
    <desc>Created with Sketch.</desc>
    <defs></defs>
    <g id="Page-1" stroke="none" stroke-width="1" fill="none" fill-rule="evenodd" sketch:type="MSPage">
        <g id="Artboard-2" sketch:type="MSArtboardGroup">
            <g id="Logo" sketch:type="MSLayerGroup" transform="translate(0.000000, 5.000000)">
                <path d="M101.003906,53.2148438 L105.785156,46.6757812 C107.589853,48.6211035 109.792956,50.2265562 112.394531,51.4921875 C114.996107,52.7578188 117.855453,53.390625 120.972656,53.390625 C124.18361,53.390625 126.58007,52.7402409 128.162109,51.4394531 C129.744149,50.1386654 130.535156,48.5742279 130.535156,46.7460938 C130.535156,45.6679634 130.218753,44.7304727 129.585938,43.9335938 C128.953122,43.1367148 128.097662,42.4863306 127.019531,41.9824219 C125.941401,41.4785131 124.699226,41.0273457 123.292969,40.6289062 C121.886712,40.2304668 120.410164,39.8378926 118.863281,39.4511719 C117.316399,39.0644512 115.775398,38.6425804 114.240234,38.1855469 C112.70507,37.7285133 111.234382,37.148441 109.828125,36.4453125 C108.421868,35.742184 107.179693,34.9160204 106.101562,33.9667969 C105.023432,33.0175734 104.167972,31.8046949 103.535156,30.328125 C102.902341,28.8515551 102.585938,27.1757906 102.585938,25.3007812 C102.585938,21.2460735 104.203109,17.8769665 107.4375,15.1933594 C110.671891,12.5097522 114.890599,11.1679688 120.09375,11.1679688 C127.453162,11.1679688 133.429665,13.4296649 138.023438,17.953125 L133.277344,24.2109375 C131.425772,22.3593657 129.287122,20.9707078 126.861328,20.0449219 C124.435535,19.119136 121.921888,18.65625 119.320312,18.65625 C116.8828,18.65625 114.925789,19.2128851 113.449219,20.3261719 C111.972649,21.4394587 111.234375,22.8749912 111.234375,24.6328125 C111.234375,25.5937548 111.550778,26.4316371 112.183594,27.1464844 C112.816409,27.8613317 113.67187,28.4472633 114.75,28.9042969 C115.82813,29.3613304 117.070305,29.7890605 118.476562,30.1875 C119.88282,30.5859395 121.353508,30.984373 122.888672,31.3828125 C124.423836,31.781252 125.964836,32.2148414 127.511719,32.6835938 C129.058601,33.1523461 130.535149,33.761715 131.941406,34.5117188 C133.347663,35.2617225 134.589838,36.1289013 135.667969,37.1132812 C136.746099,38.0976612 137.601559,39.3456956 138.234375,40.8574219 C138.867191,42.3691482 139.183594,44.0742093 139.183594,45.9726562 C139.183594,47.5898518 138.95508,49.1249927 138.498047,50.578125 C138.041013,52.0312573 137.320317,53.3906187 136.335938,54.65625 C135.351558,55.9218813 134.144538,57.0117142 132.714844,57.9257812 C131.285149,58.8398483 129.533213,59.5605442 127.458984,60.0878906 C125.384755,60.615237 123.093763,60.8789062 120.585938,60.8789062 C112.476522,60.8789062 105.949243,58.3242443 101.003906,53.2148438 L101.003906,53.2148438 Z M160.847656,60 L160.847656,11.9765625 L169.285156,11.9765625 L169.285156,34.7929688 L188.09375,11.9765625 L198.535156,11.9765625 L179.023438,34.5820312 L200.046875,60 L189.605469,60 L173.539062,39.6796875 L169.285156,44.671875 L169.285156,60 L160.847656,60 Z M219.53125,60 L219.53125,11.9765625 L252.4375,11.9765625 L252.4375,19.3945312 L227.96875,19.3945312 L227.96875,31.7695312 L251.945312,31.7695312 L251.945312,39.1875 L227.96875,39.1875 L227.96875,52.5820312 L252.4375,52.5820312 L252.4375,60 L219.53125,60 Z M270.445312,11.9765625 L279.832031,11.9765625 L289.183594,48.9257812 L299.097656,11.9765625 L305.8125,11.9765625 L315.761719,48.9257812 L325.113281,11.9765625 L334.535156,11.9765625 L320.789062,60 L311.789062,60 L302.507812,24.4921875 L293.121094,60 L284.121094,60 L270.445312,11.9765625 Z" id="SKEW" fill="#FFFFFF" sketch:type="MSShapeGroup"></path>
                <g id="Square" transform="translate(34.648232, 35.420310) rotate(-45.000000) translate(-34.648232, -35.420310) translate(10.148232, 10.920310)" fill="#61C275" sketch:type="MSShapeGroup">
                    <path d="M15.702474,-2.77111667e-13 L21.19834,-2.77111667e-13 L21.19834,48.6776695 L15.702474,48.6776695 L15.702474,-2.77555756e-13 Z M10.2066081,-2.77111667e-13 L0.994413003,-2.77111667e-13 C0.450806661,-2.77111667e-13 -2.80664381e-13,0.445213866 -2.80664381e-13,0.994413003 L-2.80664381e-13,47.6832565 C-2.80664381e-13,48.2268629 0.445213866,48.6776695 0.994413003,48.6776695 L10.2066081,48.6776695 L10.2066081,-2.75779399e-13 Z M26.6942059,-2.77111667e-13 L32.1900718,-2.77111667e-13 L32.1900718,48.6776695 L26.6942059,48.6776695 L26.6942059,-2.77111667e-13 Z M37.6859377,-2.77111667e-13 L47.6832565,-2.77111667e-13 C48.2324557,-2.77111667e-13 48.6776695,0.450806661 48.6776695,0.994413003 L48.6776695,47.6832565 C48.6776695,48.2324557 48.2268629,48.6776695 47.6832565,48.6776695 L37.6859377,48.6776695 L37.6859377,-2.78443935e-13 Z" id="Rectangle-5"></path>
                </g>
            </g>
        </g>
    </g>
</svg>