<?xml version="1.0" encoding="UTF-8" standalone="no"?>
<svg width="67px" height="67px" viewBox="0 0 67 67" version="1.1" xmlns="http://www.w3.org/2000/svg" xmlns:xlink="http://www.w3.org/1999/xlink">
    <!-- Generator: Sketch 3.6.1 (26313) - http://www.bohemiancoding.com/sketch -->
    <title>Group 3</title>
    <desc>Created with Sketch.</desc>
    <defs></defs>
    <g id="Page-1" stroke="none" stroke-width="1" fill="none" fill-rule="evenodd">
        <g id="Group-3" transform="translate(1.000000, 1.000000)">
            <path d="M32.5,65 C50.4492544,65 65,50.4492544 65,32.5 C65,14.5507456 50.4492544,0 32.5,0 C14.5507456,0 0,14.5507456 0,32.5 C0,50.4492544 14.5507456,65 32.5,65 Z" id="Oval-1-Copy" stroke="#67CBDE" stroke-width="2" fill="#FFFFFF"></path>
            <path d="M30.4876147,41.5856269 C24.7509174,36.5565749 21,33.1674312 21,29.0129969 C21,25.6238532 23.6477064,23 27.0676606,23 C28.9431193,23 30.818578,23.8746177 32.0321101,25.2958716 C33.2456422,23.8746177 35.1211009,23 36.9965596,23 C40.4165138,23 43.0642202,25.6238532 43.0642202,29.0129969 C43.0642202,33.1674312 39.3133028,36.5565749 33.5766055,41.5856269 L32.0321101,43.116208 L30.4876147,41.5856269 Z" id="HeartWhite" fill="#67CBDE"></path>
        </g>
    </g>
</svg>