<?xml version="1.0" encoding="UTF-8" standalone="no"?>
<svg width="67px" height="67px" viewBox="0 0 67 67" version="1.1" xmlns="http://www.w3.org/2000/svg" xmlns:xlink="http://www.w3.org/1999/xlink">
    <!-- Generator: Sketch 3.6.1 (26313) - http://www.bohemiancoding.com/sketch -->
    <title>Group 6</title>
    <desc>Created with Sketch.</desc>
    <defs></defs>
    <g id="Page-1" stroke="none" stroke-width="1" fill="none" fill-rule="evenodd">
        <g id="Group-6" transform="translate(1.000000, 1.000000)">
            <g id="Group-2" stroke="#67CBDE" stroke-width="2" fill="#FFFFFF">
                <circle id="Oval-1-Copy-2" cx="32.5" cy="32.5" r="32.5"></circle>
            </g>
            <g id="schedule" transform="translate(22.000000, 22.000000)" fill="#67CBDE">
                <path d="M11,0 C4.95,0 0,4.95 0,11 C0,17.05 4.95,22 11,22 C17.05,22 22,17.05 22,11 C22,4.95 17.05,0 11,0 L11,0 Z M11,19.8 C6.16,19.8 2.2,15.84 2.2,11 C2.2,6.16 6.16,2.2 11,2.2 C15.84,2.2 19.8,6.16 19.8,11 C19.8,15.84 15.84,19.8 11,19.8 L11,19.8 Z" id="Shape"></path>
                <path d="M11.55,5.5 L9.9,5.5 L9.9,12.1 L15.62,15.62 L16.5,14.19 L11.55,11.22 L11.55,5.5 Z" id="Shape"></path>
            </g>
        </g>
    </g>
</svg>