<?xml version="1.0" encoding="UTF-8" standalone="no"?>
<svg width="67px" height="67px" viewBox="0 0 67 67" version="1.1" xmlns="http://www.w3.org/2000/svg" xmlns:xlink="http://www.w3.org/1999/xlink">
    <!-- Generator: Sketch 3.6.1 (26313) - http://www.bohemiancoding.com/sketch -->
    <title>Group 8</title>
    <desc>Created with Sketch.</desc>
    <defs></defs>
    <g id="Page-1" stroke="none" stroke-width="1" fill="none" fill-rule="evenodd">
        <g id="Group-8" transform="translate(1.000000, 1.000000)">
            <g id="Group-7">
                <g id="Group-4" stroke="#67CBDE" stroke-width="2" fill="#FFFFFF">
                    <circle id="Oval-1-Copy-3" cx="32.5" cy="32.5" r="32.5"></circle>
                </g>
                <g id="view-column" transform="translate(14.000000, 28.000000)" fill="#67CBDE">
                    <path d="M7.41176471,16 L13.5882353,16 L13.5882353,0 L7.41176471,0 L7.41176471,16 L7.41176471,16 Z M0,16 L6.17647059,16 L6.17647059,0 L0,0 L0,16 L0,16 Z M14.8235294,0 L14.8235294,16 L21,16 L21,0 L14.8235294,0 L14.8235294,0 Z" id="Shape"></path>
                </g>
                <g id="search" transform="translate(30.000000, 16.000000)" stroke="#FFFFFF" fill="#67CBDE">
                    <path d="M15.2777778,13.4444444 L14.3,13.4444444 L13.9333333,13.0777778 C15.1555556,11.7333333 15.8888889,9.9 15.8888889,7.94444444 C15.8888889,3.54444444 12.3444444,0 7.94444444,0 C3.54444444,0 0,3.54444444 0,7.94444444 C0,12.3444444 3.54444444,15.8888889 7.94444444,15.8888889 C9.9,15.8888889 11.7333333,15.1555556 13.0777778,13.9333333 L13.4444444,14.3 L13.4444444,15.2777778 L19.5555556,21.3888889 L21.3888889,19.5555556 L15.2777778,13.4444444 L15.2777778,13.4444444 Z M7.94444444,13.4444444 C4.88888889,13.4444444 2.44444444,11 2.44444444,7.94444444 C2.44444444,4.88888889 4.88888889,2.44444444 7.94444444,2.44444444 C11,2.44444444 13.4444444,4.88888889 13.4444444,7.94444444 C13.4444444,11 11,13.4444444 7.94444444,13.4444444 L7.94444444,13.4444444 Z" id="Shape"></path>
                </g>
            </g>
        </g>
    </g>
</svg>