<?xml version="1.0" encoding="UTF-8" standalone="no"?>
<svg width="313px" height="77px" viewBox="0 0 313 77" version="1.1" xmlns="http://www.w3.org/2000/svg" xmlns:xlink="http://www.w3.org/1999/xlink" xmlns:sketch="http://www.bohemiancoding.com/sketch/ns">
    <!-- Generator: Sketch 3.5.2 (25235) - http://www.bohemiancoding.com/sketch -->
    <title>Group 2</title>
    <desc>Created with Sketch.</desc>
    <defs></defs>
    <g id="Page-1" stroke="none" stroke-width="1" fill="none" fill-rule="evenodd" sketch:type="MSPage">
        <g id="Desktop-HD" sketch:type="MSArtboardGroup" transform="translate(-89.000000, -241.000000)">
            <g id="Group-2" sketch:type="MSLayerGroup" transform="translate(89.000000, 241.000000)">
                <g id="Group" sketch:type="MSShapeGroup">
                    <path d="M5.41453306,40.1468762 C9.58144211,44.0183178 19.5714031,43.916997 25.5459399,42.6031614 C38.8786742,39.6712152 45.7995733,33.4000028 46.4249172,20.9378712 C47.050261,8.47573954 28.8521113,-1.24298609 16.0476687,0.1294134 C3.24322609,1.5018129 0,9.24449362 0,22.1690397 C0,28.9507397 0.814266859,35.872806 5.41453306,40.1468762 Z" id="Oval-1" fill="#6BCBDD"></path>
                    <path d="M20.4812798,76.6028901 C36.2932679,76.6028901 54.393238,67.5075778 54.393238,51.6645858 C54.393238,35.8215939 36.2932679,25.6666667 20.4812798,25.6666667 C4.6692918,25.6666667 0,35.8215939 0,51.6645858 C0,67.5075778 4.6692918,76.6028901 20.4812798,76.6028901 Z" id="Oval-2" fill="#6BCBDD"></path>
                    <path d="M42.8631023,32.5080904 C39.5097849,37.6386053 33.683982,40.7720907 25.3573696,42.6031614 C19.3828329,43.916997 9.39287187,44.0183178 5.22596282,40.1468762 C3.97891915,38.988258 3.01008882,37.6350524 2.26027397,36.1428044 C5.06248988,29.5046714 10.5719362,25.6666667 20.2927096,25.6666667 C28.0716044,25.6666667 36.4042514,28.1244277 42.8631023,32.5080904 Z" id="Oval-1" fill="#08A9C7"></path>
                </g>
                <path d="M73.6046143,26.6945801 L81.7103271,26.6945801 C85.4705999,26.6945801 88.1880409,27.2424262 89.8627319,28.3381348 C91.5374229,29.4338434 92.3747559,31.164539 92.3747559,33.5302734 C92.3747559,35.1240314 91.9638713,36.450068 91.1420898,37.5084229 C90.3203084,38.5667778 89.1374589,39.2329088 87.5935059,39.5068359 L87.5935059,39.6936035 C89.5109959,40.0546893 90.921077,40.7675118 91.8237915,41.8320923 C92.726506,42.8966728 93.1778564,44.3378815 93.1778564,46.1557617 C93.1778564,48.6086548 92.3218469,50.5292289 90.6098022,51.9175415 C88.8977576,53.3058541 86.5164947,54 83.4659424,54 L73.6046143,54 L73.6046143,26.6945801 Z M78.0683594,37.9753418 L82.3640137,37.9753418 C84.2316988,37.9753418 85.5950885,37.6796294 86.4542236,37.0881958 C87.3133588,36.4967622 87.7429199,35.4913401 87.7429199,34.0718994 C87.7429199,32.7894223 87.2791184,31.8618193 86.3515015,31.2890625 C85.4238845,30.7163057 83.9515482,30.4299316 81.9344482,30.4299316 L78.0683594,30.4299316 L78.0683594,37.9753418 Z M78.0683594,41.5986328 L78.0683594,50.2459717 L82.8122559,50.2459717 C84.679941,50.2459717 86.0900221,49.8880041 87.0425415,49.1720581 C87.9950609,48.4561121 88.4713135,47.3261796 88.4713135,45.7822266 C88.4713135,44.3627859 87.9857226,43.3106724 87.0145264,42.6258545 C86.0433301,41.9410366 84.567881,41.5986328 82.5881348,41.5986328 L78.0683594,41.5986328 Z M102.02771,54 L97.6386719,54 L97.6386719,33.3435059 L102.02771,33.3435059 L102.02771,54 Z M97.3771973,27.8712158 C97.3771973,27.0867881 97.5919778,26.4829123 98.0215454,26.0595703 C98.451113,25.6362284 99.0643271,25.4245605 99.8612061,25.4245605 C100.633183,25.4245605 101.233946,25.6362284 101.663513,26.0595703 C102.093081,26.4829123 102.307861,27.0867881 102.307861,27.8712158 C102.307861,28.6182899 102.093081,29.2066019 101.663513,29.6361694 C101.233946,30.065737 100.633183,30.2805176 99.8612061,30.2805176 C99.0643271,30.2805176 98.451113,30.065737 98.0215454,29.6361694 C97.5919778,29.2066019 97.3771973,28.6182899 97.3771973,27.8712158 L97.3771973,27.8712158 Z M124.997192,33.3435059 L124.997192,35.7528076 L121.467285,36.4064941 C121.791017,36.8422873 122.058715,37.3776824 122.270386,38.0126953 C122.482057,38.6477083 122.587891,39.3200648 122.587891,40.0297852 C122.587891,42.1589462 121.853279,43.8336121 120.384033,45.053833 C118.914788,46.274054 116.891492,46.8841553 114.314087,46.8841553 C113.654172,46.8841553 113.056521,46.8343511 112.521118,46.7347412 C111.574824,47.3199492 111.101685,48.0047568 111.101685,48.7891846 C111.101685,49.2623315 111.322691,49.6171863 111.764709,49.8537598 C112.206728,50.0903332 113.019159,50.2086182 114.202026,50.2086182 L117.806641,50.2086182 C120.085216,50.2086182 121.815912,50.694209 122.998779,51.6654053 C124.181647,52.6366015 124.773071,54.0373444 124.773071,55.8676758 C124.773071,58.2085078 123.808115,60.0139097 121.878174,61.2839355 C119.948233,62.5539614 117.159198,63.1889648 113.510986,63.1889648 C110.697007,63.1889648 108.549202,62.6909229 107.067505,61.6948242 C105.585808,60.6987255 104.844971,59.2793061 104.844971,57.4365234 C104.844971,56.1664976 105.246517,55.0988202 106.049622,54.2334595 C106.852726,53.3680987 107.976433,52.7673357 109.420776,52.4311523 C108.835568,52.1821277 108.35309,51.7805814 107.973328,51.2265015 C107.593565,50.6724215 107.403687,50.0903351 107.403687,49.4802246 C107.403687,48.7082481 107.62158,48.0545681 108.057373,47.519165 C108.493166,46.983762 109.140621,46.4545925 109.999756,45.9316406 C108.92895,45.470945 108.060489,44.7207694 107.394348,43.6810913 C106.728207,42.6414133 106.395142,41.4243234 106.395142,40.0297852 C106.395142,37.788563 107.101739,36.0516419 108.514954,34.8189697 C109.928169,33.5862975 111.942126,32.9699707 114.556885,32.9699707 C115.142093,32.9699707 115.755307,33.0104366 116.396545,33.0913696 C117.037784,33.1723027 117.520262,33.2563472 117.843994,33.3435059 L124.997192,33.3435059 Z M108.76709,57.2124023 C108.76709,58.1586961 109.193538,58.8870824 110.046448,59.397583 C110.899357,59.9080836 112.097771,60.1633301 113.641724,60.1633301 C116.032361,60.1633301 117.81286,59.8209263 118.983276,59.1361084 C120.153692,58.4512905 120.738892,57.5423641 120.738892,56.4093018 C120.738892,55.5128129 120.418277,54.8746967 119.777039,54.4949341 C119.1358,54.1151714 117.943612,53.925293 116.200439,53.925293 L112.875977,53.925293 C111.618402,53.925293 110.619205,54.2210053 109.878357,54.812439 C109.137509,55.4038726 108.76709,56.2038524 108.76709,57.2124023 L108.76709,57.2124023 Z M110.653442,40.0297852 C110.653442,41.3247135 110.986508,42.3207973 111.652649,43.0180664 C112.31879,43.7153355 113.274408,44.0639648 114.519531,44.0639648 C117.059583,44.0639648 118.32959,42.7068007 118.32959,39.9924316 C118.32959,38.6476984 118.015201,37.6111487 117.386414,36.8827515 C116.757626,36.1543543 115.802008,35.7901611 114.519531,35.7901611 C113.249505,35.7901611 112.287662,36.1512415 111.633972,36.8734131 C110.980282,37.5955847 110.653442,38.6476982 110.653442,40.0297852 L110.653442,40.0297852 Z M136.405762,54.3735352 C133.280502,54.3735352 130.905465,53.4614959 129.280579,51.6373901 C127.655693,49.8132843 126.843262,47.1954516 126.843262,43.7838135 C126.843262,40.3099192 127.693046,37.6391695 129.392639,35.7714844 C131.092233,33.9037993 133.548202,32.9699707 136.76062,32.9699707 C138.939586,32.9699707 140.900626,33.3746297 142.643799,34.18396 L141.317749,37.7138672 C139.462515,36.9916956 137.931036,36.6306152 136.723267,36.6306152 C133.149762,36.6306152 131.363037,39.0025398 131.363037,43.74646 C131.363037,46.0623895 131.808162,47.8024234 132.698425,48.9666138 C133.588689,50.1308042 134.892936,50.7128906 136.611206,50.7128906 C138.56605,50.7128906 140.41503,50.2272998 142.158203,49.2561035 L142.158203,53.0848389 C141.373775,53.5455345 140.536442,53.8754873 139.646179,54.074707 C138.755916,54.2739268 137.675788,54.3735352 136.405762,54.3735352 L136.405762,54.3735352 Z M164.58606,43.6343994 C164.58606,47.0086839 163.720712,49.6420804 161.98999,51.534668 C160.259269,53.4272556 157.849991,54.3735352 154.762085,54.3735352 C152.832144,54.3735352 151.12635,53.9377485 149.644653,53.0661621 C148.162956,52.1945757 147.023686,50.9432455 146.226807,49.3121338 C145.429928,47.6810221 145.031494,45.7884629 145.031494,43.6343994 C145.031494,40.2850174 145.890616,37.6702975 147.608887,35.7901611 C149.327157,33.9100248 151.748886,32.9699707 154.874146,32.9699707 C157.862442,32.9699707 160.228141,33.9318141 161.971313,35.8555298 C163.714486,37.7792455 164.58606,40.3721761 164.58606,43.6343994 L164.58606,43.6343994 Z M149.55127,43.6343994 C149.55127,48.4032221 151.313093,50.7875977 154.836792,50.7875977 C158.323138,50.7875977 160.066284,48.4032221 160.066284,43.6343994 C160.066284,38.9153817 158.310687,36.5559082 154.799438,36.5559082 C152.956656,36.5559082 151.621281,37.1660095 150.793274,38.3862305 C149.965267,39.6064514 149.55127,41.3558236 149.55127,43.6343994 L149.55127,43.6343994 Z M186.285522,54 L181.877808,54 L181.877808,41.2624512 C181.877808,39.6811444 181.578982,38.5014077 180.981323,37.7232056 C180.383664,36.9450034 179.449835,36.5559082 178.17981,36.5559082 C176.486442,36.5559082 175.24445,37.106867 174.453796,38.2088013 C173.663143,39.3107355 173.267822,41.1441522 173.267822,43.7091064 L173.267822,54 L168.878784,54 L168.878784,33.3435059 L172.315308,33.3435059 L172.931641,36.0516357 L173.155762,36.0516357 C173.728518,35.0679882 174.559626,34.3084744 175.649109,33.7730713 C176.738592,33.2376682 177.937005,32.9699707 179.244385,32.9699707 C182.419449,32.9699707 184.523676,34.0532118 185.557129,36.2197266 L185.855957,36.2197266 C186.466068,35.1987254 187.32519,34.4018583 188.43335,33.8291016 C189.541509,33.2563448 190.811516,32.9699707 192.243408,32.9699707 C194.708753,32.9699707 196.504816,33.5925231 197.631653,34.8376465 C198.75849,36.0827699 199.321899,37.9815546 199.321899,40.5340576 L199.321899,54 L194.932861,54 L194.932861,41.2624512 C194.932861,39.6811444 194.630923,38.5014077 194.027039,37.7232056 C193.423154,36.9450034 192.486212,36.5559082 191.216187,36.5559082 C189.510367,36.5559082 188.26215,37.0881905 187.471497,38.152771 C186.680843,39.2173515 186.285522,40.8515515 186.285522,43.0554199 L186.285522,54 Z M222.104614,54 L217.696899,54 L217.696899,41.2624512 C217.696899,39.6811444 217.398074,38.5014077 216.800415,37.7232056 C216.202756,36.9450034 215.268927,36.5559082 213.998901,36.5559082 C212.305534,36.5559082 211.063542,37.106867 210.272888,38.2088013 C209.482235,39.3107355 209.086914,41.1441522 209.086914,43.7091064 L209.086914,54 L204.697876,54 L204.697876,33.3435059 L208.134399,33.3435059 L208.750732,36.0516357 L208.974854,36.0516357 C209.54761,35.0679882 210.378718,34.3084744 211.468201,33.7730713 C212.557684,33.2376682 213.756097,32.9699707 215.063477,32.9699707 C218.238541,32.9699707 220.342768,34.0532118 221.376221,36.2197266 L221.675049,36.2197266 C222.285159,35.1987254 223.144282,34.4018583 224.252441,33.8291016 C225.360601,33.2563448 226.630608,32.9699707 228.0625,32.9699707 C230.527844,32.9699707 232.323908,33.5925231 233.450745,34.8376465 C234.577581,36.0827699 235.140991,37.9815546 235.140991,40.5340576 L235.140991,54 L230.751953,54 L230.751953,41.2624512 C230.751953,39.6811444 230.450015,38.5014077 229.84613,37.7232056 C229.242246,36.9450034 228.305304,36.5559082 227.035278,36.5559082 C225.329459,36.5559082 224.081242,37.0881905 223.290588,38.152771 C222.499935,39.2173515 222.104614,40.8515515 222.104614,43.0554199 L222.104614,54 Z M249.537842,54.3735352 C246.325423,54.3735352 243.813425,53.4365938 242.00177,51.5626831 C240.190115,49.6887724 239.284302,47.1082928 239.284302,43.821167 C239.284302,40.4468825 240.124747,37.7948095 241.805664,35.8648682 C243.486581,33.9349269 245.79625,32.9699707 248.734741,32.9699707 C251.461561,32.9699707 253.615593,33.7979654 255.196899,35.4539795 C256.778206,37.1099936 257.568848,39.3885353 257.568848,42.2896729 L257.568848,44.6616211 L243.804077,44.6616211 C243.866333,46.6662698 244.407954,48.2070869 245.428955,49.2841187 C246.449956,50.3611504 247.888052,50.8996582 249.743286,50.8996582 C250.963507,50.8996582 252.099665,50.784486 253.151794,50.5541382 C254.203924,50.3237904 255.333856,49.9409206 256.541626,49.4055176 L256.541626,52.9727783 C255.47082,53.4832789 254.387579,53.8443593 253.29187,54.0560303 C252.196162,54.2677013 250.944831,54.3735352 249.537842,54.3735352 L249.537842,54.3735352 Z M248.734741,36.2944336 C247.340203,36.2944336 246.222721,36.7364458 245.382263,37.6204834 C244.541805,38.504521 244.04065,39.7932044 243.878784,41.4865723 L253.254517,41.4865723 C253.229614,39.7807532 252.81873,38.488957 252.021851,37.611145 C251.224972,36.733333 250.129279,36.2944336 248.734741,36.2944336 L248.734741,36.2944336 Z M272.283203,32.9699707 C273.167241,32.9699707 273.895627,33.0322259 274.468384,33.1567383 L274.038818,37.2469482 C273.416257,37.0975334 272.768802,37.0228271 272.096436,37.0228271 C270.340812,37.0228271 268.918279,37.5955753 267.828796,38.7410889 C266.739313,39.8866024 266.19458,41.3745026 266.19458,43.204834 L266.19458,54 L261.805542,54 L261.805542,33.3435059 L265.242065,33.3435059 L265.821045,36.9854736 L266.045166,36.9854736 C266.729984,35.7528015 267.623347,34.7753942 268.725281,34.0532227 C269.827215,33.3310511 271.013177,32.9699707 272.283203,32.9699707 L272.283203,32.9699707 Z M285.111206,54.3735352 C281.985946,54.3735352 279.610909,53.4614959 277.986023,51.6373901 C276.361137,49.8132843 275.548706,47.1954516 275.548706,43.7838135 C275.548706,40.3099192 276.39849,37.6391695 278.098083,35.7714844 C279.797677,33.9037993 282.253646,32.9699707 285.466064,32.9699707 C287.64503,32.9699707 289.60607,33.3746297 291.349243,34.18396 L290.023193,37.7138672 C288.167959,36.9916956 286.636481,36.6306152 285.428711,36.6306152 C281.855207,36.6306152 280.068481,39.0025398 280.068481,43.74646 C280.068481,46.0623895 280.513606,47.8024234 281.40387,48.9666138 C282.294133,50.1308042 283.59838,50.7128906 285.31665,50.7128906 C287.271494,50.7128906 289.120475,50.2272998 290.863647,49.2561035 L290.863647,53.0848389 C290.07922,53.5455345 289.241887,53.8754873 288.351624,54.074707 C287.46136,54.2739268 286.381232,54.3735352 285.111206,54.3735352 L285.111206,54.3735352 Z M303.990479,54.3735352 C300.77806,54.3735352 298.266061,53.4365938 296.454407,51.5626831 C294.642752,49.6887724 293.736938,47.1082928 293.736938,43.821167 C293.736938,40.4468825 294.577384,37.7948095 296.258301,35.8648682 C297.939217,33.9349269 300.248887,32.9699707 303.187378,32.9699707 C305.914198,32.9699707 308.068229,33.7979654 309.649536,35.4539795 C311.230843,37.1099936 312.021484,39.3885353 312.021484,42.2896729 L312.021484,44.6616211 L298.256714,44.6616211 C298.31897,46.6662698 298.860591,48.2070869 299.881592,49.2841187 C300.902593,50.3611504 302.340689,50.8996582 304.195923,50.8996582 C305.416144,50.8996582 306.552302,50.784486 307.604431,50.5541382 C308.65656,50.3237904 309.786493,49.9409206 310.994263,49.4055176 L310.994263,52.9727783 C309.923457,53.4832789 308.840215,53.8443593 307.744507,54.0560303 C306.648798,54.2677013 305.397468,54.3735352 303.990479,54.3735352 L303.990479,54.3735352 Z M303.187378,36.2944336 C301.79284,36.2944336 300.675358,36.7364458 299.8349,37.6204834 C298.994442,38.504521 298.493287,39.7932044 298.331421,41.4865723 L307.707153,41.4865723 C307.682251,39.7807532 307.271366,38.488957 306.474487,37.611145 C305.677608,36.733333 304.581916,36.2944336 303.187378,36.2944336 L303.187378,36.2944336 Z" id="Bigcommerce" fill="#104461" sketch:type="MSShapeGroup"></path>
            </g>
        </g>
    </g>
</svg>