<?xml version="1.0" encoding="UTF-8" standalone="no"?>
<svg width="170px" height="32px" viewBox="0 0 170 32" version="1.1" xmlns="http://www.w3.org/2000/svg" xmlns:xlink="http://www.w3.org/1999/xlink" xmlns:sketch="http://www.bohemiancoding.com/sketch/ns">
    <!-- Generator: Sketch 3.5.2 (25235) - http://www.bohemiancoding.com/sketch -->
    <title>Artboard 2</title>
    <desc>Created with Sketch.</desc>
    <defs></defs>
    <g id="Page-1" stroke="none" stroke-width="1" fill="none" fill-rule="evenodd" sketch:type="MSPage">
        <g id="Artboard-2" sketch:type="MSArtboardGroup" fill="#222222">
            <path d="M0.25,12 L0.25,1.328125 L4.5390625,1.328125 C5.57031766,1.328125 6.38541367,1.63671566 6.984375,2.25390625 C7.58333633,2.87109684 7.8828125,3.63541211 7.8828125,4.546875 C7.8828125,5.45312953 7.58203426,6.21484066 6.98046875,6.83203125 C6.37890324,7.44922184 5.5651093,7.7578125 4.5390625,7.7578125 L1.578125,7.7578125 L1.578125,12 L0.25,12 Z M1.578125,6.578125 L4.375,6.578125 C5.00521148,6.578125 5.51822719,6.39062688 5.9140625,6.015625 C6.30989781,5.64062312 6.5078125,5.15104469 6.5078125,4.546875 C6.5078125,3.94270531 6.30989781,3.45312688 5.9140625,3.078125 C5.51822719,2.70312313 5.00521148,2.515625 4.375,2.515625 L1.578125,2.515625 L1.578125,6.578125 Z M9.59375,12 L9.59375,4.2734375 L10.7890625,4.2734375 L10.7890625,5.5078125 C11.1223975,5.08072703 11.5104145,4.73828254 11.953125,4.48046875 C12.3958355,4.22265496 12.867185,4.09375 13.3671875,4.09375 L13.3671875,5.328125 C13.1796866,5.30729156 13.0260423,5.296875 12.90625,5.296875 C12.5364565,5.296875 12.1354188,5.42317582 11.703125,5.67578125 C11.2708312,5.92838668 10.9661467,6.21354008 10.7890625,6.53125 L10.7890625,12 L9.59375,12 Z M14.4140625,8.125 C14.4140625,7.37499625 14.5677068,6.69531555 14.875,6.0859375 C15.1822932,5.47655945 15.6289033,4.98958516 16.2148438,4.625 C16.8007842,4.26041484 17.4765587,4.078125 18.2421875,4.078125 C19.0078163,4.078125 19.6835908,4.26041484 20.2695312,4.625 C20.8554717,4.98958516 21.3007797,5.47655945 21.6054688,6.0859375 C21.9101578,6.69531555 22.0625,7.37499625 22.0625,8.125 C22.0625,8.87500375 21.9101578,9.55728859 21.6054688,10.171875 C21.3007797,10.7864614 20.8554717,11.2773419 20.2695312,11.6445312 C19.6835908,12.0117206 19.0078163,12.1953125 18.2421875,12.1953125 C17.4765587,12.1953125 16.8007842,12.0117206 16.2148438,11.6445312 C15.6289033,11.2773419 15.1822932,10.7864614 14.875,10.171875 C14.5677068,9.55728859 14.4140625,8.87500375 14.4140625,8.125 L14.4140625,8.125 Z M15.6796875,8.125 C15.6796875,8.9583375 15.9088519,9.66536168 16.3671875,10.2460938 C16.8255231,10.8268258 17.4505169,11.1171875 18.2421875,11.1171875 C18.7734402,11.1171875 19.2356751,10.9765639 19.6289062,10.6953125 C20.0221374,10.4140611 20.3151032,10.0507835 20.5078125,9.60546875 C20.7005218,9.16015402 20.796875,8.66666937 20.796875,8.125 C20.796875,7.58853898 20.7005218,7.09896055 20.5078125,6.65625 C20.3151032,6.21353945 20.0221374,5.85156391 19.6289062,5.5703125 C19.2356751,5.28906109 18.7734402,5.1484375 18.2421875,5.1484375 C17.7109348,5.1484375 17.2473978,5.28906109 16.8515625,5.5703125 C16.4557272,5.85156391 16.1614593,6.21484152 15.96875,6.66015625 C15.7760407,7.10547098 15.6796875,7.59374734 15.6796875,8.125 L15.6796875,8.125 Z M23.0078125,12 L25.9609375,8.03125 L23.1640625,4.2734375 L24.5546875,4.2734375 L26.703125,7.21875 L28.859375,4.2734375 L30.234375,4.2734375 L27.4375,8.03125 L30.4140625,12 L29.0390625,12 L26.703125,8.828125 L24.3828125,12 L23.0078125,12 Z M31.59375,2.3671875 C31.59375,2.14322805 31.6731763,1.95182371 31.8320312,1.79296875 C31.9908862,1.63411379 32.1822905,1.5546875 32.40625,1.5546875 C32.6302095,1.5546875 32.8203117,1.63411379 32.9765625,1.79296875 C33.1328133,1.95182371 33.2109375,2.14322805 33.2109375,2.3671875 C33.2109375,2.59114695 33.1328133,2.78124922 32.9765625,2.9375 C32.8203117,3.09375078 32.6302095,3.171875 32.40625,3.171875 C32.1822905,3.171875 31.9908862,3.09375078 31.8320312,2.9375 C31.6731763,2.78124922 31.59375,2.59114695 31.59375,2.3671875 L31.59375,2.3671875 Z M31.8046875,12 L31.8046875,4.2734375 L33,4.2734375 L33,12 L31.8046875,12 Z M35.3984375,12 L35.3984375,4.2734375 L36.59375,4.2734375 L36.59375,5.390625 C36.8020844,5.08854016 37.1432268,4.79427227 37.6171875,4.5078125 C38.0911482,4.22135273 38.5885391,4.078125 39.109375,4.078125 C39.6666695,4.078125 40.1197899,4.21223824 40.46875,4.48046875 C40.8177101,4.74869926 41.0520827,5.09635203 41.171875,5.5234375 C41.4062512,5.14322727 41.7656226,4.80729313 42.25,4.515625 C42.7343774,4.22395687 43.2395807,4.078125 43.765625,4.078125 C44.4739619,4.078125 45.0104148,4.27343555 45.375,4.6640625 C45.7395852,5.05468945 45.921875,5.63801695 45.921875,6.4140625 L45.921875,12 L44.7265625,12 L44.7265625,6.75 C44.7265625,5.68228633 44.2500048,5.1484375 43.296875,5.1484375 C42.9114564,5.1484375 42.5260436,5.26432176 42.140625,5.49609375 C41.7552064,5.72786574 41.4583344,6.00781086 41.25,6.3359375 L41.25,12 L40.0546875,12 L40.0546875,6.75 C40.0546875,5.68228633 39.5781298,5.1484375 38.625,5.1484375 C38.2499981,5.1484375 37.8723977,5.2669259 37.4921875,5.50390625 C37.1119773,5.7408866 36.8125011,6.02343586 36.59375,6.3515625 L36.59375,12 L35.3984375,12 Z M47.8984375,9.6328125 C47.8984375,9.21614375 47.9765617,8.83984543 48.1328125,8.50390625 C48.2890633,8.16796707 48.4960925,7.89974059 48.7539062,7.69921875 C49.01172,7.49869691 49.2968734,7.34635469 49.609375,7.2421875 C49.9218766,7.13802031 50.2473941,7.0859375 50.5859375,7.0859375 C51.679693,7.0859375 52.5338511,7.4322882 53.1484375,8.125 L53.1484375,6.734375 C53.1484375,6.2343725 52.9661477,5.8398452 52.6015625,5.55078125 C52.2369773,5.2617173 51.768232,5.1171875 51.1953125,5.1171875 C50.2786412,5.1171875 49.4895866,5.47655891 48.828125,6.1953125 L48.265625,5.359375 C49.0833374,4.50520406 50.1145771,4.078125 51.359375,4.078125 C51.7864605,4.078125 52.1757795,4.12760367 52.5273437,4.2265625 C52.878908,4.32552133 53.192707,4.47525941 53.46875,4.67578125 C53.744793,4.87630309 53.9609367,5.14843578 54.1171875,5.4921875 C54.2734383,5.83593922 54.3515625,6.23437273 54.3515625,6.6875 L54.3515625,12 L53.1484375,12 L53.1484375,11.1171875 C52.5078093,11.8359411 51.6536512,12.1953125 50.5859375,12.1953125 C50.2578109,12.1953125 49.9361995,12.1393235 49.6210937,12.0273438 C49.305988,11.915364 49.0182305,11.7552094 48.7578125,11.546875 C48.4973945,11.3385406 48.2890633,11.0690121 48.1328125,10.7382812 C47.9765617,10.4075504 47.8984375,10.0390645 47.8984375,9.6328125 L47.8984375,9.6328125 Z M49.1171875,9.6328125 C49.1171875,10.1276066 49.2955711,10.5338526 49.6523438,10.8515625 C50.0091164,11.1692724 50.4713513,11.328125 51.0390625,11.328125 C51.466148,11.328125 51.8684877,11.2460946 52.2460938,11.0820312 C52.6236998,10.9179679 52.924478,10.6796891 53.1484375,10.3671875 L53.1484375,8.8984375 C52.924478,8.59635266 52.6236998,8.36328207 52.2460938,8.19921875 C51.8684877,8.03515543 51.466148,7.953125 51.0390625,7.953125 C50.4765597,7.953125 50.0156268,8.11067551 49.65625,8.42578125 C49.2968732,8.74088699 49.1171875,9.14322672 49.1171875,9.6328125 L49.1171875,9.6328125 Z M60.953125,12 L60.953125,1.328125 L62.3125,1.328125 L68.453125,9.6640625 L68.453125,1.328125 L69.78125,1.328125 L69.78125,12 L68.5,12 L62.28125,3.484375 L62.28125,12 L60.953125,12 Z M71.7734375,8.125 C71.7734375,7.37499625 71.9270818,6.69531555 72.234375,6.0859375 C72.5416682,5.47655945 72.9882783,4.98958516 73.5742188,4.625 C74.1601592,4.26041484 74.8359337,4.078125 75.6015625,4.078125 C76.3671913,4.078125 77.0429658,4.26041484 77.6289062,4.625 C78.2148467,4.98958516 78.6601547,5.47655945 78.9648438,6.0859375 C79.2695328,6.69531555 79.421875,7.37499625 79.421875,8.125 C79.421875,8.87500375 79.2695328,9.55728859 78.9648438,10.171875 C78.6601547,10.7864614 78.2148467,11.2773419 77.6289062,11.6445312 C77.0429658,12.0117206 76.3671913,12.1953125 75.6015625,12.1953125 C74.8359337,12.1953125 74.1601592,12.0117206 73.5742188,11.6445312 C72.9882783,11.2773419 72.5416682,10.7864614 72.234375,10.171875 C71.9270818,9.55728859 71.7734375,8.87500375 71.7734375,8.125 L71.7734375,8.125 Z M73.0390625,8.125 C73.0390625,8.9583375 73.2682269,9.66536168 73.7265625,10.2460938 C74.1848981,10.8268258 74.8098919,11.1171875 75.6015625,11.1171875 C76.1328152,11.1171875 76.5950501,10.9765639 76.9882812,10.6953125 C77.3815124,10.4140611 77.6744782,10.0507835 77.8671875,9.60546875 C78.0598968,9.16015402 78.15625,8.66666937 78.15625,8.125 C78.15625,7.58853898 78.0598968,7.09896055 77.8671875,6.65625 C77.6744782,6.21353945 77.3815124,5.85156391 76.9882812,5.5703125 C76.5950501,5.28906109 76.1328152,5.1484375 75.6015625,5.1484375 C75.0703098,5.1484375 74.6067728,5.28906109 74.2109375,5.5703125 C73.8151022,5.85156391 73.5208343,6.21484152 73.328125,6.66015625 C73.1354157,7.10547098 73.0390625,7.59374734 73.0390625,8.125 L73.0390625,8.125 Z M80.21875,4.2734375 L81.53125,4.2734375 L84.09375,10.609375 L86.6640625,4.2734375 L87.9609375,4.2734375 L84.75,12 L83.4375,12 L80.21875,4.2734375 Z M88.7890625,9.6328125 C88.7890625,9.21614375 88.8671867,8.83984543 89.0234375,8.50390625 C89.1796883,8.16796707 89.3867175,7.89974059 89.6445312,7.69921875 C89.902345,7.49869691 90.1874984,7.34635469 90.5,7.2421875 C90.8125016,7.13802031 91.1380191,7.0859375 91.4765625,7.0859375 C92.570318,7.0859375 93.4244761,7.4322882 94.0390625,8.125 L94.0390625,6.734375 C94.0390625,6.2343725 93.8567727,5.8398452 93.4921875,5.55078125 C93.1276023,5.2617173 92.658857,5.1171875 92.0859375,5.1171875 C91.1692663,5.1171875 90.3802116,5.47655891 89.71875,6.1953125 L89.15625,5.359375 C89.9739624,4.50520406 91.0052021,4.078125 92.25,4.078125 C92.6770855,4.078125 93.0664045,4.12760367 93.4179688,4.2265625 C93.769533,4.32552133 94.083332,4.47525941 94.359375,4.67578125 C94.635418,4.87630309 94.8515617,5.14843578 95.0078125,5.4921875 C95.1640633,5.83593922 95.2421875,6.23437273 95.2421875,6.6875 L95.2421875,12 L94.0390625,12 L94.0390625,11.1171875 C93.3984343,11.8359411 92.5442762,12.1953125 91.4765625,12.1953125 C91.1484359,12.1953125 90.8268245,12.1393235 90.5117188,12.0273438 C90.196613,11.915364 89.9088555,11.7552094 89.6484375,11.546875 C89.3880195,11.3385406 89.1796883,11.0690121 89.0234375,10.7382812 C88.8671867,10.4075504 88.7890625,10.0390645 88.7890625,9.6328125 L88.7890625,9.6328125 Z M90.0078125,9.6328125 C90.0078125,10.1276066 90.1861961,10.5338526 90.5429688,10.8515625 C90.8997414,11.1692724 91.3619763,11.328125 91.9296875,11.328125 C92.356773,11.328125 92.7591127,11.2460946 93.1367188,11.0820312 C93.5143248,10.9179679 93.815103,10.6796891 94.0390625,10.3671875 L94.0390625,8.8984375 C93.815103,8.59635266 93.5143248,8.36328207 93.1367188,8.19921875 C92.7591127,8.03515543 92.356773,7.953125 91.9296875,7.953125 C91.3671847,7.953125 90.9062518,8.11067551 90.546875,8.42578125 C90.1874982,8.74088699 90.0078125,9.14322672 90.0078125,9.6328125 L90.0078125,9.6328125 Z M101.84375,12 L101.84375,1.328125 L106.132812,1.328125 C107.122401,1.328125 107.929684,1.62109082 108.554688,2.20703125 C109.179691,2.79297168 109.492188,3.5729118 109.492188,4.546875 C109.492188,5.01041898 109.415365,5.43489391 109.261719,5.8203125 C109.108072,6.20573109 108.901043,6.52473832 108.640625,6.77734375 C108.380207,7.02994918 108.084637,7.23046801 107.753906,7.37890625 C107.423175,7.52734449 107.072919,7.61718734 106.703125,7.6484375 L109.585938,12 L108.015625,12 L105.3125,7.7578125 L103.171875,7.7578125 L103.171875,12 L101.84375,12 Z M103.171875,6.59375 L105.96875,6.59375 C106.598961,6.59375 107.114581,6.40364773 107.515625,6.0234375 C107.916669,5.64322727 108.117188,5.15104469 108.117188,4.546875 C108.117188,3.94270531 107.917971,3.45312688 107.519531,3.078125 C107.121092,2.70312313 106.60417,2.515625 105.96875,2.515625 L103.171875,2.515625 L103.171875,6.59375 Z M111.085938,8.125 C111.085938,7.38541297 111.248696,6.70703434 111.574219,6.08984375 C111.899741,5.47265316 112.354164,4.98307473 112.9375,4.62109375 C113.520836,4.25911277 114.174476,4.078125 114.898438,4.078125 C115.658858,4.078125 116.322914,4.26301898 116.890625,4.6328125 C117.458336,5.00260602 117.886717,5.4986948 118.175781,6.12109375 C118.464845,6.7434927 118.609375,7.44530859 118.609375,8.2265625 L118.609375,8.53125 L112.367188,8.53125 C112.414063,9.29167047 112.686195,9.92708078 113.183594,10.4375 C113.680992,10.9479192 114.330725,11.203125 115.132812,11.203125 C115.58594,11.203125 116.022133,11.1171884 116.441406,10.9453125 C116.860679,10.7734366 117.226561,10.5286474 117.539062,10.2109375 L118.109375,10.9921875 C117.291663,11.7942748 116.268235,12.1953125 115.039062,12.1953125 C113.882807,12.1953125 112.9349,11.8177121 112.195312,11.0625 C111.455725,10.3072879 111.085938,9.32813102 111.085938,8.125 L111.085938,8.125 Z M112.351562,7.6328125 L117.421875,7.6328125 C117.416667,7.33593602 117.363282,7.04166813 117.261719,6.75 C117.160156,6.45833187 117.010418,6.18489711 116.8125,5.9296875 C116.614582,5.67447789 116.34896,5.46744871 116.015625,5.30859375 C115.68229,5.14973879 115.30469,5.0703125 114.882812,5.0703125 C114.486977,5.0703125 114.127606,5.14843672 113.804688,5.3046875 C113.481769,5.46093828 113.220053,5.66536332 113.019531,5.91796875 C112.819009,6.17057418 112.661459,6.44400895 112.546875,6.73828125 C112.432291,7.03255355 112.367188,7.33072766 112.351562,7.6328125 L112.351562,7.6328125 Z M120.09375,8.09375 C120.09375,6.86978555 120.411455,5.89453488 121.046875,5.16796875 C121.682295,4.44140262 122.513016,4.078125 123.539062,4.078125 C124.05469,4.078125 124.537758,4.19791547 124.988281,4.4375 C125.438804,4.67708453 125.822915,5.01041453 126.140625,5.4375 L126.140625,4.2734375 L127.34375,4.2734375 L127.34375,11.890625 C127.34375,12.4791696 127.242189,12.9895812 127.039062,13.421875 C126.835936,13.8541688 126.555991,14.191405 126.199219,14.4335938 C125.842446,14.6757825 125.453127,14.852864 125.03125,14.9648438 C124.609373,15.0768235 124.14844,15.1328125 123.648438,15.1328125 C122.971351,15.1328125 122.394534,15.04948 121.917969,14.8828125 C121.441404,14.716145 120.979169,14.4114605 120.53125,13.96875 L121.132812,13.1015625 C121.450522,13.471356 121.808592,13.7369784 122.207031,13.8984375 C122.605471,14.0598966 123.085935,14.140625 123.648438,14.140625 C124.356774,14.140625 124.949216,13.955731 125.425781,13.5859375 C125.902346,13.216144 126.140625,12.6510455 126.140625,11.890625 L126.140625,10.71875 C125.83854,11.1302104 125.459638,11.4622383 125.003906,11.7148438 C124.548175,11.9674492 124.059898,12.09375 123.539062,12.09375 C122.513016,12.09375 121.682295,11.7343786 121.046875,11.015625 C120.411455,10.2968714 120.09375,9.32292281 120.09375,8.09375 L120.09375,8.09375 Z M121.34375,8.09375 C121.34375,8.95833766 121.566404,9.6627577 122.011719,10.2070312 C122.457033,10.7513048 123.0651,11.0234375 123.835938,11.0234375 C124.294273,11.0234375 124.736977,10.902345 125.164062,10.6601562 C125.591148,10.4179675 125.916666,10.1223976 126.140625,9.7734375 L126.140625,6.3828125 C125.916666,6.03906078 125.589846,5.74739703 125.160156,5.5078125 C124.730467,5.26822797 124.289065,5.1484375 123.835938,5.1484375 C123.0651,5.1484375 122.457033,5.4205702 122.011719,5.96484375 C121.566404,6.5091173 121.34375,7.21874563 121.34375,8.09375 L121.34375,8.09375 Z M129.742188,9.7265625 L129.742188,4.2734375 L130.9375,4.2734375 L130.9375,9.359375 C130.9375,10.0052116 131.085936,10.4596341 131.382812,10.7226562 C131.679689,10.9856784 132.111976,11.1171875 132.679688,11.1171875 C133.127606,11.1171875 133.559894,11.0052095 133.976562,10.78125 C134.393231,10.5572905 134.718749,10.2812516 134.953125,9.953125 L134.953125,4.2734375 L136.15625,4.2734375 L136.15625,12 L134.953125,12 L134.953125,10.9140625 C134.630207,11.2786477 134.226565,11.5833321 133.742188,11.828125 C133.25781,12.0729179 132.744794,12.1953125 132.203125,12.1953125 C130.562492,12.1953125 129.742188,11.3724041 129.742188,9.7265625 L129.742188,9.7265625 Z M138.554688,12 L138.554688,1.328125 L139.75,1.328125 L139.75,12 L138.554688,12 Z M141.726562,9.6328125 C141.726562,9.21614375 141.804687,8.83984543 141.960938,8.50390625 C142.117188,8.16796707 142.324217,7.89974059 142.582031,7.69921875 C142.839845,7.49869691 143.124998,7.34635469 143.4375,7.2421875 C143.750002,7.13802031 144.075519,7.0859375 144.414062,7.0859375 C145.507818,7.0859375 146.361976,7.4322882 146.976562,8.125 L146.976562,6.734375 C146.976562,6.2343725 146.794273,5.8398452 146.429688,5.55078125 C146.065102,5.2617173 145.596357,5.1171875 145.023438,5.1171875 C144.106766,5.1171875 143.317712,5.47655891 142.65625,6.1953125 L142.09375,5.359375 C142.911462,4.50520406 143.942702,4.078125 145.1875,4.078125 C145.614585,4.078125 146.003904,4.12760367 146.355469,4.2265625 C146.707033,4.32552133 147.020832,4.47525941 147.296875,4.67578125 C147.572918,4.87630309 147.789062,5.14843578 147.945312,5.4921875 C148.101563,5.83593922 148.179688,6.23437273 148.179688,6.6875 L148.179688,12 L146.976562,12 L146.976562,11.1171875 C146.335934,11.8359411 145.481776,12.1953125 144.414062,12.1953125 C144.085936,12.1953125 143.764324,12.1393235 143.449219,12.0273438 C143.134113,11.915364 142.846355,11.7552094 142.585938,11.546875 C142.32552,11.3385406 142.117188,11.0690121 141.960938,10.7382812 C141.804687,10.4075504 141.726562,10.0390645 141.726562,9.6328125 L141.726562,9.6328125 Z M142.945312,9.6328125 C142.945312,10.1276066 143.123696,10.5338526 143.480469,10.8515625 C143.837241,11.1692724 144.299476,11.328125 144.867188,11.328125 C145.294273,11.328125 145.696613,11.2460946 146.074219,11.0820312 C146.451825,10.9179679 146.752603,10.6796891 146.976562,10.3671875 L146.976562,8.8984375 C146.752603,8.59635266 146.451825,8.36328207 146.074219,8.19921875 C145.696613,8.03515543 145.294273,7.953125 144.867188,7.953125 C144.304685,7.953125 143.843752,8.11067551 143.484375,8.42578125 C143.124998,8.74088699 142.945312,9.14322672 142.945312,9.6328125 L142.945312,9.6328125 Z M150.59375,12 L150.59375,4.2734375 L151.789062,4.2734375 L151.789062,5.5078125 C152.122398,5.08072703 152.510414,4.73828254 152.953125,4.48046875 C153.395836,4.22265496 153.867185,4.09375 154.367188,4.09375 L154.367188,5.328125 C154.179687,5.30729156 154.026042,5.296875 153.90625,5.296875 C153.536456,5.296875 153.135419,5.42317582 152.703125,5.67578125 C152.270831,5.92838668 151.966147,6.21354008 151.789062,6.53125 L151.789062,12 L150.59375,12 Z" id="Proxima-Nova-Regular" sketch:type="MSShapeGroup"></path>
            <path d="M0.1328125,31 L0.1328125,20.328125 L4.84375,20.328125 C5.92188039,20.328125 6.76952816,20.6471322 7.38671875,21.2851562 C8.00390934,21.9231803 8.3125,22.7187452 8.3125,23.671875 C8.3125,24.614588 8.00260727,25.4049447 7.3828125,26.0429688 C6.76301773,26.6809928 5.91667203,27 4.84375,27 L2.0078125,27 L2.0078125,31 L0.1328125,31 Z M2.0078125,25.3515625 L4.5859375,25.3515625 C5.11719016,25.3515625 5.55077957,25.1966161 5.88671875,24.8867188 C6.22265793,24.5768214 6.390625,24.1718775 6.390625,23.671875 C6.390625,23.1614558 6.22265793,22.7513036 5.88671875,22.4414062 C5.55077957,22.1315089 5.11719016,21.9765625 4.5859375,21.9765625 L2.0078125,21.9765625 L2.0078125,25.3515625 Z M9.828125,31 L9.828125,23.2734375 L11.5078125,23.2734375 L11.5078125,24.390625 C11.8203141,24.0052064 12.1992165,23.6901054 12.6445312,23.4453125 C13.089846,23.2005196 13.5494768,23.078125 14.0234375,23.078125 L14.0234375,24.7421875 C13.8828118,24.7109373 13.7109385,24.6953125 13.5078125,24.6953125 C13.1432273,24.6953125 12.7604187,24.7981761 12.359375,25.0039062 C11.9583313,25.2096364 11.67448,25.4531236 11.5078125,25.734375 L11.5078125,31 L9.828125,31 Z M14.9140625,27.125 C14.9140625,26.3802046 15.071613,25.703128 15.3867188,25.09375 C15.7018245,24.484372 16.1640595,23.9960956 16.7734375,23.6289062 C17.3828155,23.2617169 18.0859335,23.078125 18.8828125,23.078125 C19.6796915,23.078125 20.3828095,23.2617169 20.9921875,23.6289062 C21.6015655,23.9960956 22.0638005,24.484372 22.3789062,25.09375 C22.694012,25.703128 22.8515625,26.3802046 22.8515625,27.125 C22.8515625,27.6770861 22.7591155,28.1992163 22.5742188,28.6914062 C22.389322,29.1835962 22.1289079,29.6158836 21.7929688,29.9882812 C21.4570296,30.3606789 21.0377629,30.6549468 20.5351562,30.8710938 C20.0325496,31.0872407 19.4817738,31.1953125 18.8828125,31.1953125 C18.2838512,31.1953125 17.7330754,31.0872407 17.2304688,30.8710938 C16.7278621,30.6549468 16.3085954,30.3606789 15.9726562,29.9882812 C15.6367171,29.6158836 15.376303,29.1835962 15.1914062,28.6914062 C15.0065095,28.1992163 14.9140625,27.6770861 14.9140625,27.125 L14.9140625,27.125 Z M16.65625,27.125 C16.65625,27.8437536 16.8567688,28.4531225 17.2578125,28.953125 C17.6588562,29.4531275 18.2005174,29.703125 18.8828125,29.703125 C19.5703159,29.703125 20.1119772,29.4544296 20.5078125,28.9570312 C20.9036478,28.4596329 21.1015625,27.848962 21.1015625,27.125 C21.1015625,26.4062464 20.9036478,25.8007837 20.5078125,25.3085938 C20.1119772,24.8164038 19.5703159,24.5703125 18.8828125,24.5703125 C18.2005174,24.5703125 17.6588562,24.8177059 17.2578125,25.3125 C16.8567688,25.8072941 16.65625,26.4114548 16.65625,27.125 L16.65625,27.125 Z M23.546875,31 L26.3984375,27.03125 L23.7265625,23.2734375 L25.609375,23.2734375 L27.4375,25.8828125 L29.2734375,23.2734375 L31.1640625,23.2734375 L28.4921875,27.03125 L31.34375,31 L29.453125,31 L27.453125,28.1484375 L25.4375,31 L23.546875,31 Z M32.3125,21.2890625 C32.3125,21.0026027 32.4127594,20.7578135 32.6132812,20.5546875 C32.8138031,20.3515615 33.0598944,20.25 33.3515625,20.25 C33.6432306,20.25 33.8893219,20.3515615 34.0898438,20.5546875 C34.2903656,20.7578135 34.390625,21.0026027 34.390625,21.2890625 C34.390625,21.5755223 34.2903656,21.8203115 34.0898438,22.0234375 C33.8893219,22.2265635 33.6432306,22.328125 33.3515625,22.328125 C33.0598944,22.328125 32.8138031,22.2265635 32.6132812,22.0234375 C32.4127594,21.8203115 32.3125,21.5755223 32.3125,21.2890625 L32.3125,21.2890625 Z M32.5,31 L32.5,23.2734375 L34.1796875,23.2734375 L34.1796875,31 L32.5,31 Z M36.3515625,31 L36.3515625,23.2734375 L38.03125,23.2734375 L38.03125,24.3125 C38.2395844,24.0260402 38.5794247,23.7486993 39.0507812,23.4804688 C39.5221378,23.2122382 40.026039,23.078125 40.5625,23.078125 C41.1197945,23.078125 41.5768211,23.2044258 41.9335938,23.4570312 C42.2903664,23.7096367 42.5364577,24.0520812 42.671875,24.484375 C42.9062512,24.1093731 43.2643205,23.7812514 43.7460938,23.5 C44.227867,23.2187486 44.7447889,23.078125 45.296875,23.078125 C46.0104202,23.078125 46.5598939,23.2734355 46.9453125,23.6640625 C47.3307311,24.0546895 47.5234375,24.638017 47.5234375,25.4140625 L47.5234375,31 L45.84375,31 L45.84375,25.9609375 C45.84375,25.5234353 45.7395844,25.1822929 45.53125,24.9375 C45.3229156,24.6927071 45.0000022,24.5703125 44.5625,24.5703125 C44.2083316,24.5703125 43.8671891,24.6705719 43.5390625,24.8710938 C43.2109359,25.0716156 42.9557301,25.3124986 42.7734375,25.59375 L42.7734375,31 L41.0859375,31 L41.0859375,25.9609375 C41.0859375,25.0338495 40.6666709,24.5703125 39.828125,24.5703125 C39.4791649,24.5703125 39.1419287,24.671874 38.8164062,24.875 C38.4908838,25.078126 38.2291677,25.317707 38.03125,25.59375 L38.03125,31 L36.3515625,31 Z M49.25,28.6328125 C49.25,28.205727 49.3281242,27.8242204 49.484375,27.4882812 C49.6406258,27.1523421 49.8502591,26.8867197 50.1132812,26.6914062 C50.3763034,26.4960928 50.6614568,26.3489588 50.96875,26.25 C51.2760432,26.1510412 51.5937484,26.1015625 51.921875,26.1015625 C53.0104221,26.1015625 53.8463512,26.4322884 54.4296875,27.09375 L54.4296875,25.9453125 C54.4296875,25.502602 54.2630225,25.152345 53.9296875,24.8945312 C53.5963525,24.6367175 53.161461,24.5078125 52.625,24.5078125 C51.7395789,24.5078125 50.9765657,24.8359342 50.3359375,25.4921875 L49.6328125,24.328125 C50.4974002,23.4947875 51.5807227,23.078125 52.8828125,23.078125 C53.2421893,23.078125 53.5768214,23.1080726 53.8867188,23.1679688 C54.1966161,23.2278649 54.489582,23.3281243 54.765625,23.46875 C55.041668,23.6093757 55.2786448,23.7838531 55.4765625,23.9921875 C55.6744802,24.2005219 55.8307286,24.4648421 55.9453125,24.7851562 C56.0598964,25.1054704 56.1171875,25.4661438 56.1171875,25.8671875 L56.1171875,31 L54.4296875,31 L54.4296875,30.1484375 C54.1432277,30.4817725 53.7812522,30.7395824 53.34375,30.921875 C52.9062478,31.1041676 52.4322942,31.1953125 51.921875,31.1953125 C51.6041651,31.1953125 51.2890641,31.1393235 50.9765625,31.0273438 C50.6640609,30.915364 50.3776055,30.7565114 50.1171875,30.5507812 C49.8567695,30.3450511 49.6471362,30.0755225 49.4882812,29.7421875 C49.3294263,29.4088525 49.25,29.0390645 49.25,28.6328125 L49.25,28.6328125 Z M50.9296875,28.6484375 C50.9296875,29.0651062 51.087238,29.4010404 51.4023437,29.65625 C51.7174495,29.9114596 52.1145809,30.0390625 52.59375,30.0390625 C52.9687519,30.0390625 53.3203109,29.9700528 53.6484375,29.8320312 C53.9765641,29.6940097 54.2369782,29.4973971 54.4296875,29.2421875 L54.4296875,28.0546875 C54.2369782,27.7994779 53.9765641,27.6028653 53.6484375,27.4648438 C53.3203109,27.3268222 52.9687519,27.2578125 52.59375,27.2578125 C52.1145809,27.2578125 51.7174495,27.3867175 51.4023437,27.6445312 C51.087238,27.902345 50.9296875,28.2369771 50.9296875,28.6484375 L50.9296875,28.6484375 Z M62.453125,31 L62.453125,20.328125 L64.375,20.328125 L69.8359375,27.71875 L69.8359375,20.328125 L71.703125,20.328125 L71.703125,31 L69.8984375,31 L64.328125,23.3671875 L64.328125,31 L62.453125,31 Z M73.4609375,27.125 C73.4609375,26.3802046 73.618488,25.703128 73.9335938,25.09375 C74.2486995,24.484372 74.7109345,23.9960956 75.3203125,23.6289062 C75.9296905,23.2617169 76.6328085,23.078125 77.4296875,23.078125 C78.2265665,23.078125 78.9296845,23.2617169 79.5390625,23.6289062 C80.1484405,23.9960956 80.6106755,24.484372 80.9257812,25.09375 C81.240887,25.703128 81.3984375,26.3802046 81.3984375,27.125 C81.3984375,27.6770861 81.3059905,28.1992163 81.1210938,28.6914062 C80.936197,29.1835962 80.6757829,29.6158836 80.3398438,29.9882812 C80.0039046,30.3606789 79.5846379,30.6549468 79.0820312,30.8710938 C78.5794246,31.0872407 78.0286488,31.1953125 77.4296875,31.1953125 C76.8307262,31.1953125 76.2799504,31.0872407 75.7773438,30.8710938 C75.2747371,30.6549468 74.8554704,30.3606789 74.5195312,29.9882812 C74.1835921,29.6158836 73.923178,29.1835962 73.7382812,28.6914062 C73.5533845,28.1992163 73.4609375,27.6770861 73.4609375,27.125 L73.4609375,27.125 Z M75.203125,27.125 C75.203125,27.8437536 75.4036438,28.4531225 75.8046875,28.953125 C76.2057312,29.4531275 76.7473924,29.703125 77.4296875,29.703125 C78.1171909,29.703125 78.6588522,29.4544296 79.0546875,28.9570312 C79.4505228,28.4596329 79.6484375,27.848962 79.6484375,27.125 C79.6484375,26.4062464 79.4505228,25.8007837 79.0546875,25.3085938 C78.6588522,24.8164038 78.1171909,24.5703125 77.4296875,24.5703125 C76.7473924,24.5703125 76.2057312,24.8177059 75.8046875,25.3125 C75.4036438,25.8072941 75.203125,26.4114548 75.203125,27.125 L75.203125,27.125 Z M81.984375,23.2734375 L83.7890625,23.2734375 L86.046875,29.0625 L88.3046875,23.2734375 L90.09375,23.2734375 L86.9453125,31 L85.1328125,31 L81.984375,23.2734375 Z M90.703125,28.6328125 C90.703125,28.205727 90.7812492,27.8242204 90.9375,27.4882812 C91.0937508,27.1523421 91.3033841,26.8867197 91.5664062,26.6914062 C91.8294284,26.4960928 92.1145818,26.3489588 92.421875,26.25 C92.7291682,26.1510412 93.0468734,26.1015625 93.375,26.1015625 C94.4635471,26.1015625 95.2994762,26.4322884 95.8828125,27.09375 L95.8828125,25.9453125 C95.8828125,25.502602 95.7161475,25.152345 95.3828125,24.8945312 C95.0494775,24.6367175 94.614586,24.5078125 94.078125,24.5078125 C93.1927039,24.5078125 92.4296907,24.8359342 91.7890625,25.4921875 L91.0859375,24.328125 C91.9505252,23.4947875 93.0338477,23.078125 94.3359375,23.078125 C94.6953143,23.078125 95.0299464,23.1080726 95.3398438,23.1679688 C95.6497411,23.2278649 95.942707,23.3281243 96.21875,23.46875 C96.494793,23.6093757 96.7317698,23.7838531 96.9296875,23.9921875 C97.1276052,24.2005219 97.2838536,24.4648421 97.3984375,24.7851562 C97.5130214,25.1054704 97.5703125,25.4661438 97.5703125,25.8671875 L97.5703125,31 L95.8828125,31 L95.8828125,30.1484375 C95.5963527,30.4817725 95.2343772,30.7395824 94.796875,30.921875 C94.3593728,31.1041676 93.8854192,31.1953125 93.375,31.1953125 C93.0572901,31.1953125 92.7421891,31.1393235 92.4296875,31.0273438 C92.1171859,30.915364 91.8307305,30.7565114 91.5703125,30.5507812 C91.3098945,30.3450511 91.1002612,30.0755225 90.9414062,29.7421875 C90.7825513,29.4088525 90.703125,29.0390645 90.703125,28.6328125 L90.703125,28.6328125 Z M92.3828125,28.6484375 C92.3828125,29.0651062 92.540363,29.4010404 92.8554688,29.65625 C93.1705745,29.9114596 93.5677059,30.0390625 94.046875,30.0390625 C94.4218769,30.0390625 94.7734359,29.9700528 95.1015625,29.8320312 C95.4296891,29.6940097 95.6901032,29.4973971 95.8828125,29.2421875 L95.8828125,28.0546875 C95.6901032,27.7994779 95.4296891,27.6028653 95.1015625,27.4648438 C94.7734359,27.3268222 94.4218769,27.2578125 94.046875,27.2578125 C93.5677059,27.2578125 93.1705745,27.3867175 92.8554688,27.6445312 C92.540363,27.902345 92.3828125,28.2369771 92.3828125,28.6484375 L92.3828125,28.6484375 Z M103.21875,29.4921875 L104.28125,28.0390625 C104.682294,28.4713563 105.171872,28.8281236 105.75,29.109375 C106.328128,29.3906264 106.963538,29.53125 107.65625,29.53125 C108.369795,29.53125 108.902342,29.3867202 109.253906,29.0976562 C109.605471,28.8085923 109.78125,28.4609395 109.78125,28.0546875 C109.78125,27.815103 109.710938,27.6067717 109.570313,27.4296875 C109.429687,27.2526033 109.239585,27.1080735 109,26.9960938 C108.760415,26.884114 108.484377,26.7838546 108.171875,26.6953125 C107.859373,26.6067704 107.531252,26.5195317 107.1875,26.4335938 C106.843748,26.3476558 106.501304,26.2539068 106.160156,26.1523438 C105.819009,26.0507807 105.492189,25.9218758 105.179688,25.765625 C104.867186,25.6093742 104.591147,25.4257823 104.351563,25.2148438 C104.111978,25.0039052 103.921876,24.7343766 103.78125,24.40625 C103.640624,24.0781234 103.570313,23.7057312 103.570313,23.2890625 C103.570313,22.3880163 103.929684,21.6393259 104.648438,21.0429688 C105.367191,20.4466116 106.304682,20.1484375 107.460938,20.1484375 C109.096362,20.1484375 110.424474,20.6510366 111.445313,21.65625 L110.390625,23.046875 C109.979165,22.6354146 109.503909,22.3268239 108.964844,22.1210938 C108.425779,21.9153636 107.86719,21.8125 107.289063,21.8125 C106.747393,21.8125 106.312502,21.9361967 105.984375,22.1835938 C105.656248,22.4309908 105.492188,22.749998 105.492188,23.140625 C105.492188,23.3541677 105.562499,23.5403638 105.703125,23.6992188 C105.843751,23.8580737 106.033853,23.9882807 106.273438,24.0898438 C106.513022,24.1914068 106.789061,24.2864579 107.101563,24.375 C107.414064,24.4635421 107.740884,24.5520829 108.082031,24.640625 C108.423179,24.7291671 108.765623,24.8255203 109.109375,24.9296875 C109.453127,25.0338547 109.781248,25.16927 110.09375,25.3359375 C110.406252,25.502605 110.68229,25.6953114 110.921875,25.9140625 C111.16146,26.1328136 111.351562,26.4101546 111.492188,26.7460938 C111.632813,27.0820329 111.703125,27.4609354 111.703125,27.8828125 C111.703125,28.2421893 111.652344,28.5833317 111.550781,28.90625 C111.449218,29.2291683 111.289064,29.5312486 111.070313,29.8125 C110.851561,30.0937514 110.583335,30.3359365 110.265625,30.5390625 C109.947915,30.7421885 109.558596,30.9023432 109.097656,31.0195312 C108.636716,31.1367193 108.127607,31.1953125 107.570313,31.1953125 C105.76822,31.1953125 104.317714,30.6276098 103.21875,29.4921875 L103.21875,29.4921875 Z M112.898438,27.125 C112.898438,26.385413 113.0638,25.7070343 113.394531,25.0898438 C113.725262,24.4726532 114.192705,23.9830747 114.796875,23.6210938 C115.401045,23.2591128 116.075517,23.078125 116.820313,23.078125 C117.966152,23.078125 118.884111,23.4700482 119.574219,24.2539062 C120.264326,25.0377643 120.609375,26.0442647 120.609375,27.2734375 L120.609375,27.6875 L114.65625,27.6875 C114.723959,28.2916697 114.973956,28.796873 115.40625,29.203125 C115.838544,29.609377 116.403642,29.8125 117.101563,29.8125 C117.497398,29.8125 117.897133,29.7369799 118.300781,29.5859375 C118.704429,29.4348951 119.041665,29.2239597 119.3125,28.953125 L120.078125,30.0546875 C119.687498,30.4192727 119.220055,30.7005198 118.675781,30.8984375 C118.131508,31.0963552 117.554691,31.1953125 116.945313,31.1953125 C115.768223,31.1953125 114.799483,30.8203162 114.039063,30.0703125 C113.278642,29.3203087 112.898438,28.3385477 112.898438,27.125 L112.898438,27.125 Z M114.640625,26.484375 L118.992187,26.484375 C118.981771,26.2447905 118.93099,26.0104178 118.839844,25.78125 C118.748697,25.5520822 118.619793,25.3346364 118.453125,25.1289062 C118.286457,24.9231761 118.061199,24.7591152 117.777344,24.6367188 C117.493488,24.5143223 117.169273,24.453125 116.804687,24.453125 C116.148434,24.453125 115.632814,24.6601542 115.257812,25.0742188 C114.882811,25.4882833 114.677084,25.9583307 114.640625,26.484375 L114.640625,26.484375 Z M122.265625,31 L122.265625,23.2734375 L123.945312,23.2734375 L123.945312,24.3125 C124.153647,24.0260402 124.493487,23.7486993 124.964844,23.4804688 C125.4362,23.2122382 125.940101,23.078125 126.476562,23.078125 C127.033857,23.078125 127.490884,23.2044258 127.847656,23.4570312 C128.204429,23.7096367 128.45052,24.0520812 128.585938,24.484375 C128.820314,24.1093731 129.178383,23.7812514 129.660156,23.5 C130.141929,23.2187486 130.658851,23.078125 131.210938,23.078125 C131.924483,23.078125 132.473956,23.2734355 132.859375,23.6640625 C133.244794,24.0546895 133.4375,24.638017 133.4375,25.4140625 L133.4375,31 L131.757812,31 L131.757812,25.9609375 C131.757812,25.5234353 131.653647,25.1822929 131.445312,24.9375 C131.236978,24.6927071 130.914065,24.5703125 130.476562,24.5703125 C130.122394,24.5703125 129.781252,24.6705719 129.453125,24.8710938 C129.124998,25.0716156 128.869793,25.3124986 128.6875,25.59375 L128.6875,31 L127,31 L127,25.9609375 C127,25.0338495 126.580733,24.5703125 125.742188,24.5703125 C125.393227,24.5703125 125.055991,24.671874 124.730469,24.875 C124.404946,25.078126 124.14323,25.317707 123.945312,25.59375 L123.945312,31 L122.265625,31 Z M135.421875,21.2890625 C135.421875,21.0026027 135.522134,20.7578135 135.722656,20.5546875 C135.923178,20.3515615 136.169269,20.25 136.460938,20.25 C136.752606,20.25 136.998697,20.3515615 137.199219,20.5546875 C137.399741,20.7578135 137.5,21.0026027 137.5,21.2890625 C137.5,21.5755223 137.399741,21.8203115 137.199219,22.0234375 C136.998697,22.2265635 136.752606,22.328125 136.460938,22.328125 C136.169269,22.328125 135.923178,22.2265635 135.722656,22.0234375 C135.522134,21.8203115 135.421875,21.5755223 135.421875,21.2890625 L135.421875,21.2890625 Z M135.609375,31 L135.609375,23.2734375 L137.289062,23.2734375 L137.289062,31 L135.609375,31 Z M139.460938,31 L139.460938,20.328125 L141.140625,20.328125 L141.140625,24.34375 C141.447918,23.9322896 141.817706,23.6184907 142.25,23.4023438 C142.682294,23.1861968 143.140623,23.078125 143.625,23.078125 C144.64063,23.078125 145.467445,23.4453088 146.105469,24.1796875 C146.743493,24.9140662 147.0625,25.8958272 147.0625,27.125 C147.0625,28.3802146 146.743493,29.3723922 146.105469,30.1015625 C145.467445,30.8307328 144.64063,31.1953125 143.625,31.1953125 C143.135414,31.1953125 142.674481,31.0846365 142.242188,30.8632812 C141.809894,30.641926 141.44271,30.3359395 141.140625,29.9453125 L141.140625,31 L139.460938,31 Z M141.140625,28.6796875 C141.333334,28.9713556 141.617186,29.2148428 141.992188,29.4101562 C142.367189,29.6054697 142.749998,29.703125 143.140625,29.703125 C143.796878,29.703125 144.324217,29.4635441 144.722656,28.984375 C145.121096,28.5052059 145.320312,27.8854205 145.320312,27.125 C145.320312,26.3749963 145.121096,25.7617211 144.722656,25.2851562 C144.324217,24.8085914 143.796878,24.5703125 143.140625,24.5703125 C142.749998,24.5703125 142.368491,24.6692698 141.996094,24.8671875 C141.623696,25.0651052 141.338543,25.3124985 141.140625,25.609375 L141.140625,28.6796875 Z M148.289062,27.125 C148.289062,26.3802046 148.446613,25.703128 148.761719,25.09375 C149.076824,24.484372 149.539059,23.9960956 150.148438,23.6289062 C150.757816,23.2617169 151.460934,23.078125 152.257812,23.078125 C153.054691,23.078125 153.757809,23.2617169 154.367188,23.6289062 C154.976566,23.9960956 155.438801,24.484372 155.753906,25.09375 C156.069012,25.703128 156.226562,26.3802046 156.226562,27.125 C156.226562,27.6770861 156.134116,28.1992163 155.949219,28.6914062 C155.764322,29.1835962 155.503908,29.6158836 155.167969,29.9882812 C154.83203,30.3606789 154.412763,30.6549468 153.910156,30.8710938 C153.40755,31.0872407 152.856774,31.1953125 152.257812,31.1953125 C151.658851,31.1953125 151.108075,31.0872407 150.605469,30.8710938 C150.102862,30.6549468 149.683595,30.3606789 149.347656,29.9882812 C149.011717,29.6158836 148.751303,29.1835962 148.566406,28.6914062 C148.381509,28.1992163 148.289062,27.6770861 148.289062,27.125 L148.289062,27.125 Z M150.03125,27.125 C150.03125,27.8437536 150.231769,28.4531225 150.632812,28.953125 C151.033856,29.4531275 151.575517,29.703125 152.257812,29.703125 C152.945316,29.703125 153.486977,29.4544296 153.882812,28.9570312 C154.278648,28.4596329 154.476562,27.848962 154.476562,27.125 C154.476562,26.4062464 154.278648,25.8007837 153.882812,25.3085938 C153.486977,24.8164038 152.945316,24.5703125 152.257812,24.5703125 C151.575517,24.5703125 151.033856,24.8177059 150.632812,25.3125 C150.231769,25.8072941 150.03125,26.4114548 150.03125,27.125 L150.03125,27.125 Z M157.929688,31 L157.929688,20.328125 L159.609375,20.328125 L159.609375,31 L157.929688,31 Z M161.320312,27.125 C161.320312,25.8958272 161.63932,24.9140662 162.277344,24.1796875 C162.915368,23.4453088 163.736974,23.078125 164.742188,23.078125 C165.236982,23.078125 165.699217,23.1861968 166.128906,23.4023438 C166.558596,23.6184907 166.924478,23.9322896 167.226562,24.34375 L167.226562,20.328125 L168.90625,20.328125 L168.90625,31 L167.226562,31 L167.226562,29.9453125 C166.924478,30.3359395 166.558596,30.641926 166.128906,30.8632812 C165.699217,31.0846365 165.236982,31.1953125 164.742188,31.1953125 C163.736974,31.1953125 162.915368,30.8307328 162.277344,30.1015625 C161.63932,29.3723922 161.320312,28.3802146 161.320312,27.125 L161.320312,27.125 Z M163.046875,27.125 C163.046875,27.8854205 163.246092,28.5052059 163.644531,28.984375 C164.042971,29.4635441 164.575517,29.703125 165.242188,29.703125 C165.627606,29.703125 166.007811,29.6028656 166.382812,29.4023438 C166.757814,29.2018219 167.039062,28.9557306 167.226562,28.6640625 L167.226562,25.609375 C167.039062,25.3177069 166.757814,25.0716156 166.382812,24.8710938 C166.007811,24.6705719 165.627606,24.5703125 165.242188,24.5703125 C164.580726,24.5703125 164.049481,24.8085914 163.648438,25.2851562 C163.247394,25.7617211 163.046875,26.3749963 163.046875,27.125 L163.046875,27.125 Z" id="Proxima-Nova-Semibol" sketch:type="MSShapeGroup"></path>
        </g>
    </g>
</svg>