<svg id="Layer_1" data-name="Layer 1" xmlns="http://www.w3.org/2000/svg" viewBox="0 0 112.85 112.85"><defs><style>.cls-1{fill:#dedddd;}</style></defs><title>apparel</title><path class="cls-1" d="M5.2,77.43c0.78,0.84-.35-1.3.36-3.13a6.51,6.51,0,0,1,5.75-3.89c4-.05,5.81,3.86,8.52,3.64C27.14,73.43,35.88,73.81,36,82,36.13,94,28,95,22.69,94.33c-1.43-.18-1.83.25-1.56,0.37C26.85,97.17,36.26,98,43,96.59c8.94-1.83,15.13-3.6,16.14-7.67,0.79-3.16-.24-7.4-0.2-9.56,0.06-3.82,0-5.39,0-10.74A54,54,0,0,1,61.92,49.5c0.38-1.27,1.44-2.64,1.52-3.92,0.11-1.91-.09-3.2-2.25-3-4.4.33-9.62,4.07-17.81,1.83C30.48,40.85,36.81,34.5,30,33.8c-2.65-.27-4.76,5.28-10,6.86a23.32,23.32,0,0,1-9,1C4.87,41.31,5.1,36.75,4.44,38c-0.46.9-.27,3.07,0.13,5.4a1.88,1.88,0,0,0,.91,1.31,17.22,17.22,0,0,0,2,1c5.19,2.18,8.17-.63,8.53.69,0.31,1.12-.28,1.93-1.48,2.37a0.41,0.41,0,0,0-.16.67,5.43,5.43,0,0,1,1.15,3.16c0.33,2.47.26,8.5-7.17,7.51A13.2,13.2,0,0,1,4.14,59a0.59,0.59,0,0,0-.8.24,14.47,14.47,0,0,0-1.43,4.33,0.13,0.13,0,0,0,.18.14,1.79,1.79,0,0,1,2,.47,1.37,1.37,0,0,0,.4.53A1,1,0,0,0,5,64.27c1.09-.59,1.68-0.77,2.75.11s0.93,2-.24,2.09c-0.47,0-.47,0-0.58-0.73a0.81,0.81,0,0,0-1.35-.48C4.81,65.71,5,66.68,4,66.47c-0.69-.15-0.68-0.29-0.78-1A0.81,0.81,0,0,0,1.9,65a0.54,0.54,0,0,0-.22.18,4.49,4.49,0,0,0-.13,1.65A17.19,17.19,0,0,0,5.2,77.43ZM40,69.68c1.09-.59,1.68-0.77,2.75.11a0.88,0.88,0,0,0,.38.38,0.78,0.78,0,0,0,.5-0.26c1.09-.59,1.68-0.77,2.75.11s0.93,2-.24,2.09c-0.47,0-.47,0-0.58-0.73a0.81,0.81,0,0,0-1.35-.48c-0.73.45-.55,1.42-1.51,1.21C42,72,42,71.81,41.92,71.15a0.81,0.81,0,0,0-1.35-.48c-0.73.45-.33,1.15-1.28,0.93S39.09,70.16,40,69.68ZM34.16,55.06c0.45-1.85.93-3.11,2.42-3.87a0.55,0.55,0,0,0,.1-0.94c-1.15-.82-1.54-1.85-0.87-2.92s2.74,2.48,8.35,1.9c3.94-.41,6.32-2.1,7-1.73,0.57,0.29.25,1.49-.17,2.26-0.62,1.12-.9,1.68-2.17,2a0.58,0.58,0,0,0-.32.94,7.54,7.54,0,0,1,1.52,3.88c0.41,3.2-1.06,7.24-8.88,7.5C32.92,64.33,33.52,57.72,34.16,55.06ZM15.67,61.48c0.32-1.72.68-2.49,3.1-2.6s5.4,2.81,3.44,3.11c-1.17.18-1.15-.11-2.34-0.81s-2.05,0-2.14.8c-0.13,1.21,2.33,2.75,1,3.46S15.41,62.91,15.67,61.48Z" transform="translate(1.54 1.62)"/><path class="cls-1" d="M55.48-1.13c-0.57-.88-6.77-0.39-8.93,0-4.06.7-4.16,1.34-7.39,2.91A36.53,36.53,0,0,0,28.4,9.05c-2.42,2.33-1.49.71,0,3.61a20.46,20.46,0,0,1,1.66,4.4c0.23,1.17.22,1.47,0.71,1.73a1,1,0,0,0,1.29-.42A11.49,11.49,0,0,0,33,16.23s0.87-2,1.06-2.45c1.08-2.29,4.41-4.9,8.89-8.25A30.94,30.94,0,0,1,53.58-.09C55.37-.68,55.78-0.66,55.48-1.13Z" transform="translate(1.54 1.62)"/><path class="cls-1" d="M64.2,37.87a5.47,5.47,0,0,1,1.51.38,4.77,4.77,0,0,1,1.93,1.39A8.06,8.06,0,0,1,69.14,43c0.31,2.21-1.7,6.85-3.31,16.5-1.24,7.45-.77,12.7-0.69,16.93,0.13,6.59,0,29.51,11.46,32.28a11.57,11.57,0,0,0,3.93-.11c1.35-.23,3.81-1.2,6.49-1.85,1.76-.43,5.06-0.92,5.09-0.92a0.89,0.89,0,0,1,.66.61c0.86,1.64-4.4,3.28-10.35,4.37a22.55,22.55,0,0,1-6.55.31c-11.65-2.17-12.41-18.65-13.45-34.34-0.28-4.26-.94-9.64.48-17.09C64.76,50,67.27,45.1,66.44,42.81a6.16,6.16,0,0,0-1.28-2c-0.62-.81-1.77-1-1.72-1.79a1.67,1.67,0,0,1,.4-0.89,0.35,0.35,0,0,1,.38-0.25" transform="translate(1.54 1.62)"/><path class="cls-1" d="M36.13,35.12c2.47,6.05,14.8,7.31,19.73,3,7.05-6.23,6.59-15.42,6.55-16.26-0.1-1.85-.78-10.89-11.8-12.08-11.3-1.22-13.8,4.38-15.48,7.82C34,19.89,31.48,23.73,36.13,35.12Zm1.43-15.46c1.28-2.24,3.18-8.68,12.14-7,4.38,0.8,10.16,3,10.11,11.26a19.22,19.22,0,0,1-6.14,12.23c-3.79,3.33-13.37,2.33-15.28-2.3C34.8,25.1,37.17,20.35,37.56,19.65Z" transform="translate(1.54 1.62)"/><path class="cls-1" d="M80.66,6.34A35,35,0,0,0,64-.09,9.56,9.56,0,0,0,61.29.5,30.88,30.88,0,0,0,51.66,5c-0.93.73-1.73,1-1.57,1.35,0.27,0.55.38-.57,3.71-0.21a16.56,16.56,0,0,1,8.4,3.49,1.31,1.31,0,0,0,1,.32,4.93,4.93,0,0,0,1.75-.57,30.78,30.78,0,0,1,15.22-2C80.88,7.49,81.53,6.77,80.66,6.34Z" transform="translate(1.54 1.62)"/><path class="cls-1" d="M57,40.24c-0.44.42-.15,0.78,0.4,0.53,1.64-.76,4.35-2.44,5.4-4a30,30,0,0,0,3.49-7.19A24.91,24.91,0,0,0,67,21.12a18.88,18.88,0,0,0-3.23-8c-1.09-1.27-1.09-1-1-.36,0.07,0.39,2.25,4.28,2.69,8.3a26.55,26.55,0,0,1-.74,8.15,24.77,24.77,0,0,1-3.16,6.9C60.75,37.41,58.39,39,57,40.24Z" transform="translate(1.54 1.62)"/><path class="cls-1" d="M5.4,34.12c3.47,5,11.83,4.17,15.39-.74,5.1-7,2.78-15.21,2.6-16-0.56-2.32-1.63-7.9-12.45-7.43-4.45.19-6,2.82-7.8,6.1C2.68,16.92-1.13,24.76,5.4,34.12Zm1-17.81a7.41,7.41,0,0,1,5.51-3.58c4.08-.53,7.65,2.38,9.19,7.14A16.21,16.21,0,0,1,18.41,32c-2.74,3.75-9,4.62-11.71.81C1.69,25.7,5.56,17.51,6.42,16.31Z" transform="translate(1.54 1.62)"/><path class="cls-1" d="M28,2.11c-1.94.6-2,.68-5.26,1.84-2,.71-3.45,2.38-4.26,2.91a0.18,0.18,0,0,0,.06.32c1,0.41.86,0.17,2.06,0.59l1.5,0.55a0.38,0.38,0,0,0,.43,0,31,31,0,0,1,4.37-3c1.85-1.14,6.7-3.93,6.7-3.93C33.91,0.83,29.77,1.55,28,2.11Z" transform="translate(1.54 1.62)"/><path class="cls-1" d="M21,36.29c-0.37.48,0,.79,0.48,0.46,1.5-1,3.93-3.06,4.72-4.78a26.3,26.3,0,0,0,2-7,28.55,28.55,0,0,0,.16-4.52,15,15,0,0,0-.48-3C27,13.57,24.17,11,23.65,11.11S25.89,14.7,26,17.87A38,38,0,0,1,26.3,24,22.14,22.14,0,0,1,24.5,31,31.91,31.91,0,0,1,21,36.29Z" transform="translate(1.54 1.62)"/><path class="cls-1" d="M30.33,26.67a3.26,3.26,0,0,0-.77,2.05c-0.11.9-.65,1.78-0.36,2.06a4.13,4.13,0,0,0,1.68.27c0.59,0.11,1.1.52,1.42,0.29,0.5-.36,0-0.12-0.34-2.34a7.32,7.32,0,0,0-.17-2A1,1,0,0,0,30.33,26.67Z" transform="translate(1.54 1.62)"/><path class="cls-1" d="M83.77,85.25c0.06,0.95.75,2,1.54,2a2.18,2.18,0,0,0,1.84-2,1.88,1.88,0,0,0-1.8-1.66A1.63,1.63,0,0,0,83.77,85.25Z" transform="translate(1.54 1.62)"/><path class="cls-1" d="M83.53,92.52c-0.16.9,0.25,2.08,1,2.26a2,2,0,0,0,2.21-1.35,1.91,1.91,0,0,0-1.33-2A1.53,1.53,0,0,0,83.53,92.52Z" transform="translate(1.54 1.62)"/><path class="cls-1" d="M18.32,89.85A10.5,10.5,0,0,0,12,78.93c-3.61-1.54-5,0-4.89-.68,0.28-2.76,2.35-3.56,4.46-3.37s2.94,3.4,6,3.7c3.8,0.37,8.09-1.09,11.22-.27,2.77,0.72,4.27,5.95,1.4,9.77-1.56,2.08-6.67,3.35-11.49,3.33a0.58,0.58,0,0,1-.56-0.71Q18.27,90.28,18.32,89.85Z" transform="translate(1.54 1.62)"/><path class="cls-1" d="M-1.47,88.07C-1,83,2.11,79.72,7.26,80.22c0.63,0.06,1.85.54,1.29,0.79a2.57,2.57,0,0,0-1.41,1.47c-0.19.41-.13,1-0.44,0.93C4,83.12,2.46,84.94,1.68,88c-0.84,3.27-.18,5,3,6.32s5.94-.22,7.22-3.35a4.55,4.55,0,0,0,.26-2.55,7.85,7.85,0,0,1-.3-1.18,3.38,3.38,0,0,1,2.08-2.1,0.64,0.64,0,0,1,.82.15,9,9,0,0,1,1,4.2c0,4.17-3,8.44-7.24,8.77C0.77,98.84-2,93.52-1.47,88.07Z" transform="translate(1.54 1.62)"/><path class="cls-1" d="M8.72,83.8c0,0.41-.1.44,0.49,0.81s0.66,0.76,1,.87c0.68,0.22.79-.71,1.11-1.19,0.7-1.05,1.86-.65,1.73-1.09a2.73,2.73,0,0,0-2-1.72C9.93,81.15,8.73,82.64,8.72,83.8Z" transform="translate(1.54 1.62)"/><path class="cls-1" d="M67.57,35c2.15,1.66,3.74,3.17,4.62,5.71,1.36,4-1.61,6.91-3.11,16.42a118.44,118.44,0,0,0-1,16.83c-0.15,7.54,0,37.13,15.9,30.79,2.76-1.1,9.43-.76,11.27-4.62,4.38-9.18,1.48-12.37,3.11-19.94,1.73-8,8.78-12.69,10.11-17.74,2.56-9.72,0-14.43-.67-16.14-1.27-3.14-11.82-5.2-19.64-7.5-3.95-1.16-7.48-2.22-11.2-3.56-4.08-1.47-4.57-2.36-6.72-3.21-1.28-.51-2.43-1.5-3.21.54C66.46,34,66.86,34.43,67.57,35ZM97.4,63.45c-1.77,2-5.34,3.05-7.34,3.05-4,0-7.24-3.85-7.24-9.67s3.24-10.54,7.24-10.54a9.37,9.37,0,0,1,9.06,9.3C99.13,58.5,99.17,61.45,97.4,63.45ZM83.08,88.88a6.52,6.52,0,0,1-1.77-3.18A4.15,4.15,0,0,1,84.52,81a4.51,4.51,0,0,1,5,3.32c0.38,1.74-.84,3.83-2.28,4.94a4.25,4.25,0,0,1,1.88,2.61c0.5,2.31-1.81,5.25-3.72,5.65s-4-1.91-4.49-4.22A4.07,4.07,0,0,1,83.08,88.88Z" transform="translate(1.54 1.62)"/><path class="cls-1" d="M87.12,56.61c0,3.59.88,4.16,2.87,4.69a3.89,3.89,0,0,0,5-4c0-4.8-1.9-4.88-3.76-5.69C89,50.61,87.12,53,87.12,56.61Z" transform="translate(1.54 1.62)"/><path class="cls-1" d="M41.73,16.67a1.26,1.26,0,0,1,.14-0.75,4.16,4.16,0,0,1,2.28-1.62,8.68,8.68,0,0,1,2.37-.22,0.58,0.58,0,0,1,.61.51l2.79,21.24a0.57,0.57,0,0,1-.41.62,5.28,5.28,0,0,1-2.29.43c-2.88-.34-2.57-0.72-2.62-1.14C44.19,32.68,41.73,16.67,41.73,16.67Z" transform="translate(1.54 1.62)"/><path class="cls-1" d="M13.69,16.1c0-.25.57-2.23-2.45-1.46-1.72.44-2.34,1.23-2.54,2.09,0,0-.82,12.31-0.42,14.67a3,3,0,0,0,2,2.17c1.33,0.62,3.09.33,3.09-.09C13.37,30.4,13.69,16.1,13.69,16.1Z" transform="translate(1.54 1.62)"/><path class="cls-1" d="M42.45,53.19c-3.08,0-3.54.86-3.94,2.53-0.34,1.4-.66,4.88,3.7,4.73,4.12-.14,3.86-2.73,3.61-4.41C45.52,54.08,45,53.18,42.45,53.19Z" transform="translate(1.54 1.62)"/><path class="cls-1" d="M6,54.45c0.06-2.95,1-3.35,2.54-3.67,1.32-.26,4.56-0.42,4.22,3.73-0.33,3.93-2.72,3.58-4.27,3.27C6.68,57.42,6,56.47,6,54.45Z" transform="translate(1.54 1.62)"/><path class="cls-1" d="M111.3,41.08c-0.11,1.53-.39,3.34-1.11,3.29-0.33,0-.53-0.53-1.38-1.91S107,41.14,107,40.62c0-.69.46-0.11,1.81-1.09,1-.73,1.14-1.8,1.54-1.77S111.41,39.54,111.3,41.08Z" transform="translate(1.54 1.62)"/><path class="cls-1" d="M93.35,19.64a1.18,1.18,0,0,0-1.16.41,1.29,1.29,0,0,0,.11,1.78,1.21,1.21,0,0,0,.54.28,1.22,1.22,0,0,0,1.22-.43,1.25,1.25,0,0,0,.25-0.93,1.31,1.31,0,0,0-.45-0.85A1.18,1.18,0,0,0,93.35,19.64Z" transform="translate(1.54 1.62)"/><path class="cls-1" d="M108.33,33.23C105.68,25,99.7,13.86,87.75,11.44c-11.13-2.25-16-1-20.17,1.49-1.3.79,0.08,1.76,1,4.68,0.87,2.64.09,4.88,3,6.18,2.35,1.06,4.85,2.78,7.68,3.9,11.65,4.59,25.64,8.48,25.64,8.48A2.46,2.46,0,0,0,108.33,33.23ZM91,17.14a0.69,0.69,0,0,1,.85-0.56,0.84,0.84,0,0,1,.51,1,0.7,0.7,0,0,1-.87.58A0.82,0.82,0,0,1,91,17.14Zm4.3,5.49a2.67,2.67,0,0,1-2,1l-0.12.56L94,24.38Q94,25.17,94.1,26c-0.95-.18-1.89-0.37-2.81-0.58a0.67,0.67,0,0,0-.79.43,0.56,0.56,0,0,0,.46.71c1.06,0.23,2.14.44,3.23,0.65l0.13,1.58L90.51,28a2,2,0,0,1-1.61-2.57,2.4,2.4,0,0,1,2.7-1.55l0.15-.57A2.65,2.65,0,0,1,91.27,23,2.83,2.83,0,0,1,91.15,19a2.52,2.52,0,0,1,3.58-.34,3,3,0,0,1,1,1.85A2.7,2.7,0,0,1,95.28,22.63Z" transform="translate(1.54 1.62)"/></svg>